<svg xmlns="http://www.w3.org/2000/svg" xmlns:xlink="http://www.w3.org/1999/xlink" viewBox="0 0 1166.71 765.98"><defs><linearGradient id="linear-gradient" x1="334.13" y1="164.16" x2="550.58" y2="164.16" gradientTransform="rotate(69.83 442.364 164.174)" gradientUnits="userSpaceOnUse"><stop offset="0" stop-color="#1e3cf5"/><stop offset=".1" stop-color="#2345f5" stop-opacity=".95"/><stop offset=".29" stop-color="#315ef6" stop-opacity=".8"/><stop offset=".55" stop-color="#4786f7" stop-opacity=".57"/><stop offset=".86" stop-color="#66bdf9" stop-opacity=".25"/><stop offset="1" stop-color="#75d8fb" stop-opacity=".1"/></linearGradient><linearGradient id="linear-gradient-2" x1="332.63" y1="164.16" x2="552.08" y2="164.16" gradientTransform="rotate(69.83 442.364 164.174)" gradientUnits="userSpaceOnUse"><stop offset="0" stop-color="#cf3a8c" stop-opacity=".7"/><stop offset=".21" stop-color="#ca398e" stop-opacity=".69"/><stop offset=".38" stop-color="#bc3896" stop-opacity=".64"/><stop offset=".53" stop-color="#a537a3" stop-opacity=".56"/><stop offset=".67" stop-color="#8335b5" stop-opacity=".45"/><stop offset=".8" stop-color="#5833cd" stop-opacity=".3"/><stop offset=".92" stop-color="#2530ea" stop-opacity=".13"/><stop offset="1" stop-color="#002eff" stop-opacity="0"/></linearGradient><linearGradient id="linear-gradient-3" x1="334.13" y1="131.87" x2="550.58" y2="131.87" gradientTransform="rotate(69.83 442.367 131.882)" gradientUnits="userSpaceOnUse"><stop offset="0" stop-color="#75d8fb" stop-opacity=".1"/><stop offset=".14" stop-color="#66bdf9" stop-opacity=".25"/><stop offset=".45" stop-color="#4786f7" stop-opacity=".57"/><stop offset=".71" stop-color="#315ef6" stop-opacity=".8"/><stop offset=".9" stop-color="#2345f5" stop-opacity=".95"/><stop offset="1" stop-color="#1e3cf5"/></linearGradient><linearGradient id="linear-gradient-4" x1="332.63" y1="131.87" x2="552.08" y2="131.87" gradientTransform="rotate(69.83 442.367 131.882)" gradientUnits="userSpaceOnUse"><stop offset="0" stop-color="#cf3a8c"/><stop offset=".18" stop-color="#cb398d" stop-opacity=".99"/><stop offset=".33" stop-color="#c23993" stop-opacity=".94"/><stop offset=".46" stop-color="#b1389c" stop-opacity=".86"/><stop offset=".58" stop-color="#9a36a9" stop-opacity=".75"/><stop offset=".69" stop-color="#7c35b9" stop-opacity=".6"/><stop offset=".8" stop-color="#5733ce" stop-opacity=".42"/><stop offset=".91" stop-color="#2c30e6" stop-opacity=".21"/><stop offset="1" stop-color="#002eff" stop-opacity="0"/></linearGradient><linearGradient id="linear-gradient-5" x1="1055.65" y1="-1530.15" x2="1805.03" y2="-1530.15" gradientTransform="rotate(18.29 -4953.167 -2896.813)" gradientUnits="userSpaceOnUse"><stop offset="0" stop-color="#002eff" stop-opacity=".1"/><stop offset="1" stop-color="#002eff"/></linearGradient><linearGradient id="linear-gradient-6" x1="1055.65" y1="-1601.29" x2="1802.82" y2="-1601.29" gradientTransform="rotate(90 95.985 -997.085)" xlink:href="#linear-gradient-3"/><linearGradient id="linear-gradient-7" x1="-12284.26" y1="-1425.49" x2="-11534.09" y2="-1425.49" gradientTransform="scale(-1 1) rotate(-18.29 -285.834 -35447.49)" gradientUnits="userSpaceOnUse"><stop offset="0" stop-color="#002eff" stop-opacity="0"/><stop offset=".09" stop-color="#2c30e6" stop-opacity=".21"/><stop offset=".2" stop-color="#5733ce" stop-opacity=".42"/><stop offset=".31" stop-color="#7c35b9" stop-opacity=".6"/><stop offset=".42" stop-color="#9a36a9" stop-opacity=".75"/><stop offset=".54" stop-color="#b1389c" stop-opacity=".86"/><stop offset=".67" stop-color="#c23993" stop-opacity=".94"/><stop offset=".82" stop-color="#cb398d" stop-opacity=".99"/><stop offset="1" stop-color="#cf3a8c"/></linearGradient><linearGradient id="linear-gradient-8" x1="1130.37" y1="-1601.29" x2="1728.1" y2="-1601.29" gradientTransform="rotate(90 95.985 -997.085)" gradientUnits="userSpaceOnUse"><stop offset="0" stop-color="#cf3a8c" stop-opacity="0"/><stop offset=".05" stop-color="#cf3a8c" stop-opacity=".11"/><stop offset=".18" stop-color="#cf3a8c" stop-opacity=".34"/><stop offset=".31" stop-color="#cf3a8c" stop-opacity=".54"/><stop offset=".44" stop-color="#cf3a8c" stop-opacity=".71"/><stop offset=".57" stop-color="#cf3a8c" stop-opacity=".84"/><stop offset=".71" stop-color="#cf3a8c" stop-opacity=".93"/><stop offset=".85" stop-color="#cf3a8c" stop-opacity=".98"/><stop offset="1" stop-color="#cf3a8c"/></linearGradient><linearGradient id="linear-gradient-9" x1="-302.01" y1="1713.33" x2="-302.5" y2="1542.32" gradientTransform="rotate(-14.2 -5297.917 -2943.311)" gradientUnits="userSpaceOnUse"><stop offset="0" stop-color="#22e1ff"/><stop offset="1" stop-color="#002eff"/></linearGradient><linearGradient id="linear-gradient-10" x1="1128.37" y1="-1601.29" x2="1730.1" y2="-1601.29" gradientTransform="rotate(90 95.985 -997.085)" gradientUnits="userSpaceOnUse"><stop offset="0" stop-color="#002eff" stop-opacity="0"/><stop offset=".07" stop-color="#002eff" stop-opacity=".16"/><stop offset=".16" stop-color="#002eff" stop-opacity=".36"/><stop offset=".26" stop-color="#002eff" stop-opacity=".53"/><stop offset=".36" stop-color="#002eff" stop-opacity=".68"/><stop offset=".47" stop-color="#002eff" stop-opacity=".79"/><stop offset=".58" stop-color="#002eff" stop-opacity=".88"/><stop offset=".7" stop-color="#002eff" stop-opacity=".95"/><stop offset=".83" stop-color="#002eff" stop-opacity=".99"/><stop offset="1" stop-color="#002eff"/></linearGradient><linearGradient id="linear-gradient-11" x1="1054.15" y1="-1601.29" x2="1804.32" y2="-1601.29" gradientTransform="rotate(18.29 -4953.167 -2896.813)" xlink:href="#linear-gradient-4"/><linearGradient id="linear-gradient-12" x1="303.98" y1="195.61" x2="520.43" y2="195.61" gradientTransform="rotate(69.83 412.213 195.628)" xlink:href="#linear-gradient"/><linearGradient id="linear-gradient-13" x1="302.48" y1="195.61" x2="521.93" y2="195.61" gradientTransform="rotate(69.83 412.213 195.628)" xlink:href="#linear-gradient-2"/><linearGradient id="linear-gradient-14" x1="303.98" y1="163.32" x2="520.43" y2="163.32" gradientTransform="rotate(69.83 412.216 163.336)" xlink:href="#linear-gradient-3"/><linearGradient id="linear-gradient-15" x1="302.48" y1="163.32" x2="521.93" y2="163.32" gradientTransform="rotate(69.83 412.216 163.336)" xlink:href="#linear-gradient-4"/><linearGradient id="linear-gradient-16" x1="1036.9" y1="-1490.82" x2="1786.27" y2="-1490.82" xlink:href="#linear-gradient-5"/><linearGradient id="linear-gradient-17" x1="1036.9" y1="-1561.97" x2="1784.06" y2="-1561.97" gradientTransform="rotate(90 75.47 -967.39)" xlink:href="#linear-gradient-3"/><linearGradient id="linear-gradient-18" x1="-12265.5" y1="-1386.17" x2="-11515.34" y2="-1386.17" xlink:href="#linear-gradient-7"/><linearGradient id="linear-gradient-19" x1="1111.61" y1="-1561.97" x2="1709.35" y2="-1561.97" gradientTransform="rotate(90 75.47 -967.39)" xlink:href="#linear-gradient-8"/><linearGradient id="linear-gradient-20" x1="-338.96" y1="1736.43" x2="-339.45" y2="1565.41" xlink:href="#linear-gradient-9"/><linearGradient id="linear-gradient-21" x1="1109.61" y1="-1561.97" x2="1711.35" y2="-1561.97" gradientTransform="rotate(90 75.47 -967.39)" xlink:href="#linear-gradient-10"/><linearGradient id="linear-gradient-22" x1="1035.4" y1="-1561.97" x2="1785.56" y2="-1561.97" gradientTransform="rotate(18.29 -4953.167 -2896.813)" xlink:href="#linear-gradient-4"/><linearGradient id="linear-gradient-23" x1="427.95" y1="195.74" x2="644.4" y2="195.74" gradientTransform="rotate(69.83 536.196 195.764)" xlink:href="#linear-gradient"/><linearGradient id="linear-gradient-24" x1="426.45" y1="195.74" x2="645.9" y2="195.74" gradientTransform="rotate(69.83 536.196 195.764)" xlink:href="#linear-gradient-2"/><linearGradient id="linear-gradient-25" x1="427.95" y1="163.46" x2="644.4" y2="163.46" gradientTransform="rotate(69.83 536.191 163.476)" xlink:href="#linear-gradient-3"/><linearGradient id="linear-gradient-26" x1="426.45" y1="163.46" x2="645.9" y2="163.46" gradientTransform="rotate(69.83 536.191 163.476)" xlink:href="#linear-gradient-4"/><linearGradient id="linear-gradient-27" x1="1154.65" y1="-1529.6" x2="1904.03" y2="-1529.6" xlink:href="#linear-gradient-5"/><linearGradient id="linear-gradient-28" x1="1154.65" y1="-1600.74" x2="1901.82" y2="-1600.74" gradientTransform="rotate(90 176.88 -983.6)" xlink:href="#linear-gradient-3"/><linearGradient id="linear-gradient-29" x1="-12383.26" y1="-1424.94" x2="-11633.09" y2="-1424.94" xlink:href="#linear-gradient-7"/><linearGradient id="linear-gradient-30" x1="1229.37" y1="-1600.74" x2="1827.1" y2="-1600.74" gradientTransform="rotate(90 176.88 -983.6)" xlink:href="#linear-gradient-8"/><linearGradient id="linear-gradient-31" x1="-218.81" y1="1766.98" x2="-219.3" y2="1595.96" xlink:href="#linear-gradient-9"/><linearGradient id="linear-gradient-32" x1="1227.37" y1="-1600.74" x2="1829.1" y2="-1600.74" gradientTransform="rotate(90 176.88 -983.6)" xlink:href="#linear-gradient-10"/><linearGradient id="linear-gradient-33" x1="1153.15" y1="-1600.74" x2="1903.32" y2="-1600.74" gradientTransform="rotate(18.29 -4953.167 -2896.813)" xlink:href="#linear-gradient-4"/><radialGradient id="radial-gradient" cx="4476.86" cy="-7836.43" fx="4476.86" fy="-7836.43" r="1590.8" gradientTransform="matrix(-.06488 -.9979 -1.0577 .06982 -7226.58 3814.42)" gradientUnits="userSpaceOnUse"><stop offset="0" stop-color="#22e0ff" stop-opacity=".7"/><stop offset=".04" stop-color="#1ec9e5" stop-opacity=".73"/><stop offset=".15" stop-color="#1694a8" stop-opacity=".8"/><stop offset=".27" stop-color="#0f6674" stop-opacity=".86"/><stop offset=".39" stop-color="#09414a" stop-opacity=".91"/><stop offset=".51" stop-color="#052429" stop-opacity=".95"/><stop offset=".65" stop-color="#020f12" stop-opacity=".98"/><stop offset=".8" stop-color="#000304" stop-opacity=".99"/><stop offset="1"/></radialGradient><radialGradient id="radial-gradient-2" cx="3742.25" cy="-8278.72" fx="3742.25" fy="-8278.72" r="1194.58" gradientTransform="matrix(1 0 0 -1 -3692 -9078.99)" gradientUnits="userSpaceOnUse"><stop offset="0" stop-color="#f422ff"/><stop offset="1"/></radialGradient><radialGradient id="radial-gradient-3" cx="4401.52" cy="-8779.9" fx="4401.52" fy="-8779.9" r="2355.81" gradientTransform="matrix(-.06488 -.9979 -1.0577 .06982 -8303.82 4751.56)" gradientUnits="userSpaceOnUse"><stop offset="0" stop-color="#2c4f9e"/><stop offset=".11" stop-color="#203a75"/><stop offset=".23" stop-color="#162851"/><stop offset=".36" stop-color="#0e1933"/><stop offset=".49" stop-color="#080e1c"/><stop offset=".63" stop-color="#03060c"/><stop offset=".79" stop-color="#000103"/><stop offset="1"/></radialGradient><radialGradient id="radial-gradient-4" cx="-6553.74" cy="-6518.57" fx="-6553.74" fy="-6518.57" r="2.62" gradientTransform="matrix(-15.43964 62.20246 45.98356 20.88256 199093.79 543770.36)" gradientUnits="userSpaceOnUse"><stop offset="0" stop-color="#22e1ff"/><stop offset="1" stop-color="#22e1ff" stop-opacity="0"/></radialGradient><radialGradient id="radial-gradient-5" cx="-6553.73" cy="-6519.43" fx="-6553.73" fy="-6519.43" r="2.62" gradientTransform="matrix(-15.43964 62.20246 45.98356 20.88256 199103.56 543819.27)" xlink:href="#radial-gradient-4"/><radialGradient id="radial-gradient-6" cx="-6552.33" cy="-6518.03" fx="-6552.33" fy="-6518.03" gradientTransform="matrix(-15.43964 62.20246 45.98356 20.88256 199184.92 543702.99)" xlink:href="#radial-gradient-4"/><clipPath id="clippath"><path class="cls-2" d="M-358.84-1855.41h2429.39v1360.39H-358.84z"/></clipPath><clipPath id="clippath-1"><path class="cls-2" d="M2070.56-492.39v-1365.65h-2429.4v1365.65"/></clipPath><clipPath id="clippath-2"><path class="cls-2" d="M1072.88 572.21H249.56V0h823.33v572.21Zm-17.71 100.77v-87.2H266.39v87.2h788.78"/></clipPath><clipPath id="clippath-3"><path class="cls-2" d="M1042.74 524.21H219.41V31.45h823.33V524.2Zm-17.71 180.22V563.24H236.25v141.19h788.78"/></clipPath><clipPath id="clippath-4"><path class="cls-2" d="M1166.71 765.98H433.57v-61.42h733.14v61.42Zm-31.65-241.78H346.28v37.94h788.78V524.2Z"/></clipPath><style>.cls-15,.cls-16,.cls-2,.cls-20,.cls-22,.cls-24,.cls-3,.cls-4{fill:none}.cls-3{opacity:.54}.cls-15,.cls-4{fill-rule:evenodd}.cls-15,.cls-16,.cls-20,.cls-22,.cls-24,.cls-4{stroke:#75d8fb;stroke-miterlimit:10}.cls-36,.cls-37,.cls-38,.cls-39,.cls-40{mix-blend-mode:screen}.cls-39,.cls-43{fill:#fff}.cls-16,.cls-22{mix-blend-mode:multiply}.cls-15,.cls-22,.cls-24{stroke-width:.5px}.cls-36{fill:#75d8fb}.cls-37{fill:#0bf469}.cls-38{fill:#c112e0}.cls-40{fill:#002eff}</style></defs><g style="isolation:isolate;fill:none"><g id="Layer_1"><g style="fill:none;opacity:.23"><g style="clip-path:url(#clippath);fill:none"><ellipse cx="765.97" cy="-1215.02" rx="1584.09" ry="1596.39" style="mix-blend-mode:screen;fill:url(#radial-gradient);opacity:.63"/><ellipse cx="34.47" cy="-771.17" rx="1189.54" ry="1198.77" style="mix-blend-mode:color-dodge;fill:url(#radial-gradient-2);opacity:.4"/></g></g><g style="clip-path:url(#clippath-1);fill:none"><ellipse cx="690.95" cy="-268.23" rx="2345.87" ry="2364.09" style="fill:url(#radial-gradient-3);mix-blend-mode:difference"/></g><g style="opacity:.2;fill:none"><g style="clip-path:url(#clippath-2);fill:none"><g class="cls-3"><ellipse class="cls-24" cx="422.89" cy="165" rx="81.61" ry="112.21" transform="rotate(-66.23 422.887 165.003)"/><ellipse class="cls-24" cx="423.64" cy="132.72" rx="81.61" ry="112.21" transform="rotate(-66.23 423.627 132.726)"/><ellipse class="cls-24" cx="423.64" cy="132.72" rx="63.18" ry="86.88" transform="rotate(-66.23 423.627 132.726)"/><path class="cls-24" d="m403.36 167.3 18.01-.83L413.1 143l9.35-.43 23.86 22.75 21.13-.97-27.74-24.45c9.22-3.79 12.62-11.46 9.29-20.91-4.67-13.24-19.19-22.17-37.44-21.34l-32.21 1.48 24.02 68.16Zm11.63-55.55c7.39-.34 13.36 2.95 15.18 8.11 1.82 5.16-1.68 8.88-9.07 9.22l-12.7.58-6.11-17.33 12.7-.58Z"/><path class="cls-24" d="M1004.87 549.3C953.14 693.29 753.61 750.13 559.2 676.25c-194.41-73.88-310.07-250.51-258.34-394.5C352.59 137.76 552.12 80.92 746.53 154.8c170.11 64.65 292.09 196.72 282.23 328-1.41 18.75-17.42 48.5-23.89 66.5Z"/><ellipse class="cls-24" cx="676.75" cy="349.03" rx="276.94" ry="376.64" transform="rotate(-67.96 676.716 349.032)"/><path class="cls-24" d="m324.75 215.25-23.89 66.5c-51.73 143.99 63.93 320.62 258.34 394.5 194.41 73.88 393.94 17.05 445.67-126.95"/><ellipse class="cls-22" cx="676.75" cy="349.03" rx="221.55" ry="301.31" transform="rotate(-67.96 676.716 349.032)"/><path class="cls-15" d="m538.23 308.2 39.15-107.91-69.97 109.83c-5.82 9.14.68 21.38 11.62 21.89l50.86 2.38c-2.75 7.67-5.67 17.22-7.38 27.07-1.57 9.02-2.3 19.12-.44 28.6 1.9 9.71 6.71 19.54 16.68 26.04 14.98 9.76 24.8 12.22 32.65 14.19.58.15 1.15.29 1.72.43 3.65.93 6.38 1.75 9.43 3.3 3.08 1.56 6.97 4.11 12.3 8.89.95.85 1.96 1.76 3.02 2.72 11.66 10.54 29.95 27.07 50.8 36.26 11.63 5.13 24.79 8.33 38.61 6.65 14-1.7 27.54-8.28 40-20.74 11.94-11.94 18.86-23.93 20.53-36.58 1.68-12.74-2.26-24.09-7.83-33.97-5.1-9.05-12.2-17.89-18.82-26.14v-.02l-.14-.16-1.11-1.38c-7.25-9.04-14.13-17.8-19.56-27.34-10.59-18.62-8.43-28.07-6.61-32.01 1.07-2.31 2.54-3.9 3.73-4.91.59-.5 1.08-.83 1.36-.99.06-.04.11-.07.15-.09l.27-.13.45-.26 1.99-1.15c1.27-.73 3.07-1.78 5.24-3.04 4.34-2.52 10.14-5.89 15.97-9.3 5.81-3.4 11.69-6.86 16.16-9.53 2.23-1.33 4.16-2.51 5.59-3.4.7-.44 1.36-.86 1.91-1.23.26-.17.62-.42.98-.7.18-.13.48-.37.83-.68h.02c.16-.16 1.25-1.1 2.19-2.58 3.77-5.92.84-11.62.54-12.21l-.02-.03c-.71-1.4-1.52-2.34-1.78-2.64-.64-.74-1.26-1.28-1.47-1.46-.55-.48-1.15-.94-1.6-1.29-.99-.74-2.32-1.69-3.86-2.77-1.85-1.29-37.37-24.76-67.2-44.47-20.66-13.65-38.6-25.5-40.76-26.95.25.17 21.35 21.54 42.23 42.69 20.46 20.73 40.72 41.25 40.96 41.41-2.44 1.43-5 2.94-7.56 4.44-5.79 3.39-11.57 6.74-15.89 9.26-2.16 1.26-3.96 2.3-5.22 3.03l-1.68.97s-.09.05-.14.07c-.03.02-.07.04-.1.05-.4.21-.89.49-1.47.84-1.14.7-2.63 1.71-4.25 3.08-3.24 2.73-7.18 7-10.03 13.18-6.02 13.05-5.69 31.12 7.69 54.63 6.56 11.53 14.67 21.75 21.83 30.68l.7.87c7.12 8.88 13 16.22 17.05 23.4 4.04 7.15 5.51 12.91 4.78 18.42-.74 5.6-4.02 13.01-13.71 22.7-9.16 9.16-17.9 12.92-25.88 13.89-8.16.99-16.71-.79-25.56-4.7-16.88-7.44-32.2-21.23-44.27-32.11-.96-.87-1.9-1.71-2.82-2.54-6.58-5.9-12.29-9.86-17.8-12.65-5.54-2.8-10.38-4.16-14.6-5.23-.61-.16-1.21-.31-1.81-.46-6.91-1.73-13.55-3.39-24.99-10.84-2.64-1.72-4.59-4.56-5.58-9.63-1.04-5.29-.78-12.05.54-19.61 2.63-15.07 8.84-29.99 11.38-35.66 4.16-9.27-2.68-19.71-12.61-20.17l-47.39-2.22Zm123.96 78.15s-18.55 3.81-33.52-5.1c-14.97-8.91-7.8-34.33-7.8-34.33s4.13 1.55 21.42 14.77c17.3 13.22 19.9 24.66 19.9 24.66Z"/><ellipse class="cls-24" cx="676.75" cy="349.03" rx="221.55" ry="301.31" transform="rotate(-67.96 676.716 349.032)"/><path class="cls-24" d="M483.66 73.22c82.5-26.43 185.33-23.47 286.76 15.08 194.41 73.88 310.07 250.51 258.34 394.5-51.73 143.99-251.26 200.83-445.67 126.95-194.41-73.88-310.07-250.51-258.34-394.5 5.1-14.2 11.64-27.55 19.47-40.01"/></g><ellipse cx="442.35" cy="164.16" rx="82.25" ry="111.24" transform="rotate(-69.83 442.38 164.15)" style="fill:url(#linear-gradient);stroke:url(#linear-gradient-2);stroke-width:3px"/><ellipse cx="442.35" cy="131.87" rx="82.25" ry="111.24" transform="rotate(-69.83 442.372 131.866)" style="fill:url(#linear-gradient-3);stroke:url(#linear-gradient-4);stroke-width:3px"/><ellipse cx="442.35" cy="131.87" rx="63.68" ry="86.12" transform="rotate(-69.83 442.372 131.866)" style="fill:url(#radial-gradient-4)"/><path class="cls-43" d="m422.9 167.36 17.97-1.67-8.8-23.06 9.33-.87 24.36 21.62 21.08-1.96-28.28-23.14c9.13-4.22 12.34-12.04 8.8-21.33-4.97-13.01-19.69-21.26-37.89-19.57l-32.14 2.98 25.57 66.98Zm10.33-56.05c7.37-.68 13.41 2.32 15.35 7.39 1.94 5.07-1.47 8.95-8.84 9.64l-12.67 1.18-6.5-17.03 12.67-1.18Z"/><path d="M1032.58 520.95c-48.34 146.28-246.35 212.38-442.25 147.64-195.9-64.74-315.52-235.81-267.18-382.1C371.49 140.21 569.5 74.11 765.4 138.85c171.42 56.65 296.32 182.91 289.5 314.54-.97 18.8-16.28 49.27-22.33 67.56Z" style="fill:url(#linear-gradient-5)"/><ellipse cx="700.2" cy="336.17" rx="278.96" ry="373.58" transform="rotate(-71.71 700.218 336.164)" style="fill:url(#linear-gradient-6)"/><path d="m345.48 218.94-22.33 67.56c-48.34 146.28 71.27 317.35 267.18 382.1 195.9 64.74 393.9-1.35 442.25-147.64" style="stroke:url(#linear-gradient-7);stroke-width:3px;fill:none"/><ellipse cx="700.2" cy="336.17" rx="223.16" ry="298.87" transform="rotate(-71.71 700.218 336.164)" style="mix-blend-mode:multiply;fill:url(#linear-gradient-8)"/><path d="m560.88 301.84 36.61-109.64-67.35 112.99c-5.6 9.4 1.17 21.33 12.12 21.33h50.86c-2.57 7.79-5.26 17.47-6.75 27.39-1.36 9.08-1.85 19.21.22 28.6 2.12 9.61 7.16 19.21 17.26 25.23 15.19 9.05 25.06 11.05 32.94 12.65.59.12 1.16.24 1.73.35 3.67.76 6.42 1.45 9.5 2.85 3.11 1.41 7.05 3.78 12.49 8.31.97.81 2 1.67 3.08 2.58 11.89 9.98 30.55 25.65 51.59 33.86 11.74 4.58 24.95 7.17 38.72 4.85 13.95-2.35 27.31-9.56 39.47-22.59 11.65-12.49 18.29-24.79 19.66-37.51 1.38-12.81-2.81-23.96-8.61-33.57-5.31-8.8-12.6-17.3-19.4-25.23h-.01l-.13-.17c-.38-.44-.76-.89-1.14-1.33-7.45-8.69-14.53-17.13-20.17-26.4-11.01-18.11-9.07-27.66-7.34-31.68 1.01-2.36 2.45-4.02 3.62-5.08a11.5 11.5 0 0 1 1.33-1.06c.06-.04.11-.07.15-.09l.27-.14.45-.28 1.96-1.24c1.25-.79 3.03-1.92 5.17-3.28 4.28-2.72 9.99-6.36 15.73-10.03 5.73-3.67 11.51-7.4 15.92-10.28 2.19-1.44 4.1-2.7 5.5-3.66.69-.47 1.34-.92 1.88-1.32.25-.19.61-.45.96-.74.17-.14.47-.39.82-.72h.02c.16-.16 1.22-1.16 2.13-2.68 3.63-6.09.57-11.65.25-12.22l-.02-.03c-.74-1.36-1.57-2.27-1.84-2.56-.66-.71-1.28-1.22-1.5-1.4-.56-.46-1.17-.89-1.63-1.21-1-.69-2.36-1.58-3.92-2.59-1.88-1.2-37.9-22.99-68.16-41.29-20.96-12.67-39.15-23.68-41.33-25.02.26.16 21.83 20.52 43.18 40.68 20.92 19.75 41.63 39.31 41.87 39.46-2.4 1.55-4.92 3.17-7.45 4.79-5.71 3.65-11.4 7.28-15.66 9.99-2.13 1.36-3.91 2.48-5.15 3.27l-1.66 1.05s-.09.05-.14.08c-.03.02-.07.04-.1.06-.39.23-.88.53-1.45.91-1.13.76-2.59 1.84-4.18 3.28a39.485 39.485 0 0 0-9.72 13.64c-5.71 13.32-4.97 31.36 8.94 54.23 6.82 11.21 15.16 21.04 22.51 29.63l.72.84c7.32 8.54 13.36 15.6 17.57 22.58 4.2 6.96 5.8 12.64 5.2 18.18-.61 5.63-3.71 13.18-13.17 23.32-8.94 9.58-17.58 13.75-25.53 15.09-8.13 1.37-16.71-.01-25.64-3.5-17.03-6.65-32.65-19.71-44.97-30.01-.98-.82-1.94-1.62-2.88-2.4-6.71-5.59-12.51-9.28-18.07-11.81-5.6-2.54-10.47-3.67-14.7-4.55-.61-.13-1.22-.25-1.82-.37-6.94-1.4-13.61-2.75-25.21-9.66-2.67-1.59-4.69-4.34-5.8-9.36-1.16-5.24-1.06-12 .09-19.62 2.28-15.18 8.14-30.37 10.55-36.16 3.94-9.45-3.13-19.57-13.06-19.57h-47.39Zm125.63 72.3s-18.44 4.67-33.6-3.53-8.59-33.94-8.59-33.94 4.16 1.35 21.74 13.76c17.58 12.4 20.45 23.71 20.45 23.71Z" style="fill:url(#linear-gradient-9);fill-rule:evenodd"/><ellipse cx="700.2" cy="336.17" rx="223.16" ry="298.87" transform="rotate(-71.71 700.218 336.164)" style="stroke-width:4px;stroke:url(#linear-gradient-10);fill:none"/><path d="M500.94 69.62c81.8-30.26 184.58-32.1 286.79 1.68 195.9 64.74 315.52 235.81 267.18 382.1-48.34 146.28-246.35 212.38-442.25 147.64-195.9-64.74-315.52-235.81-267.18-382.1A212.185 212.185 0 0 1 364 178.05" style="stroke:url(#linear-gradient-11);stroke-width:3px;fill:none"/><ellipse class="cls-20" cx="448.47" cy="157.37" rx="82.25" ry="111.24" transform="rotate(-69.83 448.493 157.36)"/><ellipse class="cls-20" cx="448.47" cy="125.09" rx="82.25" ry="111.24" transform="rotate(-69.83 448.493 125.08)"/><ellipse class="cls-20" cx="448.47" cy="125.09" rx="63.68" ry="86.12" transform="rotate(-69.83 448.493 125.08)"/><path class="cls-20" d="m429.02 160.58 17.97-1.67-8.8-23.06 9.33-.87 24.36 21.62 21.08-1.96-28.28-23.14c9.13-4.22 12.34-12.04 8.8-21.33-4.97-13.01-19.69-21.26-37.89-19.57l-32.14 2.98 25.57 66.98Zm10.33-56.05c7.37-.68 13.41 2.32 15.35 7.39 1.94 5.07-1.47 8.95-8.84 9.64l-12.67 1.18-6.5-17.03 12.67-1.18Z"/><path class="cls-20" d="M1038.7 514.17c-48.34 146.28-246.35 212.38-442.25 147.64-195.9-64.74-315.52-235.81-267.18-382.1 48.34-146.28 246.35-212.38 442.25-147.64 171.42 56.65 296.32 182.91 289.5 314.54-.97 18.8-16.28 49.27-22.33 67.56Z"/><ellipse class="cls-20" cx="706.32" cy="329.38" rx="278.96" ry="373.58" transform="rotate(-71.71 706.334 329.377)"/><path class="cls-20" d="m351.6 212.15-22.33 67.56c-48.34 146.28 71.27 317.35 267.18 382.1 195.9 64.74 393.9-1.35 442.25-147.64"/><ellipse class="cls-16" cx="706.32" cy="329.38" rx="223.16" ry="298.87" transform="rotate(-71.71 706.334 329.377)"/><path class="cls-4" d="m567 295.06 36.61-109.64-67.35 112.99c-5.6 9.4 1.17 21.33 12.12 21.33h50.86c-2.57 7.79-5.26 17.47-6.75 27.39-1.36 9.08-1.85 19.21.22 28.6 2.12 9.61 7.16 19.21 17.26 25.23 15.19 9.05 25.06 11.05 32.94 12.65.59.12 1.16.24 1.73.35 3.67.76 6.42 1.45 9.5 2.85 3.11 1.41 7.05 3.78 12.49 8.31.97.81 2 1.67 3.08 2.58 11.89 9.98 30.55 25.65 51.59 33.86 11.74 4.58 24.95 7.17 38.72 4.85 13.95-2.35 27.31-9.56 39.47-22.59 11.65-12.49 18.29-24.79 19.66-37.51 1.38-12.81-2.81-23.96-8.61-33.57-5.31-8.8-12.6-17.3-19.4-25.23h-.01l-.13-.17c-.38-.44-.76-.89-1.14-1.33-7.45-8.69-14.53-17.13-20.17-26.4-11.01-18.11-9.07-27.66-7.34-31.68 1.01-2.36 2.45-4.02 3.62-5.08a11.5 11.5 0 0 1 1.33-1.06c.06-.04.11-.07.15-.09l.27-.14.45-.28 1.96-1.24c1.25-.79 3.03-1.92 5.17-3.28 4.28-2.72 9.99-6.36 15.73-10.03 5.73-3.67 11.51-7.4 15.92-10.28 2.19-1.44 4.1-2.7 5.5-3.66.69-.47 1.34-.92 1.88-1.32.25-.19.61-.45.96-.74.17-.14.47-.39.82-.72h.02c.16-.16 1.22-1.16 2.13-2.68 3.63-6.09.57-11.65.25-12.22l-.02-.03c-.74-1.36-1.57-2.27-1.84-2.56-.66-.71-1.28-1.22-1.5-1.4-.56-.46-1.17-.89-1.63-1.21-1-.69-2.36-1.58-3.92-2.59-1.88-1.2-37.9-22.99-68.16-41.29-20.96-12.67-39.15-23.68-41.33-25.02.26.16 21.83 20.52 43.18 40.68 20.92 19.75 41.63 39.31 41.87 39.46-2.4 1.55-4.92 3.17-7.45 4.79-5.71 3.65-11.4 7.28-15.66 9.99-2.13 1.36-3.91 2.48-5.15 3.27l-1.66 1.05s-.09.05-.14.08c-.03.02-.07.04-.1.06-.39.23-.88.53-1.45.91-1.13.76-2.59 1.84-4.18 3.28a39.485 39.485 0 0 0-9.72 13.64c-5.71 13.32-4.97 31.36 8.94 54.23 6.82 11.21 15.16 21.04 22.51 29.63l.72.84c7.32 8.54 13.36 15.6 17.57 22.58 4.2 6.96 5.8 12.64 5.2 18.18-.61 5.63-3.71 13.18-13.17 23.32-8.94 9.58-17.58 13.75-25.53 15.09-8.13 1.37-16.71-.01-25.64-3.5-17.03-6.65-32.65-19.71-44.97-30.01-.98-.82-1.94-1.62-2.88-2.4-6.71-5.59-12.51-9.28-18.07-11.81-5.6-2.54-10.47-3.67-14.7-4.55-.61-.13-1.22-.25-1.82-.37-6.94-1.4-13.61-2.75-25.21-9.66-2.67-1.59-4.69-4.34-5.8-9.36-1.16-5.24-1.06-12 .09-19.62 2.28-15.18 8.14-30.37 10.55-36.16 3.94-9.45-3.13-19.57-13.06-19.57h-47.39Zm125.63 72.3s-18.44 4.67-33.6-3.53-8.59-33.94-8.59-33.94 4.16 1.35 21.74 13.76c17.58 12.4 20.45 23.71 20.45 23.71Z"/><ellipse class="cls-20" cx="706.32" cy="329.38" rx="223.16" ry="298.87" transform="rotate(-71.71 706.334 329.377)"/><path class="cls-20" d="M507.06 62.84c81.8-30.26 184.58-32.1 286.79 1.68 195.9 64.74 315.52 235.81 267.18 382.1C1012.69 592.9 814.68 659 618.78 594.26c-195.9-64.74-315.52-235.81-267.18-382.1a212.185 212.185 0 0 1 18.52-40.89"/></g></g><path class="cls-38" d="M0 467.16h141.64v9.69H0z"/><path class="cls-39" d="M141.64 467.16h39.37v9.69h-39.37z"/><path class="cls-36" d="M181.02 467.16h39.37v9.69h-39.37z"/><path class="cls-40" d="M220.39 467.16h39.37v9.69h-39.37zM300.09 467.16h39.37v9.69h-39.37z"/><path class="cls-37" d="M259.76 467.16h39.37v9.69h-39.37z"/><g style="clip-path:url(#clippath-3);fill:none"><g class="cls-3"><ellipse class="cls-24" cx="392.74" cy="196.45" rx="81.61" ry="112.21" transform="rotate(-66.23 392.736 196.453)"/><ellipse class="cls-24" cx="393.49" cy="164.17" rx="81.61" ry="112.21" transform="rotate(-66.23 393.476 164.176)"/><ellipse class="cls-24" cx="393.49" cy="164.17" rx="63.18" ry="86.88" transform="rotate(-66.23 393.476 164.176)"/><path class="cls-24" d="m373.21 198.75 18.01-.83-8.27-23.47 9.35-.43 23.86 22.75 21.13-.97-27.74-24.45c9.22-3.79 12.62-11.46 9.29-20.91-4.67-13.24-19.19-22.17-37.44-21.34l-32.21 1.48 24.02 68.16Zm11.63-55.55c7.39-.34 13.36 2.95 15.18 8.11 1.82 5.16-1.68 8.88-9.07 9.22l-12.7.58-6.11-17.33 12.7-.58Z"/><path class="cls-24" d="M974.72 580.75C922.99 724.74 723.46 781.58 529.05 707.7c-194.41-73.88-310.07-250.51-258.34-394.5 51.73-143.99 251.26-200.83 445.67-126.95 170.11 64.65 292.09 196.72 282.23 328-1.41 18.75-17.42 48.5-23.89 66.5Z"/><ellipse class="cls-24" cx="646.61" cy="380.48" rx="276.94" ry="376.64" transform="rotate(-67.96 646.564 380.483)"/><path class="cls-24" d="m294.6 246.7-23.89 66.5c-51.73 143.99 63.93 320.62 258.34 394.5 194.41 73.88 393.94 17.05 445.67-126.95"/><ellipse class="cls-22" cx="646.61" cy="380.48" rx="221.55" ry="301.31" transform="rotate(-67.96 646.564 380.483)"/><path class="cls-15" d="m508.09 339.65 39.15-107.91-69.97 109.83c-5.82 9.14.68 21.38 11.62 21.89l50.86 2.38c-2.75 7.67-5.67 17.22-7.38 27.07-1.57 9.02-2.3 19.12-.44 28.6 1.9 9.71 6.71 19.54 16.68 26.04 14.98 9.76 24.8 12.22 32.65 14.19.58.15 1.15.29 1.72.43 3.65.93 6.38 1.75 9.43 3.3 3.08 1.56 6.97 4.11 12.3 8.89.95.85 1.96 1.76 3.02 2.72 11.66 10.54 29.95 27.07 50.8 36.26 11.63 5.13 24.79 8.33 38.61 6.65 14-1.7 27.54-8.28 40-20.74 11.94-11.94 18.86-23.93 20.53-36.58 1.68-12.74-2.26-24.09-7.83-33.97-5.1-9.05-12.2-17.89-18.82-26.14v-.02l-.14-.16-1.11-1.38c-7.25-9.04-14.13-17.8-19.56-27.34-10.59-18.62-8.43-28.07-6.61-32.01 1.07-2.31 2.54-3.9 3.73-4.91.59-.5 1.08-.83 1.36-.99.06-.04.11-.07.15-.09l.27-.13.45-.26 1.99-1.15c1.27-.73 3.07-1.78 5.24-3.04 4.34-2.52 10.14-5.89 15.97-9.3 5.81-3.4 11.69-6.86 16.16-9.53 2.23-1.33 4.16-2.51 5.59-3.4.7-.44 1.36-.86 1.91-1.23.26-.17.62-.42.98-.7.18-.13.48-.37.83-.68h.02c.16-.16 1.25-1.1 2.19-2.58 3.77-5.92.84-11.62.54-12.21l-.02-.03c-.71-1.4-1.52-2.34-1.78-2.64-.64-.74-1.26-1.28-1.47-1.46-.55-.48-1.15-.94-1.6-1.29-.99-.74-2.32-1.69-3.86-2.77-1.85-1.29-37.37-24.76-67.2-44.47-20.66-13.65-38.6-25.5-40.76-26.95.25.17 21.35 21.54 42.23 42.69 20.46 20.73 40.72 41.25 40.96 41.41-2.44 1.43-5 2.94-7.56 4.44-5.79 3.39-11.57 6.74-15.89 9.26-2.16 1.26-3.96 2.3-5.22 3.03l-1.68.97s-.09.05-.14.07c-.03.02-.07.04-.1.05-.4.21-.89.49-1.47.84-1.14.7-2.63 1.71-4.25 3.08-3.24 2.73-7.18 7-10.03 13.18-6.02 13.05-5.69 31.12 7.69 54.63 6.56 11.53 14.67 21.75 21.83 30.68l.7.87c7.12 8.88 13 16.22 17.05 23.4 4.04 7.15 5.51 12.91 4.78 18.42-.74 5.6-4.02 13.01-13.71 22.7-9.16 9.16-17.9 12.92-25.88 13.89-8.16.99-16.71-.79-25.56-4.7-16.88-7.44-32.2-21.23-44.27-32.11-.96-.87-1.9-1.71-2.82-2.54-6.58-5.9-12.29-9.86-17.8-12.65-5.54-2.8-10.38-4.16-14.6-5.23-.61-.16-1.21-.31-1.81-.46-6.91-1.73-13.55-3.39-24.99-10.84-2.64-1.72-4.59-4.56-5.58-9.63-1.04-5.29-.78-12.05.54-19.61 2.63-15.07 8.84-29.99 11.38-35.66 4.16-9.27-2.68-19.71-12.61-20.17l-47.39-2.22Zm123.96 78.15s-18.55 3.81-33.52-5.1c-14.97-8.91-7.8-34.33-7.8-34.33s4.13 1.55 21.42 14.77c17.3 13.22 19.9 24.66 19.9 24.66Z"/><ellipse class="cls-24" cx="646.61" cy="380.48" rx="221.55" ry="301.31" transform="rotate(-67.96 646.564 380.483)"/><path class="cls-24" d="M453.51 104.67c82.5-26.43 185.33-23.47 286.76 15.08 194.41 73.88 310.07 250.51 258.34 394.5-51.73 143.99-251.26 200.83-445.67 126.95-194.41-73.88-310.07-250.51-258.34-394.5 5.1-14.2 11.64-27.55 19.47-40.01"/></g><ellipse cx="412.21" cy="195.61" rx="82.25" ry="111.24" transform="rotate(-69.83 412.223 195.601)" style="fill:url(#linear-gradient-12);stroke:url(#linear-gradient-13);stroke-width:3px"/><ellipse cx="412.21" cy="163.32" rx="82.25" ry="111.24" transform="rotate(-69.83 412.228 163.314)" style="fill:url(#linear-gradient-14);stroke:url(#linear-gradient-15);stroke-width:3px"/><ellipse cx="412.21" cy="163.32" rx="63.68" ry="86.12" transform="rotate(-69.83 412.228 163.314)" style="fill:url(#radial-gradient-5)"/><path class="cls-43" d="m392.75 198.82 17.97-1.67-8.8-23.06 9.33-.87 24.36 21.62 21.08-1.96-28.28-23.14c9.13-4.22 12.34-12.04 8.8-21.33-4.97-13.01-19.69-21.26-37.89-19.57l-32.14 2.98 25.57 66.98Zm10.33-56.05c7.37-.68 13.41 2.32 15.35 7.39 1.94 5.07-1.47 8.95-8.84 9.64l-12.67 1.18-6.5-17.03 12.67-1.18Z"/><path d="M1002.44 552.4C954.1 698.68 756.09 764.78 560.19 700.04c-195.9-64.74-315.52-235.81-267.18-382.1 48.34-146.28 246.35-212.38 442.25-147.64 171.42 56.65 296.32 182.91 289.5 314.54-.97 18.8-16.28 49.27-22.33 67.56Z" style="fill:url(#linear-gradient-16)"/><ellipse cx="670.05" cy="367.62" rx="278.96" ry="373.58" transform="rotate(-71.71 670.072 367.618)" style="fill:url(#linear-gradient-17)"/><path d="M315.33 250.39 293 317.95c-48.34 146.28 71.27 317.35 267.18 382.1 195.9 64.74 393.9-1.35 442.25-147.64" style="stroke-width:3px;stroke:url(#linear-gradient-18);fill:none"/><ellipse cx="670.05" cy="367.62" rx="223.16" ry="298.87" transform="rotate(-71.71 670.072 367.618)" style="fill:url(#linear-gradient-19);mix-blend-mode:multiply"/><path d="m530.74 333.29 36.61-109.64L500 336.64c-5.6 9.4 1.17 21.33 12.12 21.33h50.86c-2.57 7.79-5.26 17.47-6.75 27.39-1.36 9.08-1.85 19.21.22 28.6 2.12 9.61 7.16 19.21 17.26 25.23 15.19 9.05 25.06 11.05 32.94 12.65.59.12 1.16.24 1.73.35 3.67.76 6.42 1.45 9.5 2.85 3.11 1.41 7.05 3.78 12.49 8.31.97.81 2 1.67 3.08 2.58 11.89 9.98 30.55 25.65 51.59 33.86 11.74 4.58 24.95 7.17 38.72 4.85 13.95-2.35 27.31-9.56 39.47-22.59 11.65-12.49 18.29-24.79 19.66-37.51 1.38-12.81-2.81-23.96-8.61-33.57-5.31-8.8-12.6-17.3-19.4-25.23h-.01l-.13-.17c-.38-.44-.76-.89-1.14-1.33-7.45-8.69-14.53-17.13-20.17-26.4-11.01-18.11-9.07-27.66-7.34-31.68 1.01-2.36 2.45-4.02 3.62-5.08a11.5 11.5 0 0 1 1.33-1.06c.06-.04.11-.07.15-.09l.27-.14.45-.28 1.96-1.24c1.25-.79 3.03-1.92 5.17-3.28 4.28-2.72 9.99-6.36 15.73-10.03 5.73-3.67 11.51-7.4 15.92-10.28 2.19-1.44 4.1-2.7 5.5-3.66.69-.47 1.34-.92 1.88-1.32.25-.19.61-.45.96-.74.17-.14.47-.39.82-.72h.02c.16-.16 1.22-1.16 2.13-2.68 3.63-6.09.57-11.65.25-12.22l-.02-.03c-.74-1.36-1.57-2.27-1.84-2.56-.66-.71-1.28-1.22-1.5-1.4-.56-.46-1.17-.89-1.63-1.21-1-.69-2.36-1.58-3.92-2.59-1.88-1.2-37.9-22.99-68.16-41.29-20.96-12.67-39.15-23.68-41.33-25.02.26.16 21.83 20.52 43.18 40.68 20.92 19.75 41.63 39.31 41.87 39.46-2.4 1.55-4.92 3.17-7.45 4.79-5.71 3.65-11.4 7.28-15.66 9.99-2.13 1.36-3.91 2.48-5.15 3.27l-1.66 1.05s-.09.05-.14.08c-.03.02-.07.04-.1.06-.39.23-.88.53-1.45.91-1.13.76-2.59 1.84-4.18 3.28a39.485 39.485 0 0 0-9.72 13.64c-5.71 13.32-4.97 31.36 8.94 54.23 6.82 11.21 15.16 21.04 22.51 29.63l.72.84c7.32 8.54 13.36 15.6 17.57 22.58 4.2 6.96 5.8 12.64 5.2 18.18-.61 5.63-3.71 13.18-13.17 23.32-8.94 9.58-17.58 13.75-25.53 15.09-8.13 1.37-16.71-.01-25.64-3.5-17.03-6.65-32.65-19.71-44.97-30.01-.98-.82-1.94-1.62-2.88-2.4-6.71-5.59-12.51-9.28-18.07-11.81-5.6-2.54-10.47-3.67-14.7-4.55-.61-.13-1.22-.25-1.82-.37-6.94-1.4-13.61-2.75-25.21-9.66-2.67-1.59-4.69-4.34-5.8-9.36-1.16-5.24-1.06-12 .09-19.62 2.28-15.18 8.14-30.37 10.55-36.16 3.94-9.45-3.13-19.57-13.06-19.57h-47.39Zm125.63 72.3s-18.44 4.67-33.6-3.53-8.59-33.94-8.59-33.94 4.16 1.35 21.74 13.76c17.58 12.4 20.45 23.71 20.45 23.71Z" style="fill:url(#linear-gradient-20);fill-rule:evenodd"/><ellipse cx="670.05" cy="367.62" rx="223.16" ry="298.87" transform="rotate(-71.71 670.072 367.618)" style="stroke:url(#linear-gradient-21);stroke-width:4px;fill:none"/><path d="M470.79 101.07c81.8-30.26 184.58-32.1 286.79 1.68 195.9 64.74 315.52 235.81 267.18 382.1-48.34 146.28-246.35 212.38-442.25 147.64-195.9-64.74-315.52-235.81-267.18-382.1a212.185 212.185 0 0 1 18.52-40.89" style="stroke:url(#linear-gradient-22);stroke-width:3px;fill:none"/><ellipse class="cls-20" cx="418.33" cy="188.82" rx="82.25" ry="111.24" transform="rotate(-69.83 418.345 188.816)"/><ellipse class="cls-20" cx="418.33" cy="156.54" rx="82.25" ry="111.24" transform="rotate(-69.83 418.344 156.536)"/><ellipse class="cls-20" cx="418.33" cy="156.54" rx="63.68" ry="86.12" transform="rotate(-69.83 418.344 156.536)"/><path class="cls-20" d="m398.87 192.03 17.97-1.67-8.8-23.06 9.33-.87 24.36 21.62 21.08-1.96-28.28-23.14c9.13-4.22 12.34-12.04 8.8-21.33-4.97-13.01-19.69-21.26-37.89-19.57l-32.14 2.98 25.57 66.98Zm10.33-56.05c7.37-.68 13.41 2.32 15.35 7.39 1.94 5.07-1.47 8.95-8.84 9.64l-12.67 1.18-6.5-17.03 12.67-1.18Z"/><path class="cls-20" d="M1008.56 545.62C960.22 691.9 762.21 758 566.31 693.26c-195.9-64.74-315.52-235.81-267.18-382.1 48.34-146.28 246.35-212.38 442.25-147.64 171.42 56.65 296.32 182.91 289.5 314.54-.97 18.8-16.28 49.27-22.33 67.56Z"/><ellipse class="cls-20" cx="676.17" cy="360.84" rx="278.96" ry="373.58" transform="rotate(-71.71 676.188 360.831)"/><path class="cls-20" d="m321.46 243.61-22.33 67.56c-48.34 146.28 71.27 317.35 267.18 382.1 195.9 64.74 393.9-1.35 442.25-147.64"/><ellipse class="cls-16" cx="676.17" cy="360.84" rx="223.16" ry="298.87" transform="rotate(-71.71 676.188 360.831)"/><path class="cls-4" d="m536.86 326.51 36.61-109.64-67.35 112.99c-5.6 9.4 1.17 21.33 12.12 21.33h50.86c-2.57 7.79-5.26 17.47-6.75 27.39-1.36 9.08-1.85 19.21.22 28.6 2.12 9.61 7.16 19.21 17.26 25.23 15.19 9.05 25.06 11.05 32.94 12.65.59.12 1.16.24 1.73.35 3.67.76 6.42 1.45 9.5 2.85 3.11 1.41 7.05 3.78 12.49 8.31.97.81 2 1.67 3.08 2.58 11.89 9.98 30.55 25.65 51.59 33.86 11.74 4.58 24.95 7.17 38.72 4.85 13.95-2.35 27.31-9.56 39.47-22.59 11.65-12.49 18.29-24.79 19.66-37.51 1.38-12.81-2.81-23.96-8.61-33.57-5.31-8.8-12.6-17.3-19.4-25.23h-.01l-.13-.17c-.38-.44-.76-.89-1.14-1.33-7.45-8.69-14.53-17.13-20.17-26.4-11.01-18.11-9.07-27.66-7.34-31.68 1.01-2.36 2.45-4.02 3.62-5.08a11.5 11.5 0 0 1 1.33-1.06c.06-.04.11-.07.15-.09l.27-.14.45-.28 1.96-1.24c1.25-.79 3.03-1.92 5.17-3.28 4.28-2.72 9.99-6.36 15.73-10.03 5.73-3.67 11.51-7.4 15.92-10.28 2.19-1.44 4.1-2.7 5.5-3.66.69-.47 1.34-.92 1.88-1.32.25-.19.61-.45.96-.74.17-.14.47-.39.82-.72h.02c.16-.16 1.22-1.16 2.13-2.68 3.63-6.09.57-11.65.25-12.22l-.02-.03c-.74-1.36-1.57-2.27-1.84-2.56-.66-.71-1.28-1.22-1.5-1.4-.56-.46-1.17-.89-1.63-1.21-1-.69-2.36-1.58-3.92-2.59-1.88-1.2-37.9-22.99-68.16-41.29-20.96-12.67-39.15-23.68-41.33-25.02.26.16 21.83 20.52 43.18 40.68 20.92 19.75 41.63 39.31 41.87 39.46-2.4 1.55-4.92 3.17-7.45 4.79-5.71 3.65-11.4 7.28-15.66 9.99-2.13 1.36-3.91 2.48-5.15 3.27l-1.66 1.05s-.09.05-.14.08c-.03.02-.07.04-.1.06-.39.23-.88.53-1.45.91-1.13.76-2.59 1.84-4.18 3.28a39.485 39.485 0 0 0-9.72 13.64c-5.71 13.32-4.97 31.36 8.94 54.23 6.82 11.21 15.16 21.04 22.51 29.63l.72.84c7.32 8.54 13.36 15.6 17.57 22.58 4.2 6.96 5.8 12.64 5.2 18.18-.61 5.63-3.71 13.18-13.17 23.32-8.94 9.58-17.58 13.75-25.53 15.09-8.13 1.37-16.71-.01-25.64-3.5-17.03-6.65-32.65-19.71-44.97-30.01-.98-.82-1.94-1.62-2.88-2.4-6.71-5.59-12.51-9.28-18.07-11.81-5.6-2.54-10.47-3.67-14.7-4.55-.61-.13-1.22-.25-1.82-.37-6.94-1.4-13.61-2.75-25.21-9.66-2.67-1.59-4.69-4.34-5.8-9.36-1.16-5.24-1.06-12 .09-19.62 2.28-15.18 8.14-30.37 10.55-36.16 3.94-9.45-3.13-19.57-13.06-19.57h-47.39Zm125.63 72.3s-18.44 4.67-33.6-3.53-8.59-33.94-8.59-33.94 4.16 1.35 21.74 13.76c17.58 12.4 20.45 23.71 20.45 23.71Z"/><ellipse class="cls-20" cx="676.17" cy="360.84" rx="223.16" ry="298.87" transform="rotate(-71.71 676.188 360.831)"/><path class="cls-20" d="M476.91 94.29c81.8-30.26 184.58-32.1 286.79 1.68 195.9 64.74 315.52 235.81 267.18 382.1-48.34 146.28-246.35 212.38-442.25 147.64-195.9-64.74-315.52-235.81-267.18-382.1a212.185 212.185 0 0 1 18.52-40.89"/></g><g style="clip-path:url(#clippath-4);fill:none"><g class="cls-3"><ellipse class="cls-24" cx="516.71" cy="196.59" rx="81.61" ry="112.21" transform="rotate(-66.23 516.699 196.592)"/><ellipse class="cls-24" cx="517.46" cy="164.31" rx="81.61" ry="112.21" transform="rotate(-66.23 517.451 164.313)"/><ellipse class="cls-24" cx="517.46" cy="164.31" rx="63.18" ry="86.88" transform="rotate(-66.23 517.451 164.313)"/><path class="cls-24" d="m497.18 198.89 18.01-.83-8.27-23.47 9.35-.43 23.86 22.75 21.13-.97-27.74-24.45c9.22-3.79 12.62-11.46 9.29-20.91-4.67-13.24-19.19-22.17-37.44-21.34l-32.21 1.48 24.02 68.16Zm11.63-55.55c7.39-.34 13.36 2.95 15.18 8.11 1.82 5.16-1.68 8.88-9.07 9.22l-12.7.58-6.11-17.33 12.7-.58Z"/><path class="cls-24" d="M1098.69 580.89c-51.73 143.99-251.26 200.83-445.67 126.95-194.41-73.88-310.07-250.51-258.34-394.5 51.73-143.99 251.26-200.83 445.67-126.95 170.11 64.65 292.09 196.72 282.23 328-1.41 18.75-17.42 48.5-23.89 66.5Z"/><ellipse class="cls-24" cx="770.58" cy="380.61" rx="276.94" ry="376.64" transform="rotate(-67.96 770.528 380.62)"/><path class="cls-24" d="m418.57 246.84-23.89 66.5c-51.73 143.99 63.93 320.62 258.34 394.5 194.41 73.88 393.94 17.05 445.67-126.95"/><ellipse class="cls-22" cx="770.58" cy="380.61" rx="221.55" ry="301.31" transform="rotate(-67.96 770.528 380.62)"/><path class="cls-15" d="m632.06 339.79 39.15-107.91-69.97 109.83c-5.82 9.14.68 21.38 11.62 21.89l50.86 2.38c-2.75 7.67-5.67 17.22-7.38 27.07-1.57 9.02-2.3 19.12-.44 28.6 1.9 9.71 6.71 19.54 16.68 26.04 14.98 9.76 24.8 12.22 32.65 14.19.58.15 1.15.29 1.72.43 3.65.93 6.38 1.75 9.43 3.3 3.08 1.56 6.97 4.11 12.3 8.89.95.85 1.96 1.76 3.02 2.72 11.66 10.54 29.95 27.07 50.8 36.26 11.63 5.13 24.79 8.33 38.61 6.65 14-1.7 27.54-8.28 40-20.74 11.94-11.94 18.86-23.93 20.53-36.58 1.68-12.74-2.26-24.09-7.83-33.97-5.1-9.05-12.2-17.89-18.82-26.14v-.02l-.14-.16-1.11-1.38c-7.25-9.04-14.13-17.8-19.56-27.34-10.59-18.62-8.43-28.07-6.61-32.01 1.07-2.31 2.54-3.9 3.73-4.91.59-.5 1.08-.83 1.36-.99.06-.04.11-.07.15-.09l.27-.13.45-.26 1.99-1.15c1.27-.73 3.07-1.78 5.24-3.04 4.34-2.52 10.14-5.89 15.97-9.3 5.81-3.4 11.69-6.86 16.16-9.53 2.23-1.33 4.16-2.51 5.59-3.4.7-.44 1.36-.86 1.91-1.23.26-.17.62-.42.98-.7.18-.13.48-.37.83-.68h.02c.16-.16 1.25-1.1 2.19-2.58 3.77-5.92.84-11.62.54-12.21l-.02-.03c-.71-1.4-1.52-2.34-1.78-2.64-.64-.74-1.26-1.28-1.47-1.46-.55-.48-1.15-.94-1.6-1.29-.99-.74-2.32-1.69-3.86-2.77-1.85-1.29-37.37-24.76-67.2-44.47-20.66-13.65-38.6-25.5-40.76-26.95.25.17 21.35 21.54 42.23 42.69 20.46 20.73 40.72 41.25 40.96 41.41-2.44 1.43-5 2.94-7.56 4.44-5.79 3.39-11.57 6.74-15.89 9.26-2.16 1.26-3.96 2.3-5.22 3.03l-1.68.97s-.09.05-.14.07c-.03.02-.07.04-.1.05-.4.21-.89.49-1.47.84-1.14.7-2.63 1.71-4.25 3.08-3.24 2.73-7.18 7-10.03 13.18-6.02 13.05-5.69 31.12 7.69 54.63 6.56 11.53 14.67 21.75 21.83 30.68l.7.87c7.12 8.88 13 16.22 17.05 23.4 4.04 7.15 5.51 12.91 4.78 18.42-.74 5.6-4.02 13.01-13.71 22.7-9.16 9.16-17.9 12.92-25.88 13.89-8.16.99-16.71-.79-25.56-4.7-16.88-7.44-32.2-21.23-44.27-32.11-.96-.87-1.9-1.71-2.82-2.54-6.58-5.9-12.29-9.86-17.8-12.65-5.54-2.8-10.38-4.16-14.6-5.23-.61-.16-1.21-.31-1.81-.46-6.91-1.73-13.55-3.39-24.99-10.84-2.64-1.72-4.59-4.56-5.58-9.63-1.04-5.29-.78-12.05.54-19.61 2.63-15.07 8.84-29.99 11.38-35.66 4.16-9.27-2.68-19.71-12.61-20.17l-47.39-2.22Zm123.96 78.15s-18.55 3.81-33.52-5.1c-14.97-8.91-7.8-34.33-7.8-34.33s4.13 1.55 21.42 14.77c17.3 13.22 19.9 24.66 19.9 24.66Z"/><ellipse class="cls-24" cx="770.58" cy="380.61" rx="221.55" ry="301.31" transform="rotate(-67.96 770.528 380.62)"/><path class="cls-24" d="M577.49 104.81c82.5-26.43 185.33-23.47 286.76 15.08 194.41 73.88 310.07 250.51 258.34 394.5-51.73 143.99-251.26 200.83-445.67 126.95-194.41-73.88-310.07-250.51-258.34-394.5 5.1-14.2 11.64-27.55 19.47-40.01"/></g><ellipse cx="536.18" cy="195.74" rx="82.25" ry="111.24" transform="rotate(-69.83 536.198 195.737)" style="fill:url(#linear-gradient-23);stroke:url(#linear-gradient-24);stroke-width:3px"/><ellipse cx="536.18" cy="163.46" rx="82.25" ry="111.24" transform="rotate(-69.83 536.202 163.45)" style="fill:url(#linear-gradient-25);stroke:url(#linear-gradient-26);stroke-width:3px"/><ellipse cx="536.18" cy="163.46" rx="63.68" ry="86.12" transform="rotate(-69.83 536.202 163.45)" style="fill:url(#radial-gradient-6)"/><path class="cls-43" d="m516.72 198.95 17.97-1.67-8.8-23.06 9.33-.87 24.36 21.62 21.08-1.96-28.28-23.14c9.13-4.22 12.34-12.04 8.8-21.33-4.97-13.01-19.69-21.26-37.89-19.57l-32.14 2.98 25.57 66.98Zm10.33-56.05c7.37-.68 13.41 2.32 15.35 7.39 1.94 5.07-1.47 8.95-8.84 9.64l-12.67 1.18-6.5-17.03 12.67-1.18Z"/><path d="M1126.41 552.54c-48.34 146.28-246.35 212.38-442.25 147.64-195.9-64.74-315.52-235.81-267.18-382.1C465.32 171.8 663.33 105.7 859.23 170.44c171.42 56.65 296.32 182.91 289.5 314.54-.97 18.8-16.28 49.27-22.33 67.56Z" style="fill:url(#linear-gradient-27)"/><ellipse cx="794.02" cy="367.76" rx="278.96" ry="373.58" transform="rotate(-71.71 794.044 367.75)" style="fill:url(#linear-gradient-28)"/><path d="m439.31 250.53-22.33 67.56c-48.34 146.28 71.27 317.35 267.18 382.1 195.9 64.74 393.9-1.35 442.25-147.64" style="stroke:url(#linear-gradient-29);stroke-width:3px;fill:none"/><ellipse cx="794.02" cy="367.76" rx="223.16" ry="298.87" transform="rotate(-71.71 794.044 367.75)" style="fill:url(#linear-gradient-30);mix-blend-mode:multiply"/><path d="m654.71 333.43 36.61-109.64-67.35 112.99c-5.6 9.4 1.17 21.33 12.12 21.33h50.86c-2.57 7.79-5.26 17.47-6.75 27.39-1.36 9.08-1.85 19.21.22 28.6 2.12 9.61 7.16 19.21 17.26 25.23 15.19 9.05 25.06 11.05 32.94 12.65.59.12 1.16.24 1.73.35 3.67.76 6.42 1.45 9.5 2.85 3.11 1.41 7.05 3.78 12.49 8.31.97.81 2 1.67 3.08 2.58 11.89 9.98 30.55 25.65 51.59 33.86 11.74 4.58 24.95 7.17 38.72 4.85 13.95-2.35 27.31-9.56 39.47-22.59 11.65-12.49 18.29-24.79 19.66-37.51 1.38-12.81-2.81-23.96-8.61-33.57-5.31-8.8-12.6-17.3-19.4-25.23h-.01l-.13-.17c-.38-.44-.76-.89-1.14-1.33-7.45-8.69-14.53-17.13-20.17-26.4-11.01-18.11-9.07-27.66-7.34-31.68 1.01-2.36 2.45-4.02 3.62-5.08a11.5 11.5 0 0 1 1.33-1.06c.06-.04.11-.07.15-.09l.27-.14.45-.28 1.96-1.24c1.25-.79 3.03-1.92 5.17-3.28 4.28-2.72 9.99-6.36 15.73-10.03 5.73-3.67 11.51-7.4 15.92-10.28 2.19-1.44 4.1-2.7 5.5-3.66.69-.47 1.34-.92 1.88-1.32.25-.19.61-.45.96-.74.17-.14.47-.39.82-.72h.02c.16-.16 1.22-1.16 2.13-2.68 3.63-6.09.57-11.65.25-12.22l-.02-.03c-.74-1.36-1.57-2.27-1.84-2.56-.66-.71-1.28-1.22-1.5-1.4-.56-.46-1.17-.89-1.63-1.21-1-.69-2.36-1.58-3.92-2.59-1.88-1.2-37.9-22.99-68.16-41.29-20.96-12.67-39.15-23.68-41.33-25.02.26.16 21.83 20.52 43.18 40.68 20.92 19.75 41.63 39.31 41.87 39.46-2.4 1.55-4.92 3.17-7.45 4.79-5.71 3.65-11.4 7.28-15.66 9.99-2.13 1.36-3.91 2.48-5.15 3.27l-1.66 1.05s-.09.05-.14.08c-.03.02-.07.04-.1.06-.39.23-.88.53-1.45.91-1.13.76-2.59 1.84-4.18 3.28a39.485 39.485 0 0 0-9.72 13.64c-5.71 13.32-4.97 31.36 8.94 54.23 6.82 11.21 15.16 21.04 22.51 29.63l.72.84c7.32 8.54 13.36 15.6 17.57 22.58 4.2 6.96 5.8 12.64 5.2 18.18-.61 5.63-3.71 13.18-13.17 23.32-8.94 9.58-17.58 13.75-25.53 15.09-8.13 1.37-16.71-.01-25.64-3.5-17.03-6.65-32.65-19.71-44.97-30.01-.98-.82-1.94-1.62-2.88-2.4-6.71-5.59-12.51-9.28-18.07-11.81-5.6-2.54-10.47-3.67-14.7-4.55-.61-.13-1.22-.25-1.82-.37-6.94-1.4-13.61-2.75-25.21-9.66-2.67-1.59-4.69-4.34-5.8-9.36-1.16-5.24-1.06-12 .09-19.62 2.28-15.18 8.14-30.37 10.55-36.16 3.94-9.45-3.13-19.57-13.06-19.57H654.7Zm125.63 72.3s-18.44 4.67-33.6-3.53-8.59-33.94-8.59-33.94 4.16 1.35 21.74 13.76c17.58 12.4 20.45 23.71 20.45 23.71Z" style="fill:url(#linear-gradient-31);fill-rule:evenodd"/><ellipse cx="794.02" cy="367.76" rx="223.16" ry="298.87" transform="rotate(-71.71 794.044 367.75)" style="stroke:url(#linear-gradient-32);stroke-width:4px;fill:none"/><path d="M594.76 101.21c81.8-30.26 184.58-32.1 286.79 1.68 195.9 64.74 315.52 235.81 267.18 382.1-48.34 146.28-246.35 212.38-442.25 147.64-195.9-64.74-315.52-235.81-267.18-382.1a212.185 212.185 0 0 1 18.52-40.89" style="stroke:url(#linear-gradient-33);stroke-width:3px;fill:none"/><ellipse class="cls-20" cx="542.3" cy="188.96" rx="82.25" ry="111.24" transform="rotate(-69.83 542.319 188.951)"/><ellipse class="cls-20" cx="542.3" cy="156.67" rx="82.25" ry="111.24" transform="rotate(-69.83 542.323 156.664)"/><ellipse class="cls-20" cx="542.3" cy="156.67" rx="63.68" ry="86.12" transform="rotate(-69.83 542.323 156.664)"/><path class="cls-20" d="m522.84 192.17 17.97-1.67-8.8-23.06 9.33-.87 24.36 21.62 21.08-1.96-28.28-23.14c9.13-4.22 12.34-12.04 8.8-21.33-4.97-13.01-19.69-21.26-37.89-19.57l-32.14 2.98 25.57 66.98Zm10.33-56.05c7.37-.68 13.41 2.32 15.35 7.39 1.94 5.07-1.47 8.95-8.84 9.64l-12.67 1.18-6.5-17.03 12.67-1.18Z"/><path class="cls-20" d="M1132.53 545.76c-48.34 146.28-246.35 212.38-442.25 147.64-195.9-64.74-315.52-235.81-267.18-382.1 48.34-146.28 246.35-212.38 442.25-147.64 171.42 56.65 296.32 182.91 289.5 314.54-.97 18.8-16.28 49.27-22.33 67.56Z"/><ellipse class="cls-20" cx="800.14" cy="360.97" rx="278.96" ry="373.58" transform="rotate(-71.71 800.167 360.97)"/><path class="cls-20" d="M445.43 243.74 423.1 311.3c-48.34 146.28 71.27 317.35 267.18 382.1 195.9 64.74 393.9-1.35 442.25-147.64"/><ellipse class="cls-16" cx="800.14" cy="360.97" rx="223.16" ry="298.87" transform="rotate(-71.71 800.167 360.97)"/><path class="cls-4" d="M660.83 326.64 697.44 217l-67.35 112.99c-5.6 9.4 1.17 21.33 12.12 21.33h50.86c-2.57 7.79-5.26 17.47-6.75 27.39-1.36 9.08-1.85 19.21.22 28.6 2.12 9.61 7.16 19.21 17.26 25.23 15.19 9.05 25.06 11.05 32.94 12.65.59.12 1.16.24 1.73.35 3.67.76 6.42 1.45 9.5 2.85 3.11 1.41 7.05 3.78 12.49 8.31.97.81 2 1.67 3.08 2.58 11.89 9.98 30.55 25.65 51.59 33.86 11.74 4.58 24.95 7.17 38.72 4.85 13.95-2.35 27.31-9.56 39.47-22.59 11.65-12.49 18.29-24.79 19.66-37.51 1.38-12.81-2.81-23.96-8.61-33.57-5.31-8.8-12.6-17.3-19.4-25.23h-.01l-.13-.17c-.38-.44-.76-.89-1.14-1.33-7.45-8.69-14.53-17.13-20.17-26.4-11.01-18.11-9.07-27.66-7.34-31.68 1.01-2.36 2.45-4.02 3.62-5.08a11.5 11.5 0 0 1 1.33-1.06c.06-.04.11-.07.15-.09l.27-.14.45-.28 1.96-1.24c1.25-.79 3.03-1.92 5.17-3.28 4.28-2.72 9.99-6.36 15.73-10.03 5.73-3.67 11.51-7.4 15.92-10.28 2.19-1.44 4.1-2.7 5.5-3.66.69-.47 1.34-.92 1.88-1.32.25-.19.61-.45.96-.74.17-.14.47-.39.82-.72h.02c.16-.16 1.22-1.16 2.13-2.68 3.63-6.09.57-11.65.25-12.22l-.02-.03c-.74-1.36-1.57-2.27-1.84-2.56-.66-.71-1.28-1.22-1.5-1.4-.56-.46-1.17-.89-1.63-1.21-1-.69-2.36-1.58-3.92-2.59-1.88-1.2-37.9-22.99-68.16-41.29-20.96-12.67-39.15-23.68-41.33-25.02.26.16 21.83 20.52 43.18 40.68 20.92 19.75 41.63 39.31 41.87 39.46-2.4 1.55-4.92 3.17-7.45 4.79-5.71 3.65-11.4 7.28-15.66 9.99-2.13 1.36-3.91 2.48-5.15 3.27l-1.66 1.05s-.09.05-.14.08c-.03.02-.07.04-.1.06-.39.23-.88.53-1.45.91-1.13.76-2.59 1.84-4.18 3.28a39.485 39.485 0 0 0-9.72 13.64c-5.71 13.32-4.97 31.36 8.94 54.23 6.82 11.21 15.16 21.04 22.51 29.63l.72.84c7.32 8.54 13.36 15.6 17.57 22.58 4.2 6.96 5.8 12.64 5.2 18.18-.61 5.63-3.71 13.18-13.17 23.32-8.94 9.58-17.58 13.75-25.53 15.09-8.13 1.37-16.71-.01-25.64-3.5-17.03-6.65-32.65-19.71-44.97-30.01-.98-.82-1.94-1.62-2.88-2.4-6.71-5.59-12.51-9.28-18.07-11.81-5.6-2.54-10.47-3.67-14.7-4.55-.61-.13-1.22-.25-1.82-.37-6.94-1.4-13.61-2.75-25.21-9.66-2.67-1.59-4.69-4.34-5.8-9.36-1.16-5.24-1.06-12 .09-19.62 2.28-15.18 8.14-30.37 10.55-36.16 3.94-9.45-3.13-19.57-13.06-19.57h-47.39Zm125.63 72.3s-18.44 4.67-33.6-3.53-8.59-33.94-8.59-33.94 4.16 1.35 21.74 13.76c17.58 12.4 20.45 23.71 20.45 23.71Z"/><ellipse class="cls-20" cx="800.14" cy="360.97" rx="223.16" ry="298.87" transform="rotate(-71.71 800.167 360.97)"/><path class="cls-20" d="M600.88 94.42c81.8-30.26 184.58-32.1 286.79 1.68 195.9 64.74 315.52 235.81 267.18 382.1-48.34 146.28-246.35 212.38-442.25 147.64-195.9-64.74-315.52-235.81-267.18-382.1a212.185 212.185 0 0 1 18.52-40.89"/></g><path style="fill:#ff00ae" d="M806.69 562.69h141.64v9.69H806.69z"/><path class="cls-39" d="M948.34 562.69h39.37v9.69h-39.37z"/><path class="cls-36" d="M987.71 562.69h39.37v9.69h-39.37z"/><path class="cls-40" d="M1027.08 562.69h39.37v9.69h-39.37zM1106.79 562.69h39.37v9.69h-39.37z"/><path class="cls-37" d="M1066.45 562.69h39.37v9.69h-39.37zM17.4 679.55h327.23v2.42H17.4z"/><path class="cls-38" d="M383.09 675.92h49.98v9.69h-49.98z"/><path class="cls-39" d="M433.07 675.92h13.89v9.69h-13.89z"/><path class="cls-36" d="M446.97 675.92h13.89v9.69h-13.89z"/><path class="cls-40" d="M460.86 675.92h13.89v9.69h-13.89zM488.99 675.92h13.89v9.69h-13.89z"/><path class="cls-37" d="M474.75 675.92h13.89v9.69h-13.89z"/><path style="fill:#00aeef;mix-blend-mode:color-dodge" d="M504.32 464.03h589.37v43.46H504.32z"/><path style="fill:#00aeef;mix-blend-mode:screen" d="M27.44 698.76h504.01v11.61H27.44z"/></g></g></svg>