<svg version="1.0" xmlns="http://www.w3.org/2000/svg" width="1629.333" height="837.333" viewBox="0 0 1222 628"><path d="M668.5.7c-28.7 3.6-54 15.8-74 35.8-48.5 48.6-48.5 126.4 0 175 48.6 48.5 126.4 48.5 175 0 48.5-48.6 48.5-126.4 0-175C745.8 12.9 713.7-.3 681 .2c-5.2 0-10.8.3-12.5.5zM0 132v124h248v372h248V8H0v124zM932.7 11.2C931.9 13 874 151.1 804 318c-70 166.9-127.9 305-128.7 306.8L674 628l144.1-.2 144.1-.3L1091.6 319c71.1-169.7 129.6-309.1 129.8-309.8.4-.9-28.7-1.2-143.4-1.2H934l-1.3 3.2z"/></svg>