<svg xmlns="http://www.w3.org/2000/svg" width="400" height="400"><g fill-rule="evenodd"><path d="M251.467 12.267c-.147.146-.267.584-.267.973 0 .401-10.256 10.976-23.697 24.434L203.805 61.4l12.398.102c11.086.092 12.45.174 12.897.777.375.506.5 3.829.5 13.317 0 9.301.127 12.771.48 13.124.364.364 7.042.48 27.61.48h27.13l.39 1.026c.224.588.39 6.429.39 13.689v12.663l26.25-26.266c14.438-14.446 26.498-26.36 26.8-26.476.735-.282.702-1.403-.05-1.691-.33-.127-.6-.46-.6-.741 0-.281-.36-.605-.8-.72a1.067 1.067 0 0 1-.8-1.009c0-.583-.202-.747-.745-.605-.521.136-.813-.068-.973-.678-.127-.484-.418-.755-.655-.609-.25.155-.427-.078-.427-.559 0-.557-.259-.824-.8-.824-.444 0-.8-.267-.8-.6 0-.33-.249-.6-.553-.6-.305 0-.648-.36-.763-.8-.115-.44-.475-.8-.8-.8-.325 0-.685-.36-.8-.8-.115-.44-.507-.8-.87-.8-.364 0-.562-.161-.44-.357.121-.197-.236-.472-.793-.612-.558-.14-.925-.399-.815-.575.109-.177-.424-.565-1.184-.863-.76-.298-1.382-.779-1.382-1.068 0-.289-.36-.525-.8-.525-.533 0-.8-.267-.8-.8 0-.525-.267-.8-.776-.8-.816 0-1.445-.611-.926-.9.166-.093.091-.12-.166-.059-.258.06-.942-.329-1.521-.866-.579-.536-1.313-.975-1.632-.975-.318 0-.579-.36-.579-.8 0-.461-.267-.8-.629-.8-.345 0-.898-.27-1.228-.6-.33-.33-1.037-.6-1.572-.6-.605 0-.971-.231-.971-.613 0-.336-.315-.731-.7-.877a4.204 4.204 0 0 1-1.229-.788c-.29-.287-.875-.522-1.3-.522-.504 0-.771-.277-.771-.8 0-.49-.271-.805-.7-.813-.385-.007-1.049-.277-1.476-.6-.428-.323-1.103-.587-1.5-.587-.449 0-.724-.294-.724-.773 0-.547-.323-.811-1.1-.9-.605-.07-1.059-.339-1.01-.597.05-.259-.48-.596-1.177-.749-.697-.153-1.516-.527-1.819-.83-.303-.303-.898-.551-1.323-.551-.424 0-.771-.251-.771-.557 0-.604-.838-1.043-1.99-1.043-.398 0-.828-.27-.955-.6-.131-.343-.728-.6-1.396-.6-.829 0-1.226-.231-1.375-.8-.145-.554-.546-.8-1.302-.8-.602 0-1.299-.281-1.55-.624-.251-.344-1.036-.641-1.744-.661-.973-.028-1.288-.218-1.288-.776 0-.578-.305-.739-1.4-.739-.93 0-1.4-.187-1.4-.557 0-.668-.86-1.043-2.39-1.043-.63 0-1.226-.264-1.355-.6-.134-.35-.733-.6-1.439-.6-.776 0-1.388-.287-1.709-.8-.386-.618-.933-.8-2.403-.8-1.39 0-1.904-.155-1.904-.576 0-.377-.519-.619-1.5-.7-1.011-.084-1.5-.319-1.5-.724 0-.639-.116-.672-2.6-.75-1.133-.035-1.6-.225-1.6-.65 0-.461-.511-.6-2.2-.6-1.933 0-2.2-.097-2.2-.8 0-.724-.267-.8-2.8-.8s-2.8-.076-2.8-.8c0-.792-1.5-1.167-2.133-.533m-77.224 105.966c-.134.348-.243 6.248-.243 13.111 0 10.646-.091 12.609-.623 13.367-.621.887-.655.889-13.226.889-7.923 0-12.891.154-13.377.414-.792.424-1.285 109.586-.495 109.586.718 0 109.636-109.406 109.197-109.685-.262-.167-6.065-.306-12.896-.309-9.12-.004-12.548-.134-12.9-.486-.353-.353-.48-3.846-.48-13.226 0-8.022-.153-13.033-.414-13.52-.584-1.092-54.125-1.23-54.543-.141M52.111 213c-20.509 20.46-37.733 37.556-38.276 37.991-.543.435-.827.89-.631 1.011.195.121.41 1.475.476 3.009.093 2.159.256 2.789.72 2.789.442 0 .632.554.721 2.1.087 1.511.283 2.1.7 2.1.43 0 .579.526.579 2.037 0 1.701.132 2.072.8 2.247.675.177.8.546.8 2.363 0 1.647.141 2.153.6 2.153.404 0 .6.404.6 1.237 0 .891.219 1.295.781 1.442.624.163.804.615.9 2.263.08 1.385.282 2.025.619 1.958.319-.064.5.378.5 1.224 0 .727.283 1.672.63 2.1.346.427.515.551.376.276s-.063-.5.17-.5.424.618.424 1.373c0 1.022.205 1.438.8 1.627.553.176.8.605.8 1.394 0 .626.195 1.204.432 1.283.238.08.568.77.734 1.534.166.764.493 1.35.727 1.303.242-.049.342.295.231.8-.156.714-.11.77.235.286.348-.488.43-.402.435.457.003.582.276 1.161.606 1.288.351.134.6.734.6 1.442 0 .946.176 1.213.8 1.213.645 0 .8.267.8 1.38 0 .808.248 1.519.597 1.715.329.183.637.809.685 1.391.048.581.193.991.322.912.506-.313 1.197.5 1.28 1.505.048.583.16.986.249.897.289-.289 1.267.924 1.267 1.571 0 .346.27.629.6.629.33 0 .6.33.6.733 0 .404.135.869.3 1.034.165.165.308.51.318.766.01.257.235.422.5.367.265-.055.482.26.482.7 0 .444.267.8.6.8.333 0 .6.356.6.8 0 .44.36 1.16.8 1.6.44.44.8 1.07.8 1.4 0 .33.27.6.6.6.33 0 .6.257.6.571 0 .314.292.629.648.7.357.071.861.759 1.12 1.529.259.77.687 1.355.952 1.3.264-.055.48.26.48.7 0 .444.267.8.6.8.33 0 .6.196.6.436 0 .759 3.291 5.164 3.858 5.164.298 0 .542.36.542.8 0 .444.267.8.6.8.33 0 .6.287.6.637 0 .351.35.729.777.841.452.118.884.689 1.032 1.363.14.637.51 1.159.823 1.159.312 0 .568.184.568.408 0 .224 1.305 1.737 2.9 3.361 1.595 1.625 3.304 3.421 3.797 3.992.953 1.103 2.103 1.386 2.103.519 0-.286 11.835-12.391 26.3-26.9l26.3-26.38-12.881-.2c-9.818-.152-13.004-.324-13.4-.72-.418-.419-.558-10.998-.719-54.6l-.2-54.08L52.111 213" fill="#62d8a1"/><path d="M176.584 6.825c-.312.506.14 1.175.793 1.175.862 0 1.027-1.429.172-1.494-.403-.03-.837.113-.965.319m48.119.446c.245.938 1.808.998 1.626.062-.071-.367-.509-.695-.973-.729-.633-.047-.796.12-.653.667m-57.805.995c-.631.254-.248.934.526.934a.59.59 0 0 0 .576-.6c0-.617-.229-.686-1.102-.334m-7.329 1.101c-.443.483-.134 1.433.466 1.433.475 0 .765-.278.765-.733 0-.54-.905-1.055-1.231-.7M242 9.986c0 .448.259.814.576.814.957 0 1.101-.731.235-1.194-.691-.37-.811-.314-.811.38m6 1.414c0 .33.27.6.6.6.33 0 .6-.27.6-.6 0-.33-.27-.6-.6-.6-.33 0-.6.27-.6.6m-99.836 1.15c-.339.883.112 1.334.723.723.36-.36.362-.584.006-.94s-.529-.304-.729.217m105.436.263c0 .433.27.787.6.787.33 0 .6-.251.6-.557 0-.307-.27-.661-.6-.788-.408-.156-.6.022-.6.558m-110.958 1.422c-.342.892-.315.965.358.965.33 0 .6-.259.6-.576 0-.847-.677-1.121-.958-.389m-4.431 1.287c-.254.254.152.878.57.878.183 0 .426-.24.538-.533.19-.496-.685-.768-1.108-.345m125.389.245c0 .348.285.633.633.633.349 0 .562-.214.475-.475-.247-.742-1.108-.865-1.108-.158m-129.3 1.19c-.919.697-.885 1.043.1 1.043.533 0 .8-.267.8-.8 0-.935.008-.933-.9-.243M270.8 18.6c0 .33.27.6.6.6.33 0 .6-.27.6-.6 0-.33-.27-.6-.6-.6-.33 0-.6.27-.6.6m-144 1c-.33.213-.51.404-.4.424l.872.167c.441.085.598-.063.458-.43-.254-.66-.178-.647-.93-.161m151.455 1.8c.127.33.391.6.588.6.196 0 .357-.27.357-.6 0-.33-.264-.6-.587-.6-.358 0-.498.235-.358.6m6.545 3.3c0 .312.214.495.475.408.725-.241.828-.975.136-.975-.336 0-.611.255-.611.567m-183.5 7.588c-.275.098-.5.472-.5.831 0 .594.061.592.676-.024.723-.723.641-1.099-.176-.807m-7.7 4.663c0 .083.305.398.677.7.372.302.551.339.397.083a.45.45 0 0 1 .224-.668c.276-.112.097-.217-.398-.234-.495-.018-.9.036-.9.119M89.8 40c-.398.44-.634.8-.523.8.11 0 .616-.36 1.123-.8.507-.44.743-.8.523-.8-.219 0-.725.36-1.123.8m228.292 4.075c.247.742 1.108.865 1.108.158a.635.635 0 0 0-.633-.633c-.349 0-.562.214-.475.475m5.508 4.494c0 .532 2.343 1.622 2.706 1.259.142-.143-.138-.364-.623-.491-.486-.126-.883-.449-.883-.717 0-.268-.27-.487-.6-.487-.33 0-.6.196-.6.436M68.4 56.8c-.33.213-.443.391-.251.394.192.003.127.274-.145.602-.272.327-.635.508-.807.402-.172-.106-.416.076-.543.404-.155.406.024.598.559.598.433 0 .787-.27.787-.6 0-.33.249-.6.553-.6.305 0 .648-.36.763-.8.231-.882-.009-.986-.916-.4m265.467-.133c-.439.439-.301 1.401.16 1.116.236-.146.527.121.652.596.13.497.486.809.844.74.341-.065.57-.299.509-.519-.062-.22-.278-.354-.481-.297-.203.057-.54-.348-.75-.9-.407-1.07-.515-1.155-.934-.736m2.533 3.024c0 .729.709 1.333 1.103.94.137-.138-.055-.554-.427-.926-.623-.624-.676-.625-.676-.014m-271.188.686c-.249.465-.604.751-.79.637-.186-.115-.441.06-.568.388-.388 1.012.806.671 1.532-.437.373-.569.588-1.124.478-1.234-.109-.11-.403.181-.652.646M338 61.324c0 .325.283.699.629.832.439.168.59.04.5-.424-.164-.847-1.129-1.195-1.129-.408m-164.216.701c-.144.234-.237 6.154-.207 13.155.05 11.226-.02 12.806-.589 13.375-.581.581-3.329.645-27.537.645-20.382 0-27.007.116-27.371.48-.354.354-.48 3.911-.48 13.52s-.126 13.166-.48 13.52c-.353.353-3.869.482-13.3.486-7.379.004-13.075.167-13.42.386-1.091.689-1.093 165.715-.003 166.805.77.77 1.321.803 13.523.803 9.36 0 12.847.127 13.2.48.354.354.48 3.919.48 13.553v13.074l.9.241c.495.133 12.893.244 27.551.247 22.166.004 26.728.098 27.109.557.324.391.45 4.264.429 13.265-.024 10.045.081 12.825.499 13.243.722.721 54.092.82 54.958.102.451-.375.554-2.851.554-13.331 0-9.477.127-12.998.48-13.351.364-.364 7.037-.48 27.586-.48 26.389 0 27.117-.02 27.52-.774.26-.485.414-5.389.414-13.167 0-6.816.109-12.678.243-13.026.214-.559 1.733-.633 12.971-.633 11.038 0 12.812-.083 13.357-.629.643-.642 1.013-53.505.386-55.138-.353-.922-54.851-.974-55.205-.053-.122.319-.252 6.446-.287 13.615-.055 11.102-.154 13.09-.665 13.413-.345.218-6.039.385-13.4.392-7.04.007-13.035.161-13.321.343-.412.261-.515 2.998-.49 13.001.02 8.221-.118 12.95-.393 13.464-.423.789-52.17 1.314-54.163.549-.559-.214-.633-1.764-.633-13.32 0-9.638-.126-13.203-.48-13.557-.354-.354-3.926-.48-13.586-.48-12.548 0-13.123-.033-13.52-.774-.893-1.668-.54-109.53.36-110.012.486-.26 5.454-.414 13.377-.414 12.571 0 12.605-.002 13.226-.889.532-.758.623-2.721.623-13.367 0-6.863.109-12.763.243-13.111.418-1.089 53.959-.951 54.543.141.261.487.414 5.508.414 13.551 0 10.013.113 12.871.521 13.21.344.285 4.914.472 13.381.549 9.898.089 12.979.236 13.379.636.401.403.533 3.437.582 13.379.058 11.833.12 12.899.777 13.379.887.65 52.243.775 53.934.132l1.026-.39v-27.386c0-21.47-.108-27.457-.5-27.71-.275-.178-6.35-.414-13.5-.524l-13-.2-.2-13.4c-.11-7.37-.346-13.625-.524-13.9-.253-.392-6.182-.5-27.42-.5-20.541 0-27.212-.116-27.576-.48-.353-.353-.48-3.801-.48-13.026 0-7.884-.154-12.834-.414-13.32-.486-.908-54.844-1.25-55.402-.349M339.6 63c0 .33.292.6.649.6.531 0 .559-.109.151-.6-.274-.33-.566-.6-.649-.6-.083 0-.151.27-.151.6M61.2 64.007c-.33.209-.42.388-.2.396.22.008-.05.367-.6.797-.55.43-.82.782-.6.782.688 0 2.313-1.443 2.153-1.911-.102-.296-.355-.317-.753-.064m280.012.031c-.013.675 1.197 1.971 1.819 1.949.203-.007.086-.232-.26-.5s-.836-.847-1.088-1.287c-.356-.62-.461-.657-.471-.162M58.4 66.8c-.33.213-.443.391-.251.394.192.003.127.274-.145.602-.272.327-.635.508-.807.402-.36-.222-.923 1.01-.606 1.326.115.115.209-.001.209-.257 0-.257.27-.467.6-.467.33 0 .6-.18.6-.4 0-.22.27-.4.6-.4.333 0 .6-.356.6-.8 0-.918.001-.917-.8-.4m285.2.413c0 .433.27.787.6.787.33 0 .6-.251.6-.557 0-.307-.27-.661-.6-.788-.408-.156-.6.022-.6.558M49.052 77.808c-.135.354-.398.549-.583.435-.184-.114-.336.024-.336.308s.24.516.534.516c.293 0 .445-.089.336-.197-.108-.108.008-.442.257-.743.25-.3.361-.64.246-.754-.114-.114-.318.082-.454.435m318.031 19.38c.371.433.755.708.853.61.238-.239-.741-1.398-1.181-1.398-.191 0-.044.355.328.788M32.356 101.7c-.47.895-.468.896.386.138.953-.847 1.04-1.038.472-1.038-.212 0-.598.405-.858.9m341.944 8.233c.798.836 1.109.788.762-.116-.13-.339-.513-.617-.849-.617-.519 0-.505.113.087.733m5.3 11.018c0 .083.27.375.6.649.491.408.6.38.6-.151 0-.357-.27-.649-.6-.649-.33 0-.6.068-.6.151m1.2 3.616c0 .348.285.633.633.633.707 0 .584-.861-.158-1.108-.261-.087-.475.126-.475.475M18 131.6c0 .44.084.8.186.8s.379-.36.614-.8c.342-.639.304-.8-.186-.8-.347 0-.614.347-.614.8m365.856-.522c-.141.14-.256.525-.256.855 0 .33.118.482.263.337.145-.145.491-.074.769.156.387.321.454.225.288-.409-.244-.934-.683-1.321-1.064-.939M17 135.506c-.22.162-.458.559-.53.883-.096.439.082.398.7-.162 1.077-.975.944-1.539-.17-.721m368.2.294c0 .33.27.6.6.6.33 0 .6-.27.6-.6 0-.33-.27-.6-.6-.6-.33 0-.6.27-.6.6m1.455 4c.127.33.476.6.775.6.32 0 .45-.248.315-.6-.127-.33-.476-.6-.775-.6-.32 0-.45.248-.315.6M13.6 144.375c0 .5.256.756.721.721 1.004-.076 1.055-1.496.054-1.496-.5 0-.775.275-.775.775m374.471-.108c.194 1.003 1.129 1.141 1.129.166 0-.491-.258-.833-.629-.833-.373 0-.577.272-.5.667m-375.795 4.565c-.163.624-.067.774.386.6.332-.128.679-.232.771-.232.092 0 .167-.27.167-.6 0-.907-1.076-.719-1.324.232m-1.22 5.046c-.478.478-.258 1.322.344 1.322.33 0 .6-.259.6-.576 0-.669-.571-1.12-.944-.746M390.8 155.8c0 .33.27.6.6.6.33 0 .6-.27.6-.6 0-.33-.27-.6-.6-.6-.33 0-.6.27-.6.6M9.443 161.433c-.352.917-.324.967.557.967.533 0 .8-.267.8-.8 0-.949-1.009-1.074-1.357-.167M392 161.6c0 .533.267.8.8.8.949 0 1.074-1.009.167-1.357-.917-.352-.967-.324-.967.557M8 168.8c0 .444.267.8.6.8.333 0 .6-.356.6-.8 0-.444-.267-.8-.6-.8-.333 0-.6.356-.6.8m385.6 1.2c0 .44.255.8.567.8.311 0 .66.225.774.5.115.275.143.05.063-.5a47.937 47.937 0 0 1-.174-1.3c-.07-.702-1.23-.23-1.23.5M6.617 179.899c-.324.844-.287.901.583.901.509 0 .8-.267.8-.733 0-.862-1.067-.991-1.383-.168M395.2 181.6c0 .444.267.8.6.8.333 0 .6-.356.6-.8 0-.444-.267-.8-.6-.8-.333 0-.6.356-.6.8m0 39.6c0 .444.267.8.6.8.333 0 .6-.356.6-.8 0-.444-.267-.8-.6-.8-.333 0-.6.356-.6.8M6.892 222.475c.247.742 1.108.865 1.108.158a.635.635 0 0 0-.633-.633c-.349 0-.562.214-.475.475M8 232.8c0 .444.267.8.6.8.333 0 .6-.356.6-.8 0-.444-.267-.8-.6-.8-.333 0-.6.356-.6.8m385.6-.013c0 .536.192.714.6.558.33-.127.6-.481.6-.788 0-.306-.27-.557-.6-.557-.33 0-.6.354-.6.787M9.692 240.875c.199.598 1.108.927 1.108.401 0-.215-.285-.5-.633-.633-.39-.15-.573-.061-.475.232m383.008-.199c-.385.1-.7.349-.7.553 0 .565.643.443 1.2-.229.274-.33.431-.579.349-.554-.082.026-.464.129-.849.23m-381.838 6.345c.076.392.38.793.676.892.344.115.489-.078.4-.534-.076-.392-.38-.793-.676-.892-.344-.115-.489.078-.4.534m379.938.133c0 .575.185.75.617.584.683-.262.599-.999-.142-1.246-.264-.088-.475.206-.475.662m-378.643 5.479c.134.348.243.708.243.8 0 .092.27.167.6.167.333 0 .6-.356.6-.8 0-.547-.267-.8-.843-.8-.604 0-.774.179-.6.633m377.043.167c0 .834.321.993 1 .494.729-.536.612-1.294-.2-1.294-.533 0-.8.267-.8.8m-373.929 9.867c.194 1.003 1.129 1.141 1.129.166 0-.491-.258-.833-.629-.833-.373 0-.577.272-.5.667m371.129.166c0 .975.935.837 1.129-.166.077-.395-.127-.667-.5-.667-.371 0-.629.342-.629.833m-369.919 3.894c.161.837 1.519 1.149 1.519.349 0-.32-.37-.68-.823-.798-.614-.161-.791-.046-.696.449m367.538 3.237c-.333.623-.281.745.286.662.382-.056.753-.4.824-.764.178-.908-.608-.836-1.11.102m-364.706 4.081c.033.437.358.755.772.755.961 0 .915-1.054-.057-1.309-.572-.149-.757-.006-.715.554m362.887-.112c-.445.446-.154.867.6.867.44 0 .8-.24.8-.533 0-.513-.986-.747-1.4-.334m-3 7.5c0 .349.214.562.475.475.742-.247.865-1.108.158-1.108a.635.635 0 0 0-.633.633M23.6 284.2c0 .333.356.6.8.6.954 0 1.061-.614.167-.957-.894-.343-.967-.316-.967.357m1.6 2.776c0 .601.718 1.239 1.036.921.279-.279-.273-1.497-.679-1.497-.196 0-.357.259-.357.576m1.206 2.591c.022.825.7 1.235.884.533.125-.479-.004-.767-.345-.767-.3 0-.542.105-.539.234m1.594 3.2c0 .491.258.833.629.833.373 0 .577-.272.5-.667-.194-1.003-1.129-1.141-1.129-.166m345.867-.1c-.449.448-.298.933.29.933.307 0 .661-.27.788-.6.23-.601-.564-.847-1.078-.333M372 295.433c0 .349.214.562.475.475.742-.247.865-1.108.158-1.108a.635.635 0 0 0-.633.633m-1.6 4.271c0 .351-.315.72-.7.82-.656.172-.655.186.013.23.723.047 1.393-.981.936-1.438-.137-.137-.249.037-.249.388M33.773 302.7c.057.385.412.76.79.834.638.125.636.074-.027-.7-.865-1.011-.892-1.016-.763-.134m8.369 12.692c.142.37.258.749.258.841 0 .092.283.167.629.167.89 0 .544-1.356-.392-1.536-.567-.109-.69.021-.495.528m4.368 5.808c.033.44.298.8.589.8.405 0 .429-.187.101-.8-.235-.44-.501-.8-.589-.8-.089 0-.134.36-.101.8m5.911 7.239c.224.419.581.761.793.761.212 0 .386.36.386.8 0 .577.251.787.9.754.635-.033.701-.099.226-.225-.37-.097-.785-.688-.922-1.313-.143-.648-.58-1.221-1.02-1.336-.651-.17-.707-.084-.363.559m21.808 21.145c-.732.262-.734.29-.043.555.795.305 1.177.121.956-.46-.078-.205-.489-.247-.913-.095M320.8 355.3c0 .312.275.567.611.567.692 0 .589-.734-.136-.975-.261-.087-.475.096-.475.408m-233.895 4.576c.372.372.81.542.974.378.164-.163.033-.465-.291-.67-.973-.615-1.406-.431-.683.292m228.138-.043c-.345.898-.313.969.326.724.779-.299 1.139-1.357.461-1.357-.299 0-.654.285-.787.633m-7.946 5.417c-.383.214-.697.561-.697.77 0 .643 1.099.42 1.367-.277.329-.858.179-.968-.67-.493m-4.443 3.348c.127.328.391.498.588.376.565-.349.418-.974-.229-.974-.357 0-.498.235-.359.598M122.4 380.4c.776.501 1.2.501 1.2 0 0-.22-.405-.397-.9-.394-.728.005-.785.08-.3.394m2.8 1.013c0 .323.27.587.6.587.33 0 .6-.161.6-.357 0-.197-.27-.461-.6-.588-.365-.14-.6 0-.6.358m151.232-.113c-.018.385.227.7.544.7.671 0 1.224-.733.842-1.115-.144-.144-.41-.022-.591.272-.274.443-.367.441-.547-.012-.151-.38-.226-.333-.248.155M132.4 384.2c0 .33.27.6.6.6.33 0 .6-.27.6-.6 0-.33-.27-.6-.6-.6-.33 0-.6.27-.6.6m136.8 0c0 .673.073.7.967.357.894-.343.787-.957-.167-.957-.444 0-.8.267-.8.6m-132.69 1.4c-.033.44.178.8.468.8.291 0 .623-.36.738-.8.148-.567.012-.8-.468-.8-.391 0-.703.339-.738.8m128.89 0c-.703.776-.699.8.138.8.595 0 .862-.247.862-.8 0-.44-.062-.8-.138-.8-.076 0-.464.36-.862.8m-124.529 1.467c.194 1.003 1.129 1.141 1.129.166 0-.491-.258-.833-.629-.833-.373 0-.577.272-.5.667m119.807.156c-.161.614-.046.791.449.696.837-.161 1.149-1.519.349-1.519-.32 0-.68.37-.798.823M145.455 388.6c.127.33.391.6.588.6.196 0 .357-.27.357-.6 0-.33-.264-.6-.587-.6-.358 0-.498.235-.358.6m110.945 0c0 .33.158.6.351.6.193 0 .575-.27.849-.6.416-.501.358-.6-.351-.6-.488 0-.849.255-.849.6m-105.529 1.267c.192.99.996 1.087 1.241.149.161-.618.021-.816-.579-.816-.524 0-.748.225-.662.667M250.8 390c0 .444.267.8.6.8.333 0 .6-.356.6-.8 0-.444-.267-.8-.6-.8-.333 0-.6.356-.6.8m-94.3 1.3c.252.757 1.5.864 1.5.129 0-.371-.342-.629-.833-.629-.489 0-.765.207-.667.5m88.3.1c0 .333.356.6.8.6.444 0 .8-.267.8-.6 0-.333-.356-.6-.8-.6-.444 0-.8.267-.8.6m-61.125 4.095c.201 1.043 1.525 1.159 1.525.134 0-.572-.257-.829-.829-.829-.573 0-.788.215-.696.695m33.925.134c0 1.025 1.324.909 1.525-.134.092-.48-.123-.695-.696-.695-.572 0-.829.257-.829.829" fill="#3e3c3b"/><path d="M338.6 63.803c-1.299.717-52.983 52.702-52.758 53.065.113.183 6.124.332 13.358.332 7.655 0 13.249.155 13.382.371.525.849.262 55.354-.268 55.691-1.081.686-54.19.405-54.885-.291-.546-.545-.629-2.339-.629-13.576 0-7.121-.15-13.041-.334-13.154-.231-.143-106.014 105.19-109.948 109.481-.791.863 1.81 1.066 13.702 1.072 9.431.004 12.947.133 13.3.486.353.353.48 3.867.48 13.32s.127 12.967.48 13.32c.603.603 52.97.689 53.92.088.511-.323.61-2.31.668-13.38.037-7.151.183-13.187.324-13.415.167-.271 4.768-.413 13.352-.413 9.652 0 13.222-.126 13.576-.48.353-.353.48-3.867.48-13.324 0-10.459.105-12.987.568-13.62.55-.753 1.363-.779 27.097-.884l26.53-.109 38.603-38.55c21.231-21.203 39.007-38.672 39.502-38.819.895-.266 1.264-1.014.5-1.014-.221 0-.4-1.052-.4-2.357 0-1.727-.161-2.419-.6-2.588-.414-.158-.6-.804-.6-2.08 0-1.513-.145-1.888-.8-2.059-.675-.177-.8-.546-.8-2.363 0-1.647-.141-2.153-.6-2.153-.442 0-.6-.461-.6-1.751 0-1.646-.745-2.971-1.337-2.379-.145.145-.263-.684-.263-1.841 0-1.767-.128-2.137-.8-2.313-.601-.157-.8-.546-.8-1.563 0-.912-.188-1.353-.577-1.353-.393 0-.616-.543-.7-1.7-.081-1.12-.297-1.665-.634-1.596-.57.115-.709-.201-1.09-2.476-.192-1.15-.36-1.419-.625-1-.26.412-.363.218-.368-.695-.008-1.672-.365-2.533-1.049-2.533-.368 0-.557-.467-.557-1.38 0-.759-.229-1.524-.508-1.7-.28-.176-.726-.815-.992-1.42-.265-.605-.667-1.1-.891-1.1-.225 0-.409-.36-.409-.8 0-.44-.342-1.142-.759-1.559-.418-.418-.882-1.318-1.032-2-.15-.683-.438-1.241-.641-1.241-.202 0-.368-.377-.368-.837 0-.501-.321-.922-.8-1.047-.569-.149-.8-.546-.8-1.375 0-.668-.257-1.265-.6-1.396-.33-.127-.6-.447-.6-.712 0-.265-.36-.869-.8-1.341-.44-.472-.8-1.136-.8-1.475a.61.61 0 0 0-.6-.617c-.333 0-.6-.356-.6-.8 0-.44-.18-.8-.4-.8-.22 0-.355-.225-.3-.5.055-.275-.125-.455-.4-.4-.275.055-.479-.035-.453-.2.171-1.079-.139-1.7-.847-1.7-.523 0-.8-.267-.8-.771 0-.425-.27-1.042-.6-1.372-.33-.33-.6-.973-.6-1.428 0-.528-.258-.829-.712-.829-.392 0-.934-.495-1.205-1.1-.872-1.95-1.672-3.102-2.082-3-.221.055-.401-.26-.401-.7 0-.533-.267-.8-.8-.8s-.8-.267-.8-.8c0-.444-.267-.8-.6-.8-.33 0-.6-.258-.6-.573 0-.315-.356-.686-.792-.824-.435-.139-.76-.376-.721-.527.157-.607-.554-2.016-1.128-2.236-.335-.129-.49-.428-.344-.664.147-.239-.108-.528-.575-.65-.478-.125-.84-.544-.84-.973 0-.414-.27-.753-.6-.753-.33 0-.6-.27-.6-.6 0-.333-.356-.6-.8-.6-.533 0-.8-.267-.8-.8s-.267-.8-.8-.8c-.444 0-.8-.267-.8-.6 0-.33-.27-.6-.6-.6-.33 0-.6-.275-.6-.612 0-.337-.629-1.165-1.399-1.841-.769-.675-1.311-1.369-1.204-1.542.321-.519-1.538-.676-2.397-.202M90.289 311.79c-22.2 22.271-26.325 26.584-26.4 27.603-.061.828.079 1.172.445 1.096.294-.062.63.253.747.7.117.446.541.811.943.811.515 0 .685.236.576.8-.111.578.061.8.623.8.427 0 .777.27.777.6 0 .33.205.6.456.6s1.305.899 2.343 1.998c1.184 1.255 2.354 2.093 3.143 2.25.874.175 1.258.481 1.258 1.002 0 .413.27.75.6.75.33 0 .6.27.6.6 0 .333.356.6.8.6.533 0 .8.267.8.8s.267.8.8.8c.444 0 .8.267.8.6 0 .33.242.6.538.6.296 0 .864.36 1.262.8.398.44 1.056.8 1.462.8.406 0 .738.274.738.61 0 .335.433.774.961.975.529.201 1.079.557 1.224.79.144.234.628.425 1.076.425.477 0 .9.331 1.023.8.115.44.458.8.763.8.304 0 .553.27.553.6 0 .356.367.6.904.6.497 0 1.128.36 1.403.8.275.44.858.8 1.296.8.442 0 .797.268.797.6 0 .334.356.6.804.6.442 0 1.112.36 1.489.8.377.44 1.005.8 1.396.8s.711.251.711.557c0 .612.841 1.043 2.033 1.043.422 0 .767.27.767.6 0 .522.731.8 1.7.647.165-.026.3.227.3.563 0 .358.496.709 1.2.85.66.132 1.2.488 1.2.79 0 .303.135.529.3.503 1.341-.212 2.431.141 2.616.847.152.583.546.8 1.447.8.833 0 1.237.196 1.237.6 0 .419.422.6 1.4.6 1.133 0 1.4.152 1.4.8s.267.8 1.4.8c.93 0 1.4.187 1.4.557 0 .604.838 1.043 1.99 1.043.398 0 .828.27.955.6.158.414.804.6 2.08.6 1.513 0 1.888.145 2.059.8.133.509.546.8 1.134.8.509 0 1.195.27 1.525.6.33.33 1.132.6 1.782.6.845 0 1.241.228 1.391.8.175.668.546.8 2.247.8 1.544 0 2.037.145 2.037.6 0 .461.513.6 2.218.6 1.89 0 2.2.103 2.1.7-.098.58.239.721 1.961.82 1.649.095 2.131.282 2.327.9.202.634.616.78 2.221.78 1.487 0 1.973.148 1.973.6 0 .467.533.6 2.4.6 1.657 0 2.4-.155 2.4-.501 0-.276 10.355-10.851 23.01-23.5 16.4-16.392 22.979-23.218 22.9-23.76-.105-.73-.568-.758-11.183-.674-14.388.114-12.756 1.959-12.716-14.379.017-7.036-.079-12.972-.213-13.19-.158-.255-9.828-.396-27.189-.396-14.819 0-27.228-.109-27.576-.243-.559-.214-.633-1.767-.633-13.351 0-10.032-.117-13.191-.5-13.459-.353-.248-8.252 7.425-26.811 26.043" fill="#f4bb3c"/><path d="M177.895 7.241c.166.637.042.81-.539.748-3.298-.352-9.356.06-9.356.636 0 .356-.302.595-.7.554-3.358-.341-6.5.055-6.5.821 0 .741-.267.8-3.6.8-2.933 0-3.6.111-3.6.6 0 .465-.528.6-2.356.6-1.997 0-2.347.106-2.3.7.048.597-.366.717-2.802.817-2.614.106-2.841.183-2.654.9.187.714-2.168 1.164-4.374.835-.157-.023-.177.239-.045.583.151.395.036.597-.315.548-2.079-.291-3.554.048-3.554.817 0 .767-1.126 1.026-3.927.903-.292-.013-.432.227-.313.537.193.503-1.662.855-3.109.591-.192-.035-.25.196-.128.513.146.38-.008.542-.451.473-.369-.057-.772.05-.894.238-.123.187-.708.381-1.3.43-.593.049-1.078.32-1.078.602 0 .332-.565.513-1.6.513-1.333 0-1.6.133-1.6.8 0 .648-.267.8-1.4.8s-1.4.152-1.4.8-.267.8-1.4.8c-.978 0-1.4.181-1.4.6 0 .422-.426.6-1.437.6-1.101 0-1.487.187-1.647.8-.157.601-.546.8-1.563.8-.936 0-1.353.185-1.353.6 0 .419-.422.6-1.4.6-1.118 0-1.4.156-1.4.775 0 .581-.324.806-1.3.9-.778.075-1.26.326-1.2.625.056.282-.294.5-.804.5-.497 0-1.128.36-1.403.8-.283.452-.933.8-1.496.8-.73 0-.997.214-.997.8 0 .624-.267.8-1.213.8-.708 0-1.308.249-1.442.6-.127.33-.706.603-1.288.606-.829.005-.928.09-.457.394.436.282.457.389.076.394-.311.004-.402.208-.223.506.204.34.084.324-.376-.049-.441-.358-.677-.393-.677-.1 0 .247-.23.449-.511.449s-.809.315-1.172.7c-1.025 1.086-1.798 1.663-2.902 2.166-.558.254-1.015.614-1.015.798 0 .185-.36.336-.8.336-.533 0-.8.267-.8.8 0 .664-.805 1.085-1.339.7-.305-.22-1.437 1.015-1.233 1.345.121.195-.252.355-.828.355-.64 0-.945.166-.783.427.145.235-.114.526-.577.647-.478.125-.84.544-.84.973 0 .575-.292.753-1.237.753-.899 0-1.295.218-1.446.796-.114.437-.362.7-.549.584-.188-.116-.571.156-.851.604-.28.449-.736.816-1.013.816-.277 0-.504.27-.504.6 0 .333-.356.6-.8.6-.533 0-.8.267-.8.8s-.267.8-.8.8-.8.267-.8.8c0 .444-.267.8-.6.8-.33 0-.6.249-.6.553 0 .305-.36.648-.8.763-.44.115-.8.496-.8.847 0 .35-.27.637-.6.637-.33 0-.6.27-.6.6 0 .33-.345.6-.767.6-.446 0-1.131.587-1.633 1.4-.476.77-1.022 1.4-1.214 1.4C63.932 62 62 63.932 62 64.386c0 .192-.63.738-1.4 1.214-.813.502-1.4 1.187-1.4 1.633 0 .422-.27.767-.6.767-.33 0-.6.18-.6.4 0 .22-.267.4-.592.4-.326 0-.706.45-.844 1s-.501 1-.807 1c-.307 0-.557.27-.557.6 0 .333-.356.6-.8.6-.533 0-.8.267-.8.8 0 .44-.258.8-.573.8-.315 0-.687.36-.827.8-.14.44-.491.8-.78.8-.29 0-.622.365-.739.811-.117.447-.444.762-.728.7-.284-.061-.524.249-.534.688-.011.439-.289.799-.619.8-.586.001-.647.148-.75 1.801-.032.517-.333.8-.85.8-.541 0-.8.267-.8.824 0 .453-.181.711-.403.574-.221-.137-.523.078-.671.477-.147.399-.461.857-.697 1.019-.285.195-.256.296.087.3.421.005.421.108 0 .562-.374.402-.597.43-.81.1-.165-.256-.296.027-.3.644-.005.831-.201 1.1-.806 1.1-.533 0-.8.267-.8.8 0 .444-.267.8-.6.8-.419 0-.6.422-.6 1.4 0 1.133-.152 1.4-.8 1.4-.541 0-.8.267-.8.824 0 .453-.161.724-.358.602-.436-.27-.842.697-.842 2.007 0 .7-.221.967-.8.967-.533 0-.8.267-.8.8 0 .444-.267.8-.6.8-.4 0-.6.4-.6 1.2 0 .933-.178 1.2-.8 1.2-.573 0-.8.267-.8.938 0 .516-.36 1.264-.8 1.662-.44.398-.8.944-.8 1.213 0 .269-.27.713-.6.987-.33.274-.6.932-.6 1.462 0 .634-.308 1.078-.9 1.297-.495.183-.855.447-.8.587.308.783.019 1.854-.5 1.854-.415 0-.6.417-.6 1.353 0 1.017-.199 1.406-.8 1.563-.613.16-.8.546-.8 1.647 0 1.011-.178 1.437-.6 1.437-.419 0-.6.422-.6 1.4 0 1.133-.152 1.4-.8 1.4-.652 0-.8.267-.8 1.437 0 1.063-.193 1.488-.74 1.631-.511.134-.751.583-.776 1.451-.02.718-.346 1.483-.76 1.786-.398.291-.679.612-.624.712.498.911.012 2.983-.7 2.983-.66 0-.8.267-.8 1.524 0 .837-.264 1.872-.587 2.3-.323.427-.593 1.429-.6 2.227-.013 1.437-.811 2.618-1.383 2.046-.163-.164-.26-.117-.216.103.307 1.52-.061 3.468-.614 3.255-.529-.203-.968 3.57-.637 5.475.031.181-.131.214-.36.072a.502.502 0 0 1-.148-.691c.162-.262.082-.319-.2-.145-.257.159-.364.457-.238.662.127.204.04.372-.193.372-.241 0-.424.851-.424 1.973 0 1.622-.142 2.018-.8 2.227-.767.243-1.103 2.331-.821 5.1.041.398-.198.7-.554.7-.52 0-.625.602-.625 3.6 0 3.333-.059 3.6-.8 3.6-.741 0-.8.267-.8 3.6 0 2.933-.111 3.6-.6 3.6-.505 0-.6.889-.6 5.6 0 5.333-.038 5.6-.8 5.6-.79 0-.8.267-.8 20.6 0 20.333.01 20.6.8 20.6.757 0 .8.267.8 5 0 4.178.099 5 .6 5 .495 0 .6.73.6 4.173 0 3.822.067 4.194.8 4.427.693.22.8.605.8 2.883 0 1.851.175 2.76.591 3.073.395.297.613 1.272.66 2.944.104 3.759-4.786 8.217 40.142-36.599l37.392-37.3.107-28.815c.094-25.099.185-28.864.708-29.195.345-.218 6.043-.381 13.42-.385 9.431-.004 12.947-.133 13.3-.486.354-.354.48-3.911.48-13.52s.126-13.166.48-13.52c.364-.364 6.989-.48 27.371-.48 24.208 0 26.956-.064 27.537-.645.569-.569.639-2.149.589-13.375-.03-7.001.063-12.921.207-13.155.178-.288 5.039-.425 15.046-.425h14.782l23.743-23.777C252.506 12.636 253.058 12 249.745 12c-1.284 0-1.745-.158-1.745-.6 0-.56-2.742-.881-5.3-.621-.463.047-.7-.208-.7-.754 0-.772-.23-.825-3.6-.825-2.933 0-3.6-.111-3.6-.6 0-.501-.822-.6-5-.6-4.77 0-6.537-.523-4.5-1.332.275-.109-10.327-.211-23.561-.227l-24.061-.028.217.828" fill="#1484fb"/><path d="M386.432 140.053c-.018.36.328.748.768.863.44.115.8.046.8-.153 0-.2-.255-.363-.567-.363-.311 0-.657-.225-.768-.5-.128-.317-.213-.261-.233.153M256.977 159.2c0 6.49.055 9.145.122 5.9.067-3.245.067-8.555 0-11.8-.067-3.245-.122-.59-.122 5.9m132.223-9.8c0 .33.18.6.4.6.764 0 .395.748-.5 1.014-.495.147-18.274 17.618-39.508 38.824l-38.608 38.556-26.192.106-26.192.106 26.857.097c24.064.087 26.883.163 27.1.73.627 1.633.257 54.496-.386 55.138-.545.546-2.319.629-13.357.629-11.238 0-12.757.074-12.971.633-.134.348-.243 6.21-.243 13.026 0 7.778-.154 12.682-.414 13.167-.403.754-1.131.774-27.52.774-20.549 0-27.222.116-27.586.48-.353.353-.48 3.874-.48 13.351 0 10.567-.101 12.955-.562 13.338-.408.338-4.878.459-16.346.44l-15.784-.025.164.908c.137.752-3.786 4.856-22.853 23.907-21.648 21.628-23.868 24.001-22.456 24.001.365 0 .489.28.353.8-.196.748-.012.8 2.837.8 2.442 0 3.047.119 3.047.6 0 .467.533.6 2.397.6 1.963 0 2.487.145 2.896.8.444.712.933.8 4.416.8 3.112 0 3.963.123 4.146.6.192.5 1.328.6 6.788.6 6.29 0 6.557.033 6.557.8 0 .787.267.8 16.2.8s16.2-.013 16.2-.8c0-.767.267-.8 6.557-.8 5.46 0 6.596-.1 6.788-.6.183-.477 1.034-.6 4.146-.6 3.483 0 3.972-.088 4.416-.8.409-.655.933-.8 2.896-.8 1.864 0 2.397-.133 2.397-.6 0-.48.6-.6 3-.6 2.733 0 3-.071 3-.8 0-.724.267-.8 2.8-.8 2.222 0 2.8-.124 2.8-.6 0-.455.493-.6 2.037-.6 1.701 0 2.072-.132 2.247-.8.172-.658.546-.8 2.101-.8 1.383 0 2.085-.215 2.615-.8.485-.536 1.232-.8 2.262-.8 1.1 0 1.538-.171 1.538-.6 0-.455.493-.6 2.037-.6 1.701 0 2.072-.132 2.247-.8.157-.601.546-.8 1.563-.8 1.02 0 1.355-.172 1.359-.7.005-.598.063-.613.394-.1.258.4.39.433.394.1.004-.318.603-.5 1.643-.5 1.301 0 1.681-.164 1.847-.8.157-.601.546-.8 1.563-.8.936 0 1.353-.185 1.353-.6 0-.419.422-.6 1.4-.6 1.133 0 1.4-.152 1.4-.8s.267-.8 1.4-.8 1.4-.152 1.4-.8.267-.8 1.4-.8c.978 0 1.4-.181 1.4-.6s.422-.6 1.4-.6c1.133 0 1.4-.152 1.4-.8 0-.6.267-.8 1.069-.8.587 0 1.353-.258 1.701-.573.349-.315 1.173-.646 1.832-.734.691-.092 1.198-.4 1.198-.727 0-.324.483-.621 1.131-.696.787-.09 1.065-.303.913-.7-.159-.415.105-.57.969-.57.92 0 1.187-.18 1.187-.8 0-.444.267-.8.6-.8.33 0 .96-.36 1.4-.8.44-.44 1.16-.8 1.6-.8.444 0 .8-.267.8-.6 0-.33.326-.6.725-.6.398 0 1.111-.36 1.583-.8.472-.44 1.136-.8 1.475-.8a.61.61 0 0 0 .617-.6c0-.33.258-.6.573-.6.315 0 .687-.36.827-.8.16-.505.605-.8 1.206-.8.998 0 2.994-1.564 2.994-2.346 0-.25.439-.454.976-.454.537 0 1.105-.208 1.262-.462.177-.286.11-.353-.176-.176-.276.17-.462.027-.462-.356 0-.353.225-.612.5-.576 1.18.153 1.9-.068 1.9-.583 0-.305.36-.648.8-.763.44-.115.8-.496.8-.847 0-.37.335-.637.8-.637.44 0 .8-.257.8-.572 0-.315.405-.634.9-.71.495-.075.854-.362.797-.637-.057-.277.448-.61 1.132-.747.874-.175 1.08-.346.703-.584-.406-.258-.367-.339.168-.344.385-.003.7-.197.7-.43 0-.233.192-.304.427-.159s.526-.114.647-.577c.2-.764.605-1.017 1.426-.887.165.026.279-.088.253-.253-.131-.825.106-1.3.647-1.3.33 0 .6-.249.6-.553 0-.305.36-.648.8-.763.44-.115.8-.496.8-.847 0-.381.338-.637.843-.637.571 0 .771-.186.62-.58-.134-.35.086-.677.557-.826.429-.137.78-.506.78-.821 0-.315.258-.573.573-.573.315 0 .684-.351.821-.78.149-.471.476-.691.826-.557.394.151.58-.049.58-.62 0-.465.257-.843.573-.843.315 0 .687-.36.827-.8.14-.44.512-.8.827-.8.315 0 .573-.27.573-.6 0-.333.356-.6.8-.6.517 0 .8-.267.8-.753 0-.441.367-.85.883-.984.485-.127.757-.356.605-.509-.153-.152.305-.834 1.017-1.515.712-.68 1.25-1.373 1.195-1.538-.055-.166.08-.301.3-.301.22 0 .4-.36.4-.8 0-.444.267-.8.6-.8.333 0 .6-.356.6-.8 0-.533.267-.8.8-.8.44 0 .8-.251.8-.557 0-.307.27-.661.6-.788.33-.126.6-.506.6-.842 0-.337.262-.613.582-.613.348 0 .687-.562.844-1.4.19-1.013.472-1.4 1.019-1.4.415 0 .755-.276.755-.613 0-.336.27-.716.6-.842.33-.127.6-.591.6-1.031 0-.558.187-.728.621-.561.356.136.516.069.376-.158-.134-.217-.054-.395.179-.395.233 0 .403-.135.377-.3-.153-.969.125-1.7.647-1.7.333 0 .6-.356.6-.8 0-.702.391-.971 1.253-.863.139.017.246-.186.237-.453-.054-1.65.17-2.285.81-2.294.757-.01 2.1-2.317 2.1-3.606 0-.517.272-.784.8-.784.527 0 .8-.267.8-.78 0-.429.315-.957.7-1.172.385-.215.655-.494.6-.62-.308-.703-.02-1.828.468-1.828.313 0 .687-.54.832-1.2.145-.66.519-1.2.832-1.2.396 0 .568-.484.568-1.6 0-1.333.133-1.6.8-1.6.594 0 .8-.267.8-1.037 0-.701.259-1.106.8-1.247.518-.135.8-.546.8-1.163 0-.532.213-.909.482-.853.476.099.571-.141.668-1.7.028-.44.41-1.16.85-1.6.44-.44.8-.89.8-1v-1.4c0-.8.2-1.2.6-1.2.419 0 .6-.422.6-1.4 0-1.133.152-1.4.8-1.4.665 0 .8-.267.8-1.576 0-.867.208-1.705.462-1.862.309-.191.356-.1.141.276-.224.392-.189.441.113.162.238-.22.49-1.21.559-2.2.089-1.278.299-1.8.725-1.8.421 0 .667-.583.824-1.95.133-1.159.498-2.15.9-2.444.386-.282.676-1.033.676-1.75 0-.85.194-1.256.6-1.256.461 0 .6-.511.6-2.2 0-1.933.097-2.2.8-2.2.691 0 .8-.267.8-1.957 0-1.371.18-2.026.6-2.188.455-.174.6-.911.6-3.042 0-2.546.076-2.813.8-2.813.725 0 .8-.267.8-2.843 0-2.362.101-2.804.6-2.612.5.191.6-.261.6-2.711 0-2.604.092-2.965.8-3.15.736-.192.8-.546.8-4.447 0-3.97.05-4.237.8-4.237.763 0 .8-.267.8-5.8 0-4.889.094-5.8.6-5.8.525 0 .6-2.378.6-19s-.075-19-.6-19c-.533 0-.856-5.17-.716-11.449.006-.246-.326-.36-.737-.253-.695.182-.747-.102-.747-4.051 0-3.98-.05-4.247-.8-4.247-.729 0-.8-.267-.8-3 0-2.4-.12-3-.6-3s-.6-.603-.6-3.026c0-2.948-.432-4.574-1.214-4.574-.212 0-.386.27-.386.6m-132.223 94.2c0 6.49.055 9.145.122 5.9.067-3.245.067-8.555 0-11.8-.067-3.245-.122-.59-.122 5.9m-83.6 82.2c0 6.6.055 9.356.122 6.125.067-3.232.067-8.632 0-12-.067-3.369-.122-.725-.122 5.875m6.299 14.899c2.792.068 7.472.069 10.4 0 2.928-.068.644-.124-5.076-.125-5.72 0-8.116.056-5.324.125" fill="#fb5b5b"/></g></svg>