<svg fill="none" xmlns="http://www.w3.org/2000/svg" viewBox="0 0 41 40"><mask id="a" style="mask-type:alpha" maskUnits="userSpaceOnUse" x="11" y="10" width="30" height="30"><path fill-rule="evenodd" clip-rule="evenodd" d="M14.667 30c8.836 0 16-7.163 16-16a16.07 16.07 0 0 0-.333-3.26c6 1.963 10.333 7.605 10.333 14.26 0 8.284-6.716 15-15 15-6.655 0-12.297-4.333-14.26-10.332a16.07 16.07 0 0 0 3.26.332Z" fill="#C4C4C4"/></mask><g mask="url(#a)"><circle cx="26.667" cy="26" r="14" fill="#000"/><circle cx="26.667" cy="26" r="13.5" stroke="#fff" stroke-opacity=".2"/><path fill-rule="evenodd" clip-rule="evenodd" d="m26.656 31.487 6.472-4.058-6.472 9.34v-5.282Zm.962.528v1.688l2.073-2.99-2.073 1.302Z" fill="#5A9DED"/><path fill-rule="evenodd" clip-rule="evenodd" d="m27.318 23.056 4.778 2.7-.471.832-4.778-2.7.471-.832Z" fill="#D895D3"/><path fill-rule="evenodd" clip-rule="evenodd" d="m26.656 15.23 6.45 11.091-6.45 4.064V15.231Zm.95 3.55v9.882l4.214-2.654-4.213-7.228Z" fill="#FF9C92"/><path fill-rule="evenodd" clip-rule="evenodd" d="m26.678 31.487-6.473-4.058 6.473 9.34v-5.282Zm-.963.528v1.688l-2.073-2.99 2.073 1.302Z" fill="#53D3E0"/><path fill-rule="evenodd" clip-rule="evenodd" d="m25.814 23.146-4.778 2.7.471.832 4.778-2.7-.471-.832Z" fill="#A6E275"/><path fill-rule="evenodd" clip-rule="evenodd" d="m26.656 15.23-6.45 11.091 6.45 4.064V15.231Zm-.952 3.55v9.882l-4.213-2.654 4.213-7.228Z" fill="#FFE94D"/></g><circle cx="14.667" cy="14" r="14" fill="#000"/><circle cx="14.667" cy="14" r="13.5" stroke="#fff" stroke-opacity=".2"/><path fill-rule="evenodd" clip-rule="evenodd" d="m8.48 10.819 3.445-5.372-5.135 5.135a.779.779 0 0 0 .36 1.305l2.721.69a9.371 9.371 0 0 0-.732 1.374c-.196.467-.36 1.003-.376 1.533-.016.543.123 1.125.582 1.584.69.69 1.191.931 1.592 1.123l.087.043c.187.09.324.164.47.28.147.119.326.299.556.615l.13.18c.5.695 1.287 1.786 2.302 2.51.566.404 1.238.722 2.006.784.779.063 1.592-.142 2.419-.675.792-.51 1.314-1.078 1.56-1.74.248-.667.174-1.32-.006-1.913-.164-.543-.44-1.097-.696-1.614l-.049-.097c-.28-.566-.545-1.113-.722-1.686-.344-1.119-.11-1.603.037-1.795a.808.808 0 0 1 .348-.261l.009-.003.016-.004.027-.01.122-.04.321-.105a295.196 295.196 0 0 0 1.97-.658 20.715 20.715 0 0 0 .462-.167 1.226 1.226 0 0 0 .115-.054h.001c.01-.006.081-.045.15-.114a.683.683 0 0 0 .18-.65l-.001-.003a.7.7 0 0 0-.125-.256 1.59 1.59 0 0 0-.071-.087 7.466 7.466 0 0 0-.175-.192c-.084-.09-1.717-1.743-3.088-3.133-.95-.962-1.775-1.797-1.873-1.899.011.012.89 1.394 1.76 2.762.851 1.34 1.695 2.668 1.706 2.68a145.598 145.598 0 0 1-1.437.477l-.32.105-.103.034-.014.004a2.017 2.017 0 0 0-.358.148 2.172 2.172 0 0 0-.705.598c-.486.636-.69 1.611-.256 3.023.213.693.526 1.332.804 1.891l.027.055c.276.556.504 1.016.634 1.446.13.43.14.755.033 1.044-.109.293-.378.655-1.02 1.069-.61.392-1.128.497-1.572.462-.453-.037-.894-.228-1.324-.535-.822-.586-1.481-1.497-2-2.215l-.122-.168a4.423 4.423 0 0 0-.807-.877 3.648 3.648 0 0 0-.726-.442l-.092-.045c-.352-.169-.691-.331-1.218-.858-.122-.122-.192-.296-.184-.58.01-.295.106-.656.27-1.048.328-.781.848-1.515 1.055-1.792a.78.78 0 0 0-.434-1.224l-2.536-.642Zm5.744 5.57s-1.05 0-1.75-.644 0-1.932 0-1.932.204.129.977 1.03c.773.902.773 1.547.773 1.547Z" fill="url(#b)"/><defs><linearGradient id="b" x1="14.694" y1="13.18" x2="14.667" y2="22.614" gradientUnits="userSpaceOnUse"><stop stop-color="#22E1FF"/><stop offset="1" stop-color="#002EFF"/></linearGradient></defs></svg>