<svg width="26" height="26" fill="none" xmlns="http://www.w3.org/2000/svg"><rect width="26" height="26" rx="13" fill="#313042"/><path d="M9.751 19.335c.1-.3.3-.6.4-1 0-.1 0-.3-.1-.4-.6-.8-.8-1.7-.6-2.6 0-.1 0-.2.1-.2 0-.1.1-.1.1-.2.7.7.9 1.6 1 2.5.2-.4.5-.8.7-1.3 0-.1-.1-.2-.1-.3-.6-.9-.7-1.9-.3-3 .7.7.9 1.6.9 2.5.3-.4.5-.8.8-1.1 0-.1 0-.2-.1-.3-.3-.9-.3-1.8.2-2.7.1-.1.1-.2.2-.3.5.8.4 1.6.3 2.4h.1c.2-.3.4-.5.5-.8.4-1.1 1-1.9 2.1-2.4.2-.1.3-.1.5-.2 0 .2 0 .3-.1.5-.3 1-1 1.8-2 2.3-.4.2-.7.5-.9.9.8-.4 1.6-.6 2.6-.3-.2.2-.3.3-.5.4-.7.5-1.5.7-2.3.6-.3 0-.4 0-.5.2-.2.3-.4.7-.6 1.1.9-.4 1.8-.6 2.8-.1-.3.2-.5.4-.7.5-.7.3-1.4.4-2.2.2-.2-.1-.3 0-.4.2-.2.4-.4.8-.7 1.3.9-.4 1.8-.7 2.8-.3l.1.1c-.1.1-.2.1-.4.2-.8.5-1.6.7-2.5.6-.2-.1-.4 0-.4.2-.3.8-.6 1.6-.9 2.3-.1.3-.3.6-.5.9-.1.2-.3.3-.5.2-2.7-1.4-4.6-3.5-5.3-6.4-1.4-5.3 1.5-10.6 6.7-12.1 6-1.8 11.9 2.2 12.8 8 .7 4.7-2 9.2-6.4 10.8-.3.1-.5.2-.7 0-.2-.3-.2-.5-.1-.8.4-1 .7-2 1-3 .2-.6.4-.8 1-.8.6-.1 1.2-.1 1.8-.2.5-.1.7-.3.7-.8v-.4c-.1-.2 0-.4.2-.6.2-.2.2-.3 0-.5-.1-.1-.1-.3 0-.3.2-.2.2-.4 0-.6-.2-.2-.1-.4.1-.5.2-.1.3-.2.4-.4.3-.2.2-.4 0-.6-.4-.4-.9-.7-1.3-1.1-.3-.2-.4-.6-.3-.9.1-.6 0-1.1-.3-1.6-.3-.4-.5-.9-.7-1.3-.3-.7-.8-1.2-1.5-1.4-.7-.2-1.4-.3-2.2-.4-.5-.1-1-.1-1.5-.2-1.3-.2-2.5.1-3.5 1-.3.2-.6.5-1 .6-.3.1-.5.4-.7.6-.1.3-.3.5-.6.6-.5.4-1 .7-1.4 1.2-.1.2-.4.3-.5.4-.6.4-.7.8-.5 1.4.1.4.2.8.1 1.2-.1.3-.1.7 0 1 0 .4.3.8.7.9.3.1.5.3.5.6.1.4.3.8.6 1.1.3.3.5.7.7 1.1.2.5.5.8 1 1 .5.2.9.4 1.4.6-.3.1-.2.1-.1.2Z" fill="#00DACC"/></svg>