<svg xmlns="http://www.w3.org/2000/svg" width="400" height="400"><g fill-rule="evenodd"><path d="M142.577 84.836c-.149.242-.137 12.663.026 27.602l.298 27.162h13.535c12.973 0 13.553.032 13.95.774.261.488.414 5.648.414 14.002v13.23l27.3-.103 27.3-.103.105-13.366c.071-8.968.25-13.539.545-13.894.345-.416 3.324-.552 13.895-.635l13.455-.105V84.6l-55.276-.101c-39.812-.073-55.351.021-55.547.337M83.3 140.68l-.9.176v57.122c0 31.417.113 57.687.251 58.377l.251 1.255 14.249-.105 14.249-.105V140.6l-13.6-.048c-7.48-.027-14.005.031-14.5.128m201.767-.013c-.147.146-.267 26.519-.267 58.605v58.338l14.3-.105 14.3-.105.101-58.25.102-58.249-1.252-.251c-1.683-.336-26.946-.321-27.284.017M142.707 240.9c-.112 38.555-.081 70.236.067 70.401.148.166 25.099.256 55.447.2l55.179-.101.101-70.3.101-70.3H228.8V185c0 13.667-.03 14.23-.8 15-.922.922-57.936 1.291-59.626.386-.744-.398-.774-.989-.774-15V170.8H142.909l-.202 70.1" fill="#fcdc54"/><path d="M142.48 58.48c-.352.352-.48 3.707-.48 12.6V83.2h112V70.843c0-10.899-.075-12.386-.633-12.6-1.316-.505-110.378-.272-110.887.237M113.2 84.6c0 .33-.27.6-.6.6-.521 0-.6 1.756-.6 13.4V112H98.6c-11.644 0-13.4.079-13.4.6 0 .33-.27.6-.6.6-.521 0-.6 1.711-.6 13v13h28V112h29.2V86.8h-1c-.8 0-1-.2-1-1s.2-1 1-1c.55 0 1-.18 1-.4 0-.259-4.933-.4-14-.4-12.178 0-14 .078-14 .6m142 13.4v14H284v27.2h28v-13c0-12.664-.02-13-.787-13-.533 0-.714-.193-.56-.595.199-.517-1.501-.608-13.112-.7L284.2 111.8l-.105-13.3c-.067-8.408-.251-13.3-.5-13.3a.399.399 0 0 0-.395.4c0 .22-.15.4-.333.4-.184 0-.334-.262-.334-.582 0-.321.15-.49.334-.377.183.114.333-.074.333-.417 0-.553-1.587-.624-14-.624h-14v14m-198 42.6c0 .33-.27.6-.6.6-.53 0-.6 6.531-.6 56.376 0 37.153-.136 56.461-.4 56.624-1.256.776-.408 2.56 1.1 2.314.825-.135 6.675-.313 13-.397l11.5-.152V140h-12c-10.4 0-12 .08-12 .6m257.6 5v5.6h2v99.6h-1c-.964 0-1 .093-1 2.6v2.6h12c11.602 0 12.549-.091 11.527-1.113-.261-.261-.348-.6-.194-.754.154-.154.493-.067.754.194.26.26.617.473.793.473.176 0 .32-25.56.32-56.8 0-56.231-.008-56.8-.787-56.8-.536 0-.714-.192-.558-.6.202-.525-1.272-.6-11.812-.6H314.8v5.6M84.001 265.1c.002 8.622.45 17.715.861 17.462.186-.115.338.048.338.362 0 .911 2.169 1.067 14.9 1.072L112 284v13.443c0 11.785.074 13.414.6 13.212.408-.156.6.022.6.558 0 .768.341.787 14 .787h14v-28H112v-25.2H84l.001 6.3M284 271.4V284h-28.8v15.2h4v5.6h-4v7.2h14c12.178 0 14-.078 14-.6 0-.33-.202-.555-.45-.5-.703.156-.857-.773-.172-1.036.337-.13.57-.039.517.2-.052.24.13.519.405.619.394.145.5-2.672.5-13.25V284h13.4c7.37 0 13.4-.144 13.4-.32 0-.176-.213-.533-.473-.793-.633-.633-.095-1.124.6-.547.97.804 1.029.147 1.061-11.785l.032-11.755H284v12.6m-142 53.551c0 9.743.108 12.24.543 12.601.398.331 15.32.424 55.9.349l55.357-.101.106-12.5.105-12.5H142v12.151M176.8 315v1.8h-3.6v-3.6h3.6v1.8" fill="#9494fc"/><path d="M141.316 84c-.135.518-.546.8-1.163.8-.75 0-.953.213-.953 1 0 .781.204 1 .935 1h.934l.265 19.5c.146 10.725.265 22.689.266 26.586 0 6.596.053 7.114.774 7.5.488.261 5.647.414 14 .414H169.6v13.586c0 13.023.032 13.603.774 14 1.583.847 54.985.543 55.764-.317.588-.65.662-2.215.662-14V140.8h13.338c12.2 0 13.391-.06 13.959-.7.847-.955 1.528-55.306.705-56.298-.903-1.088-113.201-.893-113.486.198m112.31.014c1.171.627 1.218 54.66.049 55.718-.637.576-2.344.67-13.9.762l-13.175.106-.106 13.175c-.092 11.556-.186 13.263-.762 13.9-.87.962-54.484 1.147-55.278.191-.3-.362-.477-4.851-.549-13.9L169.8 140.6l-13.366-.105c-8.227-.065-13.552-.261-13.851-.509-.91-.756-1.269-54.607-.37-55.6.824-.911 109.728-1.274 111.413-.372M82.4 139.558l-1 .278v58.914c0 57.857.014 58.925.776 59.482.638.466 3.41.568 15.454.568h14.677l.241-.9c.315-1.176.315-116.624 0-117.8l-.241-.9-14.454.04c-7.949.022-14.903.165-15.453.318m201.467-.091c-.147.146-.267 27.056-.267 59.8V258.8h14.938c17.605 0 16.262.391 16.262-4.731 0-3.22.015-3.269 1-3.269h1v-99.6h-2V139.705l-1.5-.248c-2.029-.336-29.097-.326-29.433.01m-172.198.795c.939.85 1.166 116.191.231 117.467-.458.625-1.717.674-14.888.577l-14.389-.106-.505-1c-.738-1.459-.756-116.109-.018-116.708.911-.739 1.998-.799 15.469-.846 11.919-.041 13.447.026 14.1.616m202.07.087c1.019.847 1.018 116.193-.001 117.32-.828.915-28.358 1.151-29.258.251-.71-.71-.696-117.144.014-117.854.752-.752 28.32-.485 29.245.283M141.872 169.9c-.096.165-.242 32.34-.323 71.5l-.149 71.2H255l.114-3.9.115-3.9h3.971v-5.6h-3.871l-.264-11.7c-.145-6.435-.264-35.291-.264-64.124-.001-41.307-.107-52.568-.501-53.106-.456-.623-1.633-.673-13.5-.576l-13 .106-.2 14.8-.2 14.8-29.3.103-29.3.102v-14.229c0-9.043-.151-14.511-.414-15.002-.431-.805-26.054-1.263-26.514-.474m26.074.635c.302.364.477 5.111.549 14.9l.105 14.365 29.156.103c21.206.074 29.304-.021 29.7-.349.44-.366.544-3.145.544-14.523 0-10.411.125-14.196.48-14.551.352-.352 3.733-.48 12.72-.48s12.368.128 12.72.48c.698.698.698 140.742 0 141.44-.831.831-111.367.682-111.833-.15-.509-.909-.104-140.631.409-141.27.605-.753 24.824-.72 25.45.035M338.06 254.38c.088.264.291.467.45.45.478-.049.386-.598-.13-.77-.264-.088-.408.056-.32.32m-28 28c.088.264.291.467.45.45.478-.049.386-.598-.13-.77-.264-.088-.408.056-.32.32m-27.657 27.609c-.475.301-.495.479-.1.874.274.274.511.416.528.317.016-.099.091-.495.164-.88.156-.812.181-.799-.592-.311M173.2 315v1.8h3.6v-3.6h-3.6v1.8" fill="#9494f4"/><path d="M143.2 28.2c0 .8-.2 1-1 1h-1v28h-28V84h13.92c10.293 0 14.045-.125 14.4-.48.352-.352.48-3.689.48-12.52s.128-12.168.48-12.52c.509-.509 109.571-.742 110.887-.237.558.214.633 1.694.633 12.52 0 9.015.128 12.405.48 12.757.355.355 4.151.48 14.6.48h14.12V57.2h-28v-28H254c-1.013 0-1.2-.156-1.2-1v-1H143.2v1m-58 70.4V112h26.77l.229 14.1c.299 18.383.299 127.872 0 144.829l-.231 13.128-13.384-.128-13.385-.129.001 13.5v13.5H112V284h14.6c8.03 0 14.643-.045 14.697-.1.053-.055.188-25.75.3-57.1l.203-57 13-.106c11.867-.097 13.044-.047 13.5.576.378.516.5 4.179.5 15.009v14.326l29.3-.102 29.3-.103.2-14.8.2-14.8 12.974-.106c8.772-.071 13.113.033 13.4.32.295.295.487 17.83.626 57.106l.2 56.68 14.5.105 14.5.105v26.79h26.8V284h-26.704l-.303-25.5c-.167-14.025-.21-52.727-.097-86.005l.206-60.505-14.451.105L255 112.2l-.105 13.574c-.093 11.93-.185 13.663-.762 14.3-.61.674-1.621.726-13.995.726H226.8v13.338c0 12.414-.051 13.384-.731 14-.883.798-54.223 1.036-55.695.248-.742-.397-.774-.977-.774-14V140.8h-13.226c-8.353 0-13.512-.153-14-.414-.742-.397-.774-.975-.774-13.767 0-7.345-.109-13.638-.243-13.986-.215-.561-1.895-.633-14.8-.633H112V85.2H85.2v13.4m198.895-.1.105 13.3 13.3.105 13.3.106V85.2h-26.811l.106 13.3M57.2 126.6V140l11.9-.002c7.015-.002 12.516-.173 13.4-.419l1.5-.417V113.2H57.2v13.4m254.8-.443c0 11.947.055 12.983.7 13.29.385.183 6.415.394 13.4.468l12.7.136V113.2H312v12.957M29.2 142.2c0 .8-.2 1-1 1h-1v109.6h1c.8 0 1 .2 1 1v1h12.92c9.516 0 13.046-.126 13.4-.48.369-.369.48-13.529.48-56.8V141.2H29.2v1M340 198v56.8h26.8v-1c0-.8.2-1 1-1h1V143.2h-1c-.8 0-1-.2-1-1v-1H340V198M58.1 256.412l-.9.362V282.8h27.324l-.26-5.7c-.144-3.135-.262-8.515-.263-11.957L84 258.887l-1.026-.258c-.657-.165-1.174-.683-1.439-1.443L81.122 256l-11.061.025c-6.084.014-11.466.188-11.961.387m256.7.326c0 .892-1.209 2.062-2.131 2.062-.608 0-.672 1.008-.702 11.1-.019 6.105-.079 11.505-.133 12l-.1.9H338.8V256h-12c-11.397 0-12 .037-12 .738M113.2 325.4v13.4h28v28h1c.8 0 1 .2 1 1v1h109.6v-1c0-.844.187-1 1.2-1h1.2v-28h28V312l-13.9.013c-10.867.01-14.051.127-14.594.54-.628.477-.704 1.699-.8 12.887l-.106 12.36-55.357.101c-40.58.075-55.502-.018-55.9-.349-.435-.361-.543-2.846-.543-12.521 0-8.855-.128-12.199-.48-12.551-.355-.355-4.107-.48-14.4-.48H113.2v13.4" fill="#5454fc"/><path d="M142.213 84.386c-.899.993-.54 54.844.37 55.6.299.248 5.624.444 13.851.509l13.366.105.105 13.366c.072 9.049.249 13.538.549 13.9.794.956 54.408.771 55.278-.191.576-.637.67-2.344.762-13.9l.106-13.175 13.175-.106c11.556-.092 13.263-.186 13.9-.762 1.169-1.058 1.122-55.091-.049-55.718-1.685-.902-110.589-.539-111.413.372M253.4 112v27.4l-13.455.105c-10.571.083-13.55.219-13.895.635-.295.355-.474 4.926-.545 13.894L225.4 167.4l-27.3.103-27.3.103v-13.23c0-8.354-.153-13.514-.414-14.002-.397-.742-.977-.774-13.95-.774h-13.535l-.298-27.162c-.163-14.939-.175-27.36-.026-27.602.196-.316 15.735-.41 55.547-.337l55.276.101V112m-170 27.889c-.44.109-1.025.38-1.3.603-.738.599-.72 115.249.018 116.708l.505 1 14.389.106c13.171.097 14.43.048 14.888-.577.935-1.276.708-116.617-.231-117.467-.715-.647-25.808-.977-28.269-.373m201.094.177c-.71.71-.724 117.144-.014 117.854.9.9 28.43.664 29.258-.251 1.019-1.127 1.02-116.473.001-117.32-.925-.768-28.493-1.035-29.245-.283M111.4 199v58.4l-14.249.105-14.249.105-.251-1.255c-.138-.69-.251-26.96-.251-58.377v-57.122l.9-.176c.495-.097 7.02-.155 14.5-.128l13.6.048V199m200.951-58.35 1.252.251-.102 58.249-.101 58.25-14.3.105-14.3.105v-58.338c0-32.086.12-58.459.267-58.605.338-.338 25.601-.353 27.284-.017M142.496 170.5c-.513.639-.918 140.361-.409 141.27.466.832 111.002.981 111.833.15.698-.698.698-140.742 0-141.44-.352-.352-3.733-.48-12.72-.48s-12.368.128-12.72.48c-.355.355-.48 4.14-.48 14.551 0 11.378-.104 14.157-.544 14.523-.396.328-8.494.423-29.7.349L168.6 199.8l-.105-14.365c-.072-9.789-.247-14.536-.549-14.9-.626-.755-24.845-.788-25.45-.035m25.104 14.886c0 14.011.03 14.602.774 15 1.69.905 58.704.536 59.626-.386.77-.77.8-1.333.8-15v-14.2h24.802l-.101 70.3-.101 70.3-55.179.101c-30.348.056-55.299-.034-55.447-.2-.148-.165-.179-31.846-.067-70.401l.202-70.1H167.6v14.586" fill="#e498ac"/></g></svg>