<svg fill="none" xmlns="http://www.w3.org/2000/svg" viewBox="0 0 40 43"><path d="M13.777 34.366v8.12h3.024V31.343l-3.014 3.009-.01.013Z" fill="url(#a)"/><path d="M0 17.57v12.4l2.957 2.955.066.067V14.547L.01 17.559l-.01.01Z" fill="url(#b)"/><path d="M11.853 20.14h3.09l2.956-2.953.067-.067H8.83l3.013 3.01.01.01Z" fill="url(#c)"/><path d="m13.86 3.312-2.956 2.956-.066.063h18.325l-3.01-3.009-.013-.01H13.86Z" fill="url(#d)"/><path d="M21.565 31.284h-3.126v11.201h3.126V31.284Z" fill="url(#e)"/><path d="M14.563 0h-4.275l-2.76 2.76-.01.01v4.274L14.496.067 14.563 0Z" fill="url(#f)"/><path d="M7.045 7.517H2.77L.01 10.273l-.01.013v4.274l6.979-6.977.066-.066Z" fill="url(#g)"/><path d="M23.203 31.344v11.141h3.02v-8.119l-2.957-2.956-.063-.066Z" fill="url(#h)"/><path d="M36.977 14.547v18.445l3.013-3.01.01-.013v-12.4l-2.956-2.955-.067-.067Z" fill="url(#i)"/><path d="m25.047 20.13.01.01h3.09l2.957-2.953.066-.067h-9.136l3.013 3.01Z" fill="url(#j)"/><path d="M21.565 17.12h-3.126v7.387h3.126V17.12Z" fill="url(#k)"/><path d="M30.99 8.162H9.01L4.67 12.496l-.01.013v9.321l2.957 2.956.066.067V13.76l2.577-2.576H29.74l2.576 2.576v11.092l3.014-3.01.01-.013v-9.32l-4.335-4.338-.014-.01Z" fill="url(#l)"/><path d="M4.661 28.078v6.551l2.957 2.956.066.067V25.059l-3.013 3.01-.01.01Z" fill="url(#m)"/><path d="M32.316 25.06v12.592l3.013-3.01.01-.013v-6.55l-2.957-2.957-.066-.063Z" fill="url(#n)"/><path d="M24.591 25.981H15.41l-6.18 6.179-.01.01v7.017l2.957 2.956.066.066v-8.788l4.419-4.417h6.678l4.419 4.417v8.788L30.77 39.2l.01-.013V32.17l-6.176-6.179-.014-.01Z" fill="url(#o)"/><path d="M32.482 7.044V2.77L29.725.01l-.01-.01H25.44l6.975 6.977.067.067Z" fill="url(#p)"/><path d="m37.243 7.527-.013-.01h-4.275l6.978 6.977.067.066v-4.274l-2.757-2.76Z" fill="url(#q)"/><defs><linearGradient id="a" x1="15.289" y1="49.129" x2="15.289" y2="-7.503" gradientUnits="userSpaceOnUse"><stop stop-color="#4FCE0D"/><stop offset="1" stop-color="#4FEA0D"/></linearGradient><linearGradient id="b" x1="1.512" y1="49.13" x2="1.512" y2="-7.503" gradientUnits="userSpaceOnUse"><stop stop-color="#4FCE0D"/><stop offset="1" stop-color="#4FCE0D"/></linearGradient><linearGradient id="c" x1="376.463" y1="462.725" x2="376.463" y2="-50.933" gradientUnits="userSpaceOnUse"><stop stop-color="#4FCE0D"/><stop offset="1" stop-color="#4FCE0D"/></linearGradient><linearGradient id="d" x1="1111.64" y1="448.917" x2="1111.64" y2="-64.741" gradientUnits="userSpaceOnUse"><stop stop-color="#4FCE0D"/><stop offset="1" stop-color="#4FCE0D"/></linearGradient><linearGradient id="e" x1="206.238" y1="1684.49" x2="206.238" y2="-221.195" gradientUnits="userSpaceOnUse"><stop stop-color="#4FCE0D"/><stop offset="1" stop-color="#4FCE0D"/></linearGradient><linearGradient id="f" x1="241.134" y1="1039.58" x2="241.134" y2="-158.765" gradientUnits="userSpaceOnUse"><stop stop-color="#4FCE0D"/><stop offset="1" stop-color="#4FCE0D"/></linearGradient><linearGradient id="g" x1="74.537" y1="1047.1" x2="74.537" y2="-151.249" gradientUnits="userSpaceOnUse"><stop stop-color="#4FCE0D"/><stop offset="1" stop-color="#4FCE0D"/></linearGradient><linearGradient id="h" x1="247.333" y1="1675.71" x2="247.333" y2="-219.784" gradientUnits="userSpaceOnUse"><stop stop-color="#4FCE0D"/><stop offset="1" stop-color="#4FCE0D"/></linearGradient><linearGradient id="i" x1="386.453" y1="2736.82" x2="386.453" y2="-401.199" gradientUnits="userSpaceOnUse"><stop stop-color="#4FCE0D"/><stop offset="1" stop-color="#4FCE0D"/></linearGradient><linearGradient id="j" x1="752.001" y1="462.725" x2="752.001" y2="-50.933" gradientUnits="userSpaceOnUse"><stop stop-color="#4FCE0D"/><stop offset="1" stop-color="#4FCE0D"/></linearGradient><linearGradient id="k" x1="206.238" y1="1107.3" x2="206.238" y2="-149.373" gradientUnits="userSpaceOnUse"><stop stop-color="#4FCE0D"/><stop offset="1" stop-color="#4FCE0D"/></linearGradient><linearGradient id="l" x1="1847.46" y1="2471.52" x2="1847.46" y2="-368.042" gradientUnits="userSpaceOnUse"><stop stop-color="#4FCE0D"/><stop offset="1" stop-color="#4FCE0D"/></linearGradient><linearGradient id="m" x1="60.71" y1="1883.63" x2="60.71" y2="-258.783" gradientUnits="userSpaceOnUse"><stop stop-color="#4FCE0D"/><stop offset="1" stop-color="#4FCE0D"/></linearGradient><linearGradient id="n" x1="339.467" y1="1883.63" x2="339.467" y2="-258.783" gradientUnits="userSpaceOnUse"><stop stop-color="#4FCE0D"/><stop offset="1" stop-color="#4FCE0D"/></linearGradient><linearGradient id="o" x1="1304.42" y1="2421.05" x2="1304.42" y2="-339.794" gradientUnits="userSpaceOnUse"><stop stop-color="#4FCE0D"/><stop offset="1" stop-color="#4FCE0D"/></linearGradient><linearGradient id="p" x1="637.935" y1="1039.58" x2="637.935" y2="-158.765" gradientUnits="userSpaceOnUse"><stop stop-color="#4FCE0D"/><stop offset="1" stop-color="#4FCE0D"/></linearGradient><linearGradient id="q" x1="804.819" y1="1047.1" x2="804.819" y2="-151.249" gradientUnits="userSpaceOnUse"><stop stop-color="#4FCE0D"/><stop offset="1" stop-color="#4FCE0D"/></linearGradient></defs></svg>