<svg fill="none" xmlns="http://www.w3.org/2000/svg" viewBox="0 0 320 320"><path d="M224 16V0H96v16H64v16H32v32H16v32H0v128h16v32h16v32h32v16h32v16h128v-16h32v-16h32v-32h16v-32h16V96h-16V64h-16V32h-32V16h-32Z" fill="#FF618D"/><path fill-rule="evenodd" clip-rule="evenodd" d="M217.4 74.722v21.362h-19.001V74.722h-19.2v21.36l19.2.002v21.361H217.4v21.337h-38.201v21.384H217.4v21.362l19.399.325v-21.687h19.228v-21.384h-19.228v-20.763h19.4V96.741h-19.4V74.722h19.4l-.2-21.361h-19.2V32l-19.399-.325v21.686h-19.001v21.361H217.4Zm57.778 43.297h-18.979l-.172 20.763h19.151v-20.763Zm0-64.658h-19.179l.2 21.361h18.979V53.361Z" fill="#F5F5F5"/><path d="m236.805 224.332-19.2-.082v21.36h19.2v-21.278Z" fill="#C65021"/><path d="M217.599 224.407h-134.4v21.278h134.4v-21.278Z" fill="#C4C4C4"/><path fill-rule="evenodd" clip-rule="evenodd" d="M236.8 203.121h-66.41v21.278h66.41v21.278h-45.133v21.279H236.8v-21.279H256v-21.278h-19.2v-21.278Zm-45.133 42.556h-63.833v21.279h63.833v-21.279Zm-108.467 0v-21.278H64v21.278h19.2v21.279h44.634v-21.279H83.2Zm87.19-42.556h-42.556v21.278h42.556v-21.278Zm-42.556 0H83.2v21.278h44.634v-21.278Z" fill="#000"/></svg>