<svg fill="none" xmlns="http://www.w3.org/2000/svg" viewBox="0 0 41 40"><mask id="a" style="mask-type:alpha" maskUnits="userSpaceOnUse" x="11" y="10" width="30" height="30"><path fill-rule="evenodd" clip-rule="evenodd" d="M14.333 30c8.837 0 16-7.163 16-16a16.07 16.07 0 0 0-.332-3.26C36 12.704 40.333 18.346 40.333 25c0 8.284-6.715 15-15 15-6.654 0-12.297-4.333-14.26-10.332a16.07 16.07 0 0 0 3.26.332Z" fill="#C4C4C4"/></mask><g mask="url(#a)"><circle cx="26.333" cy="26" r="14" fill="#000"/><circle cx="26.333" cy="26" r="13.5" stroke="#fff" stroke-opacity=".2"/><path fill-rule="evenodd" clip-rule="evenodd" d="m26.322 31.487 6.473-4.058-6.473 9.34v-5.282Zm.963.528v1.688l2.073-2.99-2.073 1.302Z" fill="#5A9DED"/><path fill-rule="evenodd" clip-rule="evenodd" d="m26.985 23.056 4.778 2.7-.472.832-4.778-2.7.472-.832Z" fill="#D895D3"/><path fill-rule="evenodd" clip-rule="evenodd" d="m26.322 15.23 6.45 11.091-6.45 4.064V15.231Zm.952 3.55v9.882l4.212-2.654-4.212-7.228Z" fill="#FF9C92"/><path fill-rule="evenodd" clip-rule="evenodd" d="m26.344 31.487-6.472-4.058 6.472 9.34v-5.282Zm-.962.528v1.688l-2.073-2.99 2.073 1.302Z" fill="#53D3E0"/><path fill-rule="evenodd" clip-rule="evenodd" d="m25.48 23.146-4.777 2.7.47.832 4.779-2.7-.471-.832Z" fill="#A6E275"/><path fill-rule="evenodd" clip-rule="evenodd" d="m26.322 15.23-6.45 11.091 6.45 4.064V15.231Zm-.95 3.55v9.882l-4.214-2.654 4.213-7.228Z" fill="#FFE94D"/></g><mask id="b" fill="#fff"><path fill-rule="evenodd" clip-rule="evenodd" d="M14.333 28c7.732 0 14-6.268 14-14s-6.268-14-14-14c-1.9 0-3.71.378-5.363 1.064a4.478 4.478 0 0 0-6.662 5.762A13.935 13.935 0 0 0 .334 14c0 7.732 6.268 14 14 14Z"/></mask><path fill-rule="evenodd" clip-rule="evenodd" d="M14.333 28c7.732 0 14-6.268 14-14s-6.268-14-14-14c-1.9 0-3.71.378-5.363 1.064a4.478 4.478 0 0 0-6.662 5.762A13.935 13.935 0 0 0 .334 14c0 7.732 6.268 14 14 14Z" fill="#002EFF"/><path d="M8.97 1.064 2.09 9.646l5.08 4.075 6.017-2.497L8.97 1.064ZM2.31 6.826l9.44 5.645 3.348-5.599-3.306-5.622-9.482 5.576ZM17.333 14a3 3 0 0 1-3 3v22c13.807 0 25-11.193 25-25h-22Zm-3-3a3 3 0 0 1 3 3h22c0-13.807-11.193-25-25-25v22Zm-1.146.224A2.96 2.96 0 0 1 14.333 11v-22c-3.372 0-6.614.674-9.58 1.904l8.434 20.32Zm-7.016-.143A6.541 6.541 0 0 1 2.09 9.646L15.852-7.518a15.459 15.459 0 0 0-9.68-3.4v22Zm6.523-6.522a6.522 6.522 0 0 1-6.523 6.522v-22c-8.548 0-15.477 6.93-15.477 15.478h22Zm-.903-3.31c.576.98.903 2.124.903 3.31h-22c0 2.84.775 5.534 2.133 7.843L11.79 1.25ZM11.333 14c0-.58.154-1.09.417-1.53L-7.132 1.18A24.935 24.935 0 0 0-10.667 14h22Zm3 3a3 3 0 0 1-3-3h-22c0 13.807 11.193 25 25 25V17Z" fill="#002EFF" mask="url(#b)"/><path fill-rule="evenodd" clip-rule="evenodd" d="m8.147 10.819 3.444-5.372-5.134 5.135a.779.779 0 0 0 .36 1.305l2.72.69a9.377 9.377 0 0 0-.731 1.373c-.196.468-.36 1.004-.376 1.534-.016.543.123 1.125.582 1.584.69.69 1.191.931 1.591 1.123l.088.043c.186.09.324.164.47.28.147.119.326.299.556.614l.13.18c.5.695 1.287 1.787 2.302 2.511.566.404 1.238.722 2.006.784.778.063 1.591-.142 2.419-.675.792-.51 1.314-1.078 1.56-1.74.247-.667.174-1.32-.006-1.914-.165-.543-.44-1.096-.697-1.613l-.048-.097c-.28-.566-.546-1.114-.722-1.686-.344-1.119-.11-1.603.036-1.795a.81.81 0 0 1 .348-.261l.01-.004.015-.003.028-.01.122-.04.321-.105.978-.324c.356-.119.716-.24.991-.334a21.14 21.14 0 0 0 .462-.167 1.226 1.226 0 0 0 .116-.054.683.683 0 0 0 .33-.764v-.003a.698.698 0 0 0-.125-.256 1.558 1.558 0 0 0-.071-.087 7.658 7.658 0 0 0-.175-.192c-.084-.09-1.717-1.743-3.088-3.133-.95-.962-1.775-1.797-1.874-1.899.012.012.89 1.394 1.76 2.762.852 1.34 1.695 2.668 1.706 2.68a175.568 175.568 0 0 1-1.436.477l-.32.105-.103.034-.015.004a2.003 2.003 0 0 0-.358.148 2.174 2.174 0 0 0-.704.598c-.486.636-.69 1.611-.256 3.023.213.693.526 1.332.803 1.891l.027.055c.276.556.504 1.015.635 1.446.13.43.14.755.032 1.043-.108.293-.377.656-1.02 1.07-.608.392-1.127.497-1.571.462-.454-.037-.894-.228-1.325-.535-.821-.587-1.48-1.497-2-2.215l-.121-.168a4.418 4.418 0 0 0-.808-.877 3.658 3.658 0 0 0-.725-.442l-.092-.045c-.353-.169-.692-.331-1.218-.858-.122-.122-.193-.296-.184-.58.01-.295.106-.656.27-1.048.328-.781.847-1.515 1.055-1.792a.78.78 0 0 0-.434-1.224l-2.536-.642Zm5.744 5.57s-1.05 0-1.75-.644 0-1.932 0-1.932.204.129.977 1.03c.773.902.773 1.546.773 1.546Z" fill="#fff"/><circle cx="6.171" cy="4.559" fill="url(#c)" r="3.457"/><path d="M4.88 6.203h.779V5.001h.404l.673 1.202h.913l-.813-1.297c.449-.17.708-.549.708-1.032 0-.679-.484-1.163-1.272-1.163H4.881v3.492ZM6.208 3.43c.32 0 .524.18.524.444s-.204.444-.524.444H5.66V3.43h.548Z" fill="#fff"/><defs><radialGradient id="c" cx="0" cy="0" r="1" gradientUnits="userSpaceOnUse" gradientTransform="rotate(51.34 .153 5.217) scale(6.89567)"><stop stop-color="#22E1FF"/><stop offset="1" stop-color="#22E1FF" stop-opacity="0"/></radialGradient></defs></svg>