<svg xmlns="http://www.w3.org/2000/svg" width="245" height="250" style="shape-rendering:geometricPrecision;text-rendering:geometricPrecision;image-rendering:optimizeQuality;fill-rule:evenodd;clip-rule:evenodd"><path style="opacity:.989" fill="#231c48" d="M104.5-.5h17v58h-27v-8h-48c11.84-.667 23.84-1.333 36-2 .257-13.93-.077-27.93-1-42a183.32 183.32 0 0 1 23-6Z"/><path style="opacity:.986" fill="#231c48" d="M122.5-.5h18a251.103 251.103 0 0 0 15 3.5c2.901.875 5.568 2.042 8 3.5-1.294 1.548-1.961 3.548-2 6 .5 14.918.5 29.918 0 45h-39v-58Z"/><path style="opacity:.975" fill="#221b47" d="M163.5 6.5c8.865 2.432 16.865 6.432 24 12a380.928 380.928 0 0 0-1 39h-25c.5-15.082.5-30.082 0-45 .039-2.452.706-4.452 2-6Z"/><path style="opacity:.941" fill="#231c47" d="M81.5 5.5a500.315 500.315 0 0 1 1 42c-12.16.667-24.16 1.333-36 2v48h10v1h-3c-16.33.083-32.663.083-49 0v12a762.16 762.16 0 0 0 39-1 55.582 55.582 0 0 0 9 1.5 55.582 55.582 0 0 0-9 1.5 762.16 762.16 0 0 0-39-1v12h-5v-17c8.916-48.586 36.249-82.252 82-101Z"/><path style="opacity:1" fill="#bdbcf2" d="M47.5 50.5v-1h47v8c-.306 2.885.027 5.552 1 8 1.419.951 3.085 1.284 5 1v16l6 2v16c1.915-.284 3.581.049 5 1h-6v-17h-6v-17h-6v-16a529.607 529.607 0 0 0-46-1Z"/><path style="opacity:1" fill="#a09ffa" d="M47.5 50.5c15.51-.33 30.842.004 46 1h-45v45a529.607 529.607 0 0 1-1-46Z"/><path style="opacity:1" fill="#7975f7" d="M93.5 51.5v16h6v17h6v17c1.419.951 3.085 1.284 5 1v6a185.422 185.422 0 0 0-11-1v-17h-17v-5h6v-7h-6v-11h-17v-5h23v-6h-35v29h-5v-34h45Z"/><path style="opacity:1" fill="#9b99ce" d="M46.5 49.5h1v1c-.33 15.51.004 30.842 1 46h17v5c1.765.961 3.765 1.295 6 1v1h-8v-6h-17v-48Z"/><path style="opacity:1" fill="#b8a06a" d="M94.5 57.5h4v2a44.358 44.358 0 0 1-2-1c-.952 1.545-1.285 3.212-1 5 1.791.134 3.458-.2 5-1-1.302 1.528-2.969 2.528-5 3-.973-2.448-1.306-5.115-1-8Z"/><path style="opacity:1" fill="#ebc954" d="M98.5 59.5c2.748-.098 3.414.902 2 3-1.542.8-3.209 1.134-5 1-.285-1.788.048-3.455 1-5 .683.363 1.35.696 2 1Z"/><path style="opacity:1" fill="#231c48" d="M186.5 97.5h-39v-12c-12-.333-12-.667 0-1 .368-3.033-.298-5.7-2-8 1.983.343 3.317-.323 4-2a61.283 61.283 0 0 1-1-15h38v38Zm2-79c24.631 15.965 41.298 37.965 50 66a97.113 97.113 0 0 0-24-.5 62.054 62.054 0 0 1-1.5-10.5 60.93 60.93 0 0 0-.5 11c-8-1.333-16-1.333-24 0-.894-21.76-.894-43.76 0-66Z"/><path style="opacity:1" fill="#8a88f6" d="M82.5 78.5h-1v-10h-16v16c3.542-.313 6.875.02 10 1h-11v-17h-5c.325 7.52-.008 14.852-1 22v-23h6v-6h23v-4h-33v33c-.951-1.419-1.285-3.085-1-5v-29h35v6h-23v5h17v11Z"/><path style="opacity:1" fill="#9695f8" d="M58.5 90.5h-4v-33h33v4h-23v6h-6v23Z"/><path style="opacity:1" fill="#7975f4" d="M75.5 85.5h1v6h6v5h-12v-5c-5.526.321-10.86-.012-16-1h4c.992-7.148 1.325-14.48 1-22h5v17h11Z"/><path style="opacity:1" fill="#9695f8" d="M81.5 78.5h-5v-5h-6v6h6v6h-1c-3.125-.98-6.458-1.313-10-1v-16h16v10Z"/><path style="opacity:1" fill="#f0b243" d="M106.5 72.5h4l2 4c-2.521-.06-4.854.606-7 2-1.239-.442-2.239-1.11-3-2-.961-1.765-1.295-3.765-1-6 2.054-.135 3.721.532 5 2Z"/><path style="opacity:1" fill="#f9d05d" d="M110.5 72.5a42.692 42.692 0 0 1 18 3c1.505 1.341 2.172 3.008 2 5l-3 3a9.107 9.107 0 0 1 1 5c-.992-.172-1.658.162-2 1a267.087 267.087 0 0 0-14-3h10c2.667-.667 2.667-1.333 0-2h-6c.343-1.983-.324-3.317-2-4l-2-4-2-4Z"/><path style="opacity:1" fill="#c6a762" d="M100.5 69.5h6v3c-1.279-1.468-2.946-2.135-5-2-.295 2.235.039 4.235 1 6 0 1.333-.667 2-2 2v-9Z"/><path style="opacity:1" fill="#bebdfd" d="M81.5 78.5h7v7h-6v6h-6v-12h-6v-6h6v5h5Z"/><path style="opacity:1" fill="#382a48" d="M102.5 76.5c.761.89 1.761 1.558 3 2 2.146-1.394 4.479-2.06 7-2l2 4c-4.98-.515-9.646.152-14 2v-4c1.333 0 2-.667 2-2Z"/><path style="opacity:1" fill="#f9af3c" d="M114.5 80.5c1.676.683 2.343 2.017 2 4h6v2h-10c-1.418-1.808-3.418-2.475-6-2l-6-2c4.354-1.848 9.02-2.515 14-2Z"/><path style="opacity:1" fill="#f8dd85" d="M130.5 80.5a14.563 14.563 0 0 1 5 4h1v3h5v11c-2.646-.392-5.146-.392-7.5 0 .263-1.45.096-2.784-.5-4-.765 1.112-1.765 1.779-3 2a19.24 19.24 0 0 0-6-1c-.423-2.281.244-3.948 2-5 .886 1.276 1.886 1.276 3 0a44.147 44.147 0 0 1-1-2 9.107 9.107 0 0 0-1-5l3-3Z"/><path style="opacity:.993" fill="#231c48" d="M238.5 84.5a132.761 132.761 0 0 1 6 22v17h-56c-1.242-13.213-1.242-26.213 0-39 8-1.333 16-1.333 24 0a60.93 60.93 0 0 1 .5-11c.207 3.59.707 7.09 1.5 10.5a97.113 97.113 0 0 1 24 .5Z"/><path style="opacity:1" fill="#fdea97" d="M106.5 84.5c2.582-.475 4.582.192 6 2 4.592.853 9.259 1.853 14 3v1c-1.756 1.052-2.423 2.719-2 5a19.24 19.24 0 0 1 6 1c-.404 1.256-1.071 2.423-2 3.5a32.07 32.07 0 0 1 4 5.5 89.247 89.247 0 0 0-2 4v4h-1l-2 4c-.221-1.235-.888-2.235-2-3 .387-3.553 1.387-6.886 3-10-2.486-2.078-3.486-4.745-3-8-1.788.285-3.455-.048-5-1-3.698-4.675-8.365-6.342-14-5v-6Z"/><path style="opacity:1" fill="#3b37c2" d="M48.5 85.5h5c-.285 1.915.049 3.581 1 5 5.14.988 10.474 1.321 16 1v5h12v-6h17v17h-17v-6h-17v-5h-17v-11Z"/><path style="opacity:1" fill="#221b49" d="M122.5 84.5c2.667.667 2.667 1.333 0 2v-2Z"/><path style="opacity:1" fill="#887562" d="M136.5 84.5a19.342 19.342 0 0 0 5 3h-5v-3Z"/><path style="opacity:1" fill="#9a8664" d="M128.5 88.5c.304.65.637 1.317 1 2-1.114 1.276-2.114 1.276-3 0v-1c.342-.838 1.008-1.172 2-1Z"/><path style="opacity:1" fill="#fdfcfa" d="M127.5 117.5h-5v-5h-5v-6h-6v-5c-1.419-.951-3.085-1.284-5-1v-10c5.635-1.342 10.302.325 14 5 1.545.952 3.212 1.285 5 1-.486 3.255.514 5.922 3 8-1.613 3.114-2.613 6.447-3 10 1.112.765 1.779 1.765 2 3Z"/><path style="opacity:1" fill="#615ee8" d="M88.5 90.5h11v11h-11v-11Z"/><path style="opacity:1" fill="#f9c34c" d="M56.5 97.5h4c.268 3.583-.399 6.916-2 10l-4-2c-.315-2.711.352-5.044 2-7v-1Z"/><path style="opacity:1" fill="#7a78de" d="M65.5 101.5h17v6h17v1h-18v-6h-10c-2.235.295-4.235-.039-6-1Z"/><path style="opacity:1" fill="#886d51" d="M53.5 98.5h3c-1.648 1.956-2.315 4.289-2 7-.135 2.917.532 5.584 2 8h-1c-1.942-4.556-2.608-9.556-2-15Z"/><path style="opacity:1" fill="#dbb363" d="m54.5 105.5 4 2c1.086.12 1.753.787 2 2l-3 6c-.797-.457-1.13-1.124-1-2-1.468-2.416-2.135-5.083-2-8Z"/><path style="opacity:1" fill="#f8c954" d="M141.5 98.5c.285 1.788-.048 3.455-1 5-1.679-1.604-3.679-2.271-6-2-.262 1.478.071 2.811 1 4l5 4c1.342-1.505 3.008-2.172 5-2v2c-.34 2.644.327 4.977 2 7a27.816 27.816 0 0 1-6 8c-1.189.929-2.522 1.262-4 1-1.327-1.682-2.994-3.015-5-4a24.007 24.007 0 0 0 0-7c-.457-.798-1.124-1.131-2-1v-2c2.667-.667 2.667-1.333 0-2a89.247 89.247 0 0 1 2-4 32.07 32.07 0 0 0-4-5.5c.929-1.077 1.596-2.244 2-3.5 1.235-.221 2.235-.888 3-2 .596 1.216.763 2.55.5 4 2.354-.392 4.854-.392 7.5 0Z"/><path style="opacity:1" fill="#fdfdfc" d="M83.5 109.5h14v5h6v6h6v5h6v5c1.915-.284 3.581.049 5 1a430.62 430.62 0 0 0-17.5 7c-1.049-1.607-2.549-2.273-4.5-2h-3c-.667-2-2-3.333-4-4a89.68 89.68 0 0 1-8-16c.29-1.544.956-2.877 2-4-1.112-.765-1.779-1.765-2-3Z"/><path style="opacity:1" fill="#584953" d="M130.5 109.5c2.667.667 2.667 1.333 0 2v-2Z"/><path style="opacity:1" fill="#241d48" d="M145.5 76.5c1.702 2.3 2.368 4.967 2 8-12 .333-12 .667 0 1v12h39c.62 9.101-.046 17.934-2 26.5 1.952 8.23 2.618 16.73 2 25.5a78.644 78.644 0 0 0-25 0c.414-6.484.414-12.817 0-19a272.002 272.002 0 0 1 2-6l-1-3c-.765 1.112-1.765 1.779-3 2h-11a53.805 53.805 0 0 1 1-14c1.086-.12 1.753-.787 2-2-2.424-2.552-4.091-5.552-5-9a21.127 21.127 0 0 0-1 9c-1.992-.172-3.658.495-5 2l-5-4c-.929-1.189-1.262-2.522-1-4 2.321-.271 4.321.396 6 2 .952-1.545 1.285-3.212 1-5v-11a19.342 19.342 0 0 1-5-3h-1v-12h9c-.268 1.599.066 2.932 1 4Z"/><path style="opacity:1" fill="#d0a757" d="M149.5 109.5h-4v-2a21.127 21.127 0 0 1 1-9c.909 3.448 2.576 6.448 5 9-.247 1.213-.914 1.88-2 2Z"/><path style="opacity:1" fill="#221b47" d="M53.5 98.5c-.608 5.444.058 10.444 2 15v10h-51v-12a762.16 762.16 0 0 1 39 1 55.582 55.582 0 0 1 9-1.5 55.582 55.582 0 0 1-9-1.5 762.16 762.16 0 0 1-39 1v-12c16.337.083 32.67.083 49 0Z"/><path style="opacity:1" fill="#f2c75a" d="M71.5 103.5h9v6c-1.235 5.313-1.235 10.647 0 16 1.603 1.293 3.27 2.293 5 3-5.483.18-7.817-2.487-7-8h-3c.423-2.281-.244-3.948-2-5-.624-.417-.957-1.084-1-2l4-6-.5-2c-3.415 5.462-4.915 4.796-4.5-2Z"/><path style="opacity:1" fill="#c2c0f8" d="M71.5 103.5v-1h10v6h18v5h6v6h5v5h6v5h5c-.295 2.235.039 4.235 1 6h4v1h-6v-5c-1.419-.951-3.085-1.284-5-1v-5h-6v-5h-6v-6h-6v-5h-17v-6h-9Z"/><path style="opacity:1" fill="#605ce4" d="M99.5 107.5c3.679.224 7.346.558 11 1h6v5h5v6h5v5h6v5h-10v6c-.961-1.765-1.295-3.765-1-6h-5v-5h-6v-5h-5v-6h-6v-6Z"/><path style="opacity:1" fill="#feec9d" d="M80.5 109.5h3c.221 1.235.888 2.235 2 3-1.044 1.123-1.71 2.456-2 4a89.68 89.68 0 0 0 8 16h-4l-2-4c-1.73-.707-3.397-1.707-5-3-1.235-5.353-1.235-10.687 0-16Z"/><path style="opacity:1" fill="#a37d4d" d="M130.5 113.5c.876-.131 1.543.202 2 1a24.007 24.007 0 0 1 0 7 23.142 23.142 0 0 1-2-8Z"/><path style="opacity:1" fill="#bfb5c1" d="M129.5 113.5a24.93 24.93 0 0 1-1 8v2c-.951-1.419-1.284-3.085-1-5-1.915.284-3.581-.049-5-1h5l2-4Z"/><path style="opacity:1" fill="#f5a835" d="M75.5 120.5h3c-.817 5.513 1.517 8.18 7 8l2 4c-1.235.221-2.235.888-3 2a574.53 574.53 0 0 1-7-4c-1.902-2.837-2.569-6.171-2-10Z"/><path style="opacity:1" fill="#201846" d="M129.5 113.5h1c.193 2.808.86 5.475 2 8h-4a24.93 24.93 0 0 0 1-8Z"/><path style="opacity:1" fill="#d1b778" d="M128.5 121.5h4c2.006.985 3.673 2.318 5 4-1-1.333-2-1.333-3 0-1.614-1.575-3.614-2.241-6-2v-2Z"/><path style="opacity:1" fill="#231c48" d="M244.5 124.5v18a219.041 219.041 0 0 1-5 20h-12c-.198-14.47-.865-14.47-2 0a60.931 60.931 0 0 0-11 .5c4.187.071 8.187.738 12 2a66.641 66.641 0 0 0 0 23c-9.661.5-19.328.666-29 .5.237-1.291-.096-2.291-1-3h-6v-6h-3v-55h57Z"/><path style="opacity:1" fill="#4d49d4" d="M132.5 129.5v6h5c-1 5 1 7 6 6 .442 3.654.776 7.321 1 11h-6v-6h-5v-6h-6c.284-1.915-.049-3.581-1-5h-4v-6h10Z"/><path style="opacity:1" fill="#a67c56" d="M73.5 115.5c1.756 1.052 2.423 2.719 2 5-.569 3.829.098 7.163 2 10 .901 3.372.901 6.705 0 10-2.006-2.008-4.339-3.341-7-4a19.524 19.524 0 0 0-1-7.5l1-1.5c.886.825 1.219 1.825 1 3h3v-6c.236-3.109-.097-6.109-1-9Z"/><path style="opacity:1" fill="#271f4a" d="M121.5-.5h1v58h64a380.928 380.928 0 0 1 1-39h1c-.894 22.24-.894 44.24 0 66-1.242 12.787-1.242 25.787 0 39h56v1h-57v55c-1.808-1.418-2.475-3.418-2-6h-6v-5h-6v-6h-5v-6h-6v-5h-6v-6h-5v-6h-6v-5c.262-1.478-.071-2.811-1-4-1.342 1.505-3.008 2.172-5 2v-4h-5v-3c1-1.333 2-1.333 3 0 1.478.262 2.811-.071 4-1a27.816 27.816 0 0 0 6-8c-1.673-2.023-2.34-4.356-2-7h4a53.805 53.805 0 0 0-1 14h11c-.51 2.888.156 5.221 2 7 .414 6.183.414 12.516 0 19a78.644 78.644 0 0 1 25 0c.618-8.77-.048-17.27-2-25.5 1.954-8.566 2.62-17.399 2-26.5v-38h-38a61.283 61.283 0 0 0 1 15c-1.235-.221-2.235-.888-3-2-.929 1.189-1.262 2.522-1 4-.934-1.068-1.268-2.401-1-4h-9v12a14.563 14.563 0 0 0-5-4c.172-1.992-.495-3.659-2-5a42.692 42.692 0 0 0-18-3h-4v-3h-6v-3c-1.915.284-3.581-.049-5-1 2.031-.472 3.698-1.472 5-3 1.414-2.098.748-3.098-2-3v-2h23v-58Z"/><path style="opacity:1" fill="#c9a655" d="M161.5 130.5c-1.844-1.779-2.51-4.112-2-7 1.235-.221 2.235-.888 3-2l1 3a272.002 272.002 0 0 0-2 6Z"/><path style="opacity:1" fill="#caa456" d="M149.5 74.5c-.683 1.677-2.017 2.343-4 2-.262-1.478.071-2.811 1-4 .765 1.112 1.765 1.779 3 2Z"/><path style="opacity:1" fill="#a17858" d="M116.5 60.5c3.351.684 5.351 2.684 6 6a38.477 38.477 0 0 1-12-2v-3c2.235.295 4.235-.039 6-1Z"/><path style="opacity:1" fill="#eccb64" d="M145.5 134.5c-2.582.475-4.582-.192-6-2 1.992.172 3.658-.495 5-2 .929 1.189 1.262 2.522 1 4Z"/><path style="opacity:1" fill="#f9d86a" d="M87.5 132.5h4c2 .667 3.333 2 4 4-.683 1.676-2.017 2.343-4 2l-4-6Z"/><path style="opacity:1" fill="#fbe590" d="M120.5 131.5v5h5v1c-3.255-.486-5.922.514-8 3l-2-2c-3.928 4.649-8.928 7.315-15 8h-5l-4-2c3.757.214 4.424-.786 2-3 1.545-.952 3.212-1.285 5-1v-4c1.951-.273 3.451.393 4.5 2a430.62 430.62 0 0 1 17.5-7Z"/><path style="opacity:1" fill="#bf9757" d="M62.5 134.5c3.17 1.005 4.17 3.005 3 6-.765-1.112-1.765-1.779-3-2v-4Z"/><path style="opacity:1" fill="#fbb841" d="M95.5 136.5h3v4c-1.788-.285-3.455.048-5 1 2.424 2.214 1.757 3.214-2 3 .171-1.992-.495-3.658-2-5 .457-.798 1.124-1.131 2-1 1.983.343 3.317-.324 4-2Z"/><path style="opacity:1" fill="#f8bb48" d="M125.5 137.5v5c-2.281-.423-3.948.244-5 2-2.588 1.58-4.922 3.58-7 6-1.58-2.478-3.58-3.145-6-2 .131-.876-.202-1.543-1-2-2.265 2.567-4.265 2.567-6 0 6.072-.685 11.072-3.351 15-8l2 2c2.078-2.486 4.745-3.486 8-3Z"/><path style="opacity:1" fill="#76624e" d="M95.5 146.5h5c1.735 2.567 3.735 2.567 6 0 .798.457 1.131 1.124 1 2-.111.617-.444 1.117-1 1.5 1.558.21 2.891.71 4 1.5-5.342-.892-10.342-2.558-15-5Z"/><path style="opacity:1" fill="#8b89e7" d="M126.5 135.5c.951 1.419 1.284 3.085 1 5h6v6h5v6h6v5c-.934-1.068-1.268-2.401-1-4h-6v-6h-5v-6h-6v-6Z"/><path style="opacity:1" fill="#716ef2" d="M132.5 129.5h6v6h5c-1 5 1 7 6 6v6h5v5h7v6h-11v5c-.951-1.419-1.284-3.085-1-5-1.915.284-3.581-.049-5-1h5v-5h-5a185.422 185.422 0 0 0-1-11c-5 1-7-1-6-6h-5v-6Z"/><path style="opacity:.997" fill="#221b47" d="M-.5 124.5h56v38a625.297 625.297 0 0 0-50 1h-1a472.919 472.919 0 0 1-5-21v-18Z"/><path style="opacity:1" fill="#2a234c" d="M60.5 97.5h3v6h8c-.415 6.796 1.085 7.462 4.5 2l.5 2-4 6c.043.916.376 1.583 1 2 .903 2.891 1.236 5.891 1 9h-17v12c2.054.135 3.72-.532 5-2v4c-1.542-.801-3.209-1.134-5-1v51h64c.328-11.845-.005-23.512-1-35 .342-.838 1.008-1.172 2-1-.582 12.846.084 25.513 2 38-1.988 19.305-2.654 38.972-2 59h-1v-59h-64v13c-1.93-3.873-2.597-8.206-2-13h-38c-.667 0-1-.333-1-1a380.928 380.928 0 0 1 39-1v-25a313.078 313.078 0 0 1-50 0 625.297 625.297 0 0 1 50-1v-38h-56v-1h56v-10h1c-.13.876.203 1.543 1 2l3-6c-.247-1.213-.914-1.88-2-2 1.601-3.084 2.268-6.417 2-10Z"/><path style="opacity:1" fill="#f7ce57" d="M120.5 144.5a29.752 29.752 0 0 1 5 3c-.825.886-1.825 1.219-3 1v4c-.992-.172-1.658.162-2 1-3.125.979-6.458 1.313-10 1v-3c-1.109-.79-2.442-1.29-4-1.5.556-.383.889-.883 1-1.5 2.42-1.145 4.42-.478 6 2 2.078-2.42 4.412-4.42 7-6Z"/><path style="opacity:1" fill="#3835c2" d="M144.5 152.5h5v5h-5v-5Z"/><path style="opacity:1" fill="#4e4ad5" d="M161.5 158.5v6h5l1 10h5v6h-5c1-5-1-7-6-6v-5h-6v-6h-5v-5h11Z"/><path style="opacity:1" fill="#9f9ed0" d="M125.5 136.5h1v5h6v6h5v6h6c-.268 1.599.066 2.932 1 4 1.419.951 3.085 1.284 5 1-.284 1.915.049 3.581 1 5 1.068.934 2.401 1.268 4 1v6h6v6c-.951-1.419-1.284-3.085-1-5h-6v-6h-5v-6h-6v-5h-6v-6h-5v-6h-6v-6Z"/><path style="opacity:.98" fill="#221b47" d="M4.5 163.5h1a313.078 313.078 0 0 0 50 0v25a380.928 380.928 0 0 0-39 1 115.29 115.29 0 0 1-12-26Z"/><path style="opacity:1" fill="#231c47" d="M74.5 124.5v6h-3c.219-1.175-.114-2.175-1-3l-1 1.5a19.524 19.524 0 0 1 1 7.5c2.661.659 4.994 1.992 7 4 .901-3.295.901-6.628 0-10a574.53 574.53 0 0 0 7 4c.765-1.112 1.765-1.779 3-2l4 6c-.876-.131-1.543.202-2 1 1.505 1.342 2.171 3.008 2 5l4 2c4.658 2.442 9.658 4.108 15 5v3c3.542.313 6.875-.021 10-1 .995 11.488 1.328 23.155 1 35h-64v-51c1.791-.134 3.458.199 5 1 1.235.221 2.235.888 3 2 1.17-2.995.17-4.995-3-6-1.28 1.468-2.946 2.135-5 2v-12h17Z"/><path style="opacity:1" fill="#826850" d="M69.5 148.5c-.934-1.068-1.268-2.401-1-4h5v5c-1.599.268-2.932-.066-4-1Z"/><path style="opacity:1" fill="#e3b959" d="M69.5 148.5c1.068.934 2.401 1.268 4 1v-5h-5c-.268 1.599.066 2.932 1 4Z"/><path style="opacity:1" fill="#aeadea" d="M105.5 101.5h6v5h6v6h5v5c1.419.951 3.085 1.284 5 1-.284 1.915.049 3.581 1 5 2.386-.241 4.386.425 6 2v3h5v4c1.418 1.808 3.418 2.475 6 2v5h6v6h5v6h6v5h6v6h5v6h6v5h6c-.475 2.582.192 4.582 2 6h3v6h6v14h-14v-6h-6v-5h-6v-6c.951 1.419 1.284 3.085 1 5h6c-.284 1.915.049 3.581 1 5h5v6h12v-12h-6v-5h-6v-6h-5v-6h-6v-6h-5v-5h-6v-6h-7v-5h-5v-6c-5 1-7-1-6-6h-5v-6h-6v-5h-6v-5h-5v-6h-5v-5h-6v-6c-1.915.284-3.581-.049-5-1Z"/><path style="opacity:1" fill="#706cf0" d="M161.5 158.5h6v5h5v6h6v6h5v6h-11c-1.915.284-3.581-.049-5-1h5v-6h-5l-1-10h-5v-6Z"/><path style="opacity:1" fill="#9997e4" d="M150.5 163.5h5v6h6v5c5-1 7 1 6 6 1.419.951 3.085 1.284 5 1v5h6v6c-.951-1.419-1.284-3.085-1-5h-6c.284-1.915-.049-3.581-1-5h-5v-6h-5v-6h-6v-6c-1.599.268-2.932-.066-4-1Z"/><path style="opacity:1" fill="#4e4ad4" d="M172.5 181.5h12v10h5v6h-5c.284-1.915-.049-3.581-1-5h-5v-6h-6v-5Z"/><path style="opacity:1" fill="#6a67ef" d="M184.5 181.5h5v5c1.419.951 3.085 1.284 5 1v10h-5v-6h-5v-10Z"/><path style="opacity:1" fill="#221b46" d="M125.5 142.5h6v6h5v6h6v5h6v6h5v6h6c-.284 1.915.049 3.581 1 5h5v6h5v6h6v5h6v6h14a467.073 467.073 0 0 0 2-9l1 6c-.09 2.464-.757 4.63-2 6.5 1.889 3.836 2.555 8.003 2 12.5h-12v-11a597.774 597.774 0 0 0-12-2.5 34.041 34.041 0 0 1-1.5-7.5 32.462 32.462 0 0 0-.5 8 60.931 60.931 0 0 1-11-.5 493.088 493.088 0 0 0-2-11.5h-36c-1.916-12.487-2.582-25.154-2-38v-4c1.175.219 2.175-.114 3-1a29.752 29.752 0 0 0-5-3c1.052-1.756 2.719-2.423 5-2Z"/><path style="opacity:1" fill="#231c48" d="M95.5 190.5h26v38h-40a280.58 280.58 0 0 1 1.5-24 60.94 60.94 0 0 1 .5 11c3.937.293 7.77-.04 11.5-1a97.113 97.113 0 0 1 .5-24Z"/><path style="opacity:1" fill="#8482ee" d="M189.5 186.5h6v12h-12v-6c.951 1.419 1.284 3.085 1 5h10v-10c-1.915.284-3.581-.049-5-1Z"/><path style="opacity:1" fill="#231c47" d="M95.5 190.5a97.113 97.113 0 0 0-.5 24c-3.73.96-7.563 1.293-11.5 1a60.94 60.94 0 0 0-.5-11 280.337 280.337 0 0 0-1.5 24c-8-1.333-16-1.333-24 0v-38h38Zm29 0h36v12c-14.667.333-14.667.667 0 1v12c-4.28-.112-8.28-.112-12 0a36.875 36.875 0 0 0 12 1v12a72.367 72.367 0 0 0-12 .5c8.327.5 16.66.666 25 .5v9a133.913 133.913 0 0 1-33 11h-18c-.654-20.028.012-39.695 2-59Z"/><path style="opacity:1" fill="#241d48" d="M239.5 162.5c-10.961 34.958-32.961 60.292-66 76v-9c-8.34.166-16.673 0-25-.5a72.367 72.367 0 0 1 12-.5v-12a36.875 36.875 0 0 1-12-1c3.72-.112 7.72-.112 12 0v-12c-14.667-.333-14.667-.667 0-1v-12a493.088 493.088 0 0 1 2 11.5c3.652.499 7.318.665 11 .5a32.462 32.462 0 0 1 .5-8 34.041 34.041 0 0 0 1.5 7.5c4.035.798 8.035 1.631 12 2.5v11h12c.555-4.497-.111-8.664-2-12.5 1.243-1.87 1.91-4.036 2-6.5l-1-6a467.073 467.073 0 0 1-2 9v-14c.904.709 1.237 1.709 1 3 9.672.166 19.339 0 29-.5a66.641 66.641 0 0 1 0-23c-3.813-1.262-7.813-1.929-12-2a60.931 60.931 0 0 1 11-.5c1.135-14.47 1.802-14.47 2 0h12Z"/><path style="opacity:1" fill="#231c48" d="M17.5 190.5h38c-.597 4.794.07 9.127 2 13v25c8-1.333 16-1.333 24 0h40v21h-17c-37.984-6.487-66.984-26.154-87-59Z"/></svg>