<svg xmlns="http://www.w3.org/2000/svg" xmlns:xlink="http://www.w3.org/1999/xlink" xml:space="preserve" id="Layer_1" x="0" y="0" style="enable-background:new 0 0 30 30" version="1.1" viewBox="0 0 30 30"><style>.st15{fill:#afb7c2}</style><switch><g><defs><circle id="SVGID_00000104689657424583599050000015243703093578252719_" cx="-26.58" cy="6.23" r="3.21"/></defs><clipPath id="SVGID_00000119802195449476777780000006688808293142266791_"><use xlink:href="#SVGID_00000104689657424583599050000015243703093578252719_" style="overflow:visible"/></clipPath><g style="clip-path:url(#SVGID_00000119802195449476777780000006688808293142266791_)"><path d="m.57.13-4.7-3.87-22.76 9.97z" style="fill:#b0b4bf"/><path d="M6.67 21.07 4.62-.82l-31.51 7.05z" style="fill:#adb6be"/><path d="M-26.89 6.23 6.67 21.07l.68 4.32z" style="fill:#b6b6b6"/><path d="m-26.89 6.23 25.56 28.61-1.81 7.86 10.68-3.64 1.28-4.77-7.19-12.12z" class="st15"/><path d="m1.63 22.17 7.19 12.12-1.47-8.9z" style="fill:#bcc4d8"/></g><defs><circle id="SVGID_00000134946231016692010030000000113626460369237414_" cx="-26.58" cy="-29.77" r="3.21"/></defs><clipPath id="SVGID_00000059303443245886963210000002776096606013314463_"><use xlink:href="#SVGID_00000134946231016692010030000000113626460369237414_" style="overflow:visible"/></clipPath><g style="clip-path:url(#SVGID_00000059303443245886963210000002776096606013314463_)"><path d="M-26.89-29.77-1.33-1.16-3.14 6.7 7.54 3.06l1.28-4.77-7.19-12.12z" class="st15"/><path d="M8.82-1.71 7.54 3.06l.75-.15 1.18-1.17z" style="fill:#f4f4f4"/><path d="m-3.14 6.7 13.97 2.46-1.36-7.42-1.18 1.17-.75.15z" style="fill:#eaf0f5"/></g><linearGradient id="SVGID_1_" x1="4.631" x2="23.561" y1="3.15" y2="24.784" gradientUnits="userSpaceOnUse"><stop offset=".006" style="stop-color:#3e3e3e"/><stop offset="1" style="stop-color:#151515"/></linearGradient><path d="M15 28c7.18 0 13-5.82 13-13S22.18 2 15 2c-1.76 0-3.45.35-4.98.99a4.15 4.15 0 0 0-2.6-.91 4.157 4.157 0 0 0-3.59 6.26A12.968 12.968 0 0 0 2 15c0 7.18 5.82 13 13 13z" style="fill-rule:evenodd;clip-rule:evenodd;fill:url(#SVGID_1_)"/><linearGradient id="SVGID_00000054984839672586577230000005909538913315640195_" x1="15" x2="15" y1="28.125" y2="1.875" gradientUnits="userSpaceOnUse"><stop offset="0" style="stop-color:#ffd400"/><stop offset=".049" style="stop-color:#ffc800"/><stop offset=".147" style="stop-color:#ffb600"/><stop offset=".25" style="stop-color:#ffab00"/><stop offset=".363" style="stop-color:#ffa700"/><stop offset=".551" style="stop-color:#ffab00"/><stop offset=".744" style="stop-color:#ffb700"/><stop offset=".938" style="stop-color:#fc0"/><stop offset="1" style="stop-color:#ffd400"/></linearGradient><path d="M15 28.12C7.76 28.12 1.87 22.24 1.87 15c0-2.35.63-4.65 1.81-6.66-.35-.64-.54-1.37-.54-2.11 0-2.36 1.92-4.28 4.28-4.28.95 0 1.87.32 2.62.89 1.58-.64 3.24-.96 4.96-.96 7.24 0 13.12 5.89 13.12 13.12S22.24 28.12 15 28.12zM7.42 2.2a4.037 4.037 0 0 0-3.48 6.07l.04.06-.04.07A12.857 12.857 0 0 0 2.12 15c0 7.1 5.78 12.88 12.88 12.88S27.87 22.1 27.87 15 22.1 2.12 15 2.12c-1.71 0-3.37.33-4.93.98l-.07.03-.06-.04c-.72-.58-1.59-.89-2.52-.89z" style="fill:url(#SVGID_00000054984839672586577230000005909538913315640195_)"/><linearGradient id="SVGID_00000074405920543706613670000008641492229595560072_" x1="7.474" x2="22.526" y1="15.417" y2="15.417" gradientUnits="userSpaceOnUse"><stop offset="0" style="stop-color:#151515"/><stop offset=".994" style="stop-color:#3e3e3e"/></linearGradient><path d="m9.26 12.43 3.2-4.99-4.77 4.77a.72.72 0 0 0 .33 1.21l2.53.64a8 8 0 0 0-.68 1.28c-.18.43-.33.93-.35 1.42-.02.5.11 1.04.54 1.47.64.64 1.11.86 1.48 1.04l.08.04c.17.08.3.15.44.26.14.11.3.28.52.57.04.05.08.11.12.17.47.65 1.2 1.66 2.14 2.33.53.38 1.15.67 1.86.73.72.06 1.48-.13 2.25-.63.74-.47 1.22-1 1.45-1.62.23-.62.16-1.23-.01-1.78-.15-.5-.41-1.02-.65-1.5l-.04-.09c-.26-.53-.51-1.03-.67-1.57-.32-1.04-.1-1.49.03-1.67.08-.1.17-.17.24-.21l.08-.04h.02l.03-.01.11-.04.3-.1c.25-.08.58-.19.91-.3.33-.11.67-.22.92-.31.13-.04.24-.08.32-.11.04-.01.08-.03.11-.04.01-.01.04-.01.06-.02.01 0 .03-.01.05-.03.01-.01.08-.04.14-.11.26-.26.17-.57.17-.6-.02-.08-.05-.13-.06-.15a.45.45 0 0 0-.06-.09c-.02-.03-.05-.06-.07-.08-.04-.05-.1-.11-.16-.18-.08-.08-1.59-1.62-2.87-2.91l-1.74-1.76c.01.01.83 1.29 1.63 2.56.79 1.24 1.57 2.48 1.58 2.49-.14.05-.28.1-.43.14l-.9.3-.3.1-.1.03h-.01c-.02.01-.05.02-.08.03-.07.02-.15.06-.25.11-.19.1-.44.28-.65.56-.45.59-.64 1.5-.24 2.81.2.64.49 1.24.75 1.76l.03.05c.26.52.47.94.59 1.34.12.4.13.7.03.97s-.35.61-.95.99c-.56.36-1.05.46-1.46.43-.42-.03-.83-.21-1.23-.5-.76-.54-1.37-1.39-1.86-2.06-.04-.05-.08-.1-.11-.16-.26-.36-.5-.62-.75-.81-.25-.2-.47-.31-.67-.41-.03-.01-.06-.03-.09-.04-.33-.16-.64-.31-1.13-.8-.11-.11-.18-.27-.17-.54.01-.27.1-.61.25-.97.3-.73.79-1.41.98-1.66a.731.731 0 0 0-.4-1.14l-2.36-.57zm5.33 5.18s-.98 0-1.63-.6c-.65-.6 0-1.79 0-1.79s.19.12.91.96c.72.83.72 1.43.72 1.43z" style="fill-rule:evenodd;clip-rule:evenodd;fill:url(#SVGID_00000074405920543706613670000008641492229595560072_)"/><linearGradient id="SVGID_00000036229535075216410280000010871414932466937768_" x1="15" x2="15" y1="22.998" y2="7.058" gradientUnits="userSpaceOnUse"><stop offset="0" style="stop-color:gold"/><stop offset="1" style="stop-color:#ffa700"/></linearGradient><path d="m9.26 12.05 3.2-4.99-4.77 4.77a.72.72 0 0 0 .33 1.21l2.53.64a8 8 0 0 0-.68 1.28c-.18.43-.33.93-.35 1.42-.02.5.11 1.04.54 1.47.64.64 1.11.86 1.48 1.04l.08.04c.17.08.3.15.44.26.14.11.3.28.52.57.04.05.08.11.12.17.47.65 1.2 1.66 2.14 2.33.53.38 1.15.67 1.86.73.72.06 1.48-.13 2.25-.63.74-.47 1.22-1 1.45-1.62.23-.62.16-1.23-.01-1.78-.15-.5-.41-1.02-.65-1.5l-.04-.09c-.26-.53-.51-1.03-.67-1.57-.32-1.04-.1-1.49.03-1.67.08-.1.17-.17.24-.21l.08-.04h.02l.03-.01.11-.04.3-.1c.25-.08.58-.19.91-.3.33-.11.67-.22.92-.31.13-.04.24-.08.32-.11.04-.01.08-.03.11-.04.01-.01.04-.01.06-.02.01 0 .03-.01.05-.03.01-.01.08-.04.14-.11.26-.26.17-.57.17-.6-.02-.08-.05-.13-.06-.15a.45.45 0 0 0-.06-.09c-.02-.03-.05-.06-.07-.08-.04-.05-.1-.11-.16-.18-.08-.08-1.59-1.62-2.87-2.91l-1.74-1.76c.01.01.83 1.29 1.63 2.56.79 1.24 1.57 2.48 1.58 2.49-.14.05-.28.1-.43.14l-.9.3-.3.1-.1.03h-.01c-.02.01-.05.02-.08.03-.07.02-.15.06-.25.11-.19.1-.44.28-.65.56-.45.59-.64 1.5-.24 2.81.2.64.49 1.24.75 1.76l.03.05c.26.52.47.94.59 1.34.12.4.13.7.03.97s-.35.61-.95.99c-.56.36-1.05.46-1.46.43-.42-.03-.83-.21-1.23-.5-.76-.54-1.37-1.39-1.86-2.06-.04-.05-.08-.1-.11-.16-.26-.36-.5-.62-.75-.81-.25-.2-.47-.31-.67-.41-.03-.01-.06-.03-.09-.04-.33-.16-.64-.31-1.13-.8-.11-.11-.18-.27-.17-.54.01-.27.1-.61.25-.97.3-.73.79-1.41.98-1.66a.731.731 0 0 0-.4-1.14l-2.36-.57zm5.33 5.17s-.98 0-1.63-.6c-.65-.6 0-1.79 0-1.79s.19.12.91.96c.72.83.72 1.43.72 1.43z" style="fill-rule:evenodd;clip-rule:evenodd;fill:url(#SVGID_00000036229535075216410280000010871414932466937768_)"/><circle cx="7.42" cy="6.23" r="3.21" style="fill:#1e1e1e"/><linearGradient id="SVGID_00000103954368576623088350000004202521424188455585_" x1="6.472" x2="6.472" y1="3.917" y2="7.312" gradientUnits="userSpaceOnUse"><stop offset="0" style="stop-color:gold"/><stop offset="1" style="stop-color:#ffa700"/></linearGradient><path d="M5.51 5.26h.48l.49 1.24.5-1.24h.46l-.85 1.97h-.24l-.84-1.97z" style="fill:url(#SVGID_00000103954368576623088350000004202521424188455585_)"/><linearGradient id="SVGID_00000183943387010312082940000007681248132265170589_" x1="8.402" x2="8.402" y1="3.917" y2="7.312" gradientUnits="userSpaceOnUse"><stop offset="0" style="stop-color:gold"/><stop offset="1" style="stop-color:#ffa700"/></linearGradient><path d="M8.41 5.21c.59 0 .92.42.92 1 0 .06 0 .11-.01.17h-1.4c.05.3.26.47.56.47.15 0 .36-.08.47-.2l.29.27c-.19.2-.47.33-.79.33-.57 0-.98-.43-.98-1.01 0-.57.4-1.03.94-1.03zm-.48.85h.97c-.02-.31-.2-.48-.48-.48-.24 0-.44.18-.49.48z" style="fill:url(#SVGID_00000183943387010312082940000007681248132265170589_)"/></g></switch></svg>