<svg viewBox="0 0 1000 1000" xmlns="http://www.w3.org/2000/svg"><rect width="1e3" height="1e3"/><path d="m393.95 218.52h-162.9c-6.92 0-12.53 5.61-12.53 12.53v162.9c0 6.921 5.61 12.531 12.53 12.531h162.9c6.921 0 12.531-5.61 12.531-12.531v-162.9c0-6.92-5.61-12.53-12.531-12.53zm188.04 187.96h-162.9c-6.92 0-12.531 5.611-12.531 12.531v162.9c0 6.921 5.611 12.531 12.531 12.531h162.9c6.921 0 12.531-5.61 12.531-12.531v-162.9c0-6.92-5.61-12.531-12.531-12.531zm24.982-187.96h162.9c6.92 0 12.531 5.61 12.531 12.53v162.9c0 6.921-5.611 12.531-12.531 12.531h-162.9c-6.921 0-12.531-5.61-12.531-12.531v-162.9c0-6.92 5.61-12.53 12.531-12.53zm-213.02 375.92h-162.9c-6.92 0-12.53 5.61-12.53 12.531v162.9c0 6.92 5.61 12.531 12.53 12.531h162.9c6.92 0 12.53-5.611 12.53-12.531v-162.9c0-6.921-5.61-12.531-12.53-12.531zm213.02 0h162.9c6.92 0 12.531 5.61 12.531 12.531v162.9c0 6.92-5.611 12.531-12.531 12.531h-162.9c-6.921 0-12.531-5.611-12.531-12.531v-162.9c0-6.921 5.61-12.531 12.531-12.531z" clip-rule="evenodd" fill="#fff" fill-rule="evenodd"/></svg>