<svg width="32" height="16" fill="none" xmlns="http://www.w3.org/2000/svg"><path fill-rule="evenodd" clip-rule="evenodd" d="M2.5 0a2 2 0 0 0-2 2v12a2 2 0 0 0 2 2h27a2 2 0 0 0 2-2V2a2 2 0 0 0-2-2h-27Zm1.27 6.2h3.095c.35 0 .635-.27.635-.6 0-.33-.286-.6-.635-.6H3.77c-.7 0-1.27.54-1.27 1.2v3.6c0 .66.571 1.2 1.27 1.2h3.087c.355 0 .643-.269.643-.6 0-.331-.288-.6-.643-.6H3.77V6.2Zm4.73 0c0-.663.618-1.2 1.38-1.2h2.069c.762 0 1.38.537 1.38 1.2v4.2c0 .331-.31.6-.69.6-.381 0-.69-.269-.69-.6V8.6h-2.07v1.8c0 .331-.308.6-.69.6-.38 0-.689-.269-.689-.6V6.2Zm3.449 0v1.2h-2.07V6.2h2.07ZM29.5 9.8V8.6c0-.66-.563-1.2-1.25-1.2h-2.5V6.2h3.125c.344 0 .625-.27.625-.6 0-.33-.281-.6-.625-.6H25.75c-1.25 0-1.25.87-1.25 1.2v1.2c0 .6.375 1.2 1.25 1.2h2.5v1.2h-3.125a.615.615 0 0 0-.625.6c0 .33.281.6.625.6h3.125c.688 0 1.25-.54 1.25-1.2Zm-14.73.737c.084.102.186.191.3.263.201.126.442.2.7.2h2.087c.355 0 .643-.269.643-.6 0-.331-.288-.6-.643-.6H15.77V5.635a.635.635 0 1 0-1.27 0V9.8c0 .277.1.534.27.737Zm5.3.263a1.263 1.263 0 0 1-.3-.263 1.152 1.152 0 0 1-.27-.737V5.635a.635.635 0 0 1 1.27 0V9.8h2.087c.355 0 .643.269.643.6 0 .331-.288.6-.643.6H20.77c-.258 0-.499-.074-.7-.2Z" fill="#6DFFB9"/></svg>