<svg width="231" height="44" fill="none" xmlns="http://www.w3.org/2000/svg"><path d="M221 0H10C4.477 0 0 4.477 0 10v24c0 5.523 4.477 10 10 10h211c5.523 0 10-4.477 10-10V10c0-5.523-4.477-10-10-10Z" fill="#212121"/><path d="M15.84 27h1.446v-3.018h2.124a5.511 5.511 0 0 0 .69-.048c.744-.116 1.296-.426 1.656-.93.364-.508.546-1.118.546-1.83 0-.716-.18-1.326-.54-1.83-.356-.508-.91-.82-1.662-.936a2.521 2.521 0 0 0-.366-.036 5.566 5.566 0 0 0-.324-.012h-3.57V27Zm1.446-4.368v-2.916h2.064c.08 0 .17.004.27.012s.192.022.276.042c.24.06.428.168.564.324.14.152.238.324.294.516.06.192.09.38.09.564 0 .184-.03.372-.09.564a1.284 1.284 0 0 1-.294.516 1.087 1.087 0 0 1-.564.318c-.084.024-.176.04-.276.048-.1.008-.19.012-.27.012h-2.064Zm10.472 4.548c.864 0 1.604-.188 2.22-.564a3.717 3.717 0 0 0 1.422-1.584c.332-.676.498-1.46.498-2.352 0-.896-.166-1.68-.498-2.352a3.678 3.678 0 0 0-1.422-1.578c-.616-.38-1.356-.57-2.22-.57-.86 0-1.6.19-2.22.57a3.73 3.73 0 0 0-1.422 1.578c-.328.672-.492 1.456-.492 2.352 0 .892.164 1.676.492 2.352a3.769 3.769 0 0 0 1.422 1.584c.62.376 1.36.564 2.22.564Zm0-1.362c-.868-.012-1.52-.302-1.956-.87-.436-.568-.652-1.324-.648-2.268.004-.632.102-1.184.294-1.656s.48-.838.864-1.098c.384-.264.866-.392 1.446-.384.872.012 1.524.302 1.956.87.436.568.654 1.324.654 2.268 0 .628-.098 1.18-.294 1.656a2.345 2.345 0 0 1-.87 1.098c-.384.26-.866.388-1.446.384ZM35.153 27h1.428l1.764-6.144L40.109 27h1.428l2.52-8.64h-1.518l-1.716 6.24-1.722-6.24-1.518.012-1.716 6.228-1.722-6.24h-1.518L35.153 27Zm10.483 0h5.58v-1.356h-4.134v-2.442h3.414v-1.356h-3.414v-2.13h4.134V18.36h-5.58V27Zm7.62 0H54.7v-3.018h2.052L58.217 27h1.638l-1.596-3.276a2.24 2.24 0 0 0 1.098-1.002c.24-.448.36-.964.36-1.548 0-.716-.18-1.326-.54-1.83-.356-.508-.91-.82-1.662-.936a2.521 2.521 0 0 0-.366-.036 5.566 5.566 0 0 0-.324-.012h-3.57V27Zm1.445-4.368v-2.916h2.064c.08 0 .17.004.27.012s.192.022.276.042c.24.06.428.168.564.324.14.152.238.324.294.516.06.192.09.38.09.564 0 .184-.03.372-.09.564a1.284 1.284 0 0 1-.294.516 1.087 1.087 0 0 1-.564.318c-.084.024-.176.04-.276.048-.1.008-.19.012-.27.012h-2.064ZM61.777 27h5.58v-1.356h-4.134v-2.442h3.414v-1.356h-3.414v-2.13h4.134V18.36h-5.58V27Zm7.62 0h2.754l.426-.006c.22-.004.428-.018.624-.042.688-.088 1.268-.33 1.74-.726.472-.4.83-.908 1.074-1.524.244-.616.366-1.29.366-2.022 0-.732-.122-1.406-.366-2.022a3.785 3.785 0 0 0-1.074-1.524c-.472-.4-1.052-.642-1.74-.726a6.202 6.202 0 0 0-.624-.042 28.022 28.022 0 0 0-.426-.006h-2.754V27Zm1.47-1.362v-5.916h1.284c.12 0 .272.004.456.012.184.004.35.022.498.054.4.076.728.254.984.534s.446.626.57 1.038c.128.408.192.848.192 1.32 0 .452-.06.884-.18 1.296-.12.412-.31.762-.57 1.05a1.753 1.753 0 0 1-.996.546 3.515 3.515 0 0 1-.498.054c-.184.008-.336.012-.456.012h-1.284ZM81.402 27h3.773c.853 0 1.499-.236 1.939-.708.44-.472.66-1.092.66-1.86 0-.436-.109-.832-.325-1.188a1.937 1.937 0 0 0-.942-.798c.268-.16.478-.386.63-.678.156-.296.234-.64.234-1.032 0-.388-.091-.764-.275-1.128a2.178 2.178 0 0 0-.834-.894c-.372-.236-.85-.354-1.434-.354h-3.426V27Zm1.463-5.19v-2.1h1.945c.343 0 .611.1.803.3.192.2.289.45.289.75 0 .344-.106.606-.319.786a1.157 1.157 0 0 1-.773.264h-1.945Zm0 3.828V23.16h2.172c.404 0 .718.118.942.354.225.236.337.528.337.876 0 .384-.127.688-.379.912-.248.224-.561.336-.941.336h-2.13ZM91.31 27h1.464v-3.54l2.934-5.1H94.02l-1.98 3.444-1.986-3.444h-1.686l2.94 5.1V27Z" fill="#CFD4DD"/><path d="M138.008 22.568v6.282a2.264 2.264 0 0 1-1.114 1.937l-5.442 3.134a2.176 2.176 0 0 1-2.228 0l-5.442-3.134a2.257 2.257 0 0 1-1.115-1.937v-1.764l2.787-1.617v3.065l4.875 2.83 4.876-2.83v-5.646l-4.876-2.83-11.423 6.617a2.269 2.269 0 0 1-2.229 0l-5.441-3.147a2.262 2.262 0 0 1-1.089-1.935V15.31a2.275 2.275 0 0 1 1.115-1.937l5.442-3.135a2.192 2.192 0 0 1 2.228 0l5.442 3.135a2.264 2.264 0 0 1 1.114 1.937v1.763l-2.803 1.606v-3.047l-4.876-2.83-4.875 2.83v5.64l4.875 2.83 11.423-6.618a2.27 2.27 0 0 1 2.229 0l5.442 3.148a2.268 2.268 0 0 1 1.105 1.935Z" fill="#7B3FE4"/><path d="M147.706 31.133v-4.895c.531.668 1.496 1.042 2.612 1.042 2.852 0 4.778-2.024 4.778-5.11 0-3.087-1.77-5.111-4.54-5.111-1.278 0-2.262.472-2.852 1.238V17.21h-2.729v13.917l2.731.007Zm2.275-6.212c-1.476 0-2.438-1.102-2.438-2.752 0-1.65.962-2.77 2.438-2.77 1.434 0 2.418 1.088 2.418 2.77 0 1.683-.977 2.752-2.418 2.752ZM161.299 27.28c3.047 0 5.224-2.164 5.224-5.11 0-2.948-2.177-5.111-5.224-5.111s-5.224 2.161-5.224 5.11c0 2.95 2.177 5.111 5.224 5.111Zm0-2.36c-1.473 0-2.477-1.12-2.477-2.75 0-1.631 1.006-2.772 2.477-2.772 1.472 0 2.477 1.12 2.477 2.771 0 1.652-1.001 2.752-2.477 2.752ZM170.913 27.124V12.91h-2.731v14.214h2.731ZM179.125 17.215l-2.063 6.388-2.083-6.388h-2.797l3.595 9.827-1.454 4.09h2.612l1.404-4.046 3.598-9.867-2.812-.004ZM189.611 18.2c-.55-.689-1.523-1.141-2.731-1.141-2.891 0-4.639 2.024-4.639 5.11 0 3.087 1.742 5.111 4.678 5.111 1.16 0 2.2-.435 2.712-1.16v1.306c0 .923-.61 1.572-1.434 1.572h-4.561v2.143h4.994c2.239 0 3.733-1.356 3.733-3.421V17.215h-2.752v.984Zm-2.259 6.72c-1.456 0-2.418-1.088-2.418-2.75 0-1.664.962-2.772 2.418-2.772 1.456 0 2.436 1.089 2.436 2.771 0 1.683-.962 2.752-2.436 2.752ZM199.251 27.28c3.048 0 5.224-2.164 5.224-5.11 0-2.948-2.176-5.111-5.224-5.111-3.047 0-5.224 2.161-5.224 5.11 0 2.95 2.177 5.111 5.224 5.111Zm0-2.36c-1.475 0-2.477-1.12-2.477-2.75 0-1.631 1.002-2.772 2.477-2.772 1.476 0 2.477 1.12 2.477 2.771 0 1.652-1.003 2.752-2.477 2.752ZM208.726 27.123v-5.426c0-1.278.844-2.2 2.044-2.2 1.14 0 1.906.87 1.906 2.063v5.563h2.752V20.95c0-2.28-1.454-3.891-3.701-3.891-1.356 0-2.455.57-3.005 1.523v-1.367h-2.747v9.908h2.751Z" fill="#fff"/></svg>