<svg width="31" height="16" fill="none" xmlns="http://www.w3.org/2000/svg"><path fill-rule="evenodd" clip-rule="evenodd" d="M2.5 0a2 2 0 0 0-2 2v12a2 2 0 0 0 2 2h26a2 2 0 0 0 2-2V2a2 2 0 0 0-2-2h-26Zm2 6.2c0-.663.618-1.2 1.38-1.2h2.069c.762 0 1.38.537 1.38 1.2v1.2a1.2 1.2 0 0 1-1.2 1.2h-2.25v1.8c0 .331-.308.6-.69.6-.38 0-.689-.269-.689-.6V6.2Zm3.449 0v1.2h-2.07V6.2h2.07Zm5.277 4.8c.762 0 1.38-.537 1.38-1.2V5.6c0-.331-.31-.6-.69-.6-.381 0-.69.269-.69.6v4.2h-2.07V5.6c0-.331-.308-.6-.689-.6-.381 0-.69.269-.69.6v4.2c0 .663.618 1.2 1.38 1.2h2.07Zm3.653-6H15.6a.6.6 0 1 0 0 1.2h1.28v4.2c0 .331.308.6.69.6.38 0 .689-.269.689-.6V6.2H19.4a.6.6 0 1 0 0-1.2h-2.521ZM25.5 8.6v1.2c0 .66-.563 1.2-1.25 1.2h-3.125a.615.615 0 0 1-.625-.6c0-.33.281-.6.625-.6h3.125V8.6h-2.5c-.875 0-1.25-.6-1.25-1.2V6.2c0-.33 0-1.2 1.25-1.2h3.125c.344 0 .625.27.625.6 0 .33-.281.6-.625.6H21.75v1.2h2.5c.688 0 1.25.54 1.25 1.2Z" fill="#FF617D"/></svg>