<svg width="26" height="26" fill="none" xmlns="http://www.w3.org/2000/svg"><path d="m19.08 3.466-3.002 3.72c-.344.427-.108 1.147.377 1.147h1.926v9.174c0 1.334-.72 2.574-1.786 2.787-1.346.28-2.519-1.013-2.519-2.627V8.56c0-2.787-1.646-5.268-3.885-5.534-2.561-.307-4.725 2.186-4.725 5.307v9.334H3.54c-.485 0-.721.72-.377 1.134l3.003 3.72c.215.267.549.267.764 0l3.003-3.72c.333-.414.097-1.134-.388-1.134H7.62V8.493c0-1.334.72-2.574 1.786-2.787 1.346-.28 2.519 1.013 2.519 2.627v9.107c0 2.787 1.646 5.268 3.885 5.534 2.562.307 4.725-2.186 4.725-5.307V8.333h1.926c.485 0 .721-.72.377-1.134l-3.003-3.72c-.204-.267-.549-.267-.753-.013z" fill="#8E8E8E"/></svg>