<svg width="445" height="141" fill="none" xmlns="http://www.w3.org/2000/svg"><g filter="url(#a)"><path d="M5 56.5V.5h40v8h8v8h8v24h-8v8h-8v8H5Zm16-8h16v-8h8v-24h-8v-8H21v40Zm56 8v-8h16v-40H77v-8h48v8h-16v40h16v8H77Zm56 0v-40h8v-8h8v-8h24v8h8v8h8v40h-16v-16h-24v16h-16Zm16-24h24v-16h-8v-8h-8v8h-8v16Zm48 24V.5h16v8h8v8h8v-8h8v-8h16v56h-16v-32h-8v16h-8v-16h-8v32h-16Zm72 0v-8h-8v-40h8v-8h40v8h8v40h-8v8h-40Zm8-8h24v-40h-24v40Zm48 8V.5h16v8h8v8h8v8h8V.5h16v56h-16v-16h-8v-8h-8v-8h-8v32h-16Zm64 0V.5h40v8h8v8h8v24h-8v8h-8v8h-40Zm16-8h16v-8h8v-24h-8v-8h-16v40Zm-400 86v-70h60v10h10v30H65v10H25v20H5Zm20-30h30v-30H25v30Zm72 30v-70h70v10h-50v20h40v10h-40v20h50v10H97Zm92 0v-70h60v10h10v30h-10v10h-40v20h-20Zm20-30h30v-30h-30v30Zm72 30v-70h70v10h-50v20h40v10h-40v20h50v10h-70Zm102 0v-10h-10v-10h20v10h30v-20h-40v-10h-10v-20h10v-10h50v10h10v10h-20v-10h-30v20h40v10h10v20h-10v10h-50Z" fill="url(#b)"/></g><defs><linearGradient id="b" x1="229" y1=".5" x2="229" y2="144.5" gradientUnits="userSpaceOnUse"><stop stop-color="#fff"/><stop offset=".641" stop-color="#9CECFD"/></linearGradient><filter id="a" x="0" y=".5" width="445" height="140" filterUnits="userSpaceOnUse" color-interpolation-filters="sRGB"><feFlood flood-opacity="0" result="BackgroundImageFix"/><feColorMatrix in="SourceAlpha" values="0 0 0 0 0 0 0 0 0 0 0 0 0 0 0 0 0 0 127 0" result="hardAlpha"/><feOffset dx="-5" dy="6"/><feComposite in2="hardAlpha" operator="out"/><feColorMatrix values="0 0 0 0 0.262745 0 0 0 0 0.376471 0 0 0 0 0.603922 0 0 0 1 0"/><feBlend in2="BackgroundImageFix" result="effect1_dropShadow_369_25863"/><feBlend in="SourceGraphic" in2="effect1_dropShadow_369_25863" result="shape"/></filter></defs></svg>