<svg width="14" height="15" fill="none" xmlns="http://www.w3.org/2000/svg"><path d="M11.667 12.65h-9a.752.752 0 0 1-.75-.75v-9c0-.413.337-.75.75-.75h3.75c.412 0 .75-.338.75-.75a.752.752 0 0 0-.75-.75h-4.5a1.5 1.5 0 0 0-1.5 1.5v10.5c0 .825.675 1.5 1.5 1.5h10.5c.825 0 1.5-.675 1.5-1.5v-4.5a.752.752 0 0 0-.75-.75.752.752 0 0 0-.75.75v3.75c0 .412-.338.75-.75.75Zm-3-11.25c0 .412.337.75.75.75h1.942L4.512 8.997a.747.747 0 1 0 1.057 1.058l6.848-6.848V5.15c0 .412.337.75.75.75.412 0 .75-.338.75-.75V1.4a.752.752 0 0 0-.75-.75h-3.75a.752.752 0 0 0-.75.75Z" fill="url(#a)"/><defs><linearGradient id="a" x1="7.167" y1=".65" x2="7.167" y2="14.15" gradientUnits="userSpaceOnUse"><stop stop-color="#fff"/><stop offset=".641" stop-color="#9CECFD"/></linearGradient></defs></svg>