<svg width="12" height="13" fill="none" xmlns="http://www.w3.org/2000/svg"><path d="m11.18 2.82.007-.007L9.06.687a.503.503 0 0 0-.707 0 .503.503 0 0 0 0 .706l1.054 1.054c-.7.266-1.174.98-1.054 1.806A1.69 1.69 0 0 0 9.82 5.66c.313.033.587-.02.847-.133v4.806c0 .367-.3.667-.667.667a.669.669 0 0 1-.667-.667v-3C9.333 6.6 8.733 6 8 6h-.667V1.333C7.333.6 6.733 0 6 0H2C1.267 0 .667.6.667 1.333v10c0 .367.3.667.666.667h5.334c.366 0 .666-.3.666-.667V7h1v3.24c0 .873.627 1.667 1.494 1.753 1 .1 1.84-.68 1.84-1.66V4c0-.46-.187-.88-.487-1.18ZM6 4.667H2V2c0-.367.3-.667.667-.667h2.666c.367 0 .667.3.667.667v2.667Zm4 0A.669.669 0 0 1 9.333 4c0-.367.3-.667.667-.667.367 0 .667.3.667.667 0 .367-.3.667-.667.667Z" fill="#6DFFB9"/></svg>