<svg width="17" height="16" fill="none" xmlns="http://www.w3.org/2000/svg"><path fill-rule="evenodd" clip-rule="evenodd" d="M2 0a2 2 0 0 0-2 2v12a2 2 0 0 0 2 2h13a2 2 0 0 0 2-2V2a2 2 0 0 0-2-2H2Zm1.758 6.087a.624.624 0 0 0 .704-.003l.631-.438V8.25c0 .303.254.549.567.549a.558.558 0 0 0 .567-.549v-3.7A.558.558 0 0 0 5.66 4h-.1c-.265 0-.522.09-.726.254l-1.115.9a.577.577 0 0 0 .04.933Zm7.145 3.993h2.077c.286 0 .52-.216.52-.48V7.68c0-.264-.234-.48-.52-.48h-2.597c-.286 0-.52.216-.52.48s.234.48.52.48h2.078v.96h-1.558c-.572 0-1.04.432-1.04.96v.96c0 .528.468.96 1.04.96h2.077c.286 0 .52-.216.52-.48s-.234-.48-.52-.48h-2.077v-.96Zm-.33-5.05a.548.548 0 0 0-.016-.859.796.796 0 0 0-1.003.014L5.518 10.97a.548.548 0 0 0 .016.859.795.795 0 0 0 1.003-.014l4.036-6.785Z" fill="#3E3E3E"/></svg>