<svg width="10" height="13" fill="none" xmlns="http://www.w3.org/2000/svg"><path d="m3.308 3.062-.484-.125a.084.084 0 0 1-.1.062h-.002a.08.08 0 0 1-.061-.102v-.001A2.414 2.414 0 0 1 5 1.083 2.418 2.418 0 0 1 7.417 3.5v1.667H8.5a.67.67 0 0 1 .667.666v5.834a.67.67 0 0 1-.667.666h-7a.67.67 0 0 1-.667-.666V5.833a.67.67 0 0 1 .667-.666h5.75V3.5a2.248 2.248 0 0 0-4.426-.562l.484.124Zm0 0A1.748 1.748 0 0 1 6.75 3.5v.667l-5.25.5A1.17 1.17 0 0 0 .333 5.833v5.834A1.17 1.17 0 0 0 1.5 12.833h7a1.17 1.17 0 0 0 1.167-1.166V5.833A1.17 1.17 0 0 0 8.5 4.667h-.583V3.5A2.918 2.918 0 0 0 5 .583c-1.33 0-2.49.899-2.823 2.188a.584.584 0 1 0 1.132.292ZM4.333 8.75A.67.67 0 0 1 5 8.083a.67.67 0 0 1 .667.667.67.67 0 0 1-.667.667.67.67 0 0 1-.667-.667Zm3.584 3.417c.597 0 1.083-.487 1.083-1.084V6.417c0-.597-.486-1.084-1.083-1.084H2.083C1.486 5.333 1 5.82 1 6.417v4.666c0 .597.486 1.084 1.083 1.084h5.834Z" fill="transparent" stroke="#fff"/></svg>