<svg width="30" height="16" fill="none" xmlns="http://www.w3.org/2000/svg"><path fill-rule="evenodd" clip-rule="evenodd" d="M2 0a2 2 0 0 0-2 2v12a2 2 0 0 0 2 2h26a2 2 0 0 0 2-2V2a2 2 0 0 0-2-2H2Zm3.69 11c.38 0 .69-.269.69-.6V6.2h1.38v4.2c0 .331.308.6.689.6.38 0 .69-.269.69-.6V6.2h1.38v4.2c0 .331.308.6.689.6.38 0 .69-.269.69-.6V6.2c0-.663-.618-1.2-1.38-1.2H6.38C5.619 5 5 5.537 5 6.2v4.2c0 .331.309.6.69.6Zm7.587-4.8c0-.663.618-1.2 1.38-1.2h2.069c.762 0 1.38.537 1.38 1.2v4.2c0 .331-.31.6-.69.6-.381 0-.69-.269-.69-.6V8.6h-2.07v1.8c0 .331-.308.6-.689.6-.381 0-.69-.269-.69-.6V6.2Zm3.449 0v1.2h-2.07V6.2h2.07ZM19.8 5.118c.331-.203.789-.135 1.025.151l1.418 1.722L23.66 5.27c.236-.286.694-.354 1.025-.151.34.208.416.618.168.908L23.17 8l1.685 1.974c.248.29.172.7-.168.908-.331.203-.789.135-1.025-.151l-1.418-1.722-1.418 1.722c-.236.286-.694.354-1.025.151-.34-.208-.416-.618-.169-.908L21.317 8 19.63 6.026c-.247-.29-.171-.7.169-.908Z" fill="#3E3E3E"/></svg>