<svg width="16" height="21" fill="none" xmlns="http://www.w3.org/2000/svg"><path d="M13.5 7.333h-.917V5.5A4.585 4.585 0 0 0 8 .917 4.585 4.585 0 0 0 3.417 5.5v1.833H2.5A1.839 1.839 0 0 0 .667 9.166v9.167c0 1.009.825 1.834 1.833 1.834h11a1.839 1.839 0 0 0 1.833-1.834V9.167A1.839 1.839 0 0 0 13.5 7.332ZM5.25 5.5A2.746 2.746 0 0 1 8 2.75a2.746 2.746 0 0 1 2.75 2.75v1.833h-5.5V5.5Zm7.333 12.833H3.417a.92.92 0 0 1-.917-.916v-7.334a.92.92 0 0 1 .917-.917h9.166a.92.92 0 0 1 .917.917v7.333a.92.92 0 0 1-.917.917ZM8 15.583a1.839 1.839 0 0 0 1.833-1.833A1.839 1.839 0 0 0 8 11.916a1.839 1.839 0 0 0-1.833 1.834c0 1.008.825 1.833 1.833 1.833Z" fill="#78859E"/></svg>