<svg version="1.0" xmlns="http://www.w3.org/2000/svg" width="66.667" height="66.667" viewBox="0 0 50 50"><path d="M0 25v25h50V0H0v25zm32.9-13.9c2.5 1.5 3.1 2.3 2.2 3.2-.8.8-1.9.8-4.4-.1-7.2-2.6-13.3-.7-16.3 4.9-1.9 3.7-1.8 5.9.3 5.9 1.1 0 .6.8-1.7 2.5-1.9 1.4-3.5 2.5-3.7 2.5-.2 0-.3-2.2-.3-4.9C9 13 22.7 4.9 32.9 11.1zm-8.5 10.1c.5 1 .7 1 1.2 0 .6-1.3 4.4-1.7 4.4-.5 0 .5-.7 1.7-1.5 2.7-1.3 1.8-1.3 2.2.6 4.2l2.1 2.2H18.8l2.1-2.2 2.1-2.3-2.1-2.6-2-2.7h2.4c1.4 0 2.8.6 3.1 1.2zm16.4 4.3c-.5 5.9-2.4 9.4-7.2 12.9-3.7 2.8-13 2.9-17 .3-3.9-2.6-2-4.6 2.7-2.9 4.5 1.6 8.2 1.5 11.7-.3C35.8 33 39 25 35.3 25c-1.4 0-1.1-.6 1.2-2.5 1.7-1.3 3.4-2.4 3.9-2.5.5 0 .6 2.5.4 5.5z"/></svg>