<svg width="18" height="21" fill="none" xmlns="http://www.w3.org/2000/svg"><path d="M10.833.917H7.167a.92.92 0 0 0-.917.916.92.92 0 0 0 .917.917h3.666a.92.92 0 0 0 .917-.917.92.92 0 0 0-.917-.916ZM9 12.833a.92.92 0 0 0 .917-.916V8.25A.92.92 0 0 0 9 7.333a.92.92 0 0 0-.917.917v3.667a.92.92 0 0 0 .917.916Zm6.444-6.059.688-.687a.91.91 0 0 0 0-1.284l-.01-.009a.91.91 0 0 0-1.283 0l-.687.688A8.215 8.215 0 0 0 9 3.667c-4.4 0-8.14 3.63-8.25 8.03A8.248 8.248 0 0 0 9 20.167a8.245 8.245 0 0 0 6.444-13.393ZM9 18.334a6.412 6.412 0 0 1-6.417-6.417A6.412 6.412 0 0 1 9 5.5a6.412 6.412 0 0 1 6.417 6.417A6.412 6.412 0 0 1 9 18.333Z" fill="#8E8E8E"/></svg>