<svg xmlns="http://www.w3.org/2000/svg" width="400" height="400"><g fill-rule="evenodd"><path d="M227.039 16.338c-.139.223-.057.527.181.674.615.381 1.012-.14.498-.654-.287-.287-.511-.294-.679-.02m-55.938 1.867c-.104.547-.056.995.108.995.429 0 .776-1.562.399-1.795-.174-.108-.402.252-.507.8m-12.045 6.073c-.451.45-.275.922.344.922.33 0 .6-.169.6-.376 0-.505-.625-.866-.944-.546m84.016 1.206c-.121.195-.074.59.104.878.246.398.395.409.619.046a.75.75 0 0 0-.105-.878c-.223-.223-.496-.244-.618-.046M143.006 33.59c-.137.222-.086.696.114 1.052.316.566.391.54.584-.196.235-.9-.28-1.532-.698-.856m115.46 1.561c-.406.257-.334.39.3.556.553.145.834.029.834-.344 0-.638-.356-.705-1.134-.212m4.418 1.407c.284.307.654.474.823.372.457-.277-.067-.93-.746-.93-.487 0-.5.1-.077.558m6.292 4.871c-.4.482-.338.56.36.454 1.121-.171 1.436-.531.71-.81-.323-.124-.805.036-1.07.356M127.136 43.9c.155.76.27.884.373.4.083-.385.451-.713.82-.728.54-.023.515-.095-.129-.372-1.23-.529-1.305-.479-1.064.7m147.958.339c-.474.474.116.961 1.163.961.629 0 .948-.189.845-.5-.184-.56-1.587-.882-2.008-.461M106.8 53.8c-.278.335-.321.6-.098.6.22 0 .624-.27.898-.6.278-.335.321-.6.098-.6-.22 0-.624.27-.898.6m-5.501 3.282c-1.435.277-1.824 1.44-.664 1.987 1.076.508 1.421.22 1.592-1.331.056-.516.073-.913.038-.884-.036.03-.47.133-.966.228m-3.821 3.174c-.141.14-.165.403-.054.582.249.404 1.376.01 1.376-.481 0-.41-.941-.482-1.322-.101M93.68 61.68c-.737.737-.575 1.12.471 1.12.993 0 2.034-.882 1.579-1.337-.422-.421-1.529-.304-2.05.217m210.548-.125c-.269.435.891 1.46 1.248 1.102.142-.141.047-.257-.209-.257-.729 0-.548-.72.233-.924.541-.142.5-.194-.176-.23-.482-.025-.975.114-1.096.309M86.566 65.654c-.173.281-.101.568.166.657.26.086.382.305.27.486-.112.181.166.232.617.114.48-.126.768-.481.696-.858-.155-.801-1.334-1.07-1.749-.399M81 69.6c1.105.475 1.8.475 1.8 0 0-.22-.585-.387-1.3-.372-1.089.024-1.17.084-.5.372m43.8 98.99c-.55.318-1.27.706-1.6.862-4.642 2.195-5.351 3.486-2.685 4.892.927.49 2.045 1.109 2.485 1.378.917.56 5.393 3.171 8.138 4.748l1.862 1.069.2 21.362.2 21.362 1.048 1.368c.577.753 2.692 3.349 4.701 5.769 2.008 2.42 3.796 4.58 3.973 4.8.177.22 1.274 1.57 2.439 3 1.164 1.43 3.489 4.31 5.165 6.4 1.676 2.09 3.445 4.25 3.932 4.8 2.01 2.271 2.542 2.935 2.542 3.173 0 .138.588.875 1.306 1.639.719.763 2.018 2.288 2.887 3.388.869 1.1 1.682 2.09 1.807 2.2.125.11.941 1.095 1.814 2.19a2270.5 2270.5 0 0 0 10.531 12.989c.8.979 1.882 2.239 2.404 2.8.521.562 1.236 1.471 1.588 2.021.581.909 4.343 5.522 4.893 6 .127.11 1.319 1.578 2.649 3.262 3.334 4.221 3.463 4.336 7.521 6.733 5.901 3.486 5.45 2.55 5.398 11.195-.025 4.075-.035 7.655-.022 7.953.028.641 1.862.304 2.824-.518 2.606-2.229 6.073-3.535 8.137-3.067 1.135.258 3.863.719 6.063 1.025 2.2.307 6.34.913 9.2 1.348 10.351 1.576 10.297 1.58 11.683-.931 1.117-2.025 1.849-2.034 9.317-.115 6.791 1.745 7.027 1.648 9.546-3.885 1.403-3.081 1.481-3.192 2.354-3.322.45-.068 1.961.359 3.359.948 1.397.588 3.891 1.519 5.541 2.068 1.65.55 3.805 1.36 4.788 1.802 2.083.937 3.57 1.031 4.025.254.177-.302.881-1.36 1.565-2.35 1.967-2.847 8.834-13.43 11.42-17.6 3.742-6.032 3.773-6.05 6.71-3.808 1.745 1.333 1.856 1.363 2.597.7 1.042-.932 3.295-3.919 3.295-4.368 0-.395.334-.863 2.891-4.06a91.562 91.562 0 0 0 3.39-4.6c3.897-5.714 5.086-6.811 5.919-5.464.518.838 1.376.329 2.812-1.67 1.776-2.471 1.804-2.508 3.474-4.487.723-.856 2.214-2.775 3.314-4.265 7.659-10.374 9.821-12.778 11.49-12.778.636 0 1.062-.153.947-.341-.116-.187.412-.31 1.173-.272 1.356.068 1.37.053.698-.759-.378-.455-.431-.603-.117-.328.853.75 1.582.606 2.026-.4 1.001-2.272 2.402-4.341 3.726-5.503 1.251-1.099 2.089-3.635.972-2.945-.173.108-.315-.181-.315-.641s.28-.944.622-1.075c.54-.207.611-1.383.539-8.887-.045-4.757-.16-8.424-.255-8.149-.329.954-.906.494-.906-.724 0-.713.167-1.12.4-.976.911.563.307-.747-.9-1.952-.715-.714-1.66-1.773-2.1-2.354-.518-.684-1.193-1.064-1.913-1.076-.611-.01-1.207-.265-1.323-.568-.232-.605-2.051-.757-2.395-.2-.119.193-.566.35-.993.35-.427 0-1.093.315-1.479.7-.946.941-5.507 3.882-7.697 4.962-.55.271-1.27.706-1.6.967-.33.26-1.86 1.145-3.4 1.965-1.54.821-5.179 2.913-8.087 4.649-2.907 1.736-5.396 3.157-5.53 3.157-.268 0-7.86 4.448-8.183 4.794-.11.118-1.19.721-2.4 1.342-1.21.62-2.74 1.465-3.4 1.877-.66.413-2.1 1.223-3.2 1.8-1.1.578-2.284 1.306-2.631 1.619-.348.312-.784.568-.969.568-.185 0-.621.256-.969.568-.347.313-1.585 1.047-2.752 1.632-1.166.584-3.925 2.129-6.132 3.431-2.207 1.303-4.072 2.369-4.145 2.369-.073 0-1.089.63-2.258 1.4-1.169.77-2.274 1.4-2.455 1.4-.181 0-2.916 1.53-6.078 3.4-3.161 1.87-5.864 3.4-6.007 3.4-.143 0-1.045.54-2.004 1.2-.959.66-1.909 1.2-2.111 1.2-.202 0-.782.36-1.289.8-.507.44-1.165.8-1.461.8-.297 0-.539.162-.539.361 0 .198-.495.566-1.1.816-1.538.636-3.462 1.692-3.7 2.031-.11.156-.622.416-1.138.577-.515.161-1.685.797-2.6 1.413a47.496 47.496 0 0 1-3.537 2.117c-1.032.547-2.382 1.347-3 1.776-.619.429-1.935 1.209-2.925 1.732-2.922 1.545-11.349 6.445-12 6.978-.33.27-1.095.609-1.7.753-.605.144-1.1.438-1.1.654 0 .215-.194.392-.43.392-.237 0-1.69.765-3.229 1.7-5.157 3.133-5.733 3.468-7.541 4.388-.99.505-2.245 1.231-2.789 1.615-2.12 1.495-2.919 1.038-6.615-3.779a115.084 115.084 0 0 0-4.506-5.454c-1.259-1.411-2.47-2.882-2.69-3.269-.22-.387-1.147-1.581-2.06-2.652A410.355 410.355 0 0 1 177.821 262c-1.309-1.65-2.48-3.09-2.602-3.2-.122-.11-1.29-1.55-2.594-3.2a208.025 208.025 0 0 0-4.614-5.6c-1.233-1.43-2.504-2.986-2.826-3.457-.322-.471-2.115-2.703-3.985-4.959-12.519-15.103-17.641-21.398-18.325-22.522-.42-.689-.497-4.864-.385-20.862.169-24.085.553-21.305-3.209-23.261-1.694-.881-3.801-2.051-4.681-2.6a72.778 72.778 0 0 0-3.4-1.963c-.99-.53-2.229-1.282-2.754-1.67-1.153-.853-2.308-.89-3.646-.116m218.284 11.66c-.595.594-.239.95.949.95.808 0 1.177-.173 1.069-.5-.187-.567-1.589-.88-2.018-.45M297 199.839c-1.98 1.388-4.391 3.069-5.357 3.735-2.191 1.51-4.963 3.78-6.935 5.679l-1.508 1.453v5.998c0 8.009.056 8.048 6.064 4.207 1.466-.937 3.154-1.89 3.753-2.117.598-.228 1.649-.814 2.335-1.303 1.215-.866 2.278-1.488 4.948-2.896l1.3-.686v-7.906c0-9.739.171-9.51-4.6-6.164m-54.2 5.569c-1.21.739-2.391 1.49-2.624 1.668-.52.398-2.469 1.48-5.376 2.985-1.21.626-2.65 1.488-3.2 1.916l-1 .777-.111 19.829c-.125 22.449-.028 23.084 3.112 20.388.33-.283 1.05-.716 1.6-.961 1.258-.56 4.352-2.308 9.792-5.53l4.254-2.52-.049-9.68c-.027-5.324-.038-10.074-.024-10.557.023-.768 6.736-5.323 7.846-5.323.145 0 1.064-.54 2.042-1.2.978-.66 1.907-1.2 2.065-1.2 2.526 0 3.602-3.078 1.381-3.952-.609-.24-1.378-.61-1.708-.823-11.147-7.185-14.166-8.16-18-5.817m101.793 32.746c-.374.571-.83.947-1.012.834-.183-.113-.509.112-.726.5-.217.388-.493.607-.613.487-.362-.362 1.114-3.12 1.758-3.284 1.038-.264 1.3.384.593 1.463M337 247.2c-.771.331-.769.345.076.372.482.015.988-.152 1.124-.372.292-.473-.099-.473-1.2 0M62.8 261.176c0 1.349.177 2.424.4 2.424.22 0 .4-.979.4-2.176s-.18-2.288-.4-2.424c-.25-.154-.4.663-.4 2.176m12 79.424c0 .33.18.6.4.6.22 0 .4-.27.4-.6 0-.33-.18-.6-.4-.6-.22 0-.4.27-.4.6m5.482 2.468c-.133.214.11.69.538 1.057.898.768 1.032.372.241-.709-.3-.41-.646-.565-.779-.348m50.715 16.141c-.356 1.123.069 1.497.833.733.535-.536.538-.671.024-1.097-.479-.398-.636-.331-.857.364m-21.699 1.291c.09.275.644.557 1.23.626.831.099 1.014-.012.827-.5-.288-.749-2.303-.873-2.057-.126m19.102.1c0 .33.18.6.4.6.22 0 .4-.27.4-.6 0-.33-.18-.6-.4-.6-.22 0-.4.27-.4.6m-14.922 2.456c-.299.299.028.944.479.944.17 0 .31-.27.31-.6 0-.627-.353-.781-.789-.344" fill="#e2e2e2"/><path d="M197.468 4.062c-.109.416-.553.738-1.018.738-.586 0-.755-.182-.583-.629.195-.51-.017-.605-1.113-.5-.802.076-1.315.329-1.258.618.054.27-.486.641-1.2.826-1.54.399-1.701 1.336-.296 1.727 1.025.285.203.562-1.131.381-.292-.04-.628.299-.747.752-.118.454-.405.825-.637.825-.232 0-.751.298-1.154.662-.437.396-.731.476-.731.2 0-.254.135-.463.3-.465.39-.004 1.354-2.076 1.089-2.341-.111-.112-.415.01-.676.271-.26.26-.808.473-1.217.473-.409 0-.644.161-.522.358.245.396-.665.842-1.718.842-.373 0-.988.362-1.367.805-.835.975-.871 1.24-.129.955 1.016-.39.992.441-.04 1.36-.558.497-.916.646-.795.331.39-1.016-.657-2.056-1.295-1.287-.29.35-.754.636-1.03.636s-.726.27-1 .6c-.274.33-.836.6-1.249.6-.989 0-2.351 1.391-2.351 2.4 0 .444.267.8.6.8.33 0 .6.18.6.4 0 .22-.469.4-1.043.4-.696 0-.976-.174-.841-.525.259-.676-1.972-.403-3.105.38-.434.3-1.154.546-1.6.546-.455.001-1.162.527-1.611 1.199-.44.659-1.07 1.219-1.4 1.245-.33.026-.87.072-1.2.101-.33.03-.555.279-.5.554.061.306-.341.5-1.038.5-1.617 0-2.59 1.143-1.841 2.163.488.666.471.83-.131 1.287-.77.586-1.443.722-1.14.231.108-.176.032-.581-.17-.9-.252-.399-.37-.424-.374-.081-.003.275-.321.506-.706.513-.667.012-.667.038 0 .544.919.697.893 1.443-.05 1.443-.413 0-1.34.118-2.062.262-.899.18-1.228.126-1.044-.172.429-.693-.402-.943-.948-.286-.272.328-.81.596-1.196.596-.386 0-.926.27-1.2.6-.274.33-.826.6-1.226.6-.401 0-.98.359-1.287.797-.307.439-.635.754-.728.7-.093-.053.035.085.283.308.527.473-.405 1.589-1.013 1.213-.198-.123-.452.003-.563.28-.118.293-.216.199-.234-.225-.025-.564-.234-.666-.932-.455-1.954.59-1.969 2.001-.024 2.293.918.138.845.18-.4.229-.838.033-1.425.22-1.304.415.12.195-.139.448-.576.562-.438.114-.796.045-.796-.154 0-.2-.254-.363-.565-.363-.365 0-.526.354-.455 1 .09.815-.064 1-.835 1-.687 0-.945.225-.945.824 0 .453-.172.717-.383.587-.21-.13-.288-.483-.172-.783.275-.717-.545-1.209-1.163-.698-.265.22-1.022.46-1.682.535-.74.083-1.2.365-1.2.735 0 .383-.464.645-1.284.724-.705.068-1.812.608-2.458 1.2-1.323 1.211-2.244 1.87-3.558 2.543-.504.258-.897.83-.894 1.297.005.686.076.729.394.236.213-.33.391-.459.394-.286.003.173.411.106.906-.149l.9-.464-.866.833c-.476.459-1.333.951-1.905 1.094-.572.144-1.176.505-1.343.803-.166.298-.872.586-1.567.639-.695.053-1.231.261-1.191.463.039.202-.129.442-.375.533-.273.101-.402-.239-.332-.873.086-.788-.048-1.008-.554-.911-.404.078-.667.511-.667 1.101 0 .674-.398 1.205-1.3 1.731-.743.434-1.3.572-1.3.323 0-.24.18-.437.4-.437.22 0 .4-.254.4-.565 0-.828-2.298.069-3.639 1.42-.576.581-1.449 1.271-1.942 1.535-.538.288-.825.744-.72 1.144.138.528-.116.666-1.225.666-.77 0-1.476.225-1.57.5-.108.315.212.5.863.5 1.407 0 1.311.668-.126.879-.838.123-1.102.025-.957-.354.289-.752-2.052-.686-2.684.075-.53.638-.239.777 1.3.621 1.037-.106.85.7-.2.861-.495.075-.857.353-.803.617.073.367-.138.374-.888.032-.548-.249-.867-.644-.72-.889.146-.243-.021-.21-.371.073-.349.283-.548.847-.442 1.255.25.954-.539 1.442-1.304.807-.52-.432-.511-.582.08-1.234.37-.409.504-.743.298-.743-.205 0-.633.36-.95.8-.317.44-.993.8-1.501.8-.885 0-1.842 1.397-1.434 2.092.498.845-.666 1.832-1.626 1.379-.534-.252-.874-.614-.757-.804.118-.191-.167-.143-.634.107-.835.447-1.1 1.241-.585 1.756.145.145.55.04.9-.233.564-.44.574-.416.088.203-.302.385-.797.7-1.1.7-.303 0-.551.27-.551.6 0 .398-.398.6-1.18.6-.649 0-1.324.239-1.5.53-.331.549-1.694 1.245-2.22 1.134-.165-.035-.255.15-.2.412.055.262-.224.547-.619.633-.796.174-1.984-.618-1.676-1.117.328-.531-1.545.089-2.505.829-.728.562-.785.737-.3.924.865.332.738 1.326-.201 1.571-.44.115-.699.046-.576-.153.243-.393-.261-.496-1.823-.372-1.291.102-3.489 2.383-2.742 2.845.926.572.018.869-1.277.417-1.097-.382-1.284-.344-1.451.293-.133.508-.465.679-1.085.561-.507-.097-1.121.102-1.418.461-.289.348-.959.632-1.489.632-.529 0-1.067.27-1.193.6-.127.33-.416.6-.644.6-.227 0-.632.3-.9.667-.269.366-.911.731-1.427.81-1.301.198-1.699.996-.861 1.723.38.33.614.553.519.496-.095-.057-.591.29-1.102.77-.967.908-1.193.633-.96-1.166.095-.731-.263-.623-1.793.545-1.066.813-1.319 1.247-1.141 1.956.126.501.05 1.022-.168 1.157-.481.297.312 2.642.893 2.642.708 0 3.984 1.701 9.639 5.004 3.08 1.799 5.87 3.396 6.2 3.549.33.153.96.499 1.4.768.44.269 1.7 1.01 2.8 1.647 1.1.637 2.9 1.735 4 2.441 1.1.705 3.26 1.957 4.8 2.782 1.54.824 4.028 2.244 5.529 3.154 5.131 3.112 5.673 3.428 7.471 4.355a53.12 53.12 0 0 1 3.4 1.944c.88.558 2.404 1.452 3.386 1.986a69.186 69.186 0 0 1 3.791 2.27c1.103.715 2.141 1.3 2.307 1.3.166 0 1.52.747 3.009 1.66a178.52 178.52 0 0 0 3.907 2.338c2.991 1.688 12.276 7.089 14.893 8.663 1.591.956 3.031 1.74 3.2 1.741.169.001 1.117.552 2.107 1.225.99.672 2.16 1.391 2.6 1.597.44.206 1.07.544 1.4.753.33.208 2.4 1.413 4.6 2.678 2.2 1.265 6.79 3.946 10.2 5.958 3.41 2.013 6.959 4.042 7.887 4.51a45.801 45.801 0 0 1 3.4 1.951c2.17 1.393 3.694 2.293 5.713 3.374.88.471 3.537 2.003 5.905 3.404 2.368 1.401 4.387 2.548 4.487 2.548.101 0 1.269.745 2.595 1.656l2.413 1.655.055 20.245c.03 11.134.165 39.954.3 64.044.162 29.022.11 43.899-.155 44.094-.877.644.881.264 1.811-.391.544-.384 1.799-1.11 2.789-1.615 1.808-.92 2.384-1.255 7.541-4.388 1.539-.935 2.992-1.7 3.229-1.7.236 0 .43-.177.43-.392 0-.216.495-.51 1.1-.654.605-.144 1.37-.483 1.7-.753.651-.533 9.078-5.433 12-6.978.99-.523 2.306-1.303 2.925-1.732.618-.429 1.968-1.229 3-1.776a47.496 47.496 0 0 0 3.537-2.117c.915-.616 2.085-1.252 2.6-1.413.516-.161 1.028-.421 1.138-.577.238-.339 2.162-1.395 3.7-2.031.605-.25 1.1-.618 1.1-.816 0-.199.242-.361.539-.361.296 0 .954-.36 1.461-.8.507-.44 1.087-.8 1.289-.8.202 0 1.152-.54 2.111-1.2.959-.66 1.861-1.2 2.004-1.2.143 0 2.846-1.53 6.007-3.4 3.162-1.87 5.897-3.4 6.078-3.4.181 0 1.286-.63 2.455-1.4 1.169-.77 2.185-1.4 2.258-1.4.073 0 1.938-1.066 4.145-2.369 2.207-1.302 4.966-2.847 6.132-3.431 1.167-.585 2.405-1.319 2.752-1.632.348-.312.784-.568.969-.568.185 0 .621-.256.969-.568.347-.313 1.531-1.041 2.631-1.619 1.1-.577 2.54-1.387 3.2-1.8.66-.412 2.19-1.257 3.4-1.877 1.21-.621 2.29-1.224 2.4-1.342.323-.346 7.915-4.794 8.183-4.794.134 0 2.623-1.421 5.53-3.157 2.908-1.736 6.547-3.828 8.087-4.649 1.54-.82 3.07-1.705 3.4-1.965.33-.261 1.05-.696 1.6-.967 3.818-1.883 9.057-5.646 7.9-5.674-.277-.007-.188-.194.2-.42.817-.476 1.003-7.492.309-11.725-.212-1.296-.259-2.556-.104-2.8.42-.661.537-10.243.125-10.243-.195 0-.261-.361-.145-.802.115-.441-.014-1.071-.287-1.4-.419-.505-.33-.598.577-.598.605 0 .966.172.828.395-.14.227.02.294.376.158.342-.131.621-.399.621-.596 0-.196.193-.357.429-.357.235 0 .698-.27 1.029-.6.364-.365.964-.509 1.527-.368.51.128 1.05.035 1.199-.206a.518.518 0 0 1 .712-.167c.283.175.349.035.185-.393-.217-.565.039-.666 1.689-.666 2.553 0 2.43.641 2.43-12.643V155.18l-1-.38c-.55-.209-1-.665-1-1.014 0-.348.168-.53.372-.403.205.126.504.002.664-.276.161-.279.169-.397.017-.263-.151.134-.935-.361-1.742-1.1-.807-.739-1.77-1.344-2.14-1.344-.37 0-.897-.27-1.171-.6-.705-.849-2.051-.798-1.719.066.171.447.102.57-.213.376-.329-.203-.47-2.447-.474-7.566-.006-7.476-.096-8.036-1.294-8.132-.644-.051-.694.489-.621 6.8.044 3.771.142 5.567.217 3.992.231-4.806 1.304-4.376 1.304.523 0 3.638-.041 3.824-.801 3.625-.44-.115-.699-.046-.576.153.123.2.034.363-.199.363-.283 0-.424-2.45-.424-7.371 0-6.168-.103-7.474-.629-8-.571-.572-.571-.629 0-.629.565 0 .639-2.716.725-26.5.078-21.765.115-23.302.204-8.6.063 10.377.261 17.9.471 17.9.2 0 .648.109.996.243.571.219.633-1.492.633-17.573V81.654l-1.166-.83c-.855-.609-1.219-.696-1.368-.327-.135.335-.213.293-.234-.123-.038-.739-2.775-2.374-3.974-2.374-.582 0-.762-.184-.599-.61.193-.502.346-.52.864-.1.488.394.562.397.33.01-.191-.319-.062-.5.357-.5 1.012 0 .453-.983-.641-1.128-.533-.071-1.149-.345-1.369-.61-1.72-2.069-4.222-2.857-4.959-1.562-.335.589-.513.619-1.12.188-.396-.281-1.04-.618-1.43-.749-.679-.227-.679-.26-.001-.755.497-.364.857-.394 1.209-.102.275.229.495.259.488.067-.023-.661-2.043-1.828-2.815-1.626-.463.121-.772-.001-.772-.306 0-1.35-3.588-2.995-4.4-2.017-.274.33-.881.597-1.349.594-.468-.003-.671-.138-.451-.3.22-.162.432-.474.47-.694a7.17 7.17 0 0 1 .325-1.052c.19-.488-.205-.875-1.568-1.535-1.003-.485-1.924-1.047-2.048-1.248-.125-.201-.556-.365-.96-.365-.403 0-.837-.27-.964-.6-.126-.33-.426-.6-.666-.6-.24 0-.323.184-.184.409.154.249-.209.373-.932.318-.855-.065-1.123-.253-.961-.674.144-.377.057-.481-.244-.295-.257.159-.468.114-.468-.101 0-.215.225-.494.5-.62s.05-.119-.5.016c-1.386.341-1.452.472-.571 1.138.749.567.746.584-.129.596-.495.007-.855-.196-.8-.452.055-.255-.348-.578-.896-.717-.675-.171-.836-.351-.5-.559.273-.168.704-.178.958-.021.608.376.083-.545-.991-1.738-.835-.927-2.82-1.23-3.271-.5-.32.518-1 .518-1 0 0-.22.27-.4.6-.4.964 0 .69-1.176-.388-1.667-.772-.352-1.144-.328-1.7.108-.644.506-.661.494-.178-.123.531-.679.344-1.518-.338-1.518-.196 0-1.156-.54-2.134-1.2-.978-.66-2.098-1.2-2.489-1.2-.39 0-1.043-.302-1.451-.671-.503-.455-.872-.539-1.148-.263-.277.277-.21.572.209.92.912.757.749 1.239-.283.84-.495-.192-.855-.546-.8-.788.055-.241-.361-.438-.924-.438-.58 0-.916-.173-.776-.4.136-.22.094-.4-.092-.4-.187 0-.332-.472-.324-1.049.01-.649-.289-1.215-.784-1.484a32.069 32.069 0 0 1-1.962-1.209c-1.156-.77-1.16-.77-.949.04.349 1.332-.339 2.06-1.04 1.101-.373-.51-.448-.959-.209-1.247.549-.662.116-1.437-1.371-2.452-1.518-1.036-2.991-1.169-3.324-.3-.127.33-.571.6-.988.6-.416 0-.757-.27-.757-.6 0-.424-.43-.6-1.467-.6-.806 0-1.348-.118-1.203-.263.34-.34-.521-1.39-.932-1.136-.171.106-.601-.251-.955-.792-.441-.673-.865-.903-1.344-.728-.659.24-.66.21-.019-.522.468-.535.563-.961.306-1.368-.206-.325-.381-.411-.389-.191-.008.22-.326.014-.706-.457-.83-1.03-2.491-1.632-2.491-.903 0 .271-.114.38-.253.241s-.571-.082-.96.126c-.821.439-1.326-.38-.906-1.473.14-.366.089-.565-.113-.442-.438.266-1.428-.699-1.077-1.049.133-.134-.148-.243-.624-.243-.477 0-.867-.18-.867-.4 0-.22-.36-.4-.8-.4-.444 0-.8.267-.8.6 0 .33.27.6.6.6.33 0 .6.18.6.4 0 .22-.36.4-.8.4-.444 0-.8-.267-.8-.6 0-.33-.27-.6-.6-.6-.33 0-.6-.174-.6-.387 0-.214-.247-.293-.548-.177-.302.115-.653-.061-.78-.393-.158-.41-.046-.531.348-.38.703.27.762-.321.1-.983-.69-.69-1.432-.591-1.644.22-.171.653-.456-.759-.323-1.6.026-.165-.118-.3-.32-.3s-.697-.119-1.1-.264c-.403-.145-.601-.118-.439.061.161.178-.019.561-.4.851-.805.611-1.444.718-1.115.186.124-.201 0-.458-.277-.57-.341-.14-.198-.451.45-.975l.952-.771-.941-.659c-.518-.362-1.242-.659-1.609-.659-.368 0-.772-.27-.899-.6-.126-.33-.484-.6-.793-.6-.31 0-.788-.27-1.062-.6-.875-1.054-2.308-.768-2.177.433.106.961.065.989-.586.4-.385-.348-.911-.633-1.168-.633-.258 0-.469-.27-.469-.6 0-.389-.39-.6-1.112-.6-.621 0-1.346-.325-1.642-.736-.348-.483-.862-.674-1.488-.554-.691.132-.958.003-.958-.463a.649.649 0 0 0-.647-.647c-.449 0-.583-.244-.437-.8.115-.44.059-.8-.124-.8s-.398.315-.477.7c-.119.58-.381.463-1.529-.683-.908-.905-1.697-1.344-2.286-1.271-.495.061-.9-.101-.9-.36s.27-.368.6-.241c.33.126.867.128 1.193.002.808-.31.042-1.747-.932-1.747-.39 0-1.068-.315-1.506-.7-1.764-1.552-3.515-2.183-3.107-1.119.18.468-.074.534-1.313.343-1.714-.265-1.935-.386-1.935-1.057 0-.257-.225-.489-.5-.517-2.306-.231-2.325-.239-1.1-.501 2.162-.463-.134-3.249-2.678-3.249-.707 0-1.122-.212-1.122-.573 0-.315-.343-.682-.763-.815-.42-.133-.864-.506-.987-.827-.247-.643-2.25-.819-2.25-.198 0 .214-.27.284-.6.158-.33-.127-.6-.031-.6.212 0 .244-.27.443-.6.443-.33 0-.6-.186-.6-.413 0-.226-.315-.531-.7-.677-1.822-.69-1.621-1.185.433-1.064 1.137.067 1.752.026 1.367-.091-.385-.118-.7-.401-.7-.63 0-.26-.793-.348-2.1-.233-1.155.101-1.695.11-1.2.019 1.01-.184 1.126-.525.42-1.231-.632-.632-1.548-.618-1.303.02.122.318-.173.5-.813.5-.579 0-1.004-.23-1.004-.543 0-.338.247-.448.654-.292.593.228.598.166.055-.657-.727-1.1-2.606-1.441-2.954-.535-.338.88-1.245.78-1.766-.193-.617-1.154-5.416-1.085-5.721.082m-17.813 10.109c-.484.259-.745.606-.58.771.165.165-.009.182-.387.036-.806-.309-.82-.383-.271-1.409.348-.651.557-.704 1.267-.324l.85.455-.879.471m45.743 1.032c-.137.221.078.519.477.662.399.142.878.342 1.065.445.187.103.136-.195-.114-.662-.491-.917-1.032-1.086-1.428-.445M174.4 17.352c0 .812-4.495 2.325-5.102 1.718-.633-.633-.595-.666.614-.525 1.045.122 1.288.009 1.288-.597s.304-.748 1.6-.748c.88 0 1.6.069 1.6.152m60.3 2.513c.275.111.5.467.5.792s.168.487.372.36c.205-.126.486-.047.624.176.323.523 1.004.528 1.004.007 0-.22-.248-.4-.551-.4-.303 0-.775-.27-1.049-.6-.274-.33-.701-.586-.949-.568-.283.019-.265.106.049.233m4.238 3.538c-.462.996.272 1.551.839.635.358-.58 1.847-.003 1.729.67-.066.379.227.638.771.683 1.217.1.482-1.286-.86-1.622-.527-.133-1.056-.495-1.176-.805-.321-.837-.784-.681-1.303.439M155.2 28.397c0 .172-.54.391-1.199.488-1.123.165-1.159.131-.563-.527.601-.665 1.762-.638 1.762.039m-17.762 9.665c.177.286.11.353-.176.176-.271-.167-.462-.037-.462.315 0 .33-.154.695-.342.811-.188.117-.257-.233-.154-.776.203-1.058.671-1.275 1.134-.526m-12.186 5.441c-.359.67-.273.732.79.576.656-.096 1.125-.378 1.042-.627-.256-.771-1.409-.739-1.832.051m-5.097 4.725c.18.469.023.595-.626.5-.476-.071-.94-.353-1.031-.628-.243-.739 1.372-.615 1.657.128M298.6 58.4c-.194.313-.424.336-.69.07-.22-.22-.27-.612-.11-.87.194-.313.424-.336.69-.07.22.22.27.612.11.87M96.031 60.741c-.34.636-.267.717.52.566.503-.096.916-.43.916-.741 0-.815-.969-.697-1.436.175M82 70.987c0 .357-.235.498-.598.359-.328-.127-.498-.391-.376-.588.349-.565.974-.418.974.229M62.88 81.28c-.264.264-.474.849-.467 1.3.012.807.022.808.6.044.323-.428.587-.563.587-.3 0 .262.18.476.4.476.22 0 .4-.45.4-1 0-1.065-.726-1.314-1.52-.52m274.32 19.753c0 4.489-.115 5.795-.5 5.668-1.194-.397-.81-11.421.4-11.495.055-.003.1 2.619.1 5.827M62.425 118c0 3.779.059 4.122.588 3.424.323-.428.587-.563.587-.3 0 .262.18.476.4.476.238 0 .4-1.493.4-3.68 0-2.801-.111-3.569-.466-3.214-.355.355-.591.302-.987-.22-.439-.577-.522-.021-.522 3.514m273.181 13.147c-.005.787.145.906.894.705.495-.133 1.035-.244 1.2-.247.165-.003.297-.32.294-.705-.005-.523-.09-.568-.337-.179-.362.572-1.289.508-1.751-.121-.162-.22-.297.026-.3.547m4.832 21.099c.464.559.435.627-.218.5-.414-.08-.829-.371-.92-.646-.238-.714.504-.618 1.138.146m-213.495 15.765c.629.189 1.439.584 1.8.879.361.294 1.467.966 2.457 1.493.99.527 2.52 1.407 3.4 1.956.88.549 2.987 1.719 4.681 2.6 2.074 1.078 3.136 1.874 3.246 2.432.16.809.165.808.219-.031.059-.944-.86-1.603-5.946-4.259-1.65-.862-3.06-1.728-3.133-1.924a.606.606 0 0 0-.53-.357c-.219 0-1.609-.72-3.09-1.6-1.482-.88-3.043-1.585-3.47-1.566-.532.024-.416.143.366.377m110.657 9.395c3.41 2.032 6.95 4.073 7.867 4.536.917.462 2.447 1.357 3.4 1.988a49.967 49.967 0 0 0 3.533 2.096c.99.522 2.07 1.154 2.4 1.405.33.251 1.59.993 2.8 1.649 1.938 1.05 5.552 3.13 7.526 4.33.371.226 2.114 1.21 3.874 2.188 5.363 2.978 5 2.052 5 12.755 0 7.821-.094 9.283-.629 9.818-.816.817-.76.828-2.842-.577-2.661-1.796-2.684-1.726-2.406 7.269l.246 7.941-1.171 1.198c-.644.659-1.537 1.198-1.985 1.198-.456 0-.813.263-.813.6 0 .33-.261.6-.58.6-.319 0-1.371.534-2.337 1.186-.967.652-2.236 1.368-2.82 1.59-.585.222-1.063.589-1.063.814 0 .226-.347.41-.771.41-.425 0-1.033.261-1.352.58-.319.319-1.039.696-1.6.836-.56.141-1.116.51-1.236.82-.119.31-.562.564-.986.564-.423 0-.892.315-1.041.7-.253.652-.31.647-.843-.076-.314-.428-.571-.565-.571-.307 0 .526-10.733 7.038-13.999 8.493-.55.245-1.27.678-1.6.961-3.14 2.696-3.237 2.061-3.112-20.388l.111-19.829 1-.777c.55-.428 1.99-1.29 3.2-1.916 3.263-1.689 4.975-2.635 5.2-2.873 1.066-1.131 5.494-3.188 6.86-3.188 1.419 0 7.74 3.274 13.94 7.22.33.21 1.05.57 1.6.799.55.229 1.225.713 1.5 1.075.462.608.5.606.5-.027 0-.38-.488-.872-1.092-1.102-.6-.228-1.185-.539-1.3-.69-.114-.151-.928-.645-1.808-1.096-2.832-1.454-5.192-2.773-5.399-3.017-.11-.131-.685-.491-1.277-.8-.592-.309-1.888-1.059-2.88-1.667-.992-.608-2.667-1.216-3.723-1.353-1.057-.136-2.281-.557-2.721-.935-.44-.378-1.07-.807-1.4-.952-.33-.145-1.14-.614-1.8-1.041-.66-.428-2.066-1.234-3.124-1.792-1.059-.557-2.196-1.285-2.529-1.618-.332-.332-.906-.616-1.276-.631-.972-.038-4.186-2.47-4.765-3.604-.709-1.39-.715-19.02-.006-19.3.883-.35 1.982.171 8.3 3.937m102.4 4.172c.533.375.533.469 0 .844-.497.349-.462.399.2.294.44-.07.8-.392.8-.716 0-.324-.36-.646-.8-.716-.662-.105-.697-.055-.2.294m-4.276 5.022c.002 1.32.077 1.812.166 1.093.089-.719.087-1.799-.004-2.4s-.164-.013-.162 1.307m1.604.2c0 1.43.073 2.015.161 1.3.089-.715.089-1.885 0-2.6-.088-.715-.161-.13-.161 1.3m-194.746 15c0 8.58.053 12.033.118 7.674.064-4.36.064-11.38-.001-15.6-.064-4.221-.117-.654-.117 7.926m177.185-15.157c.549.21.633 1.341.633 8.52 0 8.548-.124 9.237-1.66 9.237-.385 0-.844.229-1.02.508-.176.28-.77.737-1.32 1.016-1.712.869-2.85 1.566-3.314 2.03-.245.245-.776.446-1.179.446-.402 0-.836.27-.962.6-.127.33-.457.6-.734.6-.277 0-.961.36-1.52.8-.56.44-1.375.8-1.811.8-.437 0-.898.27-1.025.6-.126.33-.486.6-.8.6-.313 0-.673.27-.8.6-.278.725-2.107.802-2.39.1-.128-.317-.213-.26-.233.154-.018.36-.617.963-1.332 1.341-2.67 1.408-3.733 2.03-4.948 2.896-.686.489-1.737 1.075-2.335 1.303-.599.227-2.287 1.18-3.753 2.117-6.008 3.841-6.064 3.802-6.064-4.207v-5.998l1.508-1.453c1.917-1.846 4.539-3.992 7.092-5.804 5.391-3.825 8.848-6.028 9.3-5.926.275.061.5-.235.5-.659 0-.833 1.732-2.182 4.8-3.74.55-.279 1.094-.635 1.208-.791.115-.156.655-.477 1.2-.714.546-.237 1.532-.785 2.192-1.217.66-.432 2.321-1.341 3.692-2.019 1.37-.678 2.596-1.402 2.724-1.608.263-.427 1.415-.492 2.351-.132m15.966 22.757c0 .696.5.794.884.173.145-.235.516-.331.823-.213.308.118.56.041.56-.173 0-.213-.51-.387-1.133-.387-.741 0-1.134.208-1.134.6m-272.66 1.26c-.335.335-.368 18.312-.034 18.646.987.986 1.156-.505 1.046-9.205-.107-8.416-.293-10.159-1.012-9.441m269.673 38.04c-1.706 1.814-4.168 4.948-8.546 10.878-1.1 1.49-2.591 3.409-3.314 4.265-1.67 1.979-1.698 2.016-3.474 4.487-1.436 1.999-2.294 2.508-2.812 1.67-.833-1.347-2.022-.25-5.919 5.464a91.562 91.562 0 0 1-3.39 4.6c-2.557 3.197-2.891 3.665-2.891 4.06 0 .455-2.259 3.442-3.318 4.386-.763.681-.832.681-1.639 0l-.843-.71.762.9c.887 1.047 3.038 1.26 3.038.3 0-.33.234-.6.52-.6.325 0 .52.51.52 1.358 0 .774.408 1.955.948 2.743 1.052 1.535.582 1.574 4.474-.37.584-.292 1.349-.531 1.7-.531s.638-.147.638-.326c0-.624 2.838-1.674 4.525-1.674 4.677 0 4.181-3.855-1.248-9.682-2.685-2.883-2.857-5.538-.51-7.885 1.201-1.201 2.883-1.06 2.333.195-.367.838 1.436.901 3.176.111 3.59-1.63 10.321-4.824 10.924-5.183 2.448-1.459 3.234-1.373 4.145.454.878 1.759-.44 4.251-2.449 4.633-.718.136-1.394.392-1.503.568-.188.304-2.427 1.458-4.593 2.367-.55.231-1.315.601-1.7.821l-1.4.802c-.385.22-1.103.575-1.595.788-1.078.466-.77 1.64 1.041 3.969.616.793 1.237 1.761 1.379 2.152.36.991 3.145.182 8.007-2.326.623-.321 1.546-.584 2.051-.584.506 0 1.143-.27 1.417-.6.274-.33.706-.6.96-.6s.772-.362 1.151-.805c.729-.851.925-1.995.342-1.995-.573 0-.561-7.039.013-7.958.402-.643.406-1.087.02-2.154-.578-1.599-.61-2.012-.131-1.716.195.12.484-.184.643-.676.272-.844.304-.826.556.304.575 2.577.845-.392.757-8.333-.089-8.053-.089-8.056-.21-1.728-.104 5.388-.21 6.305-.711 6.112-.325-.124-.59-.052-.59.162 0 1.838-.791-.236-.882-2.313-.131-3.003.121-2.84-3.518-2.276-2.01.312-4.231 1.768-4.886 3.205-.237.52-.585.851-.772.735-.591-.365-.373-1.345.458-2.057.44-.377.8-.9.8-1.163 0-.262.179-.537.397-.611.219-.073.984-1.021 1.7-2.106 1.309-1.981 2.759-3.059 4.803-3.568.981-.244 1.101-.458 1.113-1.967.012-1.575.053-1.638.6-.916.323.428.601.698.618.6.016-.097.091-.491.164-.876.29-1.516-1.952-.817-3.849 1.2m-247.298 1.753c-.531.758-.528.958.026 1.804 1.366 2.084 4.013 1.477 3.554-.815-.396-1.984-2.48-2.56-3.58-.989M65.2 252.176c0 .317.18.688.4.824.22.136.4-.123.4-.576 0-.453-.18-.824-.4-.824-.22 0-.4.259-.4.576m-2.133.091c-.427.427-.308 6.461.133 6.733.255.158.4-1.063.4-3.376 0-3.628-.036-3.855-.533-3.357m40.333 2.123c-1.1.651-2.585 1.45-3.3 1.776-1.58.721-1.738 2.083-.389 3.35 1.122 1.054 1.838.904 5.889-1.239 4.569-2.416 4.667-2.547 2.876-3.823-1.894-1.349-2.883-1.361-5.076-.064m-10.937 5.005c-.516.284-1.281 1.08-1.7 1.77-.42.69-1.168 1.431-1.663 1.646-4.33 1.884-7.327 4.021-6.964 4.967.477 1.241 1.455 1.068 5.539-.982 3.187-1.599 4.602-2.09 6.225-2.157 1.934-.081 2.783.267 1.608.658-.368.123-.385.405-.067 1.118.747 1.672-2.236 4.785-4.585 4.785-.251 0-.456.173-.456.385 0 .211-.729.581-1.621.821-2.43.654-2.491 1.399-.376 4.594.437.66.993 1.695 1.235 2.3.521 1.303 1.068 1.364 2.913.327 5.132-2.882 7.637-3.209 9.078-1.187 1.178 1.655.789 2.835-1.249 3.791-7.443 3.49-7.251 3.272-5.382 6.11.771 1.171 1.402 2.361 1.402 2.645 0 1.548 3.522 1.483 4.52-.084.176-.276.605-.502.953-.502s1.214-.359 1.925-.799c1.31-.81 7.002-1.065 7.002-.314 0 .172.18.313.4.313.22 0 .4-.27.4-.6 0-.33-.18-.6-.4-.6-.22 0-.4-.544-.4-1.209 0-1.427-3.1-6.962-4.824-8.614-.647-.62-1.176-1.363-1.176-1.652 0-.289-.18-.525-.4-.525-.22 0-.4-.505-.4-1.122 0-.618-.46-1.743-1.023-2.5-.562-.758-1.572-2.336-2.245-3.506-.791-1.377-1.696-2.354-2.563-2.767-1.158-.553-1.373-.889-1.58-2.472-.453-3.455-.616-3.877-1.765-4.555-.631-.373-1.21-.66-1.286-.639-.076.022-.56.272-1.075.556m15.544 3.717c-.326.119-.834.458-1.128.752-.295.295-.973.536-1.508.536-1.383 0-1.255 1.1.429 3.656.77 1.169 1.4 2.349 1.4 2.621 0 1.231 2.565 1.467 3.959.365.308-.243 1.472-.829 2.587-1.301 2.926-1.241 2.892-1.695-.246-3.333-1.045-.545-1.9-1.118-1.9-1.273 0-.154-.405-.402-.9-.551-.495-.148-1.17-.588-1.5-.978-.33-.39-.867-.612-1.193-.494m-45.274 5.54c-.124 4.721-.192 5.091-1.033 5.649-1.194.792-1.137 1.917.158 3.118 1.332 1.234 2.223 1.239 3.539.019 1.109-1.028 1.091-3.038-.028-3.038-.319 0-.449.248-.314.6.177.461-.082.599-1.112.594-.901-.004-1.165-.119-.803-.349.59-.373.632-.955.529-7.345-.096-5.953-.775-5.408-.936.752m12.969 2.323c-1.136.629-.848.937.667.715.802-.118 1.106-.35.96-.731-.25-.652-.421-.651-1.627.016m260.022 2.425c.002 1.32.077 1.812.166 1.093.089-.719.087-1.799-.004-2.4s-.164-.013-.162 1.307m-214.18-1.073c-.299.086-2.392 1.038-4.65 2.115-2.259 1.077-4.273 1.958-4.477 1.958-1.127 0-.704 1.6 1.217 4.6.563.88 1.132 1.893 1.264 2.251.266.724 2.045.598 3.102-.22.986-.763 4.239-2.231 4.944-2.231.361 0 .656-.177.656-.392 0-.216.443-.504.984-.64.541-.135 1.193-.499 1.449-.807.256-.309.848-.567 1.316-.574.468-.007 1.2-.277 1.627-.6.428-.323 1.283-.587 1.9-.587 1.442 0 1.458-.703.024-1.054-.605-.148-1.19-.376-1.3-.508-.11-.131-1.234-.778-2.499-1.438-1.264-.66-2.299-1.315-2.3-1.456-.001-.313-2.504-.633-3.257-.417M72.4 272.8c0 .469.307.469 1.4 0 .709-.305.675-.347-.3-.372-.605-.015-1.1.152-1.1.372m236.028 7.074c.685 1.801.303 2.597-1.8 3.752-1.084.595-2.184 1.373-2.444 1.728-1.126 1.54-1.338.184-.284-1.822.385-.732.925-1.476 1.2-1.652.275-.176.5-.51.5-.743 0-.494 1.654-2.32 2.11-2.33.17-.004.494.476.718 1.067m-174.114.862c-1.152.997-11.048 6.07-11.822 6.061-.815-.01-4.064 1.853-4.211 2.414-.192.734.393 1.968 2.825 5.953.938 1.538 1.793 3.345 1.9 4.016l.376 2.378c.141.901.008 1.204-.6 1.363-.491.128-.782.003-.782-.336 0-.297-.555-.865-1.233-1.262-.734-.431-1.618-1.531-2.187-2.723-.525-1.1-1.59-2.961-2.367-4.135-.777-1.174-1.413-2.294-1.413-2.49 0-.429-1.787-1.364-3.3-1.726-.855-.205-1.1-.12-1.1.382 0 .966-1.558 2.966-2.327 2.987-1.261.034-7.862 3.753-8.005 4.511-.193 1.023 2.339 3.288 6.261 5.598 1.799 1.06 3.271 2.151 3.271 2.425 0 .864 2.29 2.234 4.485 2.682 2.195.448 5.209 2.215 8.315 4.875 2.715 2.324 4.925 3.633 5.376 3.182.369-.369.253-2.426-.15-2.675-.206-.127-.836-1.173-1.399-2.324-.564-1.15-1.552-2.902-2.195-3.892-1.288-1.983-1.54-3.749-.661-4.629.63-.629 1.429-.761 1.429-.235 0 .184.45.541 1 .791.55.251 1 .642 1 .869 0 .788 7.576 13.109 8.21 13.352.632.243 4.111-1.361 7.19-3.316 2.636-1.673 3.158-1.979 4.127-2.415.51-.23 1.542-.887 2.293-1.459l1.365-1.042 1.238 1.042c2.258 1.9 6.855-.64 4.828-2.667-.879-.879-.407-1.363 3.557-3.656 5.286-3.058 5.363-3.227 3.087-6.815-3.044-4.8-2.932-4.706-12.495-10.453-3.52-2.116-7.826-4.728-9.568-5.807-3.666-2.268-4.52-2.379-6.318-.824m202.379.03c-.12.459-.066.834.121.834.545 0 .759-.596.415-1.153-.232-.375-.377-.289-.536.319m-1.654 2.621c-.144.575-.401.96-.571.855-.169-.105-.525.158-.791.584-.394.631-.377.774.092.774.835 0 2.429-2.362 1.931-2.86-.265-.265-.487-.047-.661.647M292.74 287.1c-.322.385-1.645 2.41-2.942 4.5-2.586 4.17-9.453 14.753-11.42 17.6-.684.99-1.388 2.048-1.565 2.35-.455.777-1.942.683-4.025-.254-.983-.442-3.138-1.252-4.788-1.802-1.65-.549-4.144-1.48-5.541-2.068-1.398-.589-2.909-1.016-3.359-.948-.873.13-.951.241-2.354 3.322-2.519 5.533-2.755 5.63-9.546 3.885-7.468-1.919-8.2-1.91-9.317.115-1.386 2.511-1.332 2.507-11.683.931-2.86-.435-7-1.041-9.2-1.348-2.2-.306-4.925-.766-6.055-1.023-2.243-.509-1.482-.805-9.08 3.534-.476.271-1.045.562-1.265.645-.22.083-.294.267-.165.408.315.344 2.589-.819 4.593-2.348 2.762-2.108 3.945-2.435 5.21-1.441.588.463 1.631.856 2.316.874l1.246.031-1.2.423c-1.503.531-1.68.688-1.164 1.036.227.153 1.181 1.476 2.119 2.94l1.707 2.661 3.269-1.67c1.798-.918 3.757-1.996 4.353-2.396 1.579-1.06 3.327-.577 4.144 1.145 1.259 2.654.264 3.598-7.164 6.798-2.071.892-2.071.893-1.251 1.976.323.428.587 1.103.587 1.5 0 .398.162.724.361.724.198 0 .55.495.781 1.1.883 2.309 1.518 2.755 2.825 1.983.636-.376 1.523-.683 1.971-.683.448 0 .912-.157 1.03-.348.448-.725 4.513-2.41 6.432-2.665 3.464-.461 4.467-2.034 2.64-4.141-.418-.482-1.264-1.873-1.881-3.091-.616-1.219-1.624-2.574-2.24-3.012-2.236-1.593-.819-2.587 2.997-2.101 2.842.362 3.12.558 4.411 3.113.62 1.227 1.295 2.335 1.5 2.462.205.126.373.58.373 1.007 0 .78 2.151 1.192 2.467.472.162-.37 6.634-3.696 7.193-3.696.218 0 .667-.27.997-.6.33-.33.953-.6 1.384-.6.432 0 .914-.315 1.072-.7.158-.385.737-.736 1.287-.78 3.965-.318 5.829-.908 7.039-2.226 3.044-3.315 6.634-4.367 10.218-2.994 3.102 1.189 2.661 2.285-1.657 4.116-.33.14-1.784.779-3.232 1.419-1.447.641-3.049 1.165-3.559 1.165-.51 0-1.665.604-2.568 1.342-.902.738-3.261 2.119-5.241 3.069-13.157 6.314-12.686 6.004-11.861 7.815.442.97 2.461 1.446 2.461.579 0-.217.585-.663 1.3-.992 1.346-.618 2.752-1.45 3.1-1.833.11-.122 1.19-.728 2.4-1.349 1.21-.62 2.974-1.646 3.92-2.279.946-.634 1.959-1.152 2.251-1.152.292 0 .755-.27 1.029-.6.274-.33.769-.6 1.101-.6.332 0 1.435-.595 2.451-1.323 1.017-.727 2.118-1.449 2.448-1.604.33-.155 1.14-.638 1.8-1.073.66-.435 1.65-1.015 2.2-1.287.55-.273 1.144-.725 1.32-1.005.176-.279.643-.508 1.039-.508.861 0 4.441-3.12 4.441-3.871 0-.29.63-1.224 1.4-2.076.77-.853 1.4-1.738 1.4-1.969 0-.23.798-1.354 1.774-2.497.976-1.143 2.46-3.252 3.299-4.686.839-1.434 1.927-2.989 2.419-3.454.492-.466.897-1.07.901-1.344.004-.273.611-1.288 1.35-2.256.739-.967 1.742-2.634 2.229-3.703.487-1.069 1.054-2.259 1.26-2.644.206-.385.311-.7.233-.7-.077 0-.404.315-.725.7M67.689 306.066c.206.62 1.463.724 1.611.134.055-.22-.325-.46-.845-.534-.647-.091-.888.034-.766.4m107.853.787c-2.065.753-1.503 3.547.712 3.547 1.003 0 1.524-1.153 1.279-2.828-.159-1.084-.577-1.235-1.991-.719M262.2 308.8c.136.22.071.4-.144.4-.215 0-.652.1-.972.223-.319.123-.688-.057-.82-.4-.274-.714 1.506-.919 1.936-.223m-97.6 2.826c-2.2 1.093-5.045 2.232-6.323 2.532-1.277.3-2.717.911-3.2 1.358-.853.79-3.46 2.155-12.413 6.5-4.633 2.249-5.117 2.743-4.231 4.315 1.095 1.941 2.374 1.934 6.472-.04a533.695 533.695 0 0 1 7.679-3.605l3.984-1.825.916 1.348c1.15 1.693 1.154 2.341.016 2.924-.495.254-1.17.63-1.5.837-.33.207-2.22 1.316-4.2 2.465-1.98 1.149-3.87 2.31-4.2 2.58-.33.27-1.05.621-1.6.781-.55.16-1.932 1.248-3.071 2.418-1.533 1.574-2.281 2.071-2.879 1.915-1.044-.273-4.049-5.316-4.052-6.799-.005-3.084-2.239-3.85-4.698-1.61-1.157 1.053-1.151 1.09.467 3.209 2.423 3.175 3.144 7.755 1.37 8.705-.812.434-6.737-2.139-6.737-2.926 0-.169-.193-.308-.428-.308-.236 0-1.282-.72-2.326-1.6-3.36-2.833-3.182-3.502-3.322 12.5-.162 18.484-.404 17.524 3.634 14.442 1.753-1.339 2.842-1.7 2.842-.942 0 .22.381.4.847.4.698 0 .811-.184.646-1.049-.154-.806-.018-1.098.587-1.256.62-.162.674-.287.254-.588-.408-.292-.376-.332.132-.17.366.116 1.349-.137 2.184-.563 1.739-.886 1.889-.923 1.553-.379-.138.224.015.296.351.167.354-.135.499-.499.357-.895-.131-.367-.091-.533.089-.37.181.164.589-.074.907-.528.707-1.01 1.909.202 1.432 1.445-.224.585-.142.616.596.221.995-.533.953-2.266-.052-2.185-.372.03-.535-.17-.409-.5.117-.302.45-.55.742-.55.291 0 .645-.361.784-.801.221-.695.33-.726.827-.229.745.745.732 1.177-.027.885-.33-.126-.6-.056-.6.158 0 .213.191.387.424.387.233 0 .312.18.176.4-.145.234.272.4 1.005.4 1.141 0 1.196-.056.62-.632-.642-.643-.479-1.572.203-1.151.204.127.372.04.372-.193s-.344-.424-.765-.424c-1.75 0 .138-3.027 2.765-4.435.99-.531 1.933-1.17 2.095-1.42.162-.251.79-.58 1.396-.732.605-.152 1.193-.397 1.305-.545.47-.618 2.816-2.068 3.345-2.068.315 0 .668-.247.784-.549.116-.301.697-.67 1.291-.819.594-.149 1.342-.533 1.661-.852.319-.319.908-.58 1.309-.58.401 0 .832-.27.959-.6.126-.33.486-.6.8-.6.313 0 .667-.253.785-.562.119-.31.768-.684 1.443-.832.675-.148 1.227-.432 1.227-.63s.444-.472.986-.608c1.089-.274 1.695-1.538 1.095-2.287-.249-.312-.184-1.605.186-3.681.685-3.841.38-8.761-.692-11.155l-.731-1.632 1.878-.888a438.268 438.268 0 0 1 4.597-2.123c2.877-1.307 3.316-1.813 2.924-3.375-.682-2.715-1.72-2.746-6.843-.201m100.9-1.35c-.385.1-1.015.1-1.4 0-.385-.101-.07-.183.7-.183s1.085.082.7.183m-22.138 4.186c-.115.186-.746.338-1.402.338-.656 0-1.723.392-2.371.872-1.529 1.129-1.837.759-.982-1.179l.688-1.56 2.138.595c1.176.328 2.044.748 1.929.934M222.2 315.6c-.298.483-4.876.483-6 0-.531-.228.383-.353 2.724-.372 2.254-.018 3.434.116 3.276.372m26.4 0c-.136.22-.946.4-1.8.4-.854 0-1.664-.18-1.8-.4-.153-.247.537-.4 1.8-.4s1.953.153 1.8.4m4.2 1.2c.457.295.295.389-.676.394-.702.003-1.388-.174-1.524-.394-.317-.513 1.407-.513 2.2 0M237 331.2c-.136.22-.569.4-.962.4s-1.055.377-1.472.838c-.418.461-2.74 1.821-5.162 3.023-5.548 2.752-5.388 2.571-4.2 4.747 1.219 2.231 1.682 2.186 6.196-.601.66-.408 2.73-1.514 4.6-2.458 4.774-2.411 5.328-2.942 4.579-4.391-.86-1.662-2.952-2.573-3.579-1.558m-18.206 10.32c-.89.275-4.018 1.638-5.494 2.395-1.504.772-1.614 1.276-.5 2.285.44.398.8 1.146.8 1.662 0 1.094 1.749 1.37 2.145.338.126-.33.686-.6 1.242-.6.599 0 1.013-.228 1.013-.557 0-.306.417-.661.926-.789 2.235-.561 2.653-1.476 1.501-3.285-.649-1.02-1.262-1.563-1.633-1.449m-13.661 6.008c-.073.181-.853.676-1.733 1.1l-1.6.772-.117 3.1c-.115 3.05-.101 3.1.857 3.1.536 0 1.069-.247 1.185-.549.116-.301.697-.67 1.291-.819.594-.149 1.342-.533 1.661-.852.319-.319.927-.58 1.352-.58.424 0 .771-.27.771-.6 0-.33.305-.6.678-.6.517 0 .374-.315-.6-1.319-.703-.726-1.278-1.716-1.278-2.2 0-.887-2.136-1.366-2.467-.553m-113.07 2.824c-.394.25-.271.391.464.532.723.138.943.042.794-.346-.238-.621-.508-.661-1.258-.186m205.575 2.024c-.398.246-.409.395-.046.619a.75.75 0 0 0 .878-.105c.521-.521-.149-.935-.832-.514M102 355.624c0 .233-.168.32-.372.193-.757-.468-.783.5-.032 1.179.748.677.771.671.61-.166-.119-.615.09-.974.713-1.225l.881-.354-.9-.026c-.495-.014-.9.166-.9.399m4.815 3.358c-.557.671-.235 1.418.609 1.418.663 0 .77-.633.169-1.004-.223-.138-.302-.419-.176-.624.361-.584-.067-.435-.602.21m23.585-.182c0 .246-.144.358-.319.25-.176-.108-.529-.068-.785.091-.671.414-.129 2.124.627 1.978.709-.136 1.393-2.2.842-2.541-.201-.124-.365-.024-.365.222m-18.511 2.82c.116.443.531.977.922 1.186.591.316.675.245.5-.426-.116-.443-.531-.977-.922-1.186-.591-.316-.675-.245-.5.426" fill="#e27068"/><path d="M213.053 7.998c-1.48.193-1.514.231-.8.869.794.708 2.95.806 2.941.133-.013-.887-.67-1.195-2.141-1.002m-34.454 5.204c-.29.469.735.953 1.487.703.331-.111.203-.336-.363-.639-.576-.309-.96-.331-1.124-.064m-6.92 4.211c.418.417 1.908.531 2.136.162.128-.206-.348-.375-1.058-.375-.71 0-1.195.096-1.078.213m-2.191 1.602c.703.514 1.312.427 1.312-.189 0-.179-.454-.326-1.008-.326-.92 0-.946.045-.304.515m67.574 3.07c-.394 1.505 1.193 2.67 1.806 1.325.398-.872.353-1.109-.301-1.604-1.04-.787-1.236-.751-1.505.279m-75.38.334c-.746.3-.842.508-.514 1.122.222.415.275.896.118 1.071-.157.174-.049.179.241.012a.734.734 0 0 0 .313-.864c-.118-.308.019-.56.306-.56.286 0 .521-.27.521-.6 0-.33-.015-.589-.034-.575-.018.014-.446.191-.951.394m78.124 1.571c-.277.449.47.934.966.627.205-.126.503-.019.662.238.181.293.116.361-.172.183-.254-.157-.462-.095-.462.138 0 .496.663.569.95.105.108-.176.074-.504-.076-.729-.405-.607-1.615-.971-1.868-.562M160 25.224c0 .233-.208.295-.462.138-.286-.177-.353-.11-.176.176.412.667 1.438.568 1.438-.138 0-.33-.18-.6-.4-.6-.22 0-.4.191-.4.424m-3.067.576c0 .33.21.6.467.6s.467-.27.467-.6c0-.33-.21-.6-.467-.6s-.467.27-.467.6m86.953 1.037c.499.485 1.24.6 1.174.181-.033-.209-.381-.405-.774-.434-.393-.029-.573.085-.4.253m-90.306 1.387c-.39.47-.326.576.347.576 1.008 0 1.483-.634.7-.934-.313-.12-.784.041-1.047.358m-4.298 1.226c-.627.671-.609.816.139 1.103.356.136.516.069.376-.158-.134-.217-.073-.395.137-.395.209 0 .473-.24.585-.533.262-.683-.604-.694-1.237-.017m-4.082 2.594c-.495.356-.469.389.151.187.413-.135 1.043-.017 1.4.262.577.451.588.43.1-.193-.637-.812-.835-.843-1.651-.256m118.933 5.962c0 1.02.08 1.08.921.697.668-.305.827-.587.578-1.031-.605-1.082-1.499-.883-1.499.334m-143.171 7.256c-.096.156-.005.388.204.517.208.129.497.042.642-.192.182-.294.418-.298.761-.013.358.298.498.25.498-.17 0-.593-1.754-.71-2.105-.142m-13.071 8.312c-.115.438.03.864.333.98.368.141.456-.007.281-.474-.217-.58-.161-.603.384-.161.406.33.73.374.887.12.135-.219-.107-.588-.539-.819-1.047-.56-1.111-.544-1.346.354M306.5 61.467c-.275.11-.5.375-.5.59 0 .215.211.26.468.101.301-.186.388-.082.244.295-.162.422.11.609.988.676 1.167.089 1.19.06.622-.796-.647-.974-1.061-1.171-1.822-.866m-214.662.908c-1.95.378-1.285 2.425.788 2.425.568 0 .032-.791-.691-1.021-1.218-.386.103-1.134 1.373-.777.491.138.712.102.492-.08a7.4 7.4 0 0 1-.6-.552c-.11-.121-.723-.119-1.362.005m223.462 4.5c.169.445.025.73-.422.838-.617.149-.613.192.049.478 1.139.494 1.732-.39.85-1.265-.643-.637-.701-.643-.477-.051m6.919 5.36c-.735.538-.72.565.305.565.592 0 1.076-.169 1.076-.376 0-.681-.596-.763-1.381-.189m1.514.395c-.507 1.075.027 1.77.782 1.015.327-.327.291-.447-.135-.451-.419-.005-.447-.091-.101-.311.263-.167.351-.511.195-.763-.183-.296-.446-.115-.741.51m8.767 4.602c.385.224.7.669.7.988 0 .319.18.58.4.58.702 0 .429-1.156-.374-1.586-.999-.535-1.647-.519-.726.018M62.849 82.911c-.749.749-.621 30.848.133 31.474 1.328 1.102 1.418.098 1.418-15.766 0-16.213-.094-17.165-1.551-15.708m274.038 12.613c-.048.288-.267.412-.487.276-.259-.16-.4 1.663-.4 5.176 0 3.459.149 5.424.413 5.424.715 0 .815-.907.686-6.221-.069-2.849-.164-4.943-.212-4.655m-1.241 27.976c-.025 3.795.105 6.9.289 6.9.301 0 .201-11.748-.112-13.2-.072-.33-.151 2.505-.177 6.3m1.924-6.2c-.333 1.098-.337 13.1-.005 13.1.296 0 .435-2.111.435-6.6 0-5.369-.139-7.464-.43-6.5m-274.721 4.411c-.327.327-.449 12.619-.449 45.049 0 32.963.117 44.483.449 44.151.247-.247.697-.353 1-.237.466.179.551-6.661.551-44.388 0-46.493.012-46.138-1.551-44.575m.651 35.217c-.064 5.099-.115.812-.115-9.528s.052-14.513.115-9.272c.063 5.24.063 13.7 0 18.8m273.472-23.773c.121.195-.094.33-.476.3-.383-.03-.696.215-.696.545 0 .33.27.6.6.6.33 0 .732.18.894.4.162.22.297-.185.3-.9.003-.715-.185-1.3-.418-1.3-.233 0-.325.16-.204.355m-.041 12.245c.002 1.54.074 2.121.161 1.291.087-.83.085-2.09-.003-2.8-.089-.71-.16-.031-.158 1.509m7.231 7.861c-.17.276-.111.355.147.195.239-.147.548.095.689.538.296.931 1.002 1.086 1.002.22 0-.81-1.458-1.567-1.838-.953M338.6 181.6c-.565.915.39 1.457 1.4.794.533-.35.533-.438 0-.788-.766-.503-1.092-.504-1.4-.006m-2.923 1.628c-.05.644-.018 1.172.07 1.172.29 0 .551-2.016.282-2.182-.145-.089-.303.365-.352 1.01m1.201 3.472c-.058 1.565-.231 2.1-.678 2.1-.52 0-.588 1.349-.51 10.1.082 9.105.102 9.381.209 2.8.075-4.564.27-7.3.523-7.3.643 0 .73.618 1.104 7.8l.353 6.8.054-10c.035-6.328-.082-9.783-.319-9.409-.258.407-.417-.274-.515-2.2-.123-2.409-.153-2.504-.221-.691m-20.278 2.1c-.66.437-1.409.796-1.665.797-.461.003-3.322 1.632-9.15 5.211-.888.546-1.968 1.192-2.4 1.436-.742.419-.779.845-.673 7.792.114 7.402.372 8.78 1.351 7.211.291-.466.748-.847 1.015-.847.267 0 3.096-1.53 6.287-3.4 3.192-1.87 5.984-3.4 6.205-3.4.961 0 1.23-1.878 1.23-8.574 0-7.646-.011-7.676-2.2-6.226m-54.8 27.683c-1.54.908-2.89 1.777-3 1.93-.11.154-.65.42-1.2.592-.55.171-1.72.777-2.6 1.345-2.694 1.741-3.161 2.009-4.3 2.477l-1.1.451.028 8.861c.035 10.942-.067 10.618 2.772 8.849 1.21-.753 2.326-1.374 2.48-1.379.154-.005 1.054-.504 2-1.109 2.95-1.887 3.293-2.092 4.32-2.595.55-.269 1.09-.598 1.2-.731.11-.134 1.055-.74 2.1-1.347l1.9-1.103V214.8l-.9.016c-.495.009-2.16.759-3.7 1.667M62.4 240.619c0 10.384.075 11.838.6 11.636.502-.192.612.341.676 3.258l.075 3.487.249-3.6.249-3.6.141 3.2c.141 3.191.143 3.187.434-1.6.16-2.64.194-5.685.074-6.766-.19-1.712-.133-1.933.442-1.712.52.199.66.006.66-.911 0-1.24-.597-1.951-.934-1.113-.112.276-.217-2.153-.234-5.398-.031-5.623-.07-5.9-.832-5.9-.619 0-.8-.267-.8-1.176 0-.647-.18-1.288-.4-1.424-.263-.163-.4 3.81-.4 11.619m280.955-2.391c.135.351.245.723.245.828 0 .105.18.08.4-.056.594-.367.485-.882-.245-1.162-.471-.181-.579-.076-.4.39m-6.394 16.572c0 3.41.061 4.805.136 3.1a85.45 85.45 0 0 0 0-6.2c-.075-1.705-.136-.31-.136 3.1m-271.26.6c.004.88.086 1.193.182.695.096-.497.092-1.217-.008-1.6-.1-.382-.179.025-.174.905m-2.018 12.2c-.04 2.09.036 4.203.168 4.696.279 1.042.949.817.949-.32 0-.427.225-.731.5-.676.331.066.541-.544.622-1.807.09-1.396-.016-1.879-.394-1.8-.325.067-.61-.489-.766-1.493-.189-1.218-.281-.739-.383 2l-.134 3.6-.245-4-.245-4-.072 3.8m273.345-2.13c-.383.999-.196 14.337.21 14.978.206.326.352-2.764.356-7.548.006-7.972-.054-8.762-.566-7.43m-1.33 16.396c-.277.111-.401.367-.277.568.34.55.865.441 1.124-.234.235-.614.038-.691-.847-.334m-1.598 1.246c-1.104.176-1.173.723-.126.997.471.123.866-.038 1.01-.41.285-.744.249-.768-.884-.587m-3.555 2.288c-.157.408-.796.6-1.997.6-2.108 0-5.696 1.539-9.26 3.972-1.377.94-3.895 2.427-5.596 3.304-1.701.877-3.362 1.804-3.692 2.06-.701.542-1.472.977-4.429 2.5a52.75 52.75 0 0 0-4.166 2.441c-1.097.728-2.141 1.323-2.321 1.323-.18 0-1.532.779-3.005 1.73-3.727 2.408-9.336 5.749-10.503 6.257-.537.234-1.516.774-2.176 1.201-.66.427-2.086 1.242-3.169 1.812a48.09 48.09 0 0 0-3.731 2.226c-.97.654-2.334 1.455-3.032 1.778-.697.324-2.168 1.13-3.268 1.791-1.1.661-2.27 1.32-2.6 1.464-.33.145-1.455.866-2.501 1.602-1.045.736-2.058 1.339-2.251 1.339-.193 0-.559.252-.815.561-.256.308-.902.67-1.435.804-.534.134-1.741.736-2.684 1.339a133.6 133.6 0 0 1-2.514 1.573c-5.884 3.505-8.144 4.781-8.989 5.076-.556.194-2.181 1.111-3.611 2.037-3.876 2.509-7.458 4.61-7.861 4.61-.197 0-1.27.585-2.385 1.3-2.677 1.717-3.38 2.121-6.077 3.497-1.252.638-2.897 1.62-3.655 2.182-.757.561-1.512 1.021-1.677 1.021-.164 0-1.434.695-2.822 1.545-2.99 1.83-6.998 4.112-10.669 6.073l-4.814 2.573c-2.149 1.149-2.165 1.152-3.4.423-.682-.403-2.32-1.294-3.64-1.981-1.32-.687-3.765-2.101-5.434-3.141-1.668-1.041-3.132-1.892-3.252-1.892-.121 0-2.692-1.44-5.714-3.2-3.022-1.76-5.577-3.2-5.678-3.2-.101 0-1.882-1.035-3.958-2.3-5.459-3.327-6.709-4.032-7.213-4.068-.528-.038-3.492 1.313-5.018 2.287-1.597 1.019-11.242 6.706-11.933 7.035-4.35 2.075-7.278 4.341-7.014 5.425.137.562.304 1.543.371 2.182.134 1.276.828 1.934 3.243 3.074 1.905.899 2.7 1.39 4.711 2.909 1.509 1.139 2.421 1.236 4.489.475.634-.233.675-.206.2.129-.524.369-.505.514.148 1.138.545.52.798.578.933.214.102-.275.666-.486 1.252-.468l1.067.031-1.12.409c-1.539.561-1.247 1.231.92 2.115.989.403 2.491 1.318 2.754 1.677.483.66 2.824 2.136 3.387 2.136.315 0 .685.29.821.645.183.478.555.581 1.443.4l2.395-.49c.939-.192 1.2-.105 1.2.4 0 .355.27.645.6.645.706 0 .777.463.165 1.075-.313.313-.303.516.035.725.258.16.67.09.915-.155s.904-.44 1.465-.433c.886.011.928.066.32.42-1.23.716 1.082 3.568 2.893 3.568.177 0 .425.27.552.6.126.33.484.6.793.6.31 0 .788.27 1.062.6.274.33.814.6 1.2.6s.926.27 1.2.6c.274.33.951.6 1.505.6.554 0 1.224.297 1.49.661.342.468.566.525.769.197.16-.259.01-.57-.339-.704-.967-.371-.738-.954.375-.954.622 0 1 .227 1 .6 0 .33.27.6.6.6.689 0 .801.628.181 1.012-.479.296.246 1.388.921 1.388.222 0 .998.63 1.724 1.4.734.778 1.712 1.4 2.203 1.4.486 0 1.083.256 1.327.568 1.269 1.624 6.277 3.55 6.844 2.632.457-.74 1-.409 1 .61 0 .677.297 1.125.9 1.36.495.192 1.429.908 2.075 1.59.646.682 1.34 1.24 1.542 1.24.202 0 1.05.54 1.883 1.2.939.744 1.982 1.2 2.743 1.2.819 0 1.372.267 1.657.8.504.943 1.528 1.053 1.855.2.298-.776 1.745-.783 1.745-.008 0 1.336 6.931 1.389 7.676.059.376-.673.421-.672.931.021.504.683.618.688 1.865.08.73-.356 1.778-.85 2.328-1.097 1.47-.661 2.557-1.389 2.92-1.955.176-.275.766-.5 1.312-.5s1.097-.27 1.223-.6c.127-.33.469-.6.761-.6.617 0 1.156-1.398.776-2.012-.168-.272.089-.333.731-.172 1.009.254 1.822-.356 1.084-.812-.224-.138-.407-.421-.407-.628 0-.537 1.75-.466 2.311.095.36.36.643.314 1.211-.2.408-.369 1.11-.671 1.561-.671.45 0 1.043-.27 1.317-.6.274-.33.932-.6 1.462-.6.529 0 1.067-.27 1.193-.6.127-.33.481-.6.788-.6.306 0 .557-.178.557-.395 0-.217.585-.657 1.3-.978 1.999-.898 2.7-1.618 2.7-2.771 0-1.151.409-1.307 1.552-.593.799.499 2.048.224 2.048-.45 0-.227-.45-.413-1-.413s-1-.18-1-.4c0-.22.45-.4 1-.4s1 .18 1 .4c0 .628 2.246.467 2.8-.2.274-.33.727-.6 1.006-.6.28 0 .612-.27.739-.6.126-.33.574-.6.993-.6.42 0 .988-.27 1.262-.6.274-.33.628-.6.786-.6.159 0 .926-.569 1.705-1.265.779-.695 2.009-1.46 2.733-1.7 1.707-.564 1.901-1.251.496-1.763l-1.12-.409 1.1-.031c.605-.018 1.1.148 1.1.368 0 .623 1.844.47 2.4-.2.274-.33.979-.6 1.568-.6.714 0 1.395-.408 2.051-1.229.539-.676 1.552-1.897 2.249-2.713.758-.888 1.321-2.036 1.4-2.856.154-1.599.833-1.9 4.432-1.962 1.537-.027 2.308-.206 2.325-.54.014-.275.188-.095.387.4.49 1.218 1.745 1.147 3.532-.2 1.999-1.507 2.785-1.986 4.731-2.88.921-.424 2.004-1.096 2.406-1.495.401-.399 1.198-.935 1.769-1.191 1.354-.608 1.831-2.102.599-1.879-.535.097-.442-.008.251-.284.605-.241 1.1-.693 1.1-1.004 0-.75 1.369-.727 2 .033.669.806 1.294.756 2.509-.2.56-.44 1.233-.8 1.497-.8.263 0 1.161-.54 1.994-1.2.833-.66 1.692-1.2 1.909-1.2.216 0 .617-.27.891-.6.274-.33.853-.6 1.286-.6.441 0 .877-.338.989-.766.11-.421.634-.875 1.163-1.008s.962-.418.962-.634c0-.215.276-.392.613-.392.837 0 1.186-1.079.583-1.805-.41-.494-.354-.595.331-.595.454 0 .937.18 1.073.4.375.606 2.037.478 2.6-.2.274-.33.763-.6 1.087-.6.758 0 3.017-1.25 3.433-1.9.176-.275.637-.5 1.025-.5.388 0 1.234-.556 1.88-1.236.646-.679 1.679-1.499 2.295-1.821.837-.437 1.058-.782.873-1.364-.173-.546-.059-.779.38-.779.345 0 .627-.27.627-.6 0-.669 1.413-.826 1.8-.2.369.597 2.033.483 2.58-.176.263-.317.852-.632 1.308-.7.754-.113 1.059-.482 1.918-2.324.154-.33.62-.664 1.037-.743 1.786-.337 1.757-.017 1.757-19.719 0-14.66-.109-18.797-.5-18.919-.275-.086-1.198-.273-2.052-.416-1.154-.192-1.436-.375-1.1-.711.686-.686.555-1.017-.648-1.647-.605-.317-1.717-1.131-2.472-1.81-1.484-1.336-2.717-1.59-3.083-.635m2.175.28c.264.264.477.669.474.9-.003.231-.17.162-.37-.154-.291-.461-.481-.477-.958-.081-.462.383-.661.386-.892.013-.202-.328-.128-.377.232-.154.385.238.46.145.275-.338-.301-.782.52-.905 1.239-.186M60.878 301.61c-.065.848.119 1.287.615 1.47.389.143.851.498 1.027.79.176.291.559.53.851.53.292 0 .755.27 1.029.6.557.671 3.828.823 4.779.221.456-.288.356-.422-.471-.63-.578-.145-1.152-.529-1.277-.854-.177-.463-.663-.536-2.229-.337-1.782.226-2.002.172-2.002-.498 0-.745-1.356-2.502-1.93-2.502-.165 0-.341.544-.392 1.21m2.722 1.19c0 .22.27.4.6.4.33 0 .6-.18.6-.4 0-.22-.27-.4-.6-.4-.33 0-.6.18-.6.4m6.791 4.1c-.178 9.82.123 30.955.447 31.346.231.278.805.562 1.275.63.528.077.944.505 1.088 1.122.261 1.114 1.599 1.642 1.599.631 0-1.091.619-.683 1.017.671.263.894.663 1.34 1.281 1.428.71.1.842-.018.632-.566-.202-.526-.129-.61.302-.351.467.281.479.233.071-.271-.273-.337-.378-.732-.233-.877.145-.145-.024-.263-.375-.263s-.876-.225-1.166-.5c-.291-.275-.889-.561-1.329-.637-.44-.075-.867-.322-.95-.55-.082-.227-.516-.779-.964-1.227-.799-.799-.809-1.088-.558-15.95l.256-15.136h-1.192c-.682 0-1.196.214-1.201.5m1.108 23.026c-.065 3.891-.119.594-.118-7.326 0-7.92.053-11.103.119-7.074.065 4.029.065 10.509-.001 14.4m9.893 13.831c-.842.615-.268 1.843.861 1.843.305 0 .863.36 1.24.8.377.44.896.8 1.153.8.258 0 .572.27.699.6.126.33.666.6 1.2.6.533 0 1.059.225 1.168.5.433 1.089 3.016 2.061 4.129 1.554 1.19-.542.785-1.435-.95-2.095-.517-.197-.847-.508-.734-.692.114-.183-.01-.355-.276-.38a32.31 32.31 0 0 1-1.282-.167c-.44-.066-.765.075-.722.313.043.239-.182.434-.5.434-.674 0-.765-.505-.158-.879.637-.394-1.506-2.188-2.614-2.188-.601 0-1.046-.295-1.206-.8-.298-.939-.95-1.017-2.008-.243m11.677 6.798c-.344.951.566 1.923 1.564 1.672.613-.153.967-.07.967.23 0 .668 2.415 2.743 3.192 2.743.356 0 .873.225 1.148.5.275.275.896.508 1.38.518.484.01.837.23.784.488-.178.87 1.566 1.486 2.108.745.598-.817 1.15-.85.843-.051-.345.901.136 1.8.964 1.8.862 0 1.538-.881.852-1.11-.259-.086-.471-.412-.471-.723 0-.312-.225-.568-.5-.569-.275-.002-1.015-.272-1.645-.6-.63-.329-1.572-.52-2.094-.425-1.075.195-1.671-.369-.759-.719.885-.339.73-1.182-.174-.945-.487.127-1.104-.152-1.67-.754-.494-.525-1.228-.955-1.631-.955-.404 0-1.289-.495-1.968-1.1-1.295-1.155-2.618-1.496-2.89-.745M138.145 355c.146.383-.007.6-.424.6-.752 0-.378.515.463.639.308.045.657-.17.776-.478.118-.309.03-.561-.196-.561s-.3-.18-.164-.4c.136-.22.037-.4-.219-.4-.257 0-.363.27-.236.6m-4.192 2.067c-.026.183-.02.487.014.675.033.188-.147.593-.402.9-.661.796.215.721 1.024-.088.356-.356.582-.84.504-1.075-.179-.538-1.076-.862-1.14-.412m-26.498 1.533c-.152.397.015.6.491.6.396 0 .721-.27.721-.6 0-.33-.221-.6-.491-.6s-.594.27-.721.6m.957.984c-.324.205-.467.495-.318.644.366.366 1.506-.1 1.506-.615 0-.508-.414-.518-1.188-.029m2.254-.084c-.1.165.069.532.376.816.464.428.558.377.558-.3 0-.797-.573-1.113-.934-.516m42.134.1c0 .501-.424.501-1.2 0-.485-.314-.428-.389.3-.394.495-.003.9.174.9.394m125.2 0c0 .22-.259.4-.576.4-.317 0-.688-.18-.824-.4-.136-.22.123-.4.576-.4.453 0 .824.18.824.4m-152.4 2.2c-.274.33-.834.6-1.244.6-.894 0-2.356 1.172-2.356 1.889 0 .303-.529.524-1.3.544a22.7 22.7 0 0 0-2.5.225c-.964.154-1.102.092-.7-.313.801-.809.617-1.669-.307-1.427-.444.116-1.061-.043-1.371-.354-.796-.795-2.098-.779-1.437.018.266.321.368.771.226 1-.142.23-.042.418.221.418.264 0 .68.266.924.592.244.325 1.017.632 1.716.683.7.05 1.24.274 1.2.498-.169.957 1.81.629 3.292-.544.853-.676 1.935-1.229 2.403-1.229.532 0 .99-.361 1.218-.961.201-.529.557-1.079.79-1.224.513-.317.564-1.015.074-1.015-.193 0-.575.27-.849.6m41.262 7.975c.076.367.318.658.538.646.594-.031.485-.926-.138-1.134-.337-.112-.487.071-.4.488M198 386.4c0 .22-.259.4-.576.4-.317 0-.688-.18-.824-.4-.136-.22.123-.4.576-.4.453 0 .824.18.824.4" fill="#391a24"/><path d="M157.817 25.572c-.273.442.358.92.727.55.381-.38.31-.922-.12-.922-.207 0-.48.168-.607.372m112.85 15.895c-.419.418-.312 1.008.133.733.22-.136.4-.021.4.256 0 .37.118.386.445.059.245-.245.324-.641.177-.88-.306-.494-.763-.56-1.155-.168M91.666 63.15c-.429.273-.41.386.1.582.793.304 1.905-.093 1.608-.574-.276-.447-1.009-.45-1.708-.008m245.635 57.45c.004.88.086 1.193.182.695.096-.497.092-1.217-.008-1.6-.1-.382-.179.025-.174.905M63.385 147.4c0 10.34.051 14.627.115 9.528.063-5.1.063-13.56 0-18.8-.063-5.241-.115-1.068-.115 9.272m1.415 34.163c0 48.565-.003 48.761-.8 48.553-.614-.161-.8-.012-.8.637 0 .849.418 1.096.952.562C66.63 228.836 78 235.186 78 239.048c0 .304.135.555.3.56.165.004.84.9 1.5 1.992s1.315 1.988 1.457 1.992c.141.005.364.436.495.96.316 1.257 1.611 1.572 2.487.605.377-.417.491-.757.255-.757-.237 0-.546-.525-.687-1.167-.141-.641-.505-1.262-.811-1.379-.305-.117-.836-.758-1.181-1.424-1.217-2.354.624-2.037 5.81 1 6.065 3.552 7.269 4.788 5.375 5.515-2.512.964.705 2.63 3.408 1.765l1.978-.632 2.707 1.387c8.961 4.589 8.596 4.191 8.36 9.097-.097 2.001-.055 3.954.092 4.34.259.681 8.812 5.972 14.838 9.178 2.736 1.456 7.138 4.181 7.617 4.715.526.587 2.833 1.892 5 2.828 1.32.57 3.48 1.739 4.8 2.598 1.32.858 2.866 1.835 3.436 2.17.57.335 3.412 2.049 6.316 3.809 2.904 1.76 7.213 4.37 9.576 5.8 2.364 1.43 5.572 3.436 7.131 4.457 1.558 1.021 3.712 2.345 4.787 2.941 4.549 2.524 5.366 3.164 5.109 4.002-.135.44-.336 1.494-.446 2.342l-.201 1.542 1.346-.291c.74-.16 1.406-.448 1.479-.642.212-.557 2.968-.396 4.067.238.55.317 1.36.745 1.8.951.44.206 1.97 1.114 3.4 2.018 1.43.904 2.96 1.826 3.4 2.049.44.223 1.34.763 2 1.2.66.437 1.773 1.062 2.473 1.388.7.326 1.385.776 1.523.999.556.9 1.866.468 1.373-.452-.307-.574-.438-3.397-.395-8.513.075-8.926.538-7.942-5.374-11.434-4.058-2.397-4.187-2.512-7.521-6.733-1.33-1.684-2.522-3.152-2.649-3.262-.55-.478-4.312-5.091-4.893-6-.352-.55-1.067-1.459-1.588-2.021-.522-.561-1.604-1.821-2.404-2.8a2270.5 2270.5 0 0 1-10.531-12.989c-.873-1.095-1.689-2.08-1.814-2.19-.125-.11-.938-1.1-1.807-2.2s-2.168-2.625-2.887-3.388c-.718-.764-1.306-1.501-1.306-1.639 0-.238-.532-.902-2.542-3.173-.487-.55-2.256-2.71-3.932-4.8-1.676-2.09-4.001-4.97-5.165-6.4-1.165-1.43-2.262-2.78-2.439-3-.177-.22-1.965-2.38-3.973-4.8-2.009-2.42-4.124-5.016-4.701-5.769l-1.048-1.368-.2-21.362-.2-21.362-1.862-1.069c-2.745-1.577-7.221-4.188-8.138-4.748a61.502 61.502 0 0 0-2.485-1.378c-2.67-1.409-1.981-2.664 2.685-4.895 3.966-1.896 4.491-2.649 1.847-2.649-.488 0-1.111-.225-1.384-.5-.273-.275-1.475-1.04-2.671-1.7-1.195-.66-3.874-2.235-5.952-3.5-2.078-1.265-3.886-2.3-4.017-2.3-.131 0-1-.485-1.931-1.077a65.467 65.467 0 0 0-3.492-2.04 51.708 51.708 0 0 1-3.4-2.024c-.88-.583-2.59-1.569-3.8-2.191-1.21-.622-2.678-1.432-3.262-1.8-2.646-1.665-7.919-4.744-9.738-5.685a58.54 58.54 0 0 1-3.8-2.186 63.617 63.617 0 0 0-3.437-2.029 65.385 65.385 0 0 1-3.4-2c-3.149-2.004-8.752-4.938-9.463-4.955-.397-.01-.5 10-.5 48.75m271.404-33.57c-.295.478.079 1.207.62 1.207.486 0 .489-1.083.004-1.383-.205-.126-.486-.047-.624.176M142.783 197c-.06 11.22-.08 20.737-.043 21.148.055.608 2.877 4.547 4.655 6.496a56.52 56.52 0 0 1 1.491 1.8c1.211 1.513 5.665 6.989 10.514 12.926 1.76 2.155 3.612 4.365 4.115 4.911.503.545 1.217 1.47 1.588 2.055.37.585 1.685 2.234 2.921 3.664 2.254 2.607 3.014 3.537 12.579 15.4 2.839 3.52 5.362 6.58 5.609 6.8.246.22 1.424 1.657 2.618 3.192 1.193 1.536 2.44 3.071 2.77 3.411.33.34 1.5 1.766 2.6 3.168 2.509 3.199 5.025 6.031 5.351 6.023.986-.024 1.039-2.5.849-39.354l-.2-38.76-.9-.138c-.496-.075-2.296-1.006-4-2.068-1.705-1.062-3.37-2.054-3.7-2.204-.979-.445-4.637-2.544-10.657-6.115-3.111-1.845-5.757-3.355-5.88-3.355-.123 0-1.023-.54-2.001-1.2-.978-.66-1.878-1.2-2-1.2-.122 0-1.013-.534-1.979-1.186-.967-.652-2.191-1.372-2.72-1.599-.53-.227-1.233-.583-1.563-.791-1.248-.787-14.227-8.312-14.8-8.581-.33-.154-1.32-.717-2.2-1.25-.88-.532-2.265-1.259-3.077-1.615-.813-.356-1.557-.946-1.654-1.312-.097-.366-.226 8.514-.286 19.734m191.615-14.402c.273.329.402.959.287 1.4-.116.441-.047.802.152.802.2 0 .363-.63.363-1.4 0-1.025-.174-1.4-.649-1.4-.53 0-.558.109-.153.598m-15.118 4.682c-.338.338-.48 2.601-.48 7.626 0 6.813-.266 8.694-1.23 8.694-.221 0-3.013 1.53-6.205 3.4-3.191 1.87-6.02 3.4-6.287 3.4-.267 0-.724.381-1.015.847-.971 1.556-1.235.209-1.356-6.927-.111-6.488-.309-8.052-.939-7.421-.297.297-.215 15.314.089 16.105.297.775 2.1.772 2.398-.004.127-.33.487-.6.8-.6.314 0 .674-.27.8-.6.127-.33.588-.6 1.025-.6.436 0 1.251-.36 1.811-.8.559-.44 1.243-.8 1.52-.8.277 0 .607-.27.734-.6.126-.33.56-.6.962-.6.403 0 .934-.201 1.179-.446.464-.464 1.602-1.161 3.314-2.03.55-.279 1.144-.736 1.32-1.016.176-.279.635-.508 1.02-.508 1.537 0 1.66-.687 1.66-9.28 0-8.082-.11-8.85-1.12-7.84M230 193.772c0 .338 3.652 2.628 4.191 2.628.304 0 .824.272 1.156.604.333.333 1.47 1.061 2.529 1.618 1.058.558 2.464 1.363 3.124 1.79.66.427 1.567.94 2.016 1.14.449.201 1.057.653 1.349 1.006.293.353 1.074.642 1.736.642 1.021 0 .726-.249-1.949-1.641-1.734-.903-3.436-1.893-3.783-2.2-.348-.308-.73-.559-.85-.559s-2.243-1.17-4.719-2.6c-4.496-2.597-4.8-2.751-4.8-2.428m104.646 1.353c-.111.179-.052 1.214.129 2.3l.331 1.975.047-2.3c.045-2.21-.074-2.675-.507-1.975m2.702 9.675c0 2.31.066 3.255.147 2.1a36.327 36.327 0 0 0 0-4.2c-.081-1.155-.147-.21-.147 2.1m-73.163 8.898c-.212.47-1.105 1.235-1.985 1.7a58.344 58.344 0 0 0-3.292 1.924c-.931.593-1.796 1.078-1.922 1.078-1.084 0-7.79 4.569-7.813 5.323-.376 12.27.29 21.699 1.424 20.149.27-.37.792-.672 1.16-.672.367 0 .765-.254.884-.564.12-.31.676-.679 1.236-.82.561-.14 1.281-.517 1.6-.836.319-.319.927-.58 1.352-.58.424 0 .771-.184.771-.41 0-.225.478-.592 1.063-.814.584-.222 1.853-.938 2.82-1.59.966-.652 2.018-1.186 2.337-1.186.319 0 .58-.27.58-.6 0-.337.357-.6.813-.6.448 0 1.341-.539 1.985-1.198l1.171-1.198-.246-7.941c-.279-9.022-.263-9.07 2.471-7.225 1.019.687 1.944 1.157 2.057 1.044.237-.236-3.205-2.682-3.774-2.682-.209 0-.594-.259-.857-.576-1.381-1.664-1.62-.398-1.62 8.581v8.719l-1.9 1.103c-1.045.607-1.99 1.213-2.1 1.347-.11.133-.65.462-1.2.731-1.027.503-1.37.708-4.32 2.595-.946.605-1.846 1.104-2 1.109-.154.005-1.27.626-2.48 1.379-2.839 1.769-2.737 2.093-2.772-8.849l-.028-8.861 1.1-.451c1.139-.468 1.606-.736 4.3-2.477.88-.568 2.05-1.174 2.6-1.345.55-.172 1.09-.439 1.2-.593.321-.45 5.897-3.612 6.37-3.612.596 0 .54-1.011-.085-1.529-.384-.319-.611-.212-.9.427m80.615 3.022c0 .704.167 1.28.371 1.28s.461.315.571.7c.11.385.102-.02-.019-.9-.281-2.044-.923-2.795-.923-1.08m-.132 19.446c-.133.349-.534.634-.889.634-.813 0-.535.957.327 1.124.776.151 1.562-1.167 1.122-1.879-.245-.397-.372-.369-.56.121m-7.977 10.528c.249.649.576.638 1.517-.051.709-.518.676-.553-.475-.506-.819.034-1.17.221-1.042.557m-251.198 1.983c-.39.102-.966.802-1.281 1.556-.36.861-.99 1.52-1.693 1.769-.615.219-1.389.578-1.719.799-.33.22-1.05.59-1.6.822-4.342 1.827-4.461 1.955-3.254 3.524l.728.946 2.363-1.246c1.3-.685 2.678-1.246 3.063-1.246.385-.001.7-.167.7-.37 0-1.345 5.086-1.267 5.773.088 1.806 3.561 2.482 4.472 3.228 4.348 1.267-.212 1.589-.749 1.052-1.756-.975-1.832-1.57-2.788-2.007-3.225-.245-.245-.446-1.018-.446-1.717 0-3.442-1.875-5.082-4.907-4.292m2.801 1.249c.833.529 1.059 2.649.346 3.241-1.566 1.299-4.347-1.066-3.192-2.714.602-.86 1.934-1.106 2.846-.527M68.8 258.633c-.55.306-1.315.558-1.7.561-.549.005-.7.351-.7 1.612 0 1.539.051 1.603 1.2 1.515.66-.05 1.2-.226 1.2-.39s.72-.515 1.6-.778c1.641-.492 1.764-.699 1.348-2.253-.277-1.033-1.387-1.133-2.948-.267m-5.2 2.791c0 1.919.131 2.486.56 2.423 2.03-.298 2.53-4.814.54-4.887-1.087-.04-1.1-.012-1.1 2.464m229.68 25.456c-.686.686-.595 1.313.106.731.476-.394.939-.249 2.448.77 2.375 1.603 2.652 1.351.575-.525-1.712-1.547-2.357-1.748-3.129-.976m-185.12 20.779c-2.238 1.181-2.362 1.373-1.617 2.511.728 1.111.837 1.094 4.557-.684 1.531-.731 1.625-.856.949-1.249-.413-.24-1.106-.654-1.54-.919-.648-.396-1.068-.335-2.349.341M72.8 321.971c0 12.597.088 14.86.6 15.372.33.33.6.883.6 1.228 0 .404.358.629 1 .629.55 0 1 .162 1 .361 0 .198.54.549 1.2.779.66.23 1.2.678 1.2.995 0 .317.225.568.5.558 1.337-.05 1.9.159 1.9.707 0 .394.395.6 1.151.6.633 0 1.375.27 1.649.6.274.33.76.6 1.08.6.806 0 3.028 2.286 2.524 2.597-.593.367-.492.87.174.87.318 0 .543-.195.5-.434-.043-.238.147-.415.422-.393l1.3.1c.44.033.8.309.8.613 0 .499 1.347 1.199 2.1 1.09.165-.024.3.227.3.557 0 .365.372.6.951.6.523 0 1.175.27 1.449.6.274.33.83.6 1.236.6.493 0 .662.2.509.6-.166.433.043.6.75.6.54 0 1.307.36 1.705.8.398.44 1.146.8 1.662.8s.938.189.938.421c0 .231.54.609 1.2.839.66.23 1.2.581 1.2.779 0 .199.272.361.604.361.332 0 .912.36 1.289.8.377.44 1.095.8 1.596.8.963 0 1.276 1.001.411 1.315-.275.1.355.092 1.4-.019 1.749-.184 1.9-.13 1.9.676 0 .481.165.773.368.648.202-.125.612-.001.91.276.812.754 4.028 2.306 4.775 2.305.36-.001.748.359.863.799.166.636.546.8 1.847.8 1.37 0 1.637-.13 1.637-.8 0-.44-.191-.8-.424-.8-.233 0-.313.178-.179.395.137.221-.011.298-.335.174-.844-.324-.874-1.002-.738-16.469.14-16.002-.038-15.333 3.322-12.5 1.044.88 2.09 1.6 2.326 1.6.235 0 .428.139.428.308 0 .39 5.952 3.473 6.209 3.216.104-.104-.305-.437-.91-.739-4.282-2.141-6.535-3.735-6.419-4.543.167-1.171 4.064-3.094 5.808-2.865l1.287.169-1.039-1.57c-1.16-1.754-.993-2.261 1.186-3.59.865-.527.982-.737.513-.917-.335-.129-.716-.062-.846.148-.13.211-.555.383-.946.383-.39 0-1.144.669-1.676 1.487-.614.945-1.442 1.623-2.267 1.858-.715.204-1.3.51-1.3.681 0 .171-.528.426-1.172.568-.645.142-1.387.516-1.649.832-1.228 1.479-3.751.748-9.711-2.815-6.283-3.756-5.925-3.547-12.068-7.046-6.929-3.947-7.91-6.365-2.583-6.365.384 0 .791-.244.906-.543.114-.299.764-.654 1.443-.79 1.248-.25 1.548-.984.991-2.434-.261-.681-2.157-.892-2.157-.241 0 .216-.495.517-1.1.668-1.736.434-4.895 2.134-4.947 2.661-.026.263-.018.638.018.833.223 1.208-3.932-.264-8.765-3.105-2.853-1.677-5.306-3.049-5.452-3.049-.146 0-1.143-.54-2.216-1.2-1.187-.731-2.495-1.2-3.344-1.2H72.8v14.771m-1.419.629c-.001 7.92.053 11.217.118 7.326.066-3.891.066-10.371.001-14.4-.066-4.029-.119-.846-.119 7.074m207.06-12.786c-.682.778-1.241 1.628-1.241 1.889 0 .261.298.03.662-.514a20.677 20.677 0 0 1 1.47-1.889c.444-.495.705-.9.579-.9-.125 0-.787.636-1.47 1.414m-71.941 3.798c-2.848 1.633-2.659 1.86.298.357 1.319-.67 2.607-1.09 2.862-.932.288.178.355.112.178-.175-.434-.702-1.046-.564-3.338.75m-83.3 1.588c0 .22.184.4.41.4.225 0 .585.405.799.9.385.89.624 1.343 1.531 2.9.256.44.687 1.25.958 1.8.761 1.545 1.512 1.978 2.584 1.49 1.629-.742-.269-4.691-2.907-6.047-.866-.446-1.813-1.042-2.104-1.326-.629-.616-1.271-.675-1.271-.117m40.639 10c.122 1.502-.032 3.951-.366 5.8-.374 2.077-.442 3.369-.192 3.681.6.749-.006 2.013-1.095 2.287-.542.136-.986.41-.986.608s-.552.482-1.227.63c-.675.148-1.324.522-1.443.832-.118.309-.472.562-.785.562-.314 0-.674.27-.8.6-.127.33-.558.6-.959.6-.401 0-.99.261-1.309.58-.319.319-1.067.703-1.661.852-.594.149-1.175.518-1.291.819-.116.302-.469.549-.784.549-.529 0-2.875 1.45-3.345 2.068-.112.148-.7.393-1.305.545-.606.152-1.234.481-1.396.732-.162.25-1.105.889-2.095 1.42-2.432 1.303-4.526 4.435-2.965 4.435.311 0 .565-.333.565-.74 0-.778 3.849-3.507 7.2-5.106.691-.329 10.336-6.016 11.933-7.035.587-.375 1.832-1.04 2.767-1.478 1.585-.742 1.7-.905 1.7-2.399 0-2.28.785-5.723 1.487-6.52.535-.607.469-1.005-.631-3.8l-1.228-3.122.211 2.6m3.145 8.826c-.338.547.146 3.174.586 3.174.183 0 .542.506.798 1.124.426 1.027 1.946 2.235 3.729 2.963.577.236.703.075.703-.9 0-.653-.135-1.187-.3-1.187-.165-.001-.821-.946-1.458-2.1-1.84-3.336-3.24-4.397-4.058-3.074m-29.196 19.211c-.144.453-.155.93-.025 1.06.131.13.237.016.237-.254s.168-.387.372-.26c.613.379.787-.344.211-.876-.43-.396-.585-.332-.795.33m-3.101 2.36c-.307.439-.635.754-.728.7-.093-.053.093.128.413.403.319.275.832.5 1.138.5.306 0 .474-.225.373-.5-.101-.275-.393-.452-.65-.394-.346.078-.355-.104-.036-.7.555-1.038.215-1.044-.51-.009M131.6 357.2c.443.286.462.389.071.394-.416.005-.406.128.048.582.332.332.945.48 1.445.349.975-.255.905-1.187-.075-1.014-.346.06-.743-.075-.882-.3a.946.946 0 0 0-.731-.405c-.286.004-.237.161.124.394m-27.4.4c-.27.436.073 1.2.538 1.2.16 0 .291-.36.291-.8 0-.854-.422-1.058-.829-.4m25 .763c.521.369.511.426-.076.431-.372.003-.787.184-.921.401-.15.243.063.281.553.1.93-.344 1.136-1.014.374-1.215-.351-.093-.327.002.07.283m-4.456 2.824c-.519.432-.747.792-.505.8.241.007.854-.347 1.361-.787 1.195-1.036.387-1.049-.856-.013" fill="#8b7569"/><path d="M182.981 10.706c-.231.162-.443.674-.471 1.138l-.052.844.938-.836c1.161-1.034.809-2.004-.415-1.146m-4.714 3.161c-.425.424-.312.83.294 1.063.332.127.527-.014.478-.346-.109-.739-.441-1.048-.772-.717m55.49 6.766c.134.348.243.708.243.8 0 .092.281.167.624.167.343 0 .518.171.388.38-.129.209.131.575.577.814.642.343.811.313.811-.147 0-.319.225-.671.5-.782.275-.111.135-.216-.311-.233-.446-.018-1.119-.392-1.496-.832-.817-.954-1.679-1.062-1.336-.167m-71.911 3.142a.612.612 0 0 0 .785.358c.675-.259.356-.933-.442-.933-.326 0-.471.243-.343.575M252 30.801c-.33.213-.42.392-.2.399.22.007.13.187-.2.4-.436.282-.457.389-.076.394.288.003.412.186.276.406-.346.56.266.476 1.09-.15.915-.694.071-2.067-.89-1.449M121.467 45.867c-.428.428-.307 1.405.14 1.129.223-.138.304-.417.179-.619s.052-.261.393-.13c.342.131.621.039.621-.204 0-.484-.906-.604-1.333-.176M118.5 48.1c.252.757 1.5.864 1.5.129 0-.371-.342-.629-.833-.629-.489 0-.765.207-.667.5m162.959.204c-.103.168.073.662.392 1.098.641.877 1.478.199 1.069-.866-.222-.579-1.155-.727-1.461-.232m-175.798 6.623c-.368.442-.334.68.151 1.083.934.775 1.795-.174.936-1.033-.53-.53-.683-.537-1.087-.05M297.6 58c0 .22.27.4.6.4.33 0 .6-.18.6-.4 0-.22-.27-.4-.6-.4-.33 0-.6.18-.6.4M69.05 76.319c-.108.176-.043.569.146.874.363.588 1.604-.063 1.604-.842 0-.439-1.482-.466-1.75-.032m261.588.943c.133.215.329.304.435.198.107-.106.572.185 1.035.648.596.596.892.693 1.012.332.094-.281-.018-.698-.247-.927-.543-.543-2.555-.77-2.235-.251M65.345 80.2c.126.33.056.6-.158.6-.631 0-.519 51.997.113 52.013.711.017 6.314 2.951 9.463 4.955a65.385 65.385 0 0 0 3.4 2c.9.483 2.447 1.396 3.437 2.029.99.633 2.7 1.616 3.8 2.186 1.819.941 7.092 4.02 9.738 5.685.584.368 2.052 1.178 3.262 1.8 1.21.622 2.92 1.608 3.8 2.191.88.583 2.41 1.493 3.4 2.024.99.53 2.561 1.448 3.492 2.04.931.592 1.8 1.077 1.931 1.077s1.939 1.035 4.017 2.3c2.078 1.265 4.757 2.84 5.952 3.5 1.196.66 2.398 1.425 2.671 1.7.273.275.964.5 1.534.5.57 0 2.606.9 4.525 2 1.918 1.1 3.65 2 3.849 2 .199 0 .422.152.496.338.073.185 1.483 1.062 3.133 1.949 5.125 2.753 5.616 3.088 5.847 3.984.13.504.842 1.141 1.689 1.512.805.353 2.184 1.078 3.064 1.61.88.533 1.87 1.096 2.2 1.25.573.269 13.552 7.794 14.8 8.581.33.208 1.033.564 1.563.791.529.227 1.753.947 2.72 1.599.966.652 1.857 1.186 1.979 1.186.122 0 1.022.54 2 1.2.978.66 1.878 1.2 2.001 1.2s2.769 1.51 5.88 3.355c6.02 3.571 9.678 5.67 10.657 6.115.33.15 1.972 1.128 3.649 2.172 5.101 3.178 4.535 5.984 4.654-23.084l.103-25.243-2.416-1.657c-1.328-.912-2.497-1.658-2.598-1.658-.1 0-2.119-1.147-4.487-2.548s-5.025-2.933-5.905-3.404c-2.019-1.081-3.543-1.981-5.713-3.374a45.801 45.801 0 0 0-3.4-1.951c-.928-.468-4.477-2.497-7.887-4.51-3.41-2.012-8-4.693-10.2-5.958-2.2-1.265-4.27-2.47-4.6-2.678-.33-.209-.96-.547-1.4-.753-.44-.206-1.61-.925-2.6-1.597-.99-.673-1.938-1.224-2.107-1.225-.169-.001-1.609-.785-3.2-1.741-2.617-1.574-11.902-6.975-14.893-8.663a178.52 178.52 0 0 1-3.907-2.338c-1.489-.913-2.843-1.66-3.009-1.66-.166 0-1.204-.585-2.307-1.3a69.186 69.186 0 0 0-3.791-2.27 71.035 71.035 0 0 1-3.386-1.986 53.12 53.12 0 0 0-3.4-1.944c-1.798-.927-2.34-1.243-7.471-4.355-1.501-.91-3.989-2.33-5.529-3.154-1.54-.825-3.7-2.077-4.8-2.782-1.1-.706-2.9-1.804-4-2.441-1.1-.637-2.36-1.378-2.8-1.647-.44-.269-1.07-.615-1.4-.768-.33-.153-3.12-1.75-6.2-3.549-5.768-3.369-8.931-5.004-9.683-5.004-.403 0-1.127-1.84-.983-2.5.036-.165-.133-.3-.377-.3-.243 0-.339.27-.212.6m270.72 43.722c.113 5.98.231 7.13.735 7.168.722.055.915-13.458.2-13.984-.956-.702-1.063.074-.935 6.816m.435 7.943c-.654.264-.643 1.195.016 1.448.323.123.547-.161.596-.758.043-.525.036-.941-.016-.923-.053.017-.321.122-.596.233m-.24 10.838c-.297.481-.104 5.302.2 4.984.368-.387.613-5.289.264-5.288-.152.001-.361.137-.464.304m3.015 9.322c.096.289.411.604.7.7.3.1.45-.05.35-.35-.096-.289-.411-.604-.7-.7-.3-.1-.45.05-.35.35m4.8 2c.096.289.411.604.7.7.3.1.45-.05.35-.35-.096-.289-.411-.604-.7-.7-.3-.1-.45.05-.35.35M229.3 173.469c-1.171.463-.546 20.131.64 20.131.197 0 2.384 1.17 4.86 2.6 2.476 1.43 4.599 2.6 4.719 2.6.12 0 .502.25.85.556.873.768 7.553 4.244 8.157 4.244.271 0 1.449.63 2.618 1.4 1.169.77 2.277 1.4 2.462 1.4.185 0 .583.225.885.5.536.49 2.533 1.64 5.691 3.279.871.451 1.829 1.046 2.129 1.321.3.275.772.5 1.048.5.6 0 2.241 1.672 2.241 2.283 0 .501 1.123 1.012 1.591.723.175-.109.541.071.813.398.272.328.664.596.873.596.208 0 1.164.54 2.123 1.2 3.059 2.105 3 2.283 3-9.051 0-10.468.355-9.578-5-12.551-1.76-.978-3.503-1.962-3.874-2.188-1.974-1.2-5.588-3.28-7.526-4.33-1.21-.656-2.47-1.398-2.8-1.649-.33-.251-1.41-.883-2.4-1.405a49.967 49.967 0 0 1-3.533-2.096c-.953-.631-2.483-1.526-3.4-1.988-.917-.463-4.457-2.504-7.867-4.536-6.318-3.766-7.417-4.287-8.3-3.937m106.967 9.198c-.434.433-.31 6.133.133 6.133.22 0 .4-.864.4-1.92s.174-2.094.387-2.307c.213-.213.282-.789.153-1.28-.236-.905-.589-1.111-1.073-.626m-18.851 4.108c-.128.206-1.354.93-2.724 1.608-1.371.678-3.032 1.587-3.692 2.019-.66.432-1.646.98-2.192 1.217-.545.237-1.085.558-1.2.714-.114.156-.658.512-1.208.791-2.821 1.432-5.085 3.124-4.699 3.511.322.322 1.547-.222 4.099-1.818 4.782-2.992 8.658-5.216 9.135-5.244.769-.044 4.404-2.189 4.574-2.699.188-.565-1.749-.657-2.093-.099M336 201.567c0 6.211.086 7.233.609 7.233.818 0 .711-14.028-.109-14.3-.388-.129-.5 1.458-.5 7.067M64.184 231.225c-.127.206-.041.375.192.375.278 0 .435 2.034.456 5.9.017 3.245.122 5.674.234 5.398.337-.838.934-.127.934 1.113 0 .881-.149 1.107-.613.929-.516-.199-.595.163-.505 2.312.058 1.402.031 4.438-.061 6.748l-.168 4.2-.253-3.2-.253-3.2-.074 3.632c-.071 3.53-.048 3.631.827 3.6.802-.029.902.164.921 1.768.02 1.77-.786 3.392-1.474 2.967-.191-.118-.313 1.641-.271 3.909l.075 4.124.249-3.6c.137-1.98.283-2.936.324-2.124.042.812.284 1.605.538 1.762.275.171.353.111.193-.149-.147-.238-.085-.547.138-.685.263-.162.407.898.407 2.996s-.144 3.158-.407 2.996c-.223-.138-.302-.419-.176-.624.127-.204.092-.595-.076-.868-.208-.336-.388-.175-.559.5-.139.548-.417.966-.617.93-.201-.037-.392.391-.426.952-.033.56-.303 1.172-.6 1.36-.36.229-.094.344.804.348 1.03.005 1.289-.133 1.112-.594-.135-.352-.005-.6.314-.6 1.119 0 1.137 2.01.028 3.038-1.264 1.172-2.378 1.226-3.29.162-.377-.44-.815-.8-.974-.8-.79 0-.375 23.533.42 23.785.425.135.874.509.997.83.124.322.681.585 1.237.585 1.054 0 1.428.97.513 1.33-.275.108.202.095 1.06-.029 1.129-.163 1.682-.058 2.002.379.242.332.869.739 1.392.906.657.208.798.396.456.608-.304.187.294.495 1.547.796 1.124.269 2.043.652 2.043.85 0 .198.627.36 1.394.36.849 0 2.157.469 3.344 1.2 1.073.66 2.07 1.2 2.216 1.2.146 0 2.599 1.372 5.452 3.049 4.833 2.841 8.988 4.313 8.765 3.105a3.646 3.646 0 0 1-.018-.833c.052-.527 3.211-2.227 4.947-2.661.605-.151 1.1-.452 1.1-.668 0-.651 1.896-.44 2.157.241.557 1.45.257 2.184-.991 2.434-.679.136-1.329.491-1.443.79-.115.299-.522.543-.906.543-5.327 0-4.346 2.418 2.583 6.365 6.143 3.499 5.785 3.29 12.068 7.046 5.96 3.563 8.483 4.294 9.711 2.815.262-.316 1.004-.69 1.649-.832.644-.142 1.172-.397 1.172-.568 0-.171.585-.477 1.3-.681.825-.235 1.653-.913 2.267-1.858.532-.818 1.286-1.487 1.676-1.487.391 0 .806-.156.924-.346.818-1.324 3.833 1.302 3.833 3.338 0 2.951 3.95 7.515 5.2 6.008.274-.33.701-.6.949-.6s.936-.608 1.529-1.351c.593-.743 1.583-1.477 2.2-1.631.617-.154 1.392-.508 1.722-.787.33-.279 2.22-1.447 4.2-2.596s3.87-2.258 4.2-2.465c.33-.207 1.005-.583 1.5-.837 1.138-.583 1.134-1.231-.016-2.924l-.916-1.348-3.984 1.825a533.695 533.695 0 0 0-7.679 3.605c-4.098 1.974-5.377 1.981-6.472.04-.886-1.572-.402-2.066 4.231-4.315 8.683-4.214 11.529-5.707 12.608-6.615.605-.509 1.871-1.051 2.814-1.204.943-.152 3.767-1.261 6.277-2.465 5.016-2.405 6.026-2.489 6.822-.569.964 2.328.829 2.448-6.66 5.897l-2.474 1.14.732 1.8c2.643 6.498 3.307 8.838 2.702 9.525-.685.777-1.485 4.227-1.484 6.395 0 1.372.138 1.546 1.9 2.382 1.044.496 3.609 1.976 5.699 3.288 2.09 1.311 3.914 2.39 4.053 2.397.138.007 2.725 1.453 5.747 3.213s5.593 3.2 5.714 3.2c.12 0 1.584.851 3.252 1.892 1.669 1.04 4.114 2.454 5.434 3.141 1.32.687 2.958 1.578 3.64 1.981 1.235.729 1.251.726 3.4-.423l4.814-2.573c3.671-1.961 7.679-4.243 10.669-6.073 1.388-.85 2.658-1.545 2.822-1.545.165 0 .92-.46 1.677-1.021.758-.562 2.403-1.544 3.655-2.182 2.697-1.376 3.4-1.78 6.077-3.497 1.115-.715 2.188-1.3 2.385-1.3.403 0 3.985-2.101 7.861-4.61 1.43-.926 3.055-1.843 3.611-2.037.845-.295 3.105-1.571 8.989-5.076a133.6 133.6 0 0 0 2.514-1.573c.943-.603 2.15-1.205 2.684-1.339.533-.134 1.179-.496 1.435-.804.256-.309.622-.561.815-.561.193 0 1.206-.603 2.251-1.339 1.046-.736 2.171-1.457 2.501-1.602.33-.144 1.5-.803 2.6-1.464 1.1-.661 2.571-1.467 3.268-1.791.698-.323 2.062-1.124 3.032-1.778a48.09 48.09 0 0 1 3.731-2.226c1.083-.57 2.509-1.385 3.169-1.812.66-.427 1.639-.967 2.176-1.201 1.167-.508 6.776-3.849 10.503-6.257 1.473-.951 2.825-1.73 3.005-1.73.18 0 1.224-.595 2.321-1.323a52.75 52.75 0 0 1 4.166-2.441c2.957-1.523 3.728-1.958 4.429-2.5.33-.256 1.991-1.183 3.692-2.06s4.219-2.364 5.596-3.304c3.436-2.345 7.164-3.972 9.103-3.972 1.223 0 1.609-.157 1.609-.654 0-.545.299-.614 1.783-.41 1.657.227 3.129-.432 1.888-.846-.695-.231-.573-.89.165-.89.35 0 1.144-.48 1.766-1.067l1.13-1.066.044-8.763c.03-5.897-.09-8.681-.366-8.51-.225.139-.41.523-.41.853 0 .33-.18.489-.4.353-.524-.324-.505.054.086 1.688.386 1.067.382 1.511-.02 2.154-.574.919-.586 7.958-.013 7.958.583 0 .387 1.144-.342 1.995-.379.443-.897.805-1.151.805s-.686.27-.96.6c-.274.33-.911.6-1.417.6-.505 0-1.428.263-2.051.584-4.862 2.508-7.647 3.317-8.007 2.326-.142-.391-.763-1.359-1.379-2.152-1.811-2.329-2.119-3.503-1.041-3.969.492-.213 1.21-.568 1.595-.788l1.4-.802c.385-.22 1.15-.59 1.7-.821 2.166-.909 4.405-2.063 4.593-2.367.109-.176.785-.432 1.503-.568 2.009-.382 3.327-2.874 2.449-4.633-.911-1.827-1.697-1.913-4.145-.454-.603.359-7.334 3.553-10.924 5.183-1.106.502-2.157.744-2.472.567-.53-.296-.604-.456-.604-1.306 0-.707-1.573-.427-2.433.433-2.347 2.347-2.175 5.002.51 7.885 5.429 5.827 5.925 9.682 1.248 9.682-1.687 0-4.525 1.05-4.525 1.674 0 .179-.287.326-.638.326-.351 0-1.116.239-1.7.531-3.892 1.944-3.422 1.905-4.474.37-.54-.788-.948-1.969-.948-2.743 0-.848-.195-1.358-.52-1.358-.286 0-.52.27-.52.6 0 1.081-2.577.724-4.594-.638-2.134-1.44-2.479-1.304-3.843 1.514-.482.997-1.481 2.604-2.22 3.571-.739.968-1.346 1.983-1.35 2.256-.004.274-.409.882-.9 1.353-.491.47-1.518 1.91-2.282 3.2-.764 1.289-2.249 3.48-3.3 4.868-1.051 1.388-1.911 2.692-1.911 2.896 0 1.313-5.976 7.58-7.227 7.58-.403 0-.877.229-1.053.508-.176.28-.77.732-1.32 1.005-.55.272-1.54.852-2.2 1.287-.66.435-1.47.918-1.8 1.073-.33.155-1.431.877-2.448 1.604-1.016.728-2.119 1.323-2.451 1.323-.332 0-.827.27-1.101.6-.274.33-.737.6-1.029.6-.292 0-1.305.518-2.251 1.152-.946.633-2.71 1.659-3.92 2.279-1.21.621-2.29 1.227-2.4 1.349-.348.383-1.754 1.215-3.1 1.833-.715.329-1.3.775-1.3.992 0 .867-2.019.391-2.461-.579-.825-1.811-1.296-1.501 11.861-7.815 1.98-.95 4.339-2.331 5.241-3.069.903-.738 2.058-1.342 2.568-1.342.51 0 2.112-.524 3.559-1.165a462.38 462.38 0 0 1 3.232-1.419c4.318-1.831 4.759-2.927 1.657-4.116-3.584-1.373-7.174-.321-10.218 2.994-1.21 1.318-3.074 1.908-7.039 2.226-.55.044-1.129.395-1.287.78-.158.385-.64.7-1.072.7-.431 0-1.054.27-1.384.6-.33.33-.779.6-.997.6-.559 0-7.031 3.326-7.193 3.696-.316.72-2.467.308-2.467-.472 0-.427-.168-.881-.373-1.007-.205-.127-.88-1.235-1.5-2.462-1.291-2.555-1.569-2.751-4.411-3.113-3.816-.486-5.233.508-2.997 2.101.616.438 1.624 1.793 2.24 3.012.617 1.218 1.463 2.609 1.881 3.091 1.827 2.107.824 3.68-2.64 4.141-1.919.255-5.984 1.94-6.432 2.665-.118.191-.582.348-1.03.348-.448 0-1.335.307-1.971.683-1.307.772-1.942.326-2.825-1.983-.231-.605-.583-1.1-.781-1.1-.199 0-.361-.326-.361-.724 0-.397-.264-1.072-.587-1.5-.82-1.083-.82-1.084 1.251-1.976 7.428-3.2 8.423-4.144 7.164-6.798-.817-1.722-2.565-2.205-4.144-1.145-.596.4-2.555 1.478-4.353 2.396l-3.269 1.67-1.707-2.661c-.938-1.464-1.892-2.787-2.119-2.94-.516-.348-.339-.505 1.164-1.036l1.2-.423-1.12-.031c-.616-.018-1.658-.31-2.315-.65-1.283-.664-2.093-.367-7.565 2.774-2.723 1.563-2.86 1.606-3.554 1.114-.355-.252-1.186-.73-1.846-1.063-.66-.333-1.74-.963-2.4-1.4-.66-.437-1.56-.977-2-1.2-.44-.223-1.97-1.145-3.4-2.049-1.43-.904-2.96-1.812-3.4-2.018-.44-.206-1.25-.634-1.8-.951-1.096-.632-4-.802-4-.234 0 .196-.639.476-1.421.623-.782.146-1.521.526-1.643.844-.599 1.562-3.513-.057-3.081-1.712.226-.862 2.316-1.899 2.989-1.483.194.12.563-.243.819-.806.257-.563.393-1.069.302-1.124a70.56 70.56 0 0 1-1.365-.933c-.66-.459-2.274-1.431-3.588-2.16-1.313-.729-4.103-2.44-6.2-3.802-2.096-1.362-4.69-2.985-5.762-3.607l-1.951-1.13 1.351 1.987c4.454 6.556 4.492 6.266-1.242 9.583-3.964 2.293-4.436 2.777-3.557 3.656 2.027 2.027-2.57 4.567-4.828 2.667l-1.238-1.042-1.365 1.042c-.751.572-1.783 1.229-2.293 1.459-.969.436-1.491.742-4.127 2.415-3.079 1.955-6.558 3.559-7.19 3.316-.634-.243-8.21-12.564-8.21-13.352 0-.227-.45-.618-1-.869-.55-.25-1-.607-1-.791 0-.526-.799-.394-1.429.235-.879.88-.627 2.646.661 4.629.643.99 1.631 2.742 2.195 3.892.563 1.151 1.205 2.204 1.426 2.341.221.136.352.817.292 1.513s.055 1.53.255 1.853c2.257 3.652 2.481 4.544 1.282 5.091-1.072.488-1.823.055-2.584-1.49a36.565 36.565 0 0 0-.895-1.7l-.804-1.4a19.604 19.604 0 0 1-.79-1.6c-.214-.495-.574-.9-.799-.9-.226 0-.41-.235-.41-.522 0-2.957-8.965-7.088-12.117-5.582-3.684 1.758-3.815 1.779-4.515.712-.784-1.198-.636-1.455 1.404-2.432 2.39-1.146 2.109-1.838-1.643-4.049-3.922-2.31-6.454-4.575-6.261-5.598.143-.758 6.744-4.477 8.005-4.511.769-.021 2.327-2.021 2.327-2.987 0-.502.245-.587 1.1-.382 1.513.362 3.3 1.297 3.3 1.726 0 .196.636 1.316 1.413 2.49.777 1.174 1.842 3.035 2.367 4.135.569 1.192 1.453 2.292 2.187 2.723.678.397 1.233.965 1.233 1.262 0 .339.291.464.782.336.608-.159.741-.462.6-1.363l-.376-2.378c-.107-.671-.962-2.478-1.9-4.016-2.432-3.985-3.017-5.219-2.825-5.953.146-.559 3.395-2.424 4.206-2.414.567.006 11.079-5.218 11.336-5.635.146-.235.803-.754 1.461-1.155l1.197-.727-.941-.295c-.517-.162-1.369-.63-1.894-1.04-1.145-.894-3.587-.977-4.67-.158-.427.323-1.159.593-1.627.6-.468.007-1.06.265-1.316.574-.256.308-.908.672-1.449.807-.541.136-.984.424-.984.64 0 .215-.295.392-.656.392-.705 0-3.958 1.468-4.944 2.231-1.057.818-2.836.944-3.102.22-.132-.358-.701-1.371-1.264-2.251-1.921-3-2.344-4.6-1.217-4.6.204 0 2.29-.928 4.637-2.063 4.143-2.004 7.047-2.607 7.722-1.605.123.182 1.214.857 2.424 1.5 1.21.642 2.325 1.343 2.478 1.556.153.214.395.272.538.129.289-.288-2.153-1.921-5.222-3.491-5.908-3.022-15.337-8.947-15.531-9.759-.114-.477-.136-2.189-.048-3.806.124-2.271.05-2.851-.327-2.554-.908.714-6.481 3.555-7.477 3.811-2.462.632-3.813-2.902-1.511-3.952.715-.326 2.2-1.125 3.3-1.776 2.217-1.311 3.172-1.288 5.176.128l1.224.865-.643-.991c-.622-.96-2.376-2.033-8.064-4.933l-2.707-1.381-1.978.632c-2.703.865-5.92-.801-3.408-1.765 1.894-.727.69-1.963-5.375-5.515-5.186-3.037-7.027-3.354-5.81-1 .345.666.876 1.307 1.181 1.424.306.117.67.738.811 1.379.141.642.45 1.167.687 1.167.236 0 .122.34-.255.757-.876.967-2.171.652-2.487-.605-.131-.524-.354-.955-.495-.96-.142-.004-.797-.9-1.457-1.992s-1.335-1.988-1.5-1.992c-.165-.005-.3-.256-.3-.56 0-1.407-3.682-5.267-6.437-6.748-3.147-1.692-3.323-1.724-4.905-.899-.862.449-1.094.469-.944.079.229-.596-1.174-.829-1.53-.255m271.029 17.467c-.012 1.509-.132 1.723-1.113 1.967-2.044.509-3.494 1.587-4.803 3.568-.716 1.085-1.481 2.033-1.7 2.106-.218.074-.397.349-.397.611 0 .263-.36.786-.8 1.163-.831.712-1.049 1.692-.458 2.057.187.116.535-.215.772-.735.655-1.437 2.876-2.893 4.886-3.205 3.639-.564 3.387-.727 3.518 2.276.092 2.102.882 4.141.882 2.276 0-.233.18-.312.4-.176.26.16.4-1.785.4-5.544 0-3.185.119-6.1.264-6.478.185-.483.096-.631-.3-.497-.31.104-.783-.097-1.051-.446-.407-.53-.49-.355-.5 1.057m-246.897-.036c1.064.285 2.084 2.412 2.084 4.344 0 .716.27 1.526.6 1.8.33.274.6.643.6.821 0 .794 1.917 3.149 3.08 3.784 1.303.712 1.439 1.04 1.909 4.628.207 1.583.422 1.919 1.58 2.472.867.413 1.772 1.39 2.563 2.767.673 1.17 1.683 2.748 2.245 3.506.563.757 1.023 1.882 1.023 2.5 0 .617.18 1.122.4 1.122.22 0 .4.236.4.525 0 .289.529 1.032 1.176 1.652 1.724 1.652 4.824 7.187 4.824 8.614 0 .665.18 1.209.4 1.209.22 0 .4.27.4.6 0 .33-.18.6-.4.6-.22 0-.4-.141-.4-.313 0-.751-5.692-.496-7.002.314-.711.44-1.577.799-1.925.799-.348 0-.777.226-.953.502-.998 1.567-4.52 1.632-4.52.084 0-.284-.631-1.474-1.402-2.645-1.869-2.838-2.061-2.62 5.382-6.11 2.038-.956 2.427-2.136 1.249-3.791-1.441-2.022-3.946-1.695-9.078 1.187-1.845 1.037-2.392.976-2.913-.327-.242-.605-.798-1.64-1.235-2.3-2.115-3.195-2.054-3.94.376-4.594.892-.24 1.621-.61 1.621-.821 0-.212.205-.385.456-.385 2.349 0 5.332-3.113 4.585-4.785-.318-.713-.301-.995.067-1.118 1.175-.391.326-.739-1.608-.658-1.623.067-3.038.558-6.225 2.157-4.084 2.05-5.062 2.223-5.539.982-.362-.944 2.615-3.07 6.943-4.959 2.421-1.056 2.259-3.764-.438-7.321-1.16-1.53-5.841-1.744-5.841-.267 0 .203-.315.369-.7.37-.385 0-1.763.561-3.063 1.246l-2.363 1.246-.728-.946c-1.207-1.569-1.088-1.697 3.254-3.524.55-.232 1.27-.602 1.6-.822.33-.221 1.104-.58 1.719-.799.703-.249 1.333-.908 1.693-1.769.684-1.638 1.995-2.142 4.104-1.577M66 252.424c0 .453-.18.712-.4.576-.22-.136-.4-.507-.4-.824 0-.317.18-.576.4-.576.22 0 .4.371.4.824m-.117 3.671c-.096.498-.178.185-.182-.695-.005-.88.074-1.287.174-.905.1.383.104 1.103.008 1.6m5.865 2.805c.416 1.554.293 1.761-1.348 2.253-.88.263-1.6.614-1.6.778 0 .164-.54.34-1.2.39-1.149.088-1.2.024-1.2-1.515 0-1.261.151-1.607.7-1.612.385-.003 1.15-.255 1.7-.561 1.561-.866 2.671-.766 2.948.267m38.952 5.684c.495.149.9.397.9.551 0 .155.855.728 1.9 1.273 3.138 1.638 3.172 2.092.246 3.333-1.115.472-2.279 1.058-2.587 1.301-1.394 1.102-3.959.866-3.959-.365 0-.272-.63-1.452-1.4-2.621-1.684-2.556-1.812-3.656-.429-3.656.535 0 1.213-.241 1.508-.536.91-.91 1.695-.998 2.321-.258.33.39 1.005.83 1.5.978m-33.371 6.375c.146.381-.158.613-.96.731-1.515.222-1.803-.086-.667-.715 1.206-.667 1.377-.668 1.627-.016m258.561 3.534c-.089.719-.164.227-.166-1.093-.002-1.32.071-1.908.162-1.307.091.601.093 1.681.004 2.4M73.8 272.8c-1.093.469-1.4.469-1.4 0 0-.22.495-.387 1.1-.372.975.025 1.009.067.3.372m232.7 6.963c-.495.522-.9 1.14-.9 1.374 0 .233-.225.567-.5.743-.275.176-.815.92-1.2 1.652-1.054 2.006-.842 3.362.284 1.822.26-.355 1.36-1.133 2.444-1.728 2.103-1.155 2.485-1.951 1.8-3.752-.499-1.312-.774-1.328-1.928-.111m24.981 6.103c.185.483.11.576-.275.338-.36-.223-.434-.174-.232.154.228.368.429.371.862.012.732-.607.721-1.17-.023-1.17-.384 0-.499.231-.332.666m-71.217 23.157c.132.343.501.523.82.4.32-.123.757-.223.972-.223.215 0 .28-.18.144-.4-.43-.696-2.21-.491-1.936.223m3.836 1.253c.385.1 1.015.1 1.4 0 .385-.101.07-.183-.7-.183s-1.085.082-.7.183m-25.493 4.217c-.855 1.938-.547 2.308.982 1.179.648-.48 1.715-.872 2.371-.872 1.999 0 1.732-.643-.527-1.272l-2.138-.595-.688 1.56M216.2 315.6c1.124.483 5.702.483 6 0 .158-.256-1.022-.39-3.276-.372-2.341.019-3.255.144-2.724.372m28.8 0c.136.22.946.4 1.8.4.854 0 1.664-.18 1.8-.4.153-.247-.537-.4-1.8-.4s-1.953.153-1.8.4m5.6 1.2c.136.22.822.397 1.524.394.971-.005 1.133-.099.676-.394-.793-.513-2.517-.513-2.2 0m-11.378 14.412c3.017 1.614 2.14 3.228-3.222 5.937-1.87.944-3.94 2.05-4.6 2.458-4.514 2.787-4.977 2.832-6.196.601-1.188-2.176-1.348-1.995 4.2-4.747 2.422-1.202 4.744-2.562 5.162-3.023.417-.461 1.079-.838 1.472-.838s.826-.18.962-.4c.318-.515 1.247-.51 2.222.012M127.6 332.723c-3.712 1.817-3.357 2.496 3.121 5.957 3.282 1.754 4.094.81 3.039-3.529-.948-3.902-2.167-4.382-6.16-2.428m41.68 1.577c.332.385 1.125 1.645 1.762 2.8.637 1.154 1.293 2.099 1.458 2.1.165 0 .3.534.3 1.187 0 .975-.126 1.136-.703.9-1.783-.728-3.303-1.936-3.729-2.963-.256-.618-.615-1.124-.798-1.124-.44 0-.924-2.627-.586-3.174.403-.652 1.622-.507 2.296.274m51.379 11.011c-.443.391-1.223.815-1.733.943-.509.128-.926.483-.926.789 0 .329-.414.557-1.013.557-.556 0-1.116.27-1.242.6-.396 1.032-2.145.756-2.145-.338 0-.516-.36-1.264-.8-1.662-1.444-1.306-1.026-1.739 3.6-3.724 2.921-1.253 2.915-1.254 4.027.493 1.038 1.63 1.039 1.632.232 2.342m-137.225-1.168c.153.4.666.639 1.309.611.834-.037.888-.088.257-.243-.44-.109-1.029-.383-1.309-.611-.384-.311-.447-.251-.257.243m124.166 3.938c0 .484.575 1.474 1.278 2.2.974 1.004 1.117 1.319.6 1.319-.373 0-.678.27-.678.6 0 .33-.347.6-.771.6-.425 0-1.033.261-1.352.58-.319.319-1.067.703-1.661.852-.594.149-1.175.518-1.291.819-.116.302-.649.549-1.185.549-.958 0-.972-.05-.857-3.1l.117-3.1 1.6-.772c.88-.424 1.66-.919 1.733-1.1.331-.813 2.467-.334 2.467.553m-67.604 6.115c.5.602 1.204.473 1.204-.22 0-.207-.382-.376-.849-.376-.706 0-.766.1-.355.596m-2.931.098c-.141.228.016.641.349.918.821.681 1.102.3.443-.602-.328-.448-.634-.57-.792-.316M117.884 364c-.131.5-.012.8.316.8s.447-.3.316-.8c-.115-.44-.257-.8-.316-.8s-.201.36-.316.8" fill="#a24b4b"/></g></svg>