<svg width="20" height="22" fill="none" xmlns="http://www.w3.org/2000/svg"><path d="m12.53 10.08 1.649-2.741 4.445 6.783.002 1.301-.015-8.957a.673.673 0 0 0-.318-.537l-8.002-4.51a.718.718 0 0 0-.684.043l-.027.017-7.768 4.41-.03.014a.67.67 0 0 0-.401.573l.012 7.299 4.14-6.287C6.054 6.654 7.19 6.386 8.244 6.4l1.237.032-7.29 11.456.86.484 7.377-11.928 3.261-.012-7.359 12.23 3.067 1.728.366.207a.717.717 0 0 0 .494.01l8.115-4.608-1.551.88-4.291-6.799zm.629 8.879-3.097-4.763 1.89-3.144 4.068 6.282-2.861 1.625z" fill="#2D374B"/><path d="m10.062 14.195 3.097 4.763 2.861-1.624-4.068-6.282-1.89 3.143zm8.564 1.228-.002-1.302-4.445-6.782-1.65 2.741 4.292 6.8 1.551-.882a.67.67 0 0 0 .254-.49v-.085z" fill="#28A0F0"/><path d="m0 16.65 2.19 1.238L9.482 6.432 8.244 6.4c-1.054-.014-2.19.254-2.711 1.088l-4.14 6.287L0 15.872v.779zM13.69 6.432l-3.262.012L3.05 18.372l2.58 1.455.7-1.165 7.36-12.23z" fill="#fff"/><path d="M20 6.416a2.028 2.028 0 0 0-.975-1.636L10.918.212a2.148 2.148 0 0 0-1.86 0C8.99.245 1.174 4.687 1.174 4.687c-.108.05-.213.11-.31.18A2.01 2.01 0 0 0 0 6.412v9.46l1.393-2.097-.012-7.3a.67.67 0 0 1 .287-.507c.036-.026 7.986-4.534 8.011-4.546a.718.718 0 0 1 .611-.003l8.003 4.51c.19.118.308.318.318.537v9.042a.654.654 0 0 1-.239.49l-1.551.881-.8.455-2.862 1.625-2.902 1.647a.717.717 0 0 1-.494-.01L6.33 18.662l-.7 1.165 3.084 1.74a51.098 51.098 0 0 0 .49.268c.219.104.534.165.819.165a2.1 2.1 0 0 0 .755-.14l8.428-4.781c.484-.367.768-.921.794-1.521V6.416z" fill="#96BEDC"/></svg>