<svg fill="none" xmlns="http://www.w3.org/2000/svg" viewBox="0 0 1004 177"><path d="M29.42 27.011 76.217 0l46.797 27.011-17.205 9.98-29.592-17.034L46.625 36.99 29.42 27.011Zm93.594 34.066-17.205-9.979-29.592 17.033-29.592-17.033-17.205 9.979v19.957l29.592 17.033v34.065l17.205 9.979 17.205-9.979V98.067l29.592-17.033V61.077Zm0 54.023V95.142l-17.205 9.979v19.957l17.205-9.978Zm12.215 7.054-29.592 17.032v19.958l46.797-27.012V78.109l-17.205 9.98v34.065Zm-17.204-78.11 17.204 9.979V73.98l17.205-9.979V44.044l-17.205-9.979-17.204 9.98ZM59.012 146.412v19.958l17.205 9.978 17.205-9.978v-19.958l-17.205 9.979-17.205-9.979ZM29.42 115.1l17.205 9.978v-19.957L29.42 95.142V115.1Zm29.592-71.056 17.205 9.979 17.205-9.979-17.205-9.979-17.205 9.98Zm-41.807 9.979 17.204-9.979-17.204-9.979L0 44.045V64l17.205 9.98V54.022Zm0 34.065L0 78.11v54.023l46.797 27.012v-19.958l-29.592-17.032V88.088Zm270.867 22.582v-.281c0-13.18-7.01-19.769-18.367-24.115 7.01-3.926 12.899-10.095 12.899-21.17v-.281c0-15.423-12.338-25.377-32.387-25.377h-45.566v98.143h46.688c22.152 0 36.733-8.973 36.733-26.919Zm-26.919-41.921c0 7.29-6.029 10.375-15.563 10.375h-19.909v-20.75h21.311c9.113 0 14.161 3.645 14.161 10.094v.28Zm5.468 39.257c0 7.29-5.749 10.655-15.282 10.655h-25.658V97.07h24.956c11.077 0 15.984 4.066 15.984 10.655v.281Zm127.821 29.583V39.446h-21.311v60.428l-45.987-60.428h-19.909v98.143h21.311V75.198l47.529 62.391h18.367Zm108.383-26.919v-.281c0-13.18-7.01-19.769-18.366-24.115 7.01-3.926 12.899-10.095 12.899-21.17v-.281c0-15.423-12.339-25.377-32.388-25.377h-45.566v98.143h46.688c22.152 0 36.733-8.973 36.733-26.919Zm-26.919-41.921c0 7.29-6.029 10.375-15.562 10.375h-19.909v-20.75h21.311c9.113 0 14.16 3.645 14.16 10.094v.28Zm5.468 39.257c0 7.29-5.748 10.655-15.282 10.655h-25.657V97.07h24.956c11.076 0 15.983 4.066 15.983 10.655v.281Zm151.58 12.245-11.077-11.216c-8.412 7.851-16.123 12.759-28.181 12.759-18.787 0-32.387-15.703-32.387-35.051 0-19.349 13.6-34.771 32.387-34.771 11.217 0 19.629 4.907 27.48 12.198l11.077-12.759c-9.394-8.973-20.33-15.282-38.416-15.282-29.724 0-50.614 22.853-50.614 50.894 0 28.321 21.311 50.614 49.913 50.614 18.366 0 29.583-6.73 39.818-17.386Zm83.601-25.657v41.36H733.8V37.811h-17.245v40.8h-46.828v-40.8h-17.246v98.143h17.246v-41.36h46.828ZM811.16 37.11h-15.984l-43.182 98.844h17.665l10.095-23.694h46.408l9.954 23.694h18.227L811.16 37.11Zm8.692 59.868h-33.789l16.825-39.258 16.964 39.258Zm53.704-59.167v98.143h17.245V37.811h-17.245Zm113.479 67.859-52.577-67.859h-15.983v98.143h16.965V66.132l54.119 69.822H1004V37.811h-16.965v67.859Z" fill="#F0B90B"/></svg>