<svg xmlns="http://www.w3.org/2000/svg" width="400" height="400"><g fill-rule="evenodd"><path d="M332.372 67.872c-.534.679-.518.689.228.15.732-.529.749-.523.2.073-.485.525-1.639.675-6 .778-4.737.111-5.401.21-5.405.799-.008 1.017-.253 1.116-2.925 1.177-1.358.03-2.47.223-2.47.427s-.16.273-.355.152c-.195-.12-.448.139-.562.576-.186.71-1.406 1.073-2.804.836-.418-.071-1.479.992-1.479 1.481 0 .313-1.51.846-2.932 1.035-.183.024-.543.325-.8.669-.258.343-.786.744-1.174.89-.388.145-.879.719-1.09 1.275-.226.595-.699 1.01-1.151 1.01-.484 0-.859.369-1.017 1-.183.729-.519 1-1.239 1-.777 0-.967.186-.892.871.069.637-.174.937-.905 1.117-.627.153-1.048.574-1.128 1.128-.092.634-.402.884-1.1.884-.77 0-.972.208-.972 1 0 .793-.202 1-.973 1-.765 0-1.001.236-1.1 1.1-.076.655-.37 1.1-.727 1.1-.788 0-1.186.582-1.194 1.743-.004.663-.18.876-.593.717-.323-.124-.711-.025-.862.219-.176.285-.073.34.287.153.383-.199.367-.123-.052.238-.337.292-.653 1.056-.701 1.698-.101 1.355-.173 1.457-1.115 1.595-.739.109-.878.561-1.028 3.337-.095 1.757-.469 2.187-.909 1.043-.307-.802-.743-.435-.911.767-.076.543-.002.701.191.406.23-.354.632-.23 1.501.466l1.186.95-.09 6.134c-.125 8.429.602 21.919 1.306 24.241.316 1.041.777 3.423 1.025 5.293.249 1.87.701 3.886 1.006 4.48.304.594.809 2.179 1.123 3.523.313 1.343.745 2.657.959 2.92.214.262.67 1.429 1.013 2.592.343 1.164.992 2.583 1.441 3.154.449.571.817 1.253.817 1.514 0 .261.535 1.182 1.189 2.046.654.864 1.194 1.698 1.2 1.853.006.155.445.756.976 1.335.53.58 1.115 1.227 1.3 1.439 1.024 1.176 4.503 4.076 5.535 4.615.66.344 1.47.851 1.8 1.127.33.275 1.32.726 2.2 1.002.88.276 1.87.726 2.2 1 .33.274 1.32.623 2.2.775.88.152 2.32.614 3.2 1.025.88.412 2.77 1.046 4.2 1.41 1.43.364 2.78.799 3 .968 1.493 1.144 7.672 1.621 8.055.622.127-.33.64-.6 1.141-.6.944 0 1.388-.874 1.399-2.753.003-.524.338-1.244.745-1.6.406-.356.862-1.309 1.012-2.117.15-.809.714-1.889 1.254-2.4.612-.581.983-1.382.987-2.134.005-.773.299-1.386.823-1.713.448-.28.707-.683.576-.896-.132-.213-.049-.387.184-.387.233 0 .403-.135.377-.3-.214-1.355.107-2.911.547-2.647.34.204.324.084-.049-.376-.302-.372-.437-.699-.3-.727.137-.027.436-.072.664-.1 1.211-.146 1.57-3.017.608-4.87-.873-1.684-.624-2.599 2.658-9.78l1.736-3.8c1.019-2.229 2.381-5.242 3.935-8.703a747.336 747.336 0 0 1 4.145-9.097c.664-1.43 1.34-3.05 1.502-3.6.163-.55.518-1.27.79-1.6.273-.33.828-1.549 1.235-2.708.949-2.704 2.73-4.892 3.982-4.892.521 0 1.061-.185 1.201-.411.139-.225.534-.36.878-.3.641.114.736-.088 1.176-2.489.14-.77.601-1.701 1.024-2.07.422-.368.779-.818.792-1 .014-.181.077-.51.141-.73.063-.22.225-.902.36-1.516.135-.614.407-1.017.605-.895.544.337 1.035-1.471 1.166-4.289.032-.688.275-1.1.651-1.1.33 0 .6-.191.6-.424 0-.233.145-.333.323-.223.178.109.368-.55.422-1.465.109-1.86.23-2.076 1.162-2.083.483-.004.681-.457.769-1.761.127-1.875.75-2.999 1.431-2.578.242.15.297.064.131-.204-.157-.254-.13-.462.06-.462s.39-.752.444-1.671c.063-1.059.382-1.916.871-2.34.425-.369.656-.787.513-.93-.143-.142-.049-.259.207-.259.265 0 .467-.593.467-1.371 0-.986.281-1.592 1-2.158 1.074-.844 1.575-6.471.576-6.471-.233 0-.325-.16-.204-.355.538-.87-.952-1.35-2.019-.651-.578.379-.929.49-.779.247.198-.319-5.872-.443-22.05-.446-12.278-.003-22.697-.106-23.152-.228-.527-.142-1.036.042-1.4.505" fill="#2ea69f"/><path d="M0 48.587c0 3.76.107 4.613.579 4.613.417 0 .613.589.7 2.1.099 1.717.282 2.171 1.003 2.487.691.303.907.779 1 2.2.092 1.421.309 1.897 1 2.2.691.303.907.779 1 2.2.1 1.532.257 1.833 1.018 1.941.794.113.9.359.9 2.092 0 1.751.106 1.991.98 2.211.839.21.997.512 1.1 2.107.108 1.682.223 1.874 1.183 1.985.992.115 1.058.247 1 2-.056 1.665.039 1.891.837 2.005.777.11.9.367.9 1.884 0 1.37.225 1.964 1.024 2.705.706.655 1.109 1.558 1.301 2.916.211 1.487.493 2.061 1.159 2.354.688.303.905.781.998 2.2.092 1.421.309 1.897 1 2.2.691.303.907.779 1 2.2.1 1.532.257 1.833 1.018 1.941.794.113.9.359.9 2.092 0 1.751.106 1.991.98 2.211.839.21.997.512 1.1 2.107.101 1.568.259 1.882.999 1.987.742.106.898.419 1 2 .11 1.708.218 1.886 1.21 2 1.045.121 1.079.196.846 1.9-.215 1.568-.127 1.866.757 2.562.733.576 1.073 1.326 1.269 2.8.2 1.51.507 2.17 1.231 2.645.718.47.996 1.059 1.087 2.3.092 1.269.332 1.761 1.003 2.055.691.303.907.779 1 2.2.1 1.532.257 1.833 1.018 1.941.791.112.9.361.9 2.056 0 1.713.11 1.957.978 2.175.841.211.995.511 1.1 2.143.103 1.605.258 1.917 1.001 2.023.742.106.898.419 1 2 .103 1.596.255 1.894 1.021 2.003.782.111.9.365.9 1.936 0 1.932 1.424 3.827 2.105 2.8.168-.255.195.274.059 1.176-.247 1.636.608 4.16 1.409 4.16.193 0 .476.901.627 2.002.228 1.656.438 2.043 1.217 2.238.796.2.961.525 1.063 2.098.102 1.582.255 1.881 1.02 1.99.791.112.9.361.9 2.056 0 1.713.11 1.957.978 2.175.841.211.995.511 1.1 2.143.104 1.619.254 1.917 1.022 2.026.794.113.9.359.9 2.1 0 1.837.069 1.972 1 1.972.933 0 1 .133 1 2 0 1.398.16 2 .532 2 .688 0 1.347 1.38 1.624 3.4.121.88.559 1.878.974 2.217.432.354.874 1.413 1.034 2.48.195 1.302.501 1.933 1.017 2.097.503.16.847.833 1.081 2.12.277 1.522.516 1.911 1.24 2.014.792.113.898.361.898 2.1 0 1.826.073 1.972.979 1.972.899 0 .989.172 1.1 2.1.105 1.829.237 2.116 1.021 2.228.794.113.9.359.9 2.1 0 1.837.069 1.972 1 1.972.933 0 1 .133 1 2 0 1.398.16 2 .532 2 .686 0 1.345 1.377 1.627 3.399.222 1.594 1.214 2.788 1.943 2.338.227-.14.276.103.119.595-.415 1.31.16 3.57.963 3.78.496.129.795.757.994 2.082.208 1.384.491 1.951 1.045 2.096.566.148.828.7 1.021 2.155.226 1.703.378 1.955 1.187 1.955.837 0 .939.205 1.048 2.1.105 1.829.237 2.116 1.021 2.228.794.113.9.359.9 2.1 0 1.837.069 1.972 1 1.972.922 0 1 .144 1 1.842 0 1.461.196 1.997.947 2.587.673.53 1.007 1.288 1.158 2.625.137 1.212.495 2.105 1.009 2.513.493.392.899 1.357 1.066 2.533.253 1.785.539 2.092 1.836 1.975.119-.011.147.578.062 1.307-.174 1.49.476 3.018 1.285 3.018.339 0 .631.73.799 2 .21 1.583.42 2 1.005 2 .781 0 1.218 1.029 1.228 2.892.004.83.246 1.153 1.005 1.344.896.225 1 .454 1 2.207 0 1.821.07 1.957 1 1.957.922 0 1 .144 1 1.842 0 1.461.196 1.997.947 2.587.676.533 1.007 1.288 1.161 2.65.15 1.332.467 2.072 1.053 2.462.494.328.841.989.844 1.608.01 1.837.451 2.851 1.242 2.851.597 0 .753.296.753 1.426 0 1.825.619 2.974 1.602 2.974.524 0 .699.194.541.603-.458 1.194.239 3.397 1.075 3.397.585 0 .783.277.787 1.1.01 1.894.437 2.824 1.411 3.068.797.2.959.525 1.062 2.134.104 1.619.254 1.917 1.022 2.026.794.113.9.359.9 2.1 0 1.81.078 1.972.952 1.972.88 0 .965.185 1.131 2.472.143 1.975.353 2.587 1.048 3.048.6.399.869.986.869 1.896 0 1.825.358 2.584 1.221 2.584.593 0 .759.367.857 1.9.098 1.522.301 1.979 1.022 2.295.662.29.9.731.9 1.667 0 1.859.371 2.538 1.387 2.538.745 0 .869.173.712.993-.287 1.504.198 2.887 1.097 3.122.538.141.804.545.804 1.222 0 1.697.709 3.063 1.59 3.063.705 0 .81.259.81 2 0 1.84.076 2 .952 2 .88 0 .965.185 1.131 2.472.143 1.975.353 2.587 1.048 3.048.6.399.869.986.869 1.896 0 1.825.358 2.584 1.221 2.584.593 0 .759.367.857 1.9.097 1.509.303 1.98 1.004 2.287.691.303.907.779 1 2.2.099 1.519.261 1.833.997 1.938.741.106.898.419 1 1.998.106 1.634.249 1.899 1.121 2.075.746.151 1 .456 1 1.202 0 .996.018 1 4.2 1.117 5.879.163 6 .116 6-2.325 0-1.858.067-1.992 1-1.992.931 0 1-.135 1-1.972 0-1.741.106-1.987.9-2.1.765-.109.918-.408 1.02-1.99.103-1.595.261-1.897 1.1-2.107.874-.22.98-.46.98-2.211 0-1.733.106-1.979.9-2.092.761-.108.918-.409 1.018-1.941.093-1.421.309-1.897 1-2.2.634-.278.985-.922 1.249-2.287.202-1.045.512-1.9.69-1.9.615 0 1.543-2.368 1.543-3.937 0-1.348.145-1.613 1-1.827.897-.225 1-.454 1-2.216 0-1.733.106-1.979.9-2.092.766-.109.918-.407 1.021-2.003.102-1.581.258-1.894 1-2 .74-.105.898-.419.999-1.987.103-1.595.261-1.897 1.1-2.107.874-.22.98-.46.98-2.211 0-1.733.106-1.979.9-2.092.761-.108.918-.409 1.018-1.941.093-1.421.309-1.897 1-2.2.701-.307.907-.778 1.004-2.287.084-1.317.296-1.9.69-1.9.742 0 1.788-2.051 1.788-3.508 0-.726.368-1.467 1-2.017.747-.65 1-1.264 1-2.429 0-1.33.147-1.596 1-1.81.897-.225 1-.454 1-2.216 0-1.733.106-1.979.9-2.092.766-.109.918-.407 1.021-2.003.102-1.581.258-1.894 1-2 .745-.106.898-.418 1.002-2.044.103-1.61.28-1.978 1.1-2.29.834-.317.977-.631.977-2.153 0-1.544.12-1.799.9-1.91.77-.109.918-.406 1.023-2.049.087-1.364.319-1.994.8-2.171 1.029-.38 1.264-.935 1.271-3.008.003-1.045.152-1.9.331-1.9.928 0 2.075-1.724 2.075-3.121 0-1.161.198-1.576.9-1.884.721-.316.924-.773 1.022-2.295.084-1.311.297-1.9.686-1.9 1.536 0 1.703-3.32.191-3.8-.624-.199-.799-.606-.799-1.865 0-1.034-.322-2.059-.9-2.861-.495-.687-1.083-2.155-1.307-3.262-.329-1.625-.579-2.037-1.3-2.14-.783-.112-.893-.366-.893-2.056 0-1.713-.11-1.957-.978-2.175-.841-.211-.995-.511-1.1-2.143-.104-1.619-.254-1.917-1.022-2.026-.794-.113-.9-.359-.9-2.1 0-1.81-.078-1.972-.952-1.972-.88 0-.965-.186-1.13-2.459-.138-1.909-.373-2.618-1.048-3.165-.595-.482-.87-1.149-.87-2.112 0-1.331-.815-2.664-1.629-2.664-.204 0-.371-.615-.371-1.367 0-1.885-.353-2.633-1.243-2.633-.595 0-.757-.292-.757-1.367 0-1.885-.353-2.633-1.243-2.633-.625 0-.757-.299-.757-1.72 0-1.833-.525-2.68-1.661-2.68-.58 0-.721-.43-.82-2.5-.102-2.133-.249-2.557-1.001-2.887-.714-.313-.905-.771-1-2.4-.102-1.74-.24-2.03-1.018-2.141-.794-.113-.9-.359-.9-2.1 0-1.826-.073-1.972-.979-1.972-.899 0-.989-.172-1.1-2.1-.105-1.829-.237-2.116-1.021-2.228-.787-.112-.9-.363-.9-2.005 0-1.561-.151-1.944-.898-2.272-.493-.217-.932-.665-.974-.995-.52-4.054-.61-4.372-1.299-4.591-.519-.165-.803-.791-.987-2.175-.188-1.416-.457-1.997-.992-2.137-.532-.139-.79-.689-.938-2.002-.631-5.593-8.312-5.391-8.312.219 0 1.117-.246 1.757-.87 2.262-.675.547-.91 1.256-1.048 3.165-.165 2.273-.25 2.459-1.13 2.459-.865 0-.954.173-.977 1.9-.021 1.544-.094 1.731-.387 1-.199-.495-.618-.9-.93-.9-.368 0-.664-.649-.844-1.846-.194-1.294-.492-1.902-.998-2.034-.521-.136-.794-.734-.982-2.15-.217-1.636-.421-2.002-1.227-2.204-.824-.207-.984-.517-1.087-2.104-.102-1.582-.255-1.881-1.02-1.99-.794-.113-.9-.359-.9-2.1 0-1.81-.078-1.972-.952-1.972-.88 0-.965-.185-1.131-2.472-.143-1.975-.353-2.587-1.048-3.048a2.036 2.036 0 0 1-.874-1.629c-.009-1.738-.427-2.766-1.207-2.97-.547-.143-.77-.643-.863-1.937-.097-1.357-.325-1.832-1.025-2.139-.662-.29-.9-.731-.9-1.667 0-1.791-.366-2.538-1.243-2.538-.601 0-.757-.294-.757-1.426 0-1.701-.605-2.974-1.414-2.974-.416 0-.586-.46-.586-1.584 0-1.491-1.113-3.216-2.075-3.216-.179 0-.325-.887-.325-1.971 0-1.861-.681-3.229-1.607-3.229-.192 0-.404-.855-.471-1.9-.104-1.621-.254-1.919-1.022-2.028-.794-.113-.9-.359-.9-2.092 0-1.751-.106-1.991-.98-2.211-.839-.21-.997-.512-1.1-2.107-.101-1.568-.259-1.882-.999-1.987-.742-.106-.898-.419-1-2-.103-1.596-.255-1.894-1.021-2.003-.79-.112-.9-.361-.9-2.041 0-1.46-.225-2.157-.95-2.939-.561-.606-1.063-1.782-1.227-2.879-.217-1.447-.487-1.933-1.228-2.215-.789-.3-.97-.686-1.072-2.279-.105-1.641-.253-1.938-1.023-2.047-.794-.113-.9-.359-.9-2.1 0-1.826-.073-1.972-.979-1.972-.899 0-.989-.172-1.1-2.1-.105-1.814-.241-2.117-1-2.225-.742-.106-.898-.419-1-2-.101-1.563-.263-1.895-.974-1.997-.742-.106-.877-.442-1.031-2.571-.142-1.954-.353-2.567-1.047-3.027-.478-.318-.869-.994-.869-1.503 0-1.398-.71-2.977-1.339-2.977-.367 0-.648-.677-.82-1.976-.184-1.387-.473-2.044-.969-2.201-.418-.133-.898-.939-1.174-1.973-.318-1.19-.728-1.817-1.283-1.962-.556-.145-.815-.543-.815-1.251 0-.839-.19-1.037-1-1.037-.8 0-1-.2-1-1s-.2-1-1-1c-.787 0-1-.203-1-.954 0-.576-.396-1.213-1-1.609-.55-.361-1-.892-1-1.18 0-.762-2.26-2.657-3.169-2.657-.5 0-.821-.32-.903-.9-.08-.565-.449-.946-.99-1.023-.525-.075-.959-.505-1.108-1.1-.169-.673-.525-.977-1.143-.977-.547 0-1.051-.351-1.292-.9-.305-.695-.782-.928-2.095-1.023-1.502-.109-1.7-.237-1.7-1.1 0-.904-.148-.977-1.972-.977-1.741 0-1.987-.106-2.1-.9-.114-.799-.39-.914-2.465-1.021-1.942-.101-2.49-.298-3.239-1.169-.813-.946-1.237-1.065-4.375-1.229-2.97-.156-3.561-.306-4.069-1.032l-.595-.849-28.993-.113L0 43.975v4.612m110.014-3.813c-1.074 2.006-.366 7.122 1.034 7.474.84.211.952.468.952 2.195 0 1.821.07 1.957 1 1.957 1.113 0 1.323-.579.399-1.097-.672-.376-1.866-4.464-1.488-5.097.133-.223-.048-.171-.403.117-.563.457-.616.411-.414-.363.163-.622.091-.798-.245-.591-.579.358-.356-1.247.358-2.582.386-.722.374-.824-.067-.558-.401.241-.389.138.045-.396.384-.472.64-.558.743-.249.096.288.385.147.741-.362.689-.982 49.775-1.322 50.376-.349.17.275.099.339-.183.165-.254-.157-.462-.095-.462.138s.45.424 1 .424 1.013.225 1.028.5c.016.275.183.14.372-.3.307-.714.347-.722.372-.076.015.398.208.612.428.476s.62-.111.889.055 1.169.253 2 .193c.968-.07 1.511.063 1.511.37 0 .372.13.372.574.003.41-.34.797-.358 1.348-.063.425.228.913.285 1.084.128.172-.157.22.089.108.547-.129.527-.01.834.323.834.29 0 .445-.135.343-.3-.322-.521.802-.659 1.22-.15.77.937 2.552 1.086 2.319.194-.353-1.348-1.2-1.692-4.704-1.911-2.755-.172-3.438-.343-3.617-.905-.358-1.128-1.851-1.186-30.884-1.191-26.965-.004-27.697.016-28.1.77m68.447 4.159c.296.321.674.501.839.401.165-.099.3.079.3.397 0 .33.491.65 1.145.746 1.057.155 1.124.09.873-.854-.23-.867-.533-1.042-1.984-1.148-1.483-.108-1.64-.047-1.173.458m4.153 1.844c-.144.233-.071.423.162.423.88 0 1.033.072 1.349.637.178.319.493.475.7.348.206-.128.375-.042.375.191s.358.424.797.424c.438 0 1.021.36 1.296.8.275.44.681.802.903.804.511.006 3.804 3.134 3.804 3.614 0 .196.3.242.666.101.427-.164.568-.098.394.184-.149.242.046.544.434.671 1.096.36 4.136 3.259 3.803 3.627-.163.18-.085.206.174.057.422-.241.805.363.978 1.542.032.22.439.659.905.976.465.317.992.815 1.171 1.108.178.293.538.41.8.26.261-.15.356-.14.212.022-.145.162-.089.866.126 1.564.214.699.432 1.49.485 1.758.052.269.25.629.438.8.188.172.22.099.072-.16-.149-.26-.088-.586.135-.724.224-.138.407.007.407.323s.268.797.596 1.069c.327.272.496.656.374.852-.121.197.041.458.36.58.319.123.806 1.029 1.082 2.015.276.985.816 2.012 1.201 2.281.384.269.929 1.297 1.21 2.283.282.986.662 1.964.844 2.173.183.209.333.704.333 1.1 0 .396.167.72.372.72s.465.405.579.9c.113.495.134-.18.047-1.5-.118-1.771-.366-2.567-.945-3.037-.462-.374-.898-1.39-1.059-2.466-.221-1.472-.459-1.877-1.213-2.066-.794-.199-.956-.525-1.059-2.133-.104-1.619-.254-1.917-1.022-2.026-.657-.093-.9-.396-.9-1.118 0-.545-.437-1.427-.971-1.961s-1.029-1.381-1.1-1.882c-.083-.589-.447-.956-1.029-1.039-.643-.091-.9-.397-.9-1.072 0-.669-.258-.982-.884-1.072-.558-.081-.969-.496-1.116-1.128-.145-.621-.558-1.047-1.092-1.125-.528-.076-.907-.461-.983-1-.077-.54-.455-.922-.987-.998-.525-.075-.959-.505-1.108-1.1-.178-.708-.519-.977-1.238-.977-.791 0-.992-.202-.992-1 0-.754-.21-1-.854-1-.47 0-1.271-.45-1.781-1-.589-.635-1.361-1-2.118-1-.931 0-1.219-.197-1.319-.9-.139-.98-2.407-1.543-2.914-.723M114 59.091c0 1.941.664 3.309 1.607 3.309.192 0 .404.855.471 1.9.104 1.621.254 1.919 1.022 2.028.794.113.9.359.9 2.092 0 1.751.106 1.991.98 2.211.839.21.997.512 1.1 2.107.102 1.582.255 1.881 1.02 1.99.785.111.902.367.913 2 .014 2.035.798 3.447 1.951 3.515.969.057.637-1.278-.634-2.549-.66-.66-.93-1.39-.93-2.512 0-.87-.191-1.582-.424-1.582-.233 0-.312-.18-.176-.4.136-.22-.014-.4-.334-.4-.644 0-1.195-1.068-.844-1.636.124-.2.015-.364-.241-.364-.257 0-.368-.256-.249-.568.12-.313-.231-1.053-.779-1.645-.549-.593-.968-1.462-.931-1.932.17-2.169-.027-3.139-.593-2.922-.836.321-1.537-.663-.919-1.291.388-.395.372-.472-.075-.371-.326.075-.671-.292-.818-.871-.139-.55-.5-1-.802-1-.301 0-.632-.25-.734-.556-.12-.361-.012-.448.31-.25.366.226.42.058.207-.644-.565-1.866-.998-1.718-.998.341M333.8 67.2c.16.259 8.404.4 23.424.4 15.184 0 23.176-.138 23.176-.4s-8.075-.4-23.424-.4c-15.513 0-23.34.135-23.176.4m-1.812.614c-.694.837-.115 1.284.66.51.374-.375.47-.728.236-.872-.216-.134-.619.029-.896.362m49.056-.286c-.129.21.018.592.328.849.445.369.545.339.474-.143-.121-.826-.514-1.172-.802-.706m-1.73 12.372c-.487.495-.699.9-.471.9.545 0 1.658-1.124 1.489-1.504-.073-.163-.531.109-1.018.604m-255.159 2.509c.321 2.006.513 2.391 1.196 2.391.293 0 .659.877.876 2.1.432 2.429 2.173 3.471 2.173 1.299 0-1.048-.901-2.365-1.327-1.939-.189.189-.502-1.156-.805-3.46a.704.704 0 0 0-.673-.6c-.327 0-.595-.255-.595-.567 0-.311-.252-.65-.56-.753-.448-.149-.505.155-.285 1.529m174.292.838c-1.888 1.889-1.917 1.953-.875 1.953.496 0 .818-.322.9-.9.082-.578.45-.946 1.028-1.028.578-.082.9-.404.9-.9 0-1.042-.064-1.013-1.953.875M210.9 86.289c.632.664 1.1 1.605 1.1 2.214 0 1.418.68 2.829 1.655 3.439.744.464.79.408.672-.822-.087-.903-.406-1.442-1.009-1.707-.691-.303-.907-.779-1-2.2-.11-1.687-.202-1.822-1.318-1.946l-1.2-.133 1.1 1.155M128.425 91.3c-.023 1.767.045 1.9.975 1.9 1.137 0 1.438-1.346.39-1.748-.335-.129-.773-.643-.974-1.143-.299-.745-.37-.566-.391.991m162.626.783c.108.174-.024.317-.294.317-.27 0-.382.108-.25.241.133.132.64-.039 1.127-.38.868-.608.869-.619.054-.558-.458.035-.744.206-.637.38M214.304 93.6c.095.33.212.827.259 1.104.047.277.336.727.642 1 .429.382.423.318-.024-.281-.423-.566-.438-.69-.053-.459.29.175.684.704.875 1.177.325.806.348.793.372-.208.036-1.551-.361-2.333-1.184-2.333-.399 0-.8-.135-.892-.3-.092-.165-.09-.03.005.3m-83.837 1.658c-.059 1.571.08 1.946.932 2.504.832.546 1.002.975 1.007 2.547.007 2.064.242 2.62 1.271 2.999.481.177.713.807.8 2.171.104 1.628.257 1.94 1.002 2.046.742.106.898.419 1 2 .103 1.596.255 1.894 1.021 2.003.791.112.9.361.9 2.057 0 1.951.364 2.415 1.895 2.415.571 0 .571-.065.003-.7-.345-.385-.917-1.706-1.272-2.935-.354-1.229-1.046-2.664-1.535-3.19-.49-.526-.846-1.005-.791-1.066.055-.06.086-.154.069-.209a18.588 18.588 0 0 1-.158-.76c-.071-.364-.548-1.228-1.06-1.921-.793-1.072-.844-1.316-.341-1.633.518-.328.517-.375-.01-.381-.395-.004-.616-.437-.645-1.263-.03-.803-.375-1.505-.958-1.944-.673-.508-.859-.963-.71-1.743.111-.58.039-1.055-.16-1.055s-.309-.305-.245-.678c.067-.385-.281-.881-.807-1.149-.509-.26-.901-.589-.87-.732.03-.144-.018-.479-.107-.746-.088-.266-.193.347-.231 1.363m85.639 3.061c.012.931.323 1.56 1.055 2.137.572.449.949.875.839.947-.11.072-.104.227.014.345.39.389.382-1.705-.01-2.736-.211-.557-.644-1.012-.961-1.012-.317 0-.661-.225-.765-.5-.105-.275-.182.094-.172.819m66.161 3.548c-.147.146-.267.586-.267.978 0 .565-.391.736-1.9.833-1.607.103-1.919.258-2.025 1.001-.106.742-.419.898-2 1-1.716.111-1.886.215-2.002 1.228-.07.609-.292 1.005-.493.88-.697-.43-3.28.309-3.458.989-.096.368-.703.868-1.348 1.111-.782.296-1.174.722-1.174 1.278 0 .624-.253.835-1 .835-.8 0-1 .2-1 1s-.2 1-1 1-1 .2-1 1-.2 1-1 1-1 .2-1 1-.2 1-1 1-1 .2-1 1-.2 1-1 1c-.792 0-1 .202-1 .972 0 .698-.249 1.008-.885 1.1-.644.093-.96.497-1.16 1.48-.151.744-.743 1.786-1.315 2.316-.572.53-1.04 1.317-1.04 1.748 0 .436-.271.784-.61.784-.793 0-1.508 1.902-1.233 3.282.149.748.066 1.028-.271.904-1.038-.38-1.574.56-1.78 3.123-.18 2.254-.338 2.668-1.157 3.042-.902.411-.949.621-.949 4.253 0 3.11-.117 3.866-.631 4.063-1.502.577-2.248 15.701-.825 16.742.361.263.656.684.656.935s.18.456.4.456c.22 0 .4.925.4 2.056 0 1.332.205 2.212.584 2.5.321.244.815 1.344 1.098 2.444.283 1.1.823 2.341 1.2 2.759.378.417.805 1.547.949 2.511.168 1.115.537 1.899 1.016 2.155.414.222.753.668.753.992 0 .323.454.983 1.008 1.465.604.525 1.106 1.491 1.253 2.412.14.872.554 1.7.96 1.917.393.21.83.91.971 1.554.142.645.652 1.62 1.133 2.168 1.234 1.404 4.799 6.207 5.259 7.083.211.402.796.92 1.3 1.149.504.23.916.692.916 1.026 0 .335.173.609.384.609.211 0 .886.453 1.5 1.007 3.63 3.276 4.277 3.793 4.749 3.793.287 0 .757.334 1.044.743.288.408.928.87 1.423 1.027.496.156 1.076.611 1.29 1.011.213.399 1.021.845 1.794.99.774.145 1.578.584 1.788.976.209.392 1.121.934 2.026 1.205.904.271 1.739.739 1.854 1.041.116.301.936.67 1.822.819.886.15 1.98.642 2.432 1.094.451.451 1.627.972 2.612 1.156.985.184 1.991.607 2.237.94.245.333 1.584.805 2.976 1.05 1.406.247 2.623.685 2.739.985.114.298.865.643 1.669.768 2.713.422 4.377.999 4.607 1.599.138.36.749.597 1.541.598 1.74.003 4.214.709 4.602 1.314.171.266.671.683 1.111.925.616.34.828.935.924 2.588.168 2.914.468 3.171 3.697 3.171 2.52 0 2.733.067 2.851.9.117.825.368.91 3.002 1.017 2.618.107 2.886.196 3 1 .106.745.417.902 1.988 1.003 1.595.103 1.897.261 2.107 1.1.215.857.471.98 2.031.98 1.57 0 1.815.12 2.036 1 .18.718.521 1 1.207 1 .754 0 .957.212.957 1 0 .8.2 1 1 1 .798 0 1 .201 1 .992 0 .725.269 1.06 1 1.244 1.488.373 1.581 8.026.1 8.236-.69.098-.929.432-1.025 1.428-.076.789-.346 1.3-.686 1.3-.309 0-.754.36-.989.8-.235.44-.786.8-1.224.8-.481 0-.946.396-1.176 1-.326.858-.63 1-2.147 1-1.55 0-1.797.122-2.017 1l-.251 1h-24.493l-.927-1c-1.189-1.283-3.365-1.412-3.365-.2 0 .44-.135.779-.3.753-.953-.151-1.7.12-1.7.616 0 .313-.432 1.083-.961 1.711-.528.628-1.163 1.894-1.41 2.813-.248.919-.701 1.922-1.008 2.229-.307.307-.751 1.276-.988 2.154-.236.878-.769 1.904-1.183 2.279-.415.375-.864 1.37-.998 2.211-.135.842-.515 1.754-.846 2.029-.33.274-.799 1.236-1.042 2.138-.242.901-.771 2.059-1.175 2.572-.403.513-.856 1.509-1.005 2.214-.148.704-.594 1.641-.989 2.081-.395.44-.907 1.496-1.137 2.347-.231.851-.676 1.841-.988 2.2-.313.359-.798 1.373-1.078 2.253-.279.88-.842 2.029-1.25 2.554-.408.525-.742 1.235-.742 1.578 0 .344-.489 1.33-1.086 2.192-.899 1.297-1.088 2.007-1.1 4.126-.011 2.078-.146 2.601-.714 2.782-.883.28-.962 2.168-.091 2.168.334 0 .813-.45 1.064-1 .595-1.306 2.216-1.385 2.399-.116.158 1.088 1.249 1.423 4.805 1.476 2.281.034 2.769.171 3.295.922.57.813 1.014.895 5.716 1.051 3.878.129 5.202.311 5.529.758 1.412 1.931 33.788 1.884 35.203-.051.372-.509 1.248-.64 4.274-.64 4.771 0 6.355-.302 6.606-1.261.164-.627.627-.745 3.047-.779 3.731-.052 4.822-.375 4.981-1.476.112-.773.372-.884 2.074-.884 2.342 0 3.998-.567 3.998-1.368 0-.418.55-.623 1.9-.71 1.522-.098 1.979-.301 2.295-1.022.219-.501.752-.902 1.2-.905 1.495-.011 2.577-.478 2.811-1.213.133-.421.692-.786 1.313-.857.748-.087 1.118-.388 1.203-.977.093-.656.495-.912 1.74-1.112 1.125-.179 1.68-.492 1.819-1.024.115-.441.693-.875 1.36-1.021.783-.172 1.159-.501 1.159-1.015 0-.478.372-.854 1-1.012.599-.15 1-.537 1-.964 0-.427.401-.814 1-.964.731-.184 1-.519 1-1.244 0-.779.205-.992.957-.992.674 0 1.027-.281 1.195-.952.132-.524.587-1.043 1.012-1.155.563-.147.848-.697 1.047-2.025.218-1.454.447-1.848 1.131-1.946.545-.077.906-.46.989-1.046.072-.509.432-1.036.8-1.171.978-.36 1.256-.928 1.263-2.577.005-1.22.16-1.494.906-1.6.756-.108.92-.413 1.027-1.907.09-1.263.409-2.041 1.1-2.681.813-.753.974-1.283.98-3.221.006-1.945.167-2.471 1-3.261.961-.912.993-1.114.993-6.3 0-4.439.101-5.358.586-5.358 1.156 0 1.414-1.555 1.409-8.474-.006-7.647-.136-8.59-1.226-8.936-.667-.212-.757-.768-.857-5.313-.109-4.922-.14-5.081-1.012-5.205-.841-.119-.9-.322-.9-3.092 0-2.812-.05-2.977-.98-3.211-.839-.21-.997-.512-1.1-2.107-.102-1.582-.255-1.881-1.02-1.99-.729-.103-.9-.383-.9-1.467 0-1.858-.357-2.605-1.243-2.605-.532 0-.757-.285-.757-.957 0-.679-.282-1.027-.972-1.2-.607-.153-1.021-.583-1.1-1.144-.082-.577-.45-.945-1.028-1.027-.495-.07-.9-.394-.9-.72 0-1.018-1.192-2.952-1.82-2.952-.33 0-.77-.447-.977-.993-.287-.754-.767-1.056-1.991-1.251-1.357-.218-1.612-.408-1.612-1.207 0-.746-.214-.949-1-.949-.8 0-1-.2-1-1 0-.788-.203-1-.957-1-.686 0-1.027-.282-1.207-1-.221-.881-.465-1-2.044-1-1.459 0-1.792-.134-1.792-.72 0-.905-.754-1.68-1.633-1.68-.371 0-.764-.346-.875-.769-.146-.56-.702-.843-2.046-1.045-1.147-.172-1.846-.481-1.846-.817 0-.734-1.286-1.369-2.774-1.369-.674 0-1.226-.167-1.226-.371 0-.849-1.346-1.629-2.81-1.629-1.124 0-1.83-.277-2.554-1-.798-.799-1.4-1-2.99-1-1.76 0-2.005-.104-2.118-.9-.117-.825-.368-.91-3.002-1.017-2.618-.107-2.886-.196-3-1-.116-.812-.376-.892-3.226-1-2.994-.113-3.1-.15-3.1-1.1 0-.782-.205-.983-1-.983-.874 0-1 .174-1 1.386 0 2.354-5.317 3.295-7.76 1.374-.587-.462-1.826-.923-2.754-1.025-2.718-.298-3.257-.462-4.106-1.253-.469-.437-1.702-.856-2.954-1.004-1.333-.158-2.478-.564-3.014-1.066-.475-.447-1.359-.812-1.964-.812-1.257 0-2.698-.664-3.168-1.458-.176-.298-.728-.542-1.228-.542-.499 0-1.51-.537-2.245-1.194-.735-.656-1.668-1.298-2.072-1.427-.404-.128-.735-.495-.735-.816 0-.32-.435-.748-.966-.95-.531-.202-1.083-.737-1.227-1.19-.143-.453-.489-.823-.767-.823-.577 0-2.305-2.324-3.273-4.4-.359-.77-.898-1.541-1.198-1.713-.3-.173-.748-1.068-.997-1.99-.248-.923-.772-1.902-1.165-2.177-.418-.293-.831-1.286-.998-2.402-.157-1.046-.615-2.365-1.019-2.931-.416-.585-.85-2.143-1.006-3.608-.164-1.545-.516-2.772-.879-3.06-.784-.622-1.266-3.179-1.288-6.833-.011-1.962-.224-3.231-.651-3.882-.936-1.429-1.409-7.894-1.332-18.204.037-4.95.045-9.675.017-10.5l-.051-1.5h-1.933c-1.064 0-2.054.12-2.2.267m-63.867 1.986c0 .139.401.601.891 1.026.909.788 1.393.439.959-.692-.215-.562-1.85-.857-1.85-.334m1.901 4.213c.11.417.512.978.895 1.246.383.269.736.668.784.888.207.953.42.627.42-.646 0-1.151-.19-1.45-1.148-1.812-1.034-.39-1.129-.358-.951.324m146.656-.458c-.512.197-.943.823-1.098 1.595-.161.805-.548 1.347-1.056 1.48-.566.148-.803.545-.803 1.345 0 1.442-.778 3.172-1.427 3.172-.296 0-.612.831-.78 2.049-.205 1.492-.478 2.1-1.005 2.238-.524.137-.8.743-1 2.2-.2 1.458-.476 2.063-1 2.2-.522.137-.799.738-.994 2.158-.179 1.303-.519 2.101-1.004 2.36-.456.244-.899 1.195-1.173 2.515-.244 1.173-.794 2.425-1.229 2.798-.433.371-.788 1.138-.788 1.704 0 1.345-.676 2.578-1.414 2.578-.405 0-.586.44-.586 1.426 0 1.662-.601 2.974-1.362 2.974-.34 0-.611.686-.746 1.884-.134 1.185-.499 2.117-.986 2.51-.481.39-.873 1.376-1.038 2.616-.168 1.262-.558 2.233-1.067 2.654-1.202.997-1.076 2.736.199 2.736.8 0 1 .2 1 1 0 .792.202 1 .972 1 .704 0 1.008.249 1.1.9.094.663.44.935 1.315 1.035.653.074 1.428.479 1.722.9.708 1.011 2.107.99 2.375-.035.148-.565.546-.8 1.355-.8.889 0 1.202-.224 1.397-1 .156-.621.534-1 1-1 .457 0 .843-.374.99-.962.133-.529.6-1.056 1.038-1.171.437-.114.887-.559 1-.989.112-.429.639-.979 1.17-1.221.558-.254.966-.782.966-1.248 0-.458.265-.809.609-.809.334 0 .812-.447 1.06-.992.249-.546.785-1.098 1.192-1.227.406-.129.739-.489.739-.799 0-.31.42-.839.934-1.175.513-.337 1.188-1.106 1.5-1.71.705-1.366 1.38-2.097 1.937-2.097.236 0 .429-.45.429-1 0-.8.2-1 1-1s1-.2 1-1 .2-1 1-1 1-.2 1-1 .2-1 1-1 1-.2 1-1 .2-1 1-1 1-.2 1-1 .2-1 1-1c.792 0 1-.202 1-.972 0-.704.249-1.008.9-1.1.495-.07 1.078-.533 1.295-1.028.217-.495.519-.9.671-.9.82 0 1.534-1.422 1.534-3.055 0-2.004-.55-3.345-1.371-3.345-.298 0-.655-.45-.793-1-.184-.731-.519-1-1.244-1-.791 0-.992-.202-.992-1 0-.8-.2-1-1-1s-1-.2-1-1c0-.792-.202-1-.972-1-.704 0-1.008-.249-1.1-.9-.079-.558-.449-.946-.973-1.021-.465-.066-1.046-.561-1.292-1.1-.365-.802-.736-.979-2.054-.979-1.454 0-1.609-.097-1.609-1.01 0-.802-.247-1.059-1.2-1.25-.821-.164-1.2-.477-1.2-.99 0-.456-.283-.75-.72-.75-.396 0-.891-.161-1.1-.358-.209-.197-.759-.212-1.223-.034M222.473 113.1c.076.655.37 1.1.727 1.1.33 0 .83.63 1.111 1.4.498 1.365.505 1.345.276-.777-.28-2.597-.395-2.823-1.437-2.823-.64 0-.777.223-.677 1.1m-82.073 5.04c0 1.451.818 3.46 1.409 3.46.329 0 .655.784.86 2.071.44 2.753 2.645 3.847 2.409 1.196-.076-.868-.323-1.426-.604-1.367-.411.087-.662-.671-.526-1.586.023-.157-.212-.188-.523-.068-.391.15-.606-.133-.695-.915-.072-.622-.338-1.092-.592-1.044-.254.048-.567-.186-.695-.52-.129-.335-.073-.509.124-.387.197.121.15-.228-.104-.776-.584-1.258-1.063-1.286-1.063-.064m84.4-.432c0 .334.263.707.584.83.321.124.754.818.964 1.543l.38 1.319.03-1.2c.032-1.29-.167-1.694-1.258-2.549-.6-.471-.7-.463-.7.057m2.442 5.192c.527.495 1.021 1.35 1.097 1.9.223 1.6.461 1.469.461-.253 0-1.745-.547-2.547-1.738-2.547-.718 0-.704.07.18.9m1.558 3.9c0 .22.184.4.41.4.225 0 .607.495.848 1.1.508 1.278.948.576.573-.917-.241-.96-1.831-1.467-1.831-.583m-84 1.772c0 1.119.166 1.396.9 1.5.763.109.93.432 1.1 2.128.17 1.696.337 2.019 1.1 2.128.79.112.9.361.9 2.041 0 1.487.223 2.155 1 2.993.655.707 1 1.544 1 2.426 0 1.865.356 2.612 1.243 2.612.63 0 .757.3.757 1.786 0 1.743.658 2.614 1.974 2.614.786 0 .443-2.092-.474-2.887-.495-.429-.912-1.26-.927-1.846-.015-.587-.233-1.448-.486-1.914-.252-.466-.33-.99-.173-1.165.157-.174.058-.185-.221-.024-.278.16-.4.504-.27.764.13.259-.044.127-.387-.295-.5-.617-.525-.887-.129-1.377.392-.485.391-.548-.007-.309-.481.289-.67-.145-.535-1.226.033-.264-.284-.664-.705-.889-.534-.286-.914-1.197-1.258-3.021-.271-1.436-.663-2.611-.871-2.611-.208 0-.25.208-.093.462.177.286.11.353-.176.176-.254-.157-.462-.605-.462-.995s-.125-.835-.278-.988c-.153-.153-.319-.557-.369-.898-.175-1.19-.55-1.806-.95-1.559-.222.137-.403-.031-.403-.374 0-.343-.18-.624-.4-.624-.22 0-.4.617-.4 1.372m85.921 2.671c.096.653.417 1.157.737 1.157.312 0 .731.405.93.9.44 1.097.57-.069.173-1.551-.397-1.478-2.049-1.933-1.84-.506m2.479 5.414c.33.129.841.529 1.136.889.485.592.523.578.396-.146-.09-.516-.494-.832-1.136-.89-.548-.049-.726.017-.396.147m1.6 4.1c0 .244.276.443.613.443.337 0 .776.405.975.9.347.865.362.857.387-.2.014-.605-.14-1.1-.342-1.1s-.652-.109-1-.243c-.348-.133-.633-.043-.633.2m2.429 4.531c.346.282.845.872 1.108 1.312.438.73.47.695.371-.4-.085-.948-.318-1.223-1.108-1.312-.868-.097-.917-.044-.371.4m1.571 4.665c0 .441.367.85.883.984 1.138.298 1.283.12.735-.903-.556-1.039-1.618-1.092-1.618-.081m-83.85.234c-.469 1.22.202 2.613 1.258 2.613 1.378 0 1.368-1.661-.015-2.568-.897-.587-1.033-.592-1.243-.045m2.117 3.28c-.678.678-.241 2.858.696 3.472.764.501 1.033 1.145 1.3 3.118.346 2.55 2.582 4.679 2.3 2.189a29.48 29.48 0 0 1-.13-1.546c-.018-.385-.314-.7-.657-.7s-.512-.18-.376-.4c.136-.22.046-.4-.2-.4s-.344-.168-.217-.372c.126-.205.046-.487-.18-.626-.225-.139-.337-.654-.248-1.145.089-.49-.083-1.333-.382-1.874-.3-.541-.551-.841-.559-.667-.008.173-.265.083-.572-.2-.307-.284-.476-.651-.376-.816.225-.372-.039-.394-.399-.033m84.817 1.937c.474.331.939 1.006 1.034 1.5.159.822.178.812.228-.124.06-1.134-.587-1.98-1.515-1.98-.434 0-.361.174.253.604m102.543 1.967c-.777.827-.807.955-.203.867.39-.058.853-.494 1.03-.971.408-1.103.294-1.089-.827.104M161.2 165.192c0 1.356.145 1.629.98 1.839.839.21.997.512 1.1 2.107.102 1.582.255 1.881 1.02 1.99.794.113.9.359.9 2.1 0 1.837.069 1.972 1 1.972.932 0 1 .135 1 1.974 0 2.389.565 4.026 1.39 4.026.433 0 .61.415.61 1.426 0 1.799.616 2.974 1.559 2.974.562 0 .686.229.54.993-.305 1.597.214 3.007 1.109 3.007.655 0 .792.272.792 1.571 0 1.465.774 2.829 1.604 2.829.191 0 .471.855.623 1.9.335 2.311.752 3.176 1.673 3.467.538.171.7.663.7 2.128 0 1.58.15 1.971.882 2.292.691.303.907.779 1 2.2.1 1.532.257 1.833 1.018 1.941.794.113.9.359.9 2.092 0 1.762.103 1.991 1 2.216.887.222 1 .46 1 2.113 0 1.545.153 1.928.898 2.256.493.217.932.665.974.995.562 4.384.566 4.394 1.55 4.641.535.134.869.412.743.616-.525.848.29 3.543 1.07 3.543.58 0 .765.285.765 1.174 0 1.849.679 3.226 1.59 3.226.705 0 .81.259.81 2 0 1.867.067 2 1 2 .55 0 1-.18 1-.4 0-.22-.25-.4-.555-.4-.622 0-1.248-2.549-.803-3.269.163-.263.105-.345-.138-.196-.233.145-.531-.189-.673-.754-.14-.558-.429-.906-.643-.774-.213.132-.388.05-.388-.183 0-.233.18-.424.4-.424.22 0 .4-.191.4-.424 0-.233-.161-.324-.358-.202-.458.283-.929-.909-.581-1.472.144-.234.1-.331-.099-.215-.199.115-.812-.25-1.362-.812-.637-.651-.71-.816-.2-.455.791.56.791.556.041-.323-.417-.49-.801-1.434-.854-2.1-.139-1.775-1-3.635-1.533-3.315-.25.149-.184-.068.146-.482.481-.605.488-.686.032-.411-.426.257-.504.176-.313-.323.141-.367.063-.666-.174-.666s-.335-.249-.218-.554c.117-.305-.075-.965-.426-1.466-.497-.71-.513-.846-.07-.612.313.166.119-.07-.431-.524-.55-.455-.82-.836-.6-.847.22-.012.092-.201-.283-.42-.389-.226-.583-.66-.451-1.005.204-.53.327-.522.982.071.57.516.642.807.302 1.218-.281.338-.296.539-.042.539 1.381 0 .15-2.733-1.255-2.787-.19-.007-.255-.361-.144-.787.12-.457-.034-.865-.374-.996-.376-.144-.479-.049-.297.275.216.382.163.388-.231.023-.281-.26-.585-1.145-.676-1.968-.091-.823-.472-1.749-.848-2.058-.376-.309-.488-.466-.25-.349.239.116.434-.051.434-.373 0-.321-.285-.538-.634-.482-.39.063-.612-.166-.577-.598.03-.385-.135-.7-.367-.7-.232 0-.309-.114-.17-.253.139-.139.041-.634-.218-1.1-.259-.466-.435-.976-.391-1.133.044-.157-.157-.194-.448-.082-.291.111-.553-.03-.582-.315-.308-2.986-.655-3.917-1.457-3.917-.291 0-.624-.36-.739-.8-.115-.44-.034-.8.181-.8.214 0 .017-.523-.438-1.162-.871-1.223-1.109-2.259-.42-1.834.223.138.285.447.138.685-.166.268-.081.319.219.133.571-.353-.547-1.822-1.386-1.822-.305 0-.466-.465-.415-1.2.045-.66-.038-1.2-.185-1.2s-.219-.445-.16-.988c.06-.543-.01-.972-.155-.952-.767.102-1.283-.104-1.08-.432a.45.45 0 0 0-.159-.613c-.214-.132-.295-.485-.181-.784.115-.298-.263-1.014-.839-1.59-.58-.581-.921-1.252-.764-1.506.176-.284.107-.349-.182-.171-.483.298-1.32-1.3-.981-1.874.1-.17-.032-.26-.294-.2-.262.061-.531-.215-.598-.612-.098-.588-.013-.633.457-.243.317.263.693.363.834.222.142-.141.002-.26-.309-.263-.467-.005-.461-.075.033-.394.588-.38-.245-.638-1.368-.425-.202.039-.155-.186.105-.499.369-.445.341-.679-.128-1.068-.33-.274-.502-.658-.381-.853.121-.195-.151-.355-.604-.355-.453 0-.851-.225-.885-.5-.082-.671-.15-1.027-.555-2.9-.19-.88-.31-1.735-.265-1.9.045-.165-.11-.3-.343-.3-.233 0-.315-.175-.183-.389.133-.214-.127-.704-.576-1.089-.449-.385-.817-.94-.817-1.235 0-.302-.201-.41-.462-.249-.281.174-.353.11-.185-.162.152-.246-.09-.813-.538-1.261l-.815-.815v1.592m33.067 69.875c-1.036 1.035.08 5.733 1.362 5.733.204 0 .371.814.371 1.81 0 1.551.14 1.863.977 2.181.82.312.997.68 1.1 2.29.112 1.748.212 1.919 1.123 1.919.821 0 .986-.179.922-1-.191-2.463-.35-2.934-1.048-3.117-.586-.153-.63-.273-.208-.569.397-.279.412-.425.056-.57-.262-.108-.367-.484-.232-.835.164-.425.089-.543-.222-.351-.257.159-.468.111-.468-.107 0-.219-.354-.509-.786-.647-.7-.222-1.556-2.538-1.295-3.504.045-.165-.11-.3-.343-.3-.238 0-.287-.218-.111-.5.559-.894.48-1.454-.17-1.204-.413.158-.528.081-.337-.228.159-.257.088-.468-.158-.468s-.336-.18-.2-.4c.28-.453.07-.537-.333-.133m114.133 2.941c0 .297-.391.956-.868 1.465-.923.982-.846 1.499.166 1.111.598-.23 1.307-2.512.905-2.915-.112-.111-.203.041-.203.339m-2.888 6.164c-.662.911-.658.939.1.741.433-.114.788-.545.788-.96 0-.948-.049-.935-.888.219m-2.312 4.489c-.959.506-.964.527-.124.533.482.003.995-.186 1.14-.421.405-.655.082-.69-1.016-.112M200.078 251.1c.104 1.621.254 1.919 1.022 2.028.78.111.9.366.9 1.914 0 2.284.976 3.879 2.153 3.519 1.181-.363 1.2-.408.552-1.333-.317-.452-.72-.689-.896-.525-.175.163-.227.027-.115-.303s-.159-1-.604-1.488l-.808-.889.87.168c.483.093.765-.001.635-.212-.129-.208-.494-.379-.811-.379-.317 0-.576-.199-.576-.443 0-.243.279-.335.621-.204.356.136.516.069.376-.158-.134-.217-.491-.395-.792-.395-.941 0-2.282-2.026-1.758-2.657.349-.421.3-.543-.22-.543-.551 0-.649.34-.549 1.9m4.096 9.5c.142 1.226.501 2.2.929 2.516.383.284.878 1.364 1.098 2.4.32 1.498.586 1.91 1.3 2.012.795.113.899.359.899 2.126 0 1.945.03 1.996 1.1 1.873.637-.074 1.056-.343.995-.641-.057-.283-.159-.87-.225-1.305-.066-.436-.371-1.014-.676-1.286-.429-.382-.423-.312.025.305.54.744.531.761-.137.236-.395-.31-.622-.815-.505-1.121.118-.306.036-.447-.182-.312-.227.141-.395-.275-.395-.979 0-.673-.18-1.224-.4-1.224-.22 0-.4-.191-.4-.424 0-.233.15-.331.333-.217.184.113.334-.057.334-.378 0-.473-.153-.451-.801.117-.762.667-.789.668-.546.002.14-.385.119-.7-.047-.7-.166 0-.32-.315-.342-.7-.111-1.894-.331-2.823-.627-2.641-.18.111-.694-.217-1.144-.728l-.817-.931.231 2m6.289 13.151c-.055 1.471.096 1.861.936 2.411.769.505 1.002 1.001 1.006 2.147.008 2.169.37 3.191 1.208 3.41.567.149.768.646.863 2.134.097 1.515.287 1.971.866 2.081 1.131.215 1.549-.468.83-1.355-.347-.429-.5-.526-.34-.217.193.372.134.464-.177.272-.257-.159-.367-.453-.243-.653.124-.201.038-.714-.19-1.14-.304-.568-.282-.83.081-.977.329-.133.289-.212-.118-.232-.338-.018-.645-.434-.682-.924-.037-.491-.357-1.104-.711-1.363-.354-.259-.725-1.135-.826-1.946-.14-1.131-1.646-4.538-2.343-5.301-.051-.056-.123.688-.16 1.653m5.937 14.026c0 1.586.136 1.895.977 2.214.82.312.997.68 1.1 2.29.114 1.784.204 1.928 1.278 2.051.907.103 1.104-.001.917-.487-.13-.341-.049-.736.181-.878.24-.148.021-.461-.518-.736-.514-.263-.91-.782-.879-1.154.03-.373-.085-.677-.257-.677s-.425-.45-.563-1c-.138-.55-.45-1-.693-1-.293 0-.272-.204.065-.609.425-.512.396-.567-.181-.346-.511.196-.654.081-.557-.449.071-.392-.095-.792-.37-.888-.353-.123-.5.367-.5 1.669m4.157 9.768c.159 1.167.55 2.08 1.053 2.46.464.352.926 1.347 1.101 2.373.246 1.44.493 1.819 1.329 2.042 1.421.381 1.46-2.089.05-3.153-.501-.377-1.062-1.222-1.246-1.877-.184-.654-.547-1.142-.806-1.084-.352.079-.345-.125.026-.8.796-1.448.711-1.715-.561-1.767l-1.199-.05.253 1.856m4.243 9.49c0 1.106.18 1.395 1 1.601.896.225 1 .454 1 2.207 0 1.821.07 1.957 1 1.957.935 0 1 .132 1 2.018 0 1.62.198 2.216 1 3.018.568.569 1.002 1.467 1.005 2.082.01 1.867.447 2.882 1.242 2.882.621 0 .753.302.753 1.72 0 1.822.524 2.68 1.638 2.68.465 0 .659-.302.62-.962-.032-.529-.173-.89-.313-.804-.439.271-1.094-.811-1.361-2.25a86.025 86.025 0 0 0-.39-1.984c-.073-.33-.147-.735-.163-.9-.017-.165-.312-.3-.655-.3s-.52-.168-.393-.372c.126-.205.044-.488-.183-.628-.227-.14-.317-.41-.2-.6.117-.19.048-.447-.154-.571-.201-.125-.33-.755-.285-1.4.061-.881-.148-1.277-.84-1.592-.643-.293-.936-.784-.971-1.628-.081-1.947-.161-2.214-.639-2.119-.41.082-1.171-2.068-.987-2.79.042-.165-.094-.3-.301-.3s-.308-.36-.223-.8c.085-.44-.026-.8-.247-.8-.22 0-.317-.135-.215-.3.102-.165-.247-.326-.776-.358-.837-.05-.962.118-.962 1.293m51.9.179c-.605.66-1.1 1.647-1.1 2.193 0 1.364-.026 1.494-.46 2.304-.209.391-.539.613-.732.494-.194-.12-.466-.035-.604.188-.144.234.167.407.73.407 1.096 0 1.466-.647 1.466-2.569 0-1.001.231-1.408 1-1.758.682-.311 1-.777 1-1.464 0-1.245.035-1.251-1.3.205m-3.236 7.468c-.181.727-.654 1.388-1.092 1.527-.784.249-1.139 2.191-.399 2.191.814 0 2.077-2.403 1.944-3.698l-.133-1.302-.32 1.282m-2.994 5.444c-1.196 1.272-1.178 2.773.03 2.602.761-.108.909-.391.958-1.828.068-1.993.119-1.953-.988-.774m-1.706 4.171c-.35.494-.741.793-.87.664s-.181.097-.115.502c.065.406-.061.962-.279 1.237-.29.364-.194.498.351.494 1.366-.011 1.81-.604 1.677-2.235-.127-1.543-.135-1.55-.764-.662m-33.322 3.823c-1.132.827-.723 2.847.607 3.002 1.429.165 1.835-.968.759-2.114-.449-.477-.694-.989-.545-1.138.46-.459-.072-.298-.821.25m31.058 1.023c-1.114 1.516-1.137 2.057-.087 2.057.945 0 1.299-.699 1.117-2.207l-.13-1.074-.9 1.224m-1.347 3.157c-.026.385-.033.814-.016.953s-.257.229-.611.2c-.396-.033-.671.292-.717.847-.058.698.135.9.858.9.839 0 .933-.181.933-1.8 0-1.716-.348-2.571-.447-1.1m-28.353 1.04c0 .999.256 1.536.951 1.991.692.454 1.025 1.147 1.223 2.546.404 2.863.567 3.218 1.559 3.408.797.152.888.036.743-.952-.091-.618-.32-1.029-.509-.913-.459.284-.923-1.644-.543-2.259.191-.308.132-.381-.162-.199-.418.258-.646-.236-.502-1.085.114-.669-1.293-3.12-2.012-3.505-.663-.355-.748-.244-.748.968m26.414 2.86c-.059.22-.148.58-.199.8-.051.22-.143.535-.204.7a4.823 4.823 0 0 0-.171.6c-.034.165-.381.779-.773 1.364-.391.584-.74 1.45-.776 1.923-.046.615-.268.808-.778.674-.391-.102-.83.005-.974.238-.155.25-.072.307.199.139.734-.453.535.218-.238.805-.411.312-.497.537-.21.544.361.01.387.285.097 1.047-.216.568-.291 1.198-.166 1.4.124.201.046.366-.174.366-.221 0-.329.376-.24.836.141.731.076.77-.523.313-.376-.288-.551-.365-.387-.173.163.193.135.547-.061.787-.197.24-.421.887-.497 1.437-.076.55-.319 1.128-.539 1.285-.22.157-.408.517-.418.8-.01.283-.235.47-.5.415-.265-.055-.482.155-.482.467 0 .311-.225.657-.5.768-.275.111-.018.216.571.233 1.505.045 2.329-.945 2.329-2.797 0-1.272.143-1.571.753-1.571.798 0 1.232-1.016 1.242-2.9.003-.717.218-1.1.615-1.1.751 0 1.508-1.869 1.268-3.128-.133-.695.056-1.019.75-1.283.626-.238 1.012-.795 1.183-1.708.231-1.232.052-4.22-.197-3.281m-21.939 7.434c.108 1.483.272 1.752 1.22 2.003 1.026.273 1.066.237.632-.573-.254-.475-.417-.924-.361-.997.055-.074-.033-.254-.197-.4-.163-.147-.151-.014.029.295.226.39.176.469-.163.259-.269-.166-.41-.51-.312-.764.097-.253-.082-.703-.398-.998-.495-.462-.557-.299-.45 1.175M243.2 348c0 1.44.1 1.6 1 1.6.93 0 1 .136 1 1.957 0 2.417.11 2.467 5.133 2.362l3.867-.082-3.3-.135c-1.815-.074-3.3-.307-3.3-.518 0-.211-.36-.384-.8-.384-.44 0-.82-.135-.845-.3-.024-.165-.112-.885-.195-1.6-.136-1.173-1.884-4.5-2.365-4.5-.107 0-.195.72-.195 1.6" fill="#241c23"/><path d="M286.8 101.153c0 .224.315.584.7.799.641.359.702 1.382.725 12.12.026 12.427.535 19.275 1.749 23.528.409 1.43.859 3.32 1.001 4.2.371 2.296 2.666 9.491 3.254 10.2.273.33.695 1.344.937 2.253.242.91.708 1.877 1.037 2.149.328.273.597.668.597.879 0 .433 2.682 4.573 3.6 5.556.33.353.891.985 1.246 1.403 1.304 1.534 4.278 4.082 5.052 4.328.438.139 1.118.608 1.511 1.042.393.435.915.79 1.159.79s1.155.381 2.025.847c.869.466 2.487 1.112 3.594 1.434 1.107.323 2.38.821 2.829 1.107.449.286 1.889.741 3.2 1.01 1.311.269 2.568.637 2.793.819.225.181 1.69.685 3.256 1.119 1.565.434 3.181.961 3.591 1.172 1.007.519 4.299-.309 4.453-1.12.093-.49-.219-.58-1.564-.451-1.7.162-5.809-.557-6.545-1.146-.22-.176-1.57-.617-3-.981s-3.32-.998-4.2-1.41c-.88-.411-2.32-.873-3.2-1.025-.88-.152-1.87-.501-2.2-.775-.33-.274-1.32-.724-2.2-1-.88-.276-1.87-.727-2.2-1.002-.33-.276-1.14-.783-1.8-1.127-1.032-.539-4.511-3.439-5.535-4.615-.185-.212-.77-.859-1.3-1.439-.531-.579-.97-1.18-.976-1.335-.006-.155-.546-.989-1.2-1.853-.654-.864-1.189-1.785-1.189-2.046 0-.261-.368-.943-.817-1.514-.449-.571-1.098-1.99-1.441-3.154-.343-1.163-.799-2.33-1.013-2.592-.214-.263-.646-1.577-.959-2.92-.314-1.344-.821-2.929-1.129-3.523-.307-.595-.68-2.161-.829-3.48-.149-1.32-.609-3.755-1.021-5.411-.979-3.928-1.711-16.579-1.358-23.45.333-6.477.113-7.838-1.448-8.95-.652-.464-1.185-.66-1.185-.436m76.111 8.239c-.631.765-1.48 2.34-1.887 3.5-.407 1.159-.962 2.378-1.235 2.708-.272.33-.627 1.05-.79 1.6-.162.55-.838 2.17-1.502 3.6a747.336 747.336 0 0 0-4.145 9.097 1497.343 1497.343 0 0 1-3.935 8.703l-1.736 3.8c-.453.99-1.295 2.827-1.873 4.082-1.142 2.485-1.46 5.226-.693 5.993.38.38.485.14.485-1.106 0-.875.246-1.946.546-2.38.3-.434.683-1.239.849-1.789.28-.922 1.096-2.778 3.649-8.297a777.83 777.83 0 0 0 3.855-8.503c.442-.99 1.219-2.7 1.725-3.8.507-1.1 1.276-2.81 1.711-3.8a240.28 240.28 0 0 1 2.227-4.842c.791-1.673 1.438-3.23 1.438-3.459 0-.984 2.541-5.143 3.429-5.612 1.228-.648 1.228-.887 0-.887-.622 0-1.383.5-2.118 1.392M236.912 148.7c.117.494.022 1.017-.211 1.161-.24.149-.308.074-.156-.172.147-.238.085-.547-.138-.685-.237-.146-.419.219-.435.872-.025.989-.07 1.028-.372.324-.189-.44-.356-.578-.372-.306-.015.271-.568 1.608-1.228 2.971-.66 1.362-1.2 2.782-1.2 3.156 0 .374-.456 1.711-1.014 2.972-1.501 3.395-1.095 24.776.526 27.681.269.48.488 1.794.488 2.92 0 1.125.265 2.558.589 3.184.323.626.709 1.894.857 2.817.147.924 1.052 3.216 2.011 5.095.959 1.879 1.743 3.908 1.743 4.51 0 1.444 8.565 18.593 10.21 20.442.705.792 1.882 2.682 2.615 4.2.733 1.517 2.017 3.519 2.854 4.449.836.93 1.521 1.96 1.521 2.288 0 .328.538.995 1.196 1.481.658.487 1.301 1.217 1.43 1.623.129.406.941 1.555 1.804 2.552.864.998 1.57 2.014 1.57 2.26 0 1.01 16.179 16.75 18.4 17.9 1.21.627 3.37 2.23 4.8 3.563 4.122 3.84 3.895 3.686 4.126 2.805.111-.425.548-.763.987-.763.548 0 .857-.351 1.019-1.16.128-.638.69-1.654 1.25-2.258.56-.605 1.018-1.419 1.018-1.81s.425-1.219.945-1.841c.52-.622 1.063-1.508 1.207-1.968.382-1.22 1.951-2.555 3.71-3.157 1.169-.4 1.568-.768 1.662-1.535.068-.555.553-1.439 1.079-1.965.646-.646.987-1.491 1.053-2.605.054-.908.198-1.64.321-1.628.71.069 1.322-.108 1.109-.321-.136-.136.015-.51.337-.832.321-.321.477-.758.346-.97-.131-.212.003-.682.297-1.044.456-.563.446-.609-.066-.314-.33.191-.105-.159.5-.777.671-.686 1.1-1.561 1.1-2.246 0-.617.183-1.235.407-1.373.223-.138.31-.407.193-.596-.117-.19.163-.609.623-.931.832-.583 1.088-1.248 1.146-2.978.018-.534.402-1.077.931-1.319.653-.298.929-.806 1.004-1.85.062-.856.473-1.808 1.013-2.348 3.205-3.205.248-6.291-8.394-8.756-3.305-.943-13.048-4.509-14.708-5.383-.871-.459-1.771-.836-2-.838-.228-.001-1.585-.63-3.015-1.397-1.43-.767-3.32-1.733-4.2-2.147-1.661-.782-6.053-3.55-8.757-5.519-2.423-1.764-11.187-10.533-12.481-12.488-5.907-8.92-8.994-15.71-11.205-24.644-.326-1.319-.855-2.798-1.175-3.286-.32-.488-.583-1.209-.584-1.602-.005-1.655-.838-3.631-1.616-3.835-.443-.115-.767-.361-.721-.545.165-.655-.986-3.704-1.32-3.497-.188.115-.368-.025-.402-.313-.134-1.156-.194-1.356-.643-2.171-.258-.466-.354-.961-.215-1.1.139-.139.042-.253-.214-.253-.257 0-.467.18-.467.4 0 .22-.21.4-.467.4-.256 0-.348-.118-.203-.263.145-.145.059-.509-.19-.809-.358-.432-.315-.493.203-.294.362.138.657.073.657-.145 0-.217-.36-.49-.8-.605-.44-.115-.806-.541-.813-.947-.007-.405-.299-1.097-.65-1.537-.628-.789-.634-.788-.425.1" fill="#1c4f4e"/><path d="M286.85 102.494c.497.928.569 6.507.141 10.906-.265 2.725.337 11.891.959 14.6.227.99.579 3.795.781 6.232.202 2.438.651 5.048.998 5.8.347.753.836 2.538 1.086 3.968.251 1.43.8 3.355 1.221 4.278.42.923.764 1.955.764 2.294 0 .559 1.619 4.102 3.028 6.628.307.55.833 1.585 1.17 2.3.337.715.778 1.3.98 1.3.203 0 .475.335.605.745.724 2.284 9.447 9.631 11.455 9.649.351.003.947.347 1.324.764.378.417 1.471.876 2.429 1.02.959.144 1.952.512 2.207.82.255.307 1.485.757 2.733 1s2.91.785 3.694 1.205c.783.42 2.223.889 3.2 1.044.976.154 2.46.634 3.296 1.068 1.694.877 4.8.735 5.801-.266.456-.455.235-.462-1.39-.044-1.298.335-2.176.371-2.676.109-.41-.214-2.026-.744-3.591-1.178-1.566-.434-3.031-.938-3.256-1.119-.225-.182-1.482-.55-2.793-.819-1.311-.269-2.751-.724-3.2-1.01-.449-.286-1.722-.784-2.829-1.107-1.107-.322-2.725-.968-3.594-1.434-.87-.466-1.781-.847-2.025-.847s-.766-.355-1.159-.79c-.393-.434-1.073-.903-1.511-1.042-.774-.246-3.748-2.794-5.052-4.328a47.935 47.935 0 0 0-1.246-1.403c-.918-.983-3.6-5.123-3.6-5.556 0-.211-.269-.606-.597-.879-.329-.272-.795-1.239-1.037-2.149-.242-.909-.664-1.923-.937-2.253-.588-.709-2.883-7.904-3.254-10.2-.142-.88-.592-2.77-1.001-4.2-1.214-4.252-1.723-11.1-1.749-23.514-.021-9.959-.115-11.772-.625-12.094-.988-.625-1.257-.445-.75.502m78.08 6.42c-.816.456-3.33 4.671-3.33 5.585 0 .229-.647 1.786-1.438 3.459a240.28 240.28 0 0 0-2.227 4.842c-.435.99-1.204 2.7-1.711 3.8a453.02 453.02 0 0 0-1.725 3.8 777.83 777.83 0 0 1-3.855 8.503c-2.553 5.519-3.369 7.375-3.649 8.297-.166.55-.549 1.355-.849 1.789-.3.434-.54 1.334-.532 2l.013 1.211.773-1.6c.425-.88.897-2.225 1.048-2.99.151-.764.512-1.627.803-1.918.29-.29.743-1.285 1.006-2.21.264-.925.815-2.061 1.227-2.525.411-.463.854-1.495.983-2.293.13-.798.484-1.658.788-1.91.304-.252.829-1.409 1.167-2.57.338-1.162.858-2.206 1.156-2.32.298-.115.667-.944.819-1.844.152-.9.501-1.861.776-2.136.76-.76 1.427-2.146 1.427-2.965 0-.403.45-1.396 1-2.205.55-.809 1-1.817 1-2.239 0-.422.382-1.252.848-1.845.466-.593 1.013-1.812 1.214-2.709.202-.897.716-2.075 1.142-2.617.426-.542.89-1.597 1.03-2.345.14-.747.483-1.359.762-1.359.278 0 .73-.27 1.004-.6.594-.715.483-.729-.67-.086m-142.354 11.299c.428.323.563.587.3.587-.262 0-.476.202-.476.449 0 .309.189.292.605-.053.652-.541.143-1.609-.754-1.583-.248.007-.102.277.325.6M220.4 123c0 .8-.2 1-1 1s-1 .2-1 1-.2 1-1 1c-.831 0-1 .191-1 1.13 0 .689-.391 1.498-1 2.07-.609.572-1 1.381-1 2.07 0 .939-.169 1.13-1 1.13-.775 0-1 .206-1 .915 0 .569-.757 1.661-2 2.885-1.927 1.898-2 2.051-2 4.21 0 1.967-.146 2.381-1.2 3.39-1.174 1.124-1.2 1.236-1.2 5.075 0 3.92-.001 3.925-1 3.925h-1l.013 7.1c.01 5.609.136 7.263.6 7.876.391.517.587 1.746.587 3.677 0 1.595.18 3.011.4 3.147.225.139.4 2.06.4 4.391 0 2.872.181 4.492.589 5.277 1.011 1.94 1.734 3.876 1.993 5.332.136.77.39 2.259.563 3.31.173 1.05.526 2.121.785 2.38.258.258.47.953.47 1.544 0 .591.269 1.59.598 2.22.328.63.598 1.45.6 1.822.001.372.182.788.402.924.22.136.4.745.4 1.354 0 .663.401 1.483 1 2.046.819.769 1 1.317 1 3.028 0 1.704.183 2.261.993 3.03.546.518.998 1.392 1.004 1.942.006.55.453 1.9.994 3 .541 1.1.99 2.554.996 3.23.008.784.376 1.572 1.013 2.17.579.544 1 1.386 1 2 0 .614.421 1.456 1 2 .577.542 1 1.386 1 1.995 0 .65.46 1.496 1.2 2.205.74.709 1.2 1.555 1.2 2.205 0 .609.423 1.453 1 1.995.554.52 1 1.389 1 1.948 0 .554.428 1.468.951 2.03 1.052 1.132 4.249 7.056 4.249 7.875 0 .286.63 1.15 1.4 1.92.947.947 1.4 1.77 1.4 2.544 0 .703.386 1.506 1 2.083.571.537 1 1.387 1 1.983 0 .736.65 1.687 2.2 3.217 1.55 1.53 2.2 2.481 2.2 3.217 0 .616.432 1.441 1.054 2.013.58.534 1.41 1.78 1.843 2.77.434.99 1.92 2.97 3.301 4.4 1.386 1.434 2.712 3.23 2.957 4.005.304.962 2.149 3.106 5.845 6.795 4.331 4.322 5.4 5.608 5.4 6.494 0 .942.165 1.106 1.108 1.106.87 0 1.96.856 5.092 4 3.132 3.144 4.222 4 5.092 4 .964 0 1.108.156 1.108 1.2 0 1.041.146 1.201 1.1 1.206.886.005.984.089.5.431-.523.369-.523.403-.006.262.327-.089.633-.674.681-1.3.049-.638.521-1.505 1.072-1.969.541-.457 1.11-1.28 1.265-1.83.154-.55.601-1.36.994-1.8.393-.44 1.047-1.473 1.454-2.294.407-.822 2.835-5.682 5.396-10.8 4.732-9.456 8.193-16.575 9.289-19.106.731-1.69 2.712-3.875 3.683-4.063.388-.075.778-.353.865-.617.537-1.61-4.162 1.091-5.106 2.935a17.471 17.471 0 0 1-1.5 2.326c-.488.62-.887 1.436-.887 1.815 0 .378-.458 1.181-1.018 1.786-.56.604-1.122 1.62-1.25 2.258-.162.809-.471 1.16-1.019 1.16-.439 0-.876.338-.987.763-.231.881-.004 1.035-4.126-2.805-1.43-1.333-3.59-2.936-4.8-3.563-2.221-1.15-18.4-16.89-18.4-17.9 0-.246-.706-1.262-1.57-2.26-.863-.997-1.675-2.146-1.804-2.552-.129-.406-.772-1.136-1.43-1.623-.658-.486-1.196-1.153-1.196-1.481 0-.328-.685-1.358-1.521-2.288-.837-.93-2.121-2.932-2.854-4.449-.733-1.518-1.91-3.408-2.615-4.2-1.645-1.849-10.21-18.998-10.21-20.442 0-.602-.784-2.631-1.743-4.51-.959-1.879-1.864-4.171-2.011-5.095-.148-.923-.534-2.191-.857-2.817-.324-.626-.589-2.059-.589-3.184 0-1.126-.219-2.44-.488-2.92-1.621-2.905-2.027-24.286-.526-27.681.558-1.261 1.014-2.598 1.014-2.972 0-.374.54-1.794 1.2-3.156.66-1.363 1.213-2.7 1.228-2.971.016-.272.183-.134.372.306.302.704.347.665.372-.324.016-.653.198-1.018.435-.872.223.138.285.447.138.685-.152.246-.084.321.156.172.233-.144.328-.667.211-1.161-.209-.888-.203-.889.425-.1.351.44.643 1.104.65 1.476.007.372.161.768.343.88.871.539.246-3.685-.654-4.414-.538-.436-.963-1.26-1.017-1.973-.051-.674-.491-1.651-.976-2.172-.486-.521-.883-1.339-.883-1.817 0-.477-.472-1.564-1.048-2.413-.97-1.43-1.242-2.085-1.321-3.192-.017-.233-.366-.783-.774-1.222-.832-.893-1.866-3.678-1.5-4.043.272-.272-2.125-2.699-2.932-2.968-.428-.143-.443-.361-.073-1.052.387-.724.335-1.003-.309-1.647-.427-.427-.656-.91-.51-1.074.147-.163.054-.175-.205-.027-.26.149-.588.085-.728-.142-.14-.227-.41-.317-.6-.2-.19.117-.458.03-.596-.193-.138-.224-.443-.407-.677-.407-.265 0-.235.229.081.609.422.509.398.568-.151.357-.362-.138-.657-.412-.657-.609 0-.196-.54-.357-1.2-.357-1.013 0-1.2.156-1.2 1m19.06 28.413c.224.582.135.671-.447.447-.581-.223-.636-.169-.273.268.249.3.335.664.19.809-.145.145-.053.263.203.263.257 0 .467-.18.467-.4 0-.22.24-.4.533-.4.294 0 .534-.27.534-.6 0-.33-.089-.512-.197-.403-.108.108-.442-.008-.742-.257-.437-.363-.491-.308-.268.273m.783 1.954c.133.348.418.633.633.633.526 0 .197-.909-.401-1.108-.293-.098-.382.085-.232.475m.823 2.166c.074.293.134.618.134.723 0 .105.165.089.367-.036.203-.125.487.316.633.98.146.664.415 1.115.597 1.002.466-.288-.469-2.602-1.051-2.602-.264 0-.555-.135-.647-.3-.092-.165-.107-.06-.033.233M243 160c.136.22.607.4 1.047.4.44 0 .689-.18.553-.4-.136-.22-.607-.4-1.047-.4-.44 0-.689.18-.553.4m2.2 4.722c0 .237.177.54.394.674.216.134.668 1.089 1.004 2.124.601 1.854.607 1.858.373.301-.213-1.419-1.771-4.145-1.771-3.099m2.12 5.778c1.644 6.926 5.373 14.887 10.842 23.146 1.294 1.955 10.058 10.724 12.481 12.488 2.704 1.969 7.096 4.737 8.757 5.519.88.414 2.77 1.38 4.2 2.147 1.43.767 2.787 1.396 3.015 1.397.229.002 1.129.379 2 .838 1.66.874 11.403 4.44 14.708 5.383 4.96 1.415 7.954 2.778 8.527 3.882.745 1.436.98 1.399.554-.087-.449-1.564-.748-2.013-1.343-2.013-.271 0-1.182-.352-2.025-.782-.844-.43-2.547-.988-3.785-1.241-1.238-.253-2.521-.696-2.851-.985-.33-.288-1.77-.826-3.2-1.194-1.43-.368-2.782-.82-3.005-1.004-.223-.184-1.303-.559-2.4-.833-1.097-.274-2.445-.81-2.995-1.192-.55-.382-1.657-.806-2.459-.942-.803-.136-1.883-.57-2.4-.964-.518-.395-1.571-.959-2.341-1.256-.77-.296-1.67-.749-2-1.007-.33-.258-1.172-.694-1.871-.971-.699-.276-1.582-.846-1.962-1.266-.38-.419-.896-.763-1.148-.763-.251 0-.808-.265-1.238-.59-1.912-1.442-4.466-3.272-5.419-3.883-.572-.366-2.772-2.434-4.891-4.596-5.548-5.661-5.871-6.009-5.871-6.32 0-.154-.571-1.12-1.27-2.146a515.897 515.897 0 0 1-1.937-2.865c-.367-.55-.884-1.661-1.15-2.468-.266-.807-.745-1.684-1.063-1.949-.319-.265-.585-.684-.591-.932-.006-.248-.546-1.158-1.2-2.022-.654-.864-1.189-1.861-1.189-2.216 0-.354-.345-1.321-.767-2.149-.422-.827-1.147-2.755-1.612-4.284-.778-2.563-1.593-3.954-1.101-1.88" fill="#1c3737"/><path d="M112.669 45.222c-.356.509-.645.65-.741.362-.103-.309-.359-.223-.743.249-.342.422-.379.597-.09.423.332-.199.42-.101.267.298-.13.338-.516.504-.895.383-.46-.146-.515-.102-.178.142.28.203.402.829.286 1.47-.145.797-.066 1.031.274.82.336-.207.408-.031.245.591-.202.774-.149.82.414.363.355-.288.536-.34.403-.117-.378.633.816 4.721 1.488 5.097.331.185.601.652.601 1.037 0 .385.16.871.355 1.08.632.676.995 2.32.436 1.974-.322-.198-.43-.111-.31.25.102.306.433.556.734.556.302 0 .663.45.802 1 .147.579.492.946.818.871.447-.101.463-.024.075.371-.618.628.083 1.612.919 1.291.566-.217.763.753.593 2.922-.037.47.382 1.339.931 1.932.548.592.899 1.332.779 1.645-.119.312-.008.568.249.568.256 0 .365.164.241.364-.351.568.2 1.636.844 1.636.32 0 .47.18.334.4-.136.22-.057.4.176.4.233 0 .424.712.424 1.582 0 1.146.27 1.852.981 2.563.54.54 1.065 1.493 1.167 2.118.103.625.224 1.182.269 1.237.046.055.105.325.133.6.028.275.318.5.645.5s.63.27.673.6c.303 2.304.616 3.649.805 3.46.471-.471 1.207.831 1.437 2.542.146 1.094.554 2.044 1.049 2.445.47.381.872 1.275.96 2.135.11 1.073.418 1.615 1.117 1.971.557.284.914.778.846 1.169-.064.373.046.678.245.678s.271.475.16 1.055c-.149.78.037 1.235.71 1.743.583.439.928 1.141.958 1.944.029.826.25 1.259.645 1.263.527.006.528.053.01.381-.503.317-.452.561.341 1.633.512.693.963 1.467 1.001 1.721.039.253.211.685.383.96.172.275.205.5.073.5s.124.389.567.865c.443.476 1.097 1.871 1.451 3.1.355 1.229.907 2.528 1.227 2.886.32.358.675 1.162.788 1.788.114.625.421 1.401.683 1.725.372.461.368.525-.019.292-.335-.201-.42-.1-.262.311.128.334.441.568.695.52.254-.048.52.422.592 1.044.089.782.304 1.065.695.915.311-.12.546-.089.523.068-.139.931.119 1.673.552 1.586.347-.069.492.483.474 1.8-.014 1.045.121 1.9.3 1.9s.326.281.326.624c0 .343.181.511.403.374.4-.247.775.369.95 1.559.05.341.216.745.369.898.153.153.278.598.278.988s.208.838.462.995c.286.177.353.11.176-.176-.157-.254-.115-.462.093-.462.208 0 .6 1.175.871 2.611.344 1.824.724 2.735 1.258 3.021.421.225.738.625.705.889-.135 1.081.054 1.515.535 1.226.398-.239.399-.176.007.309-.396.49-.371.76.129 1.377.343.422.517.554.387.295-.13-.26-.008-.604.27-.764.279-.161.378-.15.221.024-.157.175-.079.699.173 1.165.253.466.471 1.327.486 1.914.015.593.441 1.425.96 1.875.688.596.898 1.14.8 2.071-.103.984.106 1.454.948 2.125.757.604 1.109 1.29 1.177 2.289.08 1.196 1.113 3.06 1.156 2.089.008-.174.259.126.559.667.299.541.471 1.384.382 1.874-.089.491.023 1.006.248 1.145.226.139.306.421.18.626-.127.204-.029.372.217.372s.336.18.2.4c-.136.22.033.4.376.4.343 0 .639.315.658.7.134 2.717.314 3.473.938 3.929.413.302.582.721.406 1.006-.193.312-.135.386.16.203.275-.17.462-.028.462.351 0 .35.256.734.569.854.313.121.677.5.809.845.2.519.137.54-.369.12-.374-.311-.609-.343-.609-.084 0 .232.356.535.792.673.435.139.759.376.719.527-.04.152.083.996.273 1.876.405 1.873.473 2.229.555 2.9.034.275.451.5.928.5.476 0 .746.12.599.268-.147.147.048.628.433 1.068.386.441.506.688.268.55-.239-.138-.434.001-.434.309s.105.549.234.535c1.168-.126 1.789.111 1.233.47-.494.319-.5.389-.033.394.311.003.451.122.309.263-.141.141-.517.041-.834-.222-.47-.39-.555-.345-.457.243.067.397.336.673.598.612.262-.06.394.03.294.2-.339.574.498 2.172.981 1.874.289-.178.358-.113.182.171-.157.254.184.925.764 1.506.576.576.954 1.292.839 1.59-.114.299-.033.652.181.784a.45.45 0 0 1 .159.613c-.203.328.313.534 1.08.432.145-.02.215.409.155.952-.059.543.013.988.16.988s.23.54.185 1.2c-.051.735.11 1.2.415 1.2.839 0 1.957 1.469 1.386 1.822-.3.186-.385.135-.219-.133.147-.238.085-.547-.138-.685-.689-.425-.451.611.42 1.834.455.639.652 1.162.438 1.162-.215 0-.296.36-.181.8.115.44.448.8.739.8.758 0 1.038.613 1.156 2.523.078 1.258.264 1.664.747 1.624.353-.029.611.061.573.2-.038.139.143.634.402 1.1.259.466.357.961.218 1.1-.139.139-.062.253.17.253s.397.315.367.7c-.035.432.187.661.577.598.349-.056.634.161.634.482 0 .322-.195.489-.434.373-.238-.117-.102.057.302.387.404.33.661.928.571 1.33-.16.707.696 2.93 1.128 2.93.117 0 .103-.178-.031-.395-.136-.221.011-.298.332-.175.34.131.494.539.374.996-.111.426-.046.78.144.787 1.405.054 2.636 2.787 1.255 2.787-.254 0-.239-.201.042-.539.34-.411.268-.702-.302-1.218-.655-.593-.778-.601-.982-.071-.132.345.062.779.451 1.005.375.219.503.408.283.42-.22.011.05.392.6.847.55.454.744.69.431.524-.443-.234-.427-.098.07.612.351.501.543 1.161.426 1.466-.117.305-.019.554.218.554s.315.299.174.666c-.191.499-.113.58.313.323.456-.275.449-.194-.032.411-.33.414-.396.631-.146.482.533-.32 1.394 1.54 1.533 3.315.053.666.437 1.61.854 2.1.75.879.75.883-.041.323-.51-.361-.437-.196.2.455.55.562 1.163.927 1.362.812.199-.116.243-.019.099.215-.348.563.123 1.755.581 1.472.197-.122.358-.031.358.202s-.18.424-.4.424c-.22 0-.4.191-.4.424 0 .233.175.315.388.183.214-.132.503.216.643.774.142.565.44.899.673.754.243-.149.301-.067.138.196-.445.72.181 3.269.803 3.269.305 0 .555.276.555.613 0 .336.269.715.598.841.328.127.479.422.334.656-.162.262-.022.333.363.186.65-.25.729.31.17 1.204-.176.282-.127.5.111.5.233 0 .388.135.343.3-.261.966.595 3.282 1.295 3.504.432.138.786.428.786.647 0 .218.211.266.468.107.311-.192.386-.074.222.351-.135.351-.03.727.232.835.356.145.341.291-.056.57-.422.296-.378.416.208.569.701.183.947.964 1.078 3.417.026.495.295.9.597.9.417 0 .441.13.098.543-.524.631.817 2.657 1.758 2.657.301 0 .658.178.792.395.14.227-.02.294-.376.158-.342-.131-.621-.039-.621.204 0 .244.259.443.576.443.317 0 .682.171.811.379.13.211-.152.305-.635.212l-.87-.168.808.889c.445.488.716 1.158.604 1.488-.112.33-.062.468.112.306.173-.161.552.019.842.4.701.923.682 1.294-.067 1.294-.531 0-.517.14.1.989.396.544.906.924 1.135.845.377-.131.6.703.715 2.666.022.385.176.7.342.7.166 0 .187.315.047.7-.243.666-.216.665.546-.002.648-.568.801-.59.801-.117 0 .321-.15.491-.334.378-.183-.114-.333-.016-.333.217 0 .233.18.424.4.424.22 0 .4.52.4 1.156 0 .635.315 1.499.7 1.919.385.419.529.484.319.144-.312-.508-.281-.53.176-.123.606.539.766 1.119.942 3.397.064.821.268 1.631.454 1.8.185.169.208.082.05-.193-.159-.275-.206-.5-.105-.5.417 0 1.871 3.318 2.035 4.644.098.787.467 1.642.821 1.901.354.259.674.872.711 1.363.037.49.344.906.682.924.407.02.447.099.118.232-.363.147-.385.409-.081.977.228.426.314.939.19 1.14-.124.2-.014.494.243.653.311.192.37.1.177-.272-.16-.309-.014-.22.326.197.339.417.533.893.431 1.058-.101.165.082.401.407.526.367.141.491.486.328.911-.207.539-.108.625.463.406.614-.235.648-.184.221.331-.337.405-.358.609-.065.609.243 0 .555.45.693 1 .138.55.391 1 .563 1 .172 0 .287.304.257.677-.031.372.365.891.879 1.154.515.263.757.589.538.724-.219.135-.304.604-.19 1.041.114.437.367.696.562.576.195-.121.355-.044.355.171 0 .215-.194.455-.431.534-.237.079-.015.499.493.933.509.435.705.505.437.157-.389-.507-.376-.634.062-.634.633 0 .606.494-.097 1.773-.375.681-.38.879-.023.8.261-.058.628.458.816 1.148.188.689.785 1.544 1.327 1.899.849.556.964.888.833 2.416-.153 1.788.459 2.602 1.481 1.97.251-.155.308-.073.14.199-.157.254-.105.462.115.462.221 0 .332.36.247.8-.085.44.016.8.223.8.207 0 .343.135.301.3-.184.722.577 2.872.987 2.79.478-.095.558.172.639 2.119.035.844.328 1.335.971 1.628.692.315.901.711.84 1.592-.045.645.084 1.275.285 1.4.202.124.271.381.154.571-.117.19-.027.46.2.6.227.14.309.423.183.628-.127.204.05.372.393.372s.638.135.655.3c.016.165.09.57.163.9.073.33.248 1.223.39 1.984.272 1.463.924 2.52 1.38 2.238.15-.093.269.404.264 1.105-.008.961.158 1.26.677 1.218.377-.03.603.081.5.247-.102.165.156.611.574.989.572.517.705 1.025.538 2.053-.13.804-.054 1.366.185 1.366.871 0 1.871 2.184 2.07 4.524.016.178.236.195.49.038.294-.182.353-.109.162.199-.401.649.096 2.536.588 2.232.213-.132.402.175.419.683.052 1.57.308 2.504.725 2.643.219.073.307.373.194.666a.722.722 0 0 0 .285.836c.339.21.389.131.163-.259-.18-.309-.172-.422.016-.25.188.171.397.576.464.9.067.323.175.813.241 1.088.065.275.607 1.265 1.204 2.2.598.935 1.154 2.285 1.237 3 .083.715.171 1.435.195 1.6.025.165.39.3.812.3.421 0 .826.169.9.374.073.206 1.573.399 3.333.429 4.274.072 4.2.082 4.2-.603 0-.33.217-.555.482-.5.265.055.49-.132.5-.415.01-.283.198-.643.418-.8.22-.157.463-.735.539-1.285.076-.55.3-1.197.497-1.437.196-.24.224-.594.061-.787-.164-.192.011-.115.387.173.599.457.664.418.523-.313-.089-.46.019-.836.24-.836.22 0 .298-.165.174-.366-.125-.202-.05-.832.166-1.4.29-.762.264-1.037-.097-1.047-.287-.007-.201-.232.21-.544.799-.606.956-1.238.2-.802-.279.16-.358.132-.179-.065.177-.194.717-.357 1.2-.364.628-.009.843-.221.754-.744-.069-.403.197-1.213.59-1.8.393-.587.741-1.203.775-1.368.033-.165.11-.435.171-.6.061-.165.145-.48.188-.7.042-.22.282-.901.534-1.514.252-.613.415-1.333.362-1.6-.052-.267.213-.462.589-.433.377.029.657-.061.624-.2-.177-.741.722-3.208 1.579-4.332.54-.707.873-1.462.741-1.676a.455.455 0 0 1 .141-.626c.21-.13.309-.616.219-1.082-.09-.465-.055-.737.078-.605.447.447 1.734-1.65 1.734-2.825 0-.728.376-1.521 1-2.107.67-.629 1-1.37 1-2.243 0-.936.217-1.372.772-1.548.699-.222 1.354-1.777 1.435-3.409.017-.33.242-.557.5-.504.391.08 1.574-1.48 1.361-1.796-.403-.596.147-2.351 1.006-3.21 1.047-1.048 1.224-1.563 1.293-3.763.02-.65.309-1.161.733-1.295.568-.181.703-.704.714-2.782.012-2.119.201-2.829 1.1-4.126.597-.862 1.086-1.848 1.086-2.192 0-.343.334-1.053.742-1.578.408-.525.971-1.674 1.25-2.554.28-.88.765-1.894 1.078-2.253.312-.359.757-1.349.988-2.2.23-.851.742-1.907 1.137-2.347.395-.44.841-1.377.989-2.081.149-.705.602-1.701 1.005-2.214.404-.513.933-1.671 1.175-2.572.243-.902.712-1.864 1.042-2.138.331-.275.711-1.187.846-2.029.134-.841.583-1.836.998-2.211.414-.375.947-1.401 1.183-2.279.237-.878.681-1.847.988-2.154.307-.307.76-1.31 1.008-2.229.247-.919.882-2.185 1.41-2.813.529-.628.961-1.398.961-1.711 0-.496.747-.767 1.7-.616.165.026.3-.206.3-.516 0-1.685-3.533 1.17-4.655 3.763-1.096 2.531-4.557 9.65-9.289 19.106a6517.036 6517.036 0 0 0-5.396 10.8c-.407.821-1.061 1.854-1.454 2.294-.393.44-.84 1.25-.994 1.8-.155.55-.724 1.373-1.265 1.83-.551.464-1.023 1.331-1.072 1.969-.048.626-.354 1.211-.681 1.3-.517.141-.517.107.006-.262.484-.342.386-.426-.5-.431-.954-.005-1.1-.165-1.1-1.206 0-1.044-.144-1.2-1.108-1.2-.87 0-1.96-.856-5.092-4-3.132-3.144-4.222-4-5.092-4-.943 0-1.108-.164-1.108-1.106 0-.886-1.069-2.172-5.4-6.494-3.696-3.689-5.541-5.833-5.845-6.795-.245-.775-1.571-2.571-2.957-4.005-1.381-1.43-2.867-3.41-3.301-4.4-.433-.99-1.263-2.236-1.843-2.77-.622-.572-1.054-1.397-1.054-2.013 0-.736-.65-1.687-2.2-3.217-1.55-1.53-2.2-2.481-2.2-3.217 0-.596-.429-1.446-1-1.983-.614-.577-1-1.38-1-2.083 0-.774-.453-1.597-1.4-2.544-.77-.77-1.4-1.634-1.4-1.92 0-.819-3.197-6.743-4.249-7.875-.523-.562-.951-1.476-.951-2.03 0-.559-.446-1.428-1-1.948-.577-.542-1-1.386-1-1.995 0-.65-.46-1.496-1.2-2.205-.74-.709-1.2-1.555-1.2-2.205 0-.609-.423-1.453-1-1.995-.579-.544-1-1.386-1-2 0-.614-.421-1.456-1-2-.637-.598-1.005-1.386-1.013-2.17-.006-.676-.455-2.13-.996-3.23-.541-1.1-.988-2.45-.994-3-.006-.55-.458-1.424-1.004-1.942-.81-.769-.993-1.326-.993-3.03 0-1.711-.181-2.259-1-3.028-.599-.563-1-1.383-1-2.046 0-.609-.18-1.218-.4-1.354-.22-.136-.401-.552-.402-.924-.002-.372-.272-1.192-.6-1.822-.329-.63-.598-1.629-.598-2.22 0-.591-.212-1.286-.47-1.544-.259-.259-.612-1.33-.785-2.38-.173-1.051-.427-2.54-.563-3.31-.259-1.456-.982-3.392-1.993-5.332-.408-.785-.589-2.405-.589-5.277 0-2.331-.175-4.252-.4-4.391-.22-.136-.4-1.552-.4-3.147 0-1.931-.196-3.16-.587-3.677-.464-.613-.59-2.267-.6-7.876l-.013-7.1h1c.999 0 1-.005 1-3.925 0-3.839.026-3.951 1.2-5.075 1.054-1.009 1.2-1.423 1.2-3.39 0-2.159.073-2.312 2-4.21 1.243-1.224 2-2.316 2-2.885 0-.709.225-.915 1-.915.831 0 1-.191 1-1.13 0-.689.391-1.498 1-2.07.609-.572 1-1.381 1-2.07 0-.939.169-1.13 1-1.13.8 0 1-.2 1-1s.2-1 1-1 1-.2 1-1c0-.844.187-1 1.2-1 .66 0 1.2.161 1.2.357 0 .197.295.471.657.609.549.211.573.152.151-.357-.504-.607-.012-.879.559-.309.165.165.42.305.566.31 1.207.047 2.44 1.566 2.28 2.811-.132 1.032-.006 1.391.549 1.567.93.295 2.736 2.318 2.555 2.862-.077.23.037.853.254 1.384.355.872.383.829.281-.434-.136-1.698-.888-3.6-1.424-3.6-.319 0-1.111-2.753-.891-3.1.153-.243-1.587-1.701-2.037-1.706-.392-.005-.394-.074-.01-.318.64-.406-.088-3.224-.915-3.541-.316-.121-.585-.516-.598-.878-.047-1.366-1.001-3.457-1.577-3.457-.397 0-.639-.474-.715-1.4-.064-.77-.211-1.67-.326-2-.116-.33-.235-.69-.264-.8-.029-.11-.39-.473-.802-.806-.444-.36-.781-1.201-.831-2.075-.053-.947-.399-1.744-.972-2.241-.49-.425-.89-1.21-.89-1.745 0-.535-.225-1.215-.5-1.512-.406-.437-.387-.482.1-.239.33.165.041-.162-.643-.726-1.062-.876-1.243-1.292-1.243-2.869 0-1.28-.225-2.05-.735-2.516-.7-.638-.708-.632-.176.129.473.678.474.725.002.304-.537-.478-.743-1.047-.962-2.658-.056-.415-.375-.955-.707-1.2-.902-.665-1.536-2.047-1.536-3.35 0-.687-.37-1.505-.912-2.013-.501-.471-.953-1.357-1.003-1.97-.051-.612-.27-1.173-.488-1.246-.219-.074-.397-.443-.397-.82 0-.378-.15-.858-.333-1.067-.182-.209-.562-1.187-.844-2.173-.281-.986-.826-2.014-1.21-2.283-.385-.269-.925-1.296-1.201-2.281-.276-.986-.763-1.892-1.082-2.015-.319-.122-.481-.383-.36-.58.122-.196-.047-.58-.374-.852-.328-.272-.596-.753-.596-1.069 0-.316-.183-.461-.407-.323-.223.138-.284.464-.135.724.148.259.116.332-.072.16-.188-.171-.386-.531-.438-.8-.053-.268-.271-1.059-.485-1.758-.215-.698-.271-1.402-.126-1.564.144-.162.049-.172-.212-.022-.262.15-.622.033-.8-.26-.179-.293-.706-.791-1.171-1.108-.84-.571-.954-.765-.954-1.619 0-.578-3.958-4.29-4.891-4.586-.396-.126-.598-.426-.449-.668.174-.282.033-.348-.394-.184-.366.141-.666.095-.666-.101 0-.48-3.293-3.608-3.804-3.614-.222-.002-.628-.364-.903-.804-.275-.44-.858-.8-1.296-.8-.439 0-.797-.191-.797-.424 0-.233-.169-.319-.375-.191-.207.127-.554-.087-.772-.477-.218-.389-.499-.663-.625-.608-.573.251-1.05.059-.811-.327.145-.234.02-.393-.277-.352-1.557.213-2.74-.065-2.74-.645 0-.343-.165-.521-.366-.397-.201.124-.429.037-.506-.195-.077-.232-.858-.507-1.734-.613-.877-.105-1.774-.427-1.994-.716-.409-.536-1.556-.431-1.22.112.102.165-.053.3-.343.3-.333 0-.452-.307-.323-.834.112-.458.064-.704-.108-.547-.171.157-.659.1-1.084-.128-.551-.295-.938-.277-1.348.063-.444.369-.574.369-.574-.003 0-.307-.543-.44-1.511-.37-.831.06-1.731-.027-2-.193-.269-.166-.669-.191-.889-.055-.22.136-.413-.078-.428-.476-.025-.646-.065-.638-.372.076-.189.44-.356.575-.372.3-.015-.275-.478-.5-1.028-.5s-1-.191-1-.424c0-.233.208-.295.462-.138.282.174.353.11.183-.165-.601-.973-49.687-.633-50.376.349M286.572 115.4c.125 13.277.38 16.152 1.495 16.841.493.305.263-3.164-.417-6.275-.475-2.17-.716-11.008-.487-17.788.104-3.079.004-5.104-.278-5.6-.327-.576-.408 2.758-.313 12.822m78.328-6.025c-1.007.464-1.219 1.425-.314 1.425.516 0 1.691-1.531 1.346-1.754-.072-.048-.537.1-1.032.329m-1.246 2.271c-.029.355-.408 1.096-.84 1.645-.432.549-.95 1.733-1.152 2.63-.201.897-.748 2.116-1.214 2.709-.466.593-.848 1.423-.848 1.845 0 .422-.45 1.43-1 2.239-.55.809-1 1.802-1 2.205 0 .819-.667 2.205-1.427 2.965-.275.275-.624 1.236-.776 2.136-.152.9-.521 1.729-.819 1.844-.298.114-.818 1.158-1.156 2.32-.338 1.161-.886 2.337-1.218 2.613-.767.636-.776 1.203-.018 1.203.738 0 1.414-1.233 1.414-2.578 0-.566.355-1.333.788-1.704.435-.373.985-1.625 1.229-2.798.274-1.32.717-2.271 1.173-2.515.485-.259.825-1.057 1.004-2.36.195-1.42.472-2.021.994-2.158.524-.137.8-.742 1-2.2.2-1.457.476-2.063 1-2.2.527-.138.8-.746 1.005-2.238.173-1.256.481-2.049.796-2.049.688 0 1.521-2.092 1.298-3.262-.098-.516-.203-.647-.233-.292m-140.498 8.501c.345.416.309.667-.151 1.049-.416.345-.605.362-.605.053 0-.247.214-.449.476-.449.263 0 .128-.264-.3-.587-.427-.323-.573-.593-.325-.6.248-.007.655.233.905.534M230.8 132.8c0 .22.158.4.35.4.193 0 .638.585.991 1.3.7 1.42.905.6.269-1.074-.373-.981-1.61-1.462-1.61-.626m57.668 3.4c-.043 3.091.47 5.71 1.237 6.319.363.288.715 1.515.879 3.06.156 1.465.59 3.023 1.006 3.608.404.566.862 1.885 1.019 2.931.167 1.116.58 2.109.998 2.402.393.275.917 1.254 1.165 2.177.249.922.697 1.817.997 1.99.3.172.839.943 1.198 1.713.968 2.076 2.696 4.4 3.273 4.4.278 0 .624.37.767.823.144.453.696.988 1.227 1.19.531.202.966.63.966.95 0 .321.331.688.735.816.404.129 1.337.771 2.072 1.427.735.657 1.746 1.194 2.245 1.194.5 0 1.052.244 1.228.542.47.794 1.911 1.458 3.168 1.458.605 0 1.489.365 1.964.812.572.537 1.594.873 3.026.993 2.091.177 2.11.169.582-.222-.869-.222-1.859-.654-2.2-.96-.341-.305-1.34-.683-2.22-.839-.88-.155-1.96-.601-2.4-.99-.44-.389-1.383-.831-2.095-.982-.713-.15-1.403-.447-1.534-.659-.131-.212-.959-.84-1.839-1.396-1.908-1.204-7.013-6.353-7.349-7.412-.13-.41-.402-.745-.605-.745-.202 0-.643-.585-.98-1.3a46.081 46.081 0 0 0-1.17-2.3c-1.409-2.526-3.028-6.069-3.028-6.628 0-.339-.344-1.371-.764-2.294-.421-.923-.97-2.848-1.221-4.278-.25-1.43-.728-3.192-1.061-3.915-.333-.723-.751-2.433-.929-3.8l-.324-2.485-.033 2.4m-54.75 1.943c.492.748.937 1.112 1.007.821.185-.77-.666-2.164-1.321-2.164-.427 0-.35.331.314 1.343m117.536 1.495c-.029.351-.414.964-.854 1.362-.945.855-1.029 1.4-.214 1.4.778 0 1.507-1.421 1.294-2.521-.094-.483-.196-.592-.226-.241m-115.987 2.32c.752 1.204 1.577 1.432 1.167.322-.178-.484-.63-.94-1.004-1.014-.591-.117-.612-.027-.163.692m113.607 2.572c-.289.809-.694 1.47-.9 1.47-.206 0-.374.285-.374.633 0 .349.225.56.5.471.71-.231 1.576-2.165 1.427-3.184-.102-.693-.229-.574-.653.61M236.8 145.533c0 .397.87 1.267 1.267 1.267.17 0 .21-.256.09-.569-.239-.621-1.357-1.196-1.357-.698m110.386 2.9c-.007.312-.353 1.286-.768 2.165-.817 1.728-.772 2.193.141 1.436.612-.508 1.288-3.521.881-3.928-.132-.131-.246.016-.254.327M245.2 163.959c0 .183.338.763.752 1.289.413.525.842 1.315.953 1.754.135.531.218.363.249-.502.025-.715-.134-1.3-.354-1.3-.22 0-.4-.251-.4-.557 0-.307-.27-.661-.6-.788-.33-.126-.6-.08-.6.104m2.534 6.156c.139.393.529 1.668.868 2.833.339 1.164.972 2.816 1.407 3.669.435.854.791 1.842.791 2.196 0 .355.535 1.352 1.189 2.216.654.864 1.194 1.774 1.2 2.022.006.248.272.667.591.932.318.265.797 1.142 1.063 1.949.266.807.783 1.918 1.15 2.468.367.55 1.239 1.839 1.937 2.865.699 1.026 1.27 1.992 1.27 2.146 0 .311.323.659 5.871 6.32 2.119 2.162 4.319 4.23 4.891 4.596.953.611 3.507 2.441 5.419 3.883.43.325.987.59 1.238.59.252 0 .768.344 1.148.763.38.42 1.263.99 1.962 1.266.699.277 1.541.713 1.871.971.33.258 1.23.711 2 1.007.77.297 1.823.861 2.341 1.256.517.394 1.597.828 2.4.964.802.136 1.909.56 2.459.942.55.382 1.898.918 2.995 1.192 1.097.274 2.177.649 2.4.833.223.184 1.575.636 3.005 1.004s2.87.904 3.2 1.191c.33.286 1.59.728 2.8.981 1.21.253 2.92.792 3.8 1.197.88.405 1.908.84 2.284.966.376.126.862.823 1.08 1.548l.397 1.319-.08-1.36c-.053-.889-.358-1.512-.881-1.8-.44-.242-.94-.658-1.111-.924-.388-.605-2.862-1.311-4.602-1.314-.792-.001-1.403-.238-1.541-.598-.23-.6-1.894-1.177-4.607-1.599-.804-.125-1.555-.47-1.669-.768-.116-.3-1.333-.738-2.739-.985-1.392-.245-2.731-.717-2.976-1.05-.246-.333-1.252-.756-2.237-.94-.985-.184-2.161-.705-2.612-1.156-.452-.452-1.546-.944-2.432-1.094-.886-.149-1.706-.518-1.822-.819-.115-.302-.95-.77-1.854-1.041-.905-.271-1.817-.813-2.026-1.205-.21-.392-1.014-.831-1.788-.976-.773-.145-1.581-.591-1.794-.99-.214-.4-.794-.855-1.29-1.011-.495-.157-1.135-.619-1.423-1.027-.287-.409-.757-.743-1.044-.743-.472 0-1.119-.517-4.749-3.793-.614-.554-1.289-1.007-1.5-1.007-.211 0-.384-.274-.384-.609 0-.334-.412-.796-.916-1.026-.504-.229-1.089-.747-1.3-1.149-.46-.876-4.025-5.679-5.259-7.083-.481-.548-.991-1.523-1.133-2.168-.141-.644-.578-1.344-.971-1.554-.406-.217-.82-1.045-.96-1.917-.147-.921-.649-1.887-1.253-2.412-.554-.482-1.008-1.142-1.008-1.465 0-.324-.339-.77-.753-.992-.479-.256-.848-1.04-1.016-2.155-.144-.964-.571-2.094-.949-2.511-.377-.418-.921-1.659-1.207-2.759-.287-1.1-.718-2.18-.957-2.4-.306-.281-.361-.187-.184.315M320 175.514c0 .654 2.386 1.685 3.862 1.668l1.538-.017-1.55-.553c-.853-.304-1.744-.746-1.98-.982-.496-.496-1.87-.582-1.87-.116m6 1.977c.33.126 1.029.562 1.554.969 1.664 1.291 7.646.882 7.646-.523 0-.307-.16-.303-.54.013-1.149.954-4.118 1.005-5.851.101-.899-.468-2.033-.837-2.521-.819-.599.021-.693.105-.288.259" fill="#1c2527"/></g></svg>