<svg version="1.0" xmlns="http://www.w3.org/2000/svg" width="938.667" height="938.667" viewBox="0 0 704 704"><path d="M130.6 107.8C72.4 166 24.3 214.5 23.7 215.6c-.6 1-1.3 2.1-1.7 2.4-1.9 1.5-3.5 8.4-3.5 15.5 0 6.5.5 9 2.6 13.6 5.5 11.7 13.4 16.4 36.4 21.4 1.1.3 14.4 3.6 29.5 7.5s28.4 7.3 29.6 7.5c1.1.3 5.6 1.4 10 2.6 4.3 1.1 9.2 2.2 10.7 2.5 1.6.2 3.3.7 3.8 1 .6.3 2.4.8 4 1.1 1.6.2 4.3 1 5.9 1.7l2.9 1.2-3.8 5.9c-12.7 20-23.3 41.8-32.7 67-.4 1.1-.8 2.4-.9 3-.2.5-1 3.5-2 6.5-.9 3-1.9 6.8-2.1 8.5-.3 1.6-.9 4.6-1.4 6.5-2.5 9.7-3 33.2-1 42.5.6 2.7 1.2 5.7 1.3 6.5 1.1 6.5 9.4 24.2 13.7 28.8 1.6 1.8 2.7 3.2 2.4 3.2-.8 0 12.2 12.6 19.5 19 14.9 13 29.4 22.4 50.6 32.6 6.6 3.2 12.2 6.2 12.3 6.6.2.4.8.8 1.4.8 1.9 0 10.4 6.5 16.9 13 6.3 6.3 14 15.7 18.9 23.2 1.4 2.1 2.8 3.8 3.3 3.8.4 0 .7.7.7 1.5s.4 1.5.8 1.5 1.5 1.2 2.4 2.7c.9 1.6 2.4 3.7 3.2 4.8.9 1.1 4.1 5.4 7.1 9.5 3.1 4.1 6.1 8.2 6.8 9 .7.8 3.9 4.9 7.2 9 3.3 4.1 6.5 8 7 8.6.6.6 3.7 4.2 7 8 7.3 8.4 26.3 27.4 32.9 32.9 2.7 2.2 5.4 4.5 6 5 2.5 2.4 13.5 10.5 14.1 10.5.4 0 1.3.6 2 1.2 3.1 2.8 4.4 3.8 5.1 3.8.4 0 2.1 1 3.8 2.3 6.3 4.6 31.9 16.3 39.6 18.1.8.2 3.3.9 5.5 1.5 8.7 2.3 12.9 2.6 37 2.6 23.1 0 25.7-.2 33.5-2.3 4.7-1.3 9-2.5 9.5-2.6 1-.3 2.3-.8 9.7-3.9 2-.8 3.9-1.3 4.2-.9.3.3.6 0 .6-.6 0-.7.7-1.2 1.5-1.2 3 0 32.9-16.9 38.5-21.8.8-.7 5.1-4.1 9.5-7.6 10.1-8 19.6-17.3 26-25.6 2.8-3.6 5.2-6.7 5.5-7 .3-.3 1.1-1.5 1.8-2.7.6-1.3 1.8-3.3 2.5-4.5.6-1.3 1.5-2.5 1.8-2.8 1.2-1.1 7.8-17.8 9.3-23.5 2.6-10.3 2.8-11.7 3.1-25 .3-14.3-.8-24-4.1-36.5-.8-3-1.6-6-1.8-6.5-.6-2.5-5.9-18.1-6.5-19-.3-.6-.6-1.2-.7-1.5-.5-2.4-10.2-23.7-19-41.5-5.4-11-9.9-20.2-10-20.5 0-.3-2.7-5.9-5.9-12.5-11.4-23.7-20.8-49.9-23.1-64-.3-2.2-.7-4.2-.9-4.5-.7-1.1-1.8-14.7-1.7-21.3.1-6.6 1.7-16.6 3.2-19.6.4-.9 1.6-3.4 2.6-5.5 2.2-4.7 8.9-11.4 13.6-13.8 1.8-.9 11.9-4.5 22.3-7.9 10.5-3.4 24.2-7.9 30.5-10.1 6.3-2.1 12.2-4.1 13-4.3 4.2-1 57.1-19.4 60.5-21.1 9.5-4.4 16.5-15.3 16.6-25.5 0-5.5-.4-7.3-3.1-12.7-3.5-7.2.7-2.8-119.9-125-26.7-27.1-58.8-59.6-71.2-72.2-12.5-12.7-23-23-23.4-23-.4 0-.1.7.6 1.6.7.9 1.8 2.4 2.4 3.4.5.9 1.7 2.8 2.6 4.1C479.6 23.4 498 53 498 53.9c0 .6.5 1.1 1 1.1.6 0 1.4.8 1.7 1.7.7 1.7 3.3 5.9 18 28.6 3.5 5.3 6.3 10.2 6.3 10.7 0 .6.4 1 .8 1 .5 0 1.5 1.2 2.3 2.7 1.2 2.5 9.7 16 16.4 26.3 1.3 1.9 9.5 15 18.4 29 8.8 14 16.5 26 17.1 26.7.5.7 1 1.6 1 2.1s.9 1.7 2 2.7c1.1 1 2 2.2 2 2.7s1.8 3.6 4 6.8c2.2 3.2 4 6.3 4 6.8s.9 1.7 2 2.7c1.1 1 2 2.1 2 2.5 0 .4 2 3.8 4.5 7.6 2.5 3.7 4.5 7.1 4.5 7.5 0 .8-30.5 11.2-32.7 11.2-.7 0-1.3.4-1.3.9 0 .4-.9.8-2 .8-1.2 0-3.4.7-5 1.5-1.7.9-3.1 1.5-3.2 1.4-.2-.1-9.4 2.8-20.4 6.4-19.9 6.5-30.1 11.1-37.9 17.1-7.1 5.4-17.4 16.7-22.1 24.2-4.5 7.2-10.1 19.3-10.7 23-.1 1.1-.5 2.3-.8 2.9-.4.5-.9 2.6-1.3 4.5-.3 1.9-.8 4.6-1.1 6-2.8 14.5-2.2 36.5 1.5 55 .6 3 1.4 6.6 1.6 8 .3 1.4 1.4 5.6 2.5 9.5 1.1 3.8 2.1 7.7 2.4 8.5.8 3 4.4 13.6 6.5 19 1.2 3 2.7 7.1 3.5 9 2.6 7 9 20.9 18.5 40.5 13.5 27.8 20.5 42.4 22.3 46.5.8 1.9 2.2 5.1 3 7 3.4 7.6 7.7 21.4 9.2 29.2 4.8 26.1-3.8 44.9-30 65.3-28.3 22.1-55.6 31.5-82 28.2-6.5-.8-9.8-1.5-13.2-2.8-1.6-.6-3-1.1-3.3-1.1-.8-.1-3.3-1-9.2-3.4-14.8-6.1-34.8-20.6-51.3-37.1-11.3-11.3-21.5-22.8-29.9-33.7-1.7-2.3-3.9-5-4.8-6.1-1-1.1-6-7.9-11.2-15-5.2-7.2-10.2-13.9-11-15-.9-1.1-4.3-5.6-7.5-10-8.7-11.7-18.4-22.3-25.7-28-2-1.7-4.2-3.5-4.8-4.1-.6-.6-3.6-2.7-6.6-4.7-3-2-5.9-4-6.5-4.5-.5-.4-8.2-4.3-17-8.7-23.3-11.6-35.8-20.2-51-35-6.8-6.8-9.3-14.1-8.8-26 .5-13.3 6.2-32.8 14.5-50.3 2.3-4.8 4.2-8.9 4.2-9.2.2-1.2 12.6-22.4 18.3-31.3 3.5-5.4 6.3-10.2 6.3-10.7 0-.4.4-1 .8-1.2 1.3-.4 10.7-13.9 13-18.5 7.9-15.6 1-35.7-14.8-42.9-4.1-1.9-24.8-7.5-36.9-10-1.4-.3-2.8-.7-3.2-.9-.4-.3-2.4-.7-4.5-1.1-2.2-.3-4.3-.9-4.9-1.3-.5-.4-2.3-.8-4-1-1.6-.2-3.6-.8-4.2-1.3-.7-.6-1.3-.8-1.3-.5 0 .3-2.9-.3-6.5-1.3s-6.5-1.6-6.5-1.3c0 .3-.6.1-1.2-.4-.7-.6-2-1-2.8-1.1-1.3 0-24-5.8-31.2-7.9l-2.7-.8 7.4-11.5c4-6.3 11.2-17.6 15.9-25 4.7-7.4 9-14.2 9.6-15 .9-1.3 5-7.8 13.6-21 1.6-2.5 3.3-5.3 3.9-6.2 1-1.8 17.8-27.9 31.2-48.5 4-6.2 7.3-11.7 7.3-12.2 0-.6.6-1.4 1.3-1.8.6-.4 1.8-1.8 2.5-3.1.6-1.2 1.8-3.2 2.5-4.5.6-1.2 1.8-2.6 2.5-3 .6-.4 1.2-1.2 1.2-1.8 0-.5 3.3-6 7.3-12.2 4-6.1 8.8-13.7 10.7-16.7 1.9-3 3.8-5.7 4.2-5.8.5-.2.8-.9.8-1.6 0-.6.7-2.1 1.5-3.1 3-3.8 16.8-25.5 16.2-25.5-.1 0-47.9 47.6-106.1 105.8z"/><path d="M260.3 345.3c-2 2.4-9.8 23.7-8.7 23.7.2 0-.1 1.2-.7 2.7-1.8 4.6-2 6.4-2.3 16.8-.6 19.8 5.9 31.8 23.3 43 6 3.8 16.9 9.4 19.5 10 1.2.2 4.1 1.3 7.1 2.5 1.1.5 3.4 1.1 5 1.4 1.7.4 4.4.9 6 1.2 1.7.4 3.5.7 4 .9 4.2.9 8.9 1.6 13.9 1.9l5.8.5-.5-3.2c-1.6-8.5-3.3-14.7-5.9-20.3-1.2-2.7-2.1-5.2-2-5.7.1-.4-.3-.7-.8-.7-.6 0-1-.5-1-1.2 0-1.1-7.7-14.8-8.9-15.8-.4-.3-1.4-1.7-2.3-3.1-2.2-3.5-13.7-17.8-16.8-20.9-1.4-1.4-5-5.5-8.1-9-6.9-7.9-17.3-18.6-22.1-22.9-2.7-2.4-3.8-2.8-4.5-1.8z"/></svg>